<?xml version="1.0" encoding="utf-8"?>
<svg xmlns="http://www.w3.org/2000/svg" xmlns:xlink="http://www.w3.org/1999/xlink" version="1.1" id="Layer_1" x="0px" y="0px" viewBox="0 0 419.204 394.263" enable-background="new 0 0 419.204 394.263">
<g>
	<path fill="#FFFFFE" d="M418.506,319.72c-31.199-6.571-93.096-0.17-128.401,74.543c0,0-60.37-72.09-144.251-84.756&#xA;		c3.292-40.111-49.832-50.774-59.996-119.782c0,0-41.27-33.804-61.905-87.039l10.988,3.531c0,0-16.045-17.776-28.382-48.414&#xA;		l11.616,3.837C18.175,61.64,6.423,45.706,0,0c142.376,97.965,217.382,63.779,303.978,112.795&#xA;		c58.775,33.303,72.775,71.971,77.696,110.571c0,0,43.51,39.432,36.833,96.352"/>
	<path d="M412.566,311.375c0.933-48.448-37.104-82.863-37.104-82.863c-4.107-30.629-15.23-74.925-74.505-107.634&#xA;		C210.95,71.25,161.152,111.786,19.26,24.832c2.953,16.257,12.303,38.753,24.216,52.726l-14.67-4.813&#xA;		c10.665,22.488,27.745,42.887,36.688,49.509l-16.444-5.17c17.419,42.768,51.452,68.1,51.452,68.1&#xA;		c7.755,65.477,55.762,76.632,59.64,116.904c62.542,9.703,128.647,76.708,128.647,76.708&#xA;		C323.399,319.27,371.661,307.733,412.566,311.375"/>
	<path fill="#FFFFFE" d="M332.469,227.104c-13.601,21.902-36.595,15.798-44.792-11.511l16.579,1.01&#xA;		c-14.535-8.701-27.737-21.503-37.944-34.118c-3.004,60.332,53.743,87.413,72.512,45.043&#xA;		C336.703,227.511,334.582,227.367,332.469,227.104"/>
	<path fill="#97233F" d="M293.431,129.088C228.225,93.332,148.535,116.55,46.709,53.433c10.088,30.162,73.114,65.485,73.114,65.485&#xA;		l-55.771-18.141c14.204,24.661,72.342,55.561,72.342,55.561l-52.012-16.817c21.543,35.799,70.416,59.959,70.416,59.959&#xA;		l-30.036-2.173c3.886,33.659,50.366,62.641,52.835,88.618c21.025,8.039,48.118,22.055,69.236,40.222&#xA;		c40.371-19.856,29.239-87.039-47.736-182.338c105.874,6.401,102.955,84.934,163.724,73.643&#xA;		c-4.455-21.096-7.331-54.305-69.389-88.364"/>
	<path fill="#FFB612" d="M404.964,298.879c-14.823-14.763-45.962-29.831-83.83-34.373c16.13-4.482,34.491-14.381,42.017-29.78&#xA;		c16.053,10.162,38.411,39.228,41.813,64.152V298.879z M323.917,319.465c6.236-21.257-5.108-40.553-5.108-40.553&#xA;		c33.184-3.251,69.805,12.156,84.628,24.703c-23.172-4.678-54.897,2.02-79.52,15.849V319.465z"/>
	<path fill="#FFFFFE" d="M332.469,227.104c-13.601,21.902-36.595,15.798-44.792-11.511l16.579,1.01&#xA;		c-14.535-8.701-27.737-21.503-37.944-34.118c-3.004,60.332,53.743,87.413,72.512,45.043&#xA;		C336.703,227.511,334.582,227.367,332.469,227.104"/>
</g>
</svg>