<?xml version="1.0" encoding="utf-8"?>
<svg xmlns="http://www.w3.org/2000/svg" xmlns:xlink="http://www.w3.org/1999/xlink" version="1.1" id="Layer_1" x="0px" y="0px" viewBox="0 0 399.808 379.625" enable-background="new 0 0 399.808 379.625">
<g>
	<path fill="#A5ACAF" d="M374.999,81.428C321.148,47.416,197.797,21.401,105.789,0L0,113.768l90.806-1.941&#xA;		c-45.215,73.087-36.001,244.951,78.337,267.798c-5.887-11.289-16.107-32.029-2.858-57.705&#xA;		c9.436-18.263,61.894-118.661,61.894-118.661h12.557c17.005,0,22.602,6.396,15.06,15.413c45.328-0.578,73.162-17.726,85.652-36.05&#xA;		c-9.508-17.406-39.756-37.898-52.02-46.204h63.422c18.186,0,22.288,7.624,18.005,15.924&#xA;		C400.536,146.504,415.709,107.14,374.999,81.428"/>
	<path fill="#FFFFFE" d="M367.755,84.897c-73.348-41.161-254.966-68.596-254.966-68.596l-77.8,83.38h80.663&#xA;		c-59.557,78.734-46.36,237.668,41.222,270.709c-6.212-14.778-9.359-31.931,1.837-53.756&#xA;		c12.635-24.612,32.745-65.984,61.554-121.216h23.51c19.512,0,25.749,8.254,23.103,14.624c16.045,0,45.38-1.574,66.667-27.42&#xA;		c-17.732-24.787-76.366-53.689-76.366-53.689h100.588c14.781,0,22.169,5.26,20.126,14.169&#xA;		C403.591,130.548,396.91,101.255,367.755,84.897"/>
	<path d="M248.702,131.637c0,0,64.83,31.735,77.434,50.984c-6.64,8.837-16.793,15.026-30.387,18.134&#xA;		c8.688-6.674,10.334-13.091,4.994-13.091h-19.218c-3.281,3.231-5.03,9.069-0.629,14.954c-7.429-1.626-14.585-7.743-15.137-14.954&#xA;		h-40.69c5.433-10.876,21.111-41.961,25.486-50.524l-1.852-5.503H248.702z M364.706,90.425&#xA;		c28.386,15.584,26.513,37.052,18.119,44.139c0.15-7.665-7.378-13.369-20.957-13.369H229.241l14.255,7.64&#xA;		c0,0-85.358,170.053-91.91,183.473c-7.563,15.506-9.637,32.917-3.121,47.422c-16.886-10.711-30.145-27.946-39.478-48.955&#xA;		l-7.579-0.516l80.514-118.202c-0.17-0.759-0.32-1.528-0.454-2.292l-81.288,95.877c-4.163-15.465-6.562-32.133-7.078-49.229&#xA;		l-9.209-2.307l99.861-78.837c0.248-0.836,0.511-1.667,0.779-2.498L93.979,207.76c1.367-15.166,4.22-30.326,8.621-44.96&#xA;		l-9.369-5.306l106.578-35.539c0.475-0.728,0.96-1.45,1.445-2.163l-89.46,18.289c4.829-10.768,10.592-21.055,17.355-30.579&#xA;		l-8.286-7.82h106.986c0.299-0.599,0.593-1.187,0.887-1.765L69.447,85.73l45.292-48.785l-7.084-9.018&#xA;		c0,0,195.367,28.643,257.05,62.5L364.706,90.425z"/>
	<path fill="#FFFFFE" d="M371.717,102.659l1.703,7.536c-11.608,2.183-32.147,3.923-37.951,4.393&#xA;		c-0.284,0.578-0.578,1.156-0.877,1.75h30.573c12.129,0,17.237,5.755,18.315,9.064C385.069,120.875,383.604,108.734,371.717,102.659&#xA;		z M337.718,87.762c6.779,2.261,22.035,10.778,27.813,17.442h-10.963C350.245,98.091,337.718,87.762,337.718,87.762L337.718,87.762z"/>
	<path fill="#A71930" d="M108.404,181.95l65.155-35.596c0.351-0.883,0.717-1.771,1.099-2.653l-62.704,22.542&#xA;		c-1.393,5.172-2.574,10.422-3.55,15.708V181.95z M137.538,111.351c-2.874,3.939-5.541,8.037-8.022,12.27l63.731-11.392&#xA;		c0.557-0.733,1.125-1.466,1.692-2.183l-57.401,1.306V111.351z M177.97,228.613c-0.423-0.759-0.836-1.528-1.238-2.292&#xA;		l-52.907,79.818c2.776,5.26,5.845,10.179,9.183,14.696L177.97,228.613z M107.3,253.942l58.814-65.643&#xA;		c-0.046-0.939-0.077-1.874-0.098-2.808l-60.62,51.557C105.804,242.762,106.448,248.409,107.3,253.942L107.3,253.942z&#xA;		 M290.445,178.795l-46.174-6.896l-4.685,9.075h49.77l1.089-2.178L290.445,178.795z M322.339,96.195L110.937,66.927l12.934-14.014&#xA;		c71.207,11.01,156.369,28.416,199.608,41.016C323.113,94.667,322.726,95.426,322.339,96.195L322.339,96.195z"/>
</g>
</svg>