<?xml version="1.0" encoding="utf-8"?>
<svg xmlns="http://www.w3.org/2000/svg" xmlns:xlink="http://www.w3.org/1999/xlink" version="1.1" id="Layer_1" x="0px" y="0px" viewBox="0 0 479.839 260.572" enable-background="new 0 0 479.839 260.572">
<g>
	<path d="M439.887,25.3l0.007-0.007L439.887,25.3z M371.231,128.054c0,0,5.679-12.499,3.12-27.829c0,0-10.786-3.976-30.382,0&#xA;		c0,0-9.375,21.004-21.309,31.229c0,0,9.098-21.299,3.689-37.194c0,0,16.476-6.53,36.654-5.112&#xA;		c20.161,1.418,24.696,5.684,24.696,5.684s-5.107,24.134-16.469,33.222L371.231,128.054z M358.212,172.055&#xA;		c9.375-6.852,8.377-20.28,8.377-20.28c2.271,5.317,3.543,12.422,2.271,17.497c-1.272,5.064-4.559,10.138-18.258,11.396&#xA;		c-13.695,1.276-21.555-3.04-21.555-3.04c6.095-6.079,12.007-22.557,12.007-22.557c3.048,11.674,0.458,17.074,0.458,17.074&#xA;		c6.594,2.021,16.701-0.09,16.701-0.09H358.212z M379.784,169.837c3.301,24.096-18.129,34.21-30.036,34.21&#xA;		c-11.913,0-28.288-5.057-34.536-25.288c-6.248-20.238-6.248-45.235,1.786-57.436c0,0-5.35,24.103-2.378,37.797&#xA;		c2.975,13.687,8.63,25.292,19.641,27.382c11.018,2.076,27.394,1.483,33.34-5.369c5.963-6.845,8.338-16.661,2.389-30.058&#xA;		c-5.96-13.382-17.863-30.65,1.803-47.897c0,0-8.647,10.405-5.374,25.59c3.269,15.171,10.055,16.98,13.366,41.069L379.784,169.837z&#xA;		 M302.856,70.178c-44.854-6.17-81.647,2.991-81.647,2.991c36.131-11.642,68.982-10.187,85.176-8.332&#xA;		c-1.515,1.858-2.68,3.646-3.53,5.341H302.856z M300.751,81.332c-43.838-3.036-78.603,7.708-78.603,7.708&#xA;		c31.61-12.155,61.194-13.757,78.769-13.268C300.515,77.883,300.536,79.765,300.751,81.332L300.751,81.332z M226.912,144.712&#xA;		c-16.736-20.526-9.691-47.956-9.691-47.956s0.628,23.528,21.163,44.313c20.543,20.793,46.036,26.418,46.036,26.418&#xA;		s-40.77-2.236-57.509-22.775H226.912z M316.984,55.361c-2.306,1.601-4.292,3.171-6.022,4.724&#xA;		c-48.002-11.337-89.982-3.303-89.982-3.303C272.962,43.15,316.984,55.361,316.984,55.361z M279.55,30.243l0.01-0.01l0.014-0.007&#xA;		c0.721-0.308,15.332-6.412,30.247-3.022c15.3,3.483,24.793,13.85,24.793,13.85s-13.74-4.118-39.203-3.664&#xA;		c0,0-1.002-1.854,1.619-5.736c0,0-4.081-1.192-17.485-1.411h0.003L279.55,30.243z M392.221,34.485&#xA;		c7.829-1.574,14.974,2.45,18.331,5.58c0,0-18.102-3.348-26.586,4.468C383.966,44.533,384.413,36.041,392.221,34.485z&#xA;		 M478.493,94.184c-17.689-9.646-37.75-12.644-53.14-13.244c0,0-6.262,0.114-7.229,0.087c0.316-2.561,0.236-4.856-0.17-6.884&#xA;		c3.821-0.114,8.657-0.267,9.365-0.302l0.582-0.035c30.84-1.009,47.146,7.14,47.146,7.14l-1.564-1.189&#xA;		c-15.02-6.96-30.913-9.507-44.66-9.896h-0.551c0,0-6.64-0.01-11.691,0.083c-1.383-2.918-3.405-5.119-5.443-6.728&#xA;		c6.494-0.038,14.018-0.017,18.351,0.177l0.316,0.01c23.729,0.25,36.672,5.871,36.672,5.871l-1.557-1.224&#xA;		c-11.771-5.022-23.798-7.296-35.073-8.048c0,0-14.701-0.787-26.034-0.721c3.283,2.485,5.794,6.062,6.036,11.202&#xA;		c0.77,15.833-15.585,22.214-15.585,22.214c3.842-2.558,10.734-11.23,8.952-22.474c-1.796-11.23-16.351-16.568-16.351-16.568&#xA;		s-17.048,7.386-20.747,21.292c0,0,0.288-14.474-23.861-23.85c0,0,11.362-3.404,23.583-2.558c12.211,0.86,21.025,5.116,21.025,5.116&#xA;		s2.25-5.951,14.232-7.986c11.993-2.035,24.956,0.898,24.956,0.898c-2.392-4.367-5.149-10.738-17.204-15.66&#xA;		c-12.045-4.922-22.852-0.468-22.852-0.468s-0.784-5.816-9.541-11.48c-14.232-9.202-51.871-14.686-59.131-15.081&#xA;		c-7.246-0.381,5.443,4.288,10.526,7.189c5.78,3.289,12.246,8.88,12.801,14.187c0.142,1.428-0.194,2.669-0.832,3.705&#xA;		c-0.513-1.483-1.584-3.379-3.467-5.799c-10.311-13.237-36.46-18.963-56.087-17.656c-19.624,1.31-35.219,8.731-35.219,8.731&#xA;		c0.225,1.813-7.236,8.138-27.817,10.409c-19.61,2.149-33.451-1.435-38.429-2.173l-0.378-0.073c-2.018-0.25-3.533-0.159-4.167,1.293&#xA;		l-0.066,0.201l-0.042,0.27c-0.087,1.012,0.534,2.409,0.534,2.409l-0.288-0.551c1.397,2.679,9.739,18.055,20.733,25.947&#xA;		c0,0,6.57-1.393,14.364-2.232c0,0-120.461,58.611-169.264,150.184c21.264-2.496,49.243-4.104,79.615-1.428l-0.205-0.021h-0.017&#xA;		c4.386-7.376,26.395-48.563,78.735-73.868c0,0-38.7,26.897-52.454,77.224c17.498,2.967,35.371,7.57,52.873,14.381&#xA;		c56.254,21.916,103.673,44.83,157.129,44.358l9.087-0.399l-0.017-0.042c-14.201-29.59-28.181-43.114-28.181-43.114&#xA;		c10.571,1.896,19.111-1.116,19.267-1.168c0.794-0.288,1.48-0.572,2.056-0.835c17.485-9.424,20.4-25.375,21.836-36.802&#xA;		c1.643-13.213-0.7-21.663-0.7-21.663s30.268-39.721,37.951-70.964c0,0,3.876-0.53,6.858-0.468&#xA;		c36.068,0.406,55.779,10.426,55.779,10.426l-1.345-1.355L478.493,94.184z M439.46,26.582c0.111-0.253,0.198-0.489,0.267-0.721&#xA;		l0.159-0.579l-0.003-0.028c-0.697-1.986-2.077-2.132-4.996-1.903c-4.247,0.808-8.172,1.324-11.48,1.65h0.007l-0.541,0.059&#xA;		l-0.385,0.035l-1.432,0.132l-0.205,0.007c-4.258,0.35-6.955,0.367-6.955,0.367c10.883,8.228,12.156,20.97,12.156,20.97l0.558-0.475&#xA;		C434.962,40.034,439.459,26.582,439.46,26.582L439.46,26.582z"/>
	<path fill="#BFC0BF" d="M326.35,94.261c5.409,15.895-3.689,37.194-3.689,37.194c11.934-10.225,21.309-31.229,21.309-31.229&#xA;		c19.596-3.976,30.382,0,30.382,0c2.559,15.33-3.12,27.829-3.12,27.829c11.362-9.088,16.469-33.222,16.469-33.222&#xA;		s-4.535-4.267-24.696-5.684C342.826,87.731,326.351,94.261,326.35,94.261L326.35,94.261z M392.222,34.486&#xA;		c-7.808,1.556-8.255,10.048-8.255,10.048c8.484-7.816,26.586-4.468,26.586-4.468C407.197,36.936,400.051,32.912,392.222,34.486z&#xA;		 M358.213,172.057c0,0-10.107,2.111-16.701,0.09c0,0,2.59-5.4-0.458-17.074c0,0-5.911,16.478-12.007,22.557&#xA;		c0,0,7.86,4.315,21.555,3.04c13.699-1.258,16.985-6.332,18.258-11.396c1.272-5.074,0-12.18-2.271-17.497&#xA;		c0,0,0.999,13.427-8.377,20.28H358.213z M309.823,27.204c-14.915-3.39-29.526,2.714-30.247,3.022&#xA;		c0.707-0.302,14.659-6.125,29.207-3.241c-8.266-1.567-11.75,4.669-11.75,4.669c-2.621,3.882-1.619,5.736-1.619,5.736&#xA;		c25.462-0.454,39.203,3.664,39.203,3.664s-9.493-10.367-24.793-13.85H309.823z"/>
	<path fill="#0085CA" d="M417.202,85.582c-7.683,31.243-37.951,70.964-37.951,70.964l0.014-0.014&#xA;		c22.876-19.51,38.124-54.018,44.795-71.418C421.078,85.052,417.202,85.582,417.202,85.582L417.202,85.582z M418.124,81.028&#xA;		c0.967,0.028,7.229-0.087,7.229-0.087c0.579-1.948,1.286-4.43,1.966-7.098c-0.707,0.035-5.544,0.187-9.365,0.302&#xA;		C418.36,76.173,418.439,78.467,418.124,81.028L418.124,81.028z M366.419,128.769c-3.273-15.185,5.374-25.59,5.374-25.59&#xA;		c-19.665,17.247-7.763,34.515-1.803,47.897c5.95,13.396,3.575,23.212-2.389,30.058c-5.946,6.852-22.321,7.445-33.34,5.369&#xA;		c-11.012-2.09-16.666-13.694-19.641-27.382c-2.971-13.694,2.378-37.797,2.378-37.797c-8.033,12.2-8.033,37.198-1.786,57.436&#xA;		c6.248,20.231,22.623,25.288,34.536,25.288c11.906,0,33.336-10.114,30.036-34.21c-3.311-24.089-10.096-25.898-13.366-41.069&#xA;		L366.419,128.769z M440.081,23.685l-0.042-0.392l-0.031-0.201l-0.107-0.34l-0.066-0.177l-0.142-0.295l-0.076-0.142l-0.187-0.263&#xA;		l-0.104-0.114l-0.205-0.215l-0.107-0.097l-0.239-0.18l-0.114-0.08l-0.246-0.135l-0.114-0.066l-0.25-0.111l-0.107-0.052&#xA;		l-0.236-0.083l-0.104-0.031l-0.229-0.062l-0.076-0.024l-0.211-0.038l-0.062-0.014l-0.163-0.021l-0.038-0.01l-0.184-0.021&#xA;		c-15.033,0.163-27.376-4.936-27.376-4.936l-1.012-0.364C374.834,2.996,340.149-0.504,309.267,0.057l-0.01-0.031&#xA;		c-13.792,0.128-23.861,1.255-23.861,1.255c-44.341,3.747-76.127,14.37-76.127,14.37s-12.069,3.397-28.136,2.596&#xA;		c0,0-5.967-0.104-7.146,3.695c-1.009,2.419-1.148,5.296,1.123,11.594c2.621,7.265,13.106,20.921,13.185,21.022&#xA;		C156.581,67.438,73.991,113.748,0,206.867c0,0,15.637-4.062,40.229-6.942C89.032,108.352,209.493,49.741,209.493,49.741&#xA;		c-7.794,0.839-14.364,2.232-14.364,2.232c-10.994-7.892-19.336-23.268-20.733-25.947l0.288,0.551c0,0-0.621-1.397-0.534-2.409&#xA;		l0.042-0.27l0.066-0.201c0.634-1.452,2.15-1.542,4.167-1.293l0.378,0.073c4.979,0.738,18.819,4.322,38.429,2.173&#xA;		c20.581-2.27,28.042-8.596,27.817-10.409c0,0,15.595-7.421,35.219-8.731c19.627-1.307,45.776,4.419,56.087,17.656&#xA;		c1.883,2.419,2.954,4.315,3.467,5.799c0.638-1.036,0.974-2.277,0.832-3.705c-0.555-5.307-7.021-10.897-12.801-14.187&#xA;		c-5.083-2.901-17.772-7.57-10.526-7.189c7.26,0.395,44.899,5.878,59.131,15.081c8.758,5.664,9.541,11.48,9.541,11.48&#xA;		s10.807-4.454,22.852,0.468c12.055,4.922,14.811,11.292,17.204,15.66c0,0-1.272-12.741-12.156-20.97c0,0,2.697-0.017,6.955-0.367&#xA;		l0.205-0.007l1.432-0.132l0.385-0.035l0.541-0.059h-0.007c3.308-0.326,7.232-0.842,11.48-1.65c2.919-0.229,4.299-0.083,4.996,1.903&#xA;		l0.003,0.028l-0.159,0.579c-0.069,0.232-0.156,0.468-0.267,0.721c0,0-4.497,13.452-12.849,19.514l-0.558,0.475&#xA;		c0,0-12.964-2.932-24.956-0.898c-11.982,2.035-14.232,7.986-14.232,7.986s14.555,5.338,16.351,16.568&#xA;		c1.782,11.244-5.111,19.916-8.952,22.474c0,0,16.354-6.381,15.585-22.214c-0.243-5.14-2.753-8.717-6.036-11.202&#xA;		c11.334-0.066,26.034,0.721,26.034,0.721c0.069-4.385-0.659-7.996-2.33-11.123c8.699-7.549,11.913-19.049,12.371-23.583&#xA;		l0.007-0.007v-0.01c0.042-0.153,0.121-0.565,0.135-0.655l0.024-0.26c0.021-0.153,0.028-0.305,0.028-0.451v-0.232L440.081,23.685z&#xA;		 M342.257,51.101c24.148,9.376,23.861,23.85,23.861,23.85c3.699-13.906,20.747-21.292,20.747-21.292s-8.813-4.256-21.025-5.116&#xA;		C353.618,47.697,342.257,51.101,342.257,51.101z M411.138,63.218c2.039,1.608,4.06,3.809,5.443,6.728&#xA;		c5.052-0.094,11.691-0.083,11.691-0.083c0.478-2.135,0.901-4.284,1.193-6.294l0.024-0.173&#xA;		C425.155,63.202,417.631,63.181,411.138,63.218L411.138,63.218z M356.06,215.845c-0.156,0.052-8.696,3.064-19.267,1.168&#xA;		c0,0,13.979,13.525,28.181,43.114l0.017,0.042l0.555-0.035c-1.373-13.486-7.132-36.071-8.463-40.248L356.06,215.845L356.06,215.845&#xA;		z M238.386,141.068c-20.536-20.786-21.163-44.313-21.163-44.313s-7.045,27.43,9.691,47.956&#xA;		c16.739,20.54,57.509,22.775,57.509,22.775S258.929,161.861,238.386,141.068L238.386,141.068z M119.62,198.473h0.017l0.205,0.021&#xA;		c0.766,0.066,3.217,0.295,3.353,0.315c0.333,0.028,4.542,0.468,4.58,0.471c5.974,0.669,12.024,1.508,18.126,2.548&#xA;		c13.754-50.327,52.454-77.224,52.454-77.224c-52.339,25.306-74.349,66.493-78.735,73.868V198.473z M220.981,56.781&#xA;		c0,0,41.98-8.034,89.982,3.303c1.73-1.553,3.717-3.123,6.022-4.724C316.985,55.36,272.963,43.149,220.981,56.781z M221.21,73.168&#xA;		c0,0,36.793-9.161,81.647-2.991c0.849-1.695,2.014-3.483,3.53-5.341c-16.195-1.854-49.046-3.31-85.176,8.332H221.21z&#xA;		 M308.782,26.983c-14.548-2.884-28.5,2.939-29.207,3.241l-0.014,0.007l-0.01,0.01h-0.003c13.404,0.218,17.485,1.411,17.485,1.411&#xA;		S300.517,25.417,308.782,26.983L308.782,26.983z M222.149,89.039c0,0,34.765-10.745,78.603-7.708&#xA;		c-0.215-1.567-0.236-3.449,0.166-5.56C283.343,75.282,253.758,76.884,222.149,89.039L222.149,89.039z"/>
</g>
</svg>