<?xml version="1.0" encoding="utf-8"?>
<svg xmlns="http://www.w3.org/2000/svg" xmlns:xlink="http://www.w3.org/1999/xlink" version="1.1" id="Layer_1" x="0px" y="0px" viewBox="0 0 449.763 295.171" enable-background="new 0 0 449.763 295.171">
<g>
	<path fill="#FFB612" d="M223.689,0C102.44,0.011,0,67.942,0,148.351c0,83.703,96.171,146.82,223.689,146.82&#xA;		c74.424,0,144.985-26.149,188.756-69.942c24.094-24.102,37.344-51.413,37.318-76.878c-0.032-39.647-23.362-76.883-65.691-104.863&#xA;		C341.632,15.44,284.68,0,223.689,0"/>
	<path fill="#203731" d="M67.26,246.668C28.358,220.73,6.928,185.803,6.928,148.351C6.928,73.02,108.221,6.935,223.69,6.925&#xA;		C344.465,6.92,442.768,70.363,442.842,148.351c0.021,23.628-12.513,49.187-35.296,71.984&#xA;		c-42.497,42.52-111.226,67.911-183.855,67.911c-60.68,0-116.238-14.771-156.429-41.578"/>
	<path fill="#FFFFFE" d="M320.728,109.499c-17.414-25.928-55.542-43.909-100.44-43.909c-61.622,0-111.589,33.884-111.589,75.678&#xA;		c0,41.788,35.27,78.483,111.589,78.441c45.83-0.021,82.679-19.808,99.892-45.798l-130.177,0.226l-0.4-33.805l225.969-0.079&#xA;		c0.305,2.71,0.621,5.352,0.621,8.099c0,65.069-86.19,117.814-192.504,117.814c-106.309,0-192.494-52.745-192.494-117.814&#xA;		S122.496,28.544,223.689,28.149c84.226-0.321,155.824,34.468,181.934,81.298l-84.895,0.053"/>
</g>
</svg>