<?xml version="1.0" encoding="utf-8"?>
<svg xmlns="http://www.w3.org/2000/svg" xmlns:xlink="http://www.w3.org/1999/xlink" version="1.1" id="Layer_1" x="0px" y="0px" viewBox="0 0 409.474 373.898" enable-background="new 0 0 409.474 373.898">
<g>
	<path fill="#FFFFFE" d="M302.116,63.7c87.622,66.727,20.941,76.716-47.487,86.461c0,0-28.875-7.971-78.911-32.843&#xA;		c-113.479-56.4-77.752-82.976,11.435-99.056C44.411-43.966-74.56,64.378,56.685,169.732l-36.014,25.762&#xA;		c29.583,18.148,90.878,56.218,81.973,114.516l-30.422,21.758l92.907,42.13l73.312-33.244&#xA;		c0.532-32.286,58.195-49.055,83.006-114.729c136.58-31.358,101.793-151.583-19.332-162.224"/>
	<path fill="#03202F" d="M196.476,263.02l-26.339-29.979l-30.24,4.512l13.977-23.042l-26.333-29.998l34.981,15.754l13.946-23.048&#xA;		l7.627,32.768l34.974,15.729l-30.253,4.524l7.659,32.78H196.476z M239.685,156.313C68.238,90.05,56.885,35.688,163.9,16.901&#xA;		C30.064-19.489-48.001,77.574,84.42,170.137l-35.532,25.417c37.73,25.223,77.714,62.584,64.15,121.377l-17.904,12.79l68.765,31.195&#xA;		c63.994-70.142,97.465-138.291,75.785-204.603H239.685z"/>
	<path fill="#A71930" d="M326.718,74.14c58.84,46.097,17.985,75.55-53.749,83.552c18.148,76.552-37.498,146.669-96.413,200.962&#xA;		l54.018-24.49c3.995-31.113,58.802-47.294,84.772-116.332C437.328,190.598,417.42,102.997,326.718,74.14"/>
</g>
</svg>