<?xml version="1.0" encoding="utf-8"?>
<svg xmlns="http://www.w3.org/2000/svg" xmlns:xlink="http://www.w3.org/1999/xlink" version="1.1" id="Layer_1" x="0px" y="0px" viewBox="0 0 360.934 378.341" enable-background="new 0 0 360.934 378.341">
<g>
	<path fill="#FFFFFE" d="M179.657,378.341c-36.435,0.163-64.374-10.241-77.746-17.299c-26.199-13.752-47.785-31.959-66.37-57.229&#xA;		c-26.709-36.226-31.879-65.395-34.007-81.28c-1.251-8.271-2.738-28.15,0.053-45.984c3.158-25.732,9.006-38.549,13.189-51.092&#xA;		c3.253-8.917,13.746-30.378,19.973-40.22c5.291-7.714,14.954-21.928,18.895-26.946c1.077-1.576-0.321-0.83-0.914-0.814&#xA;		c-1.445,0.352-2.191,0.441-3.305,0.352c-0.835,0-2.506-0.279-3.436-0.557c-5.202-1.109-12.637-6.873-11.707-16.91&#xA;		c-0.184-2.228,2.228-21.36,4.088-27.309C40.787,4.698,45.8,0.794,54.722,0.048c4.456,0,23.22-0.373,31.743,0.956&#xA;		c17.067,1.697,29.562,6.663,36.992,21.713c5.948,13.189,3.909,33.814-4.267,49.605c-2.79,5.386-8.36,15.423-13.194,21.923&#xA;		c-4.456,6.5-6.316,9.853-10.22,17.094c-3.899,7.614-16.904,36.042-21.36,54.618c-8.481,34.671-3.72,54.623,12.627,81.753&#xA;		c12.08,18.018,26.199,31.029,37.16,36.972c18.023,11.329,42.635,14.493,55.457,14.493c12.821,0,37.433-3.163,55.462-14.493&#xA;		c10.956-5.943,25.075-18.954,37.15-36.972c16.352-27.13,21.113-47.082,12.637-81.753c-4.456-18.575-17.466-47.004-21.365-54.618&#xA;		c-3.899-7.241-5.759-10.594-10.22-17.094c-4.824-6.5-10.404-16.537-13.194-21.923c-8.171-15.79-10.21-36.415-4.267-49.605&#xA;		c7.425-15.05,19.931-20.015,36.992-21.713c8.518-1.329,27.287-0.956,31.743-0.956c8.922,0.746,13.94,4.65,16.352,13.005&#xA;		c1.855,5.948,4.277,25.081,4.088,27.309c0.93,10.037-6.5,15.801-11.707,16.91c-0.92,0.279-2.601,0.557-3.436,0.557&#xA;		c-1.114,0.089-1.855,0-3.305-0.352c-0.594-0.016-1.991-0.762-0.914,0.814c3.941,5.018,13.599,19.232,18.901,26.946&#xA;		c6.221,9.842,16.72,31.302,19.967,40.22c4.183,12.543,10.031,25.359,13.189,51.092c2.79,17.835,1.303,37.713,0.058,45.984&#xA;		c-2.133,15.885-7.293,45.054-34.013,81.28c-18.585,25.27-40.171,43.478-66.365,57.229c-13.373,7.057-41.311,17.13-77.752,17.299"/>
	<path fill="#002C5F" d="M179.457,342.53c2.412,0,4.372-1.955,4.372-4.367c0-2.417-1.96-4.377-4.372-4.377&#xA;		c-2.417,0-4.372,1.96-4.372,4.377C175.085,340.575,177.04,342.53,179.457,342.53z M63.079,287.166c2.417,0,4.372-1.955,4.372-4.372&#xA;		s-1.955-4.377-4.372-4.377c-2.412,0-4.372,1.96-4.372,4.377S60.667,287.166,63.079,287.166z M37.074,186.102&#xA;		c2.412,0,4.372-1.96,4.372-4.372c0-2.422-1.96-4.377-4.372-4.377c-2.417,0-4.372,1.955-4.372,4.377&#xA;		C32.702,184.142,34.657,186.102,37.074,186.102z M88.348,67.193c2.417,0,4.372-1.955,4.372-4.372c0-2.417-1.955-4.372-4.372-4.372&#xA;		s-4.377,1.955-4.377,4.372C83.971,65.238,85.931,67.193,88.348,67.193z M300.643,282.795c0-2.417-1.96-4.377-4.372-4.377&#xA;		s-4.377,1.96-4.377,4.377s1.965,4.372,4.377,4.372S300.643,285.212,300.643,282.795z M326.653,181.731&#xA;		c0-2.422-1.96-4.377-4.377-4.377c-2.412,0-4.372,1.955-4.372,4.377c0,2.412,1.96,4.372,4.372,4.372&#xA;		C324.693,186.103,326.653,184.143,326.653,181.731z M275.379,62.822c0-2.417-1.96-4.372-4.377-4.372s-4.372,1.955-4.372,4.372&#xA;		c0,2.417,1.955,4.372,4.372,4.372S275.379,65.239,275.379,62.822z M98.19,348.774c-23.777-14.114-45.331-31.949-66.139-66.278&#xA;		c-9.29-16.952-30.839-52.994-20.214-115.788c12.259-57.413,36.94-86.398,51.059-106.277c6.684-9.658-0.189-15.233-5.58-13.189&#xA;		c-4.514,1.713-7.614,1.823-7.614,1.823c-7.987-1.082-6.873-6.279-5.386-19.847l1.86-11.145c1.666-9.847,6.127-9.663,17.829-9.437&#xA;		c18.58,0.368,21.922,0.52,31.958,2.375c13.378,2.974,30.839,16.353,17.093,53.136c-8.549,19.695-17.466,26.379-27.129,46.82&#xA;		c-10.404,22.669-35.668,73.572-18.575,117.049c23.409,58.338,68.74,79.147,111.843,79.893&#xA;		c43.103-0.562,92.89-26.016,112.805-79.893c17.093-43.478-8.171-94.38-18.58-117.049c-9.658-20.441-18.575-27.125-27.124-46.82&#xA;		c-13.746-36.783,3.72-50.162,17.093-53.136c10.031-1.855,13.378-2.007,31.958-2.375c11.702-0.226,16.168-0.41,17.839,9.437&#xA;		l1.855,11.145c1.482,13.568,2.601,18.765-5.386,19.847c0,0-3.1-0.11-7.619-1.823c-5.391-2.044-12.269,3.531-5.58,13.189&#xA;		c14.124,19.879,38.794,48.864,51.059,106.277c10.625,62.794-10.924,98.836-20.214,115.788&#xA;		c-20.803,34.329-42.357,52.164-66.139,66.278c-32.552,22.674-93.484,21.366-81.782,20.63c12.264,0.93-44.774,2.412-81.188-20.63&#xA;		H98.19z"/>
</g>
</svg>