<?xml version="1.0" encoding="utf-8"?>
<svg xmlns="http://www.w3.org/2000/svg" xmlns:xlink="http://www.w3.org/1999/xlink" version="1.1" id="Layer_1" x="0px" y="0px" viewBox="0 0 379.998 458.327" enable-background="new 0 0 379.998 458.327">
<g>
	<path d="M336.156,181.526c-33.703-19.594-66.876-15.06-92.034-3.846c-1.11-8.276-3.268-17.36-6.872-27.99&#xA;		c-5.335-15.81-11.183-30.92-16.336-44.255c-6.776-17.513-11.933-32.519-14.762-42.556L187.816,0L168.78,62.921&#xA;		c-2.908,9.996-7.928,25.08-14.667,42.61c-5.124,13.344-10.931,28.47-16.232,44.28c-3.562,10.646-5.716,19.739-6.801,28.027&#xA;		c-25.187-11.164-58.377-15.632-92.034,4.036c-27.515,16.1-42.248,44.073-38.458,73.016c3.459,26.332,21.455,47.02,46.953,54.032&#xA;		l18.991,5.217l4.647-19.142c0.667-2.598,7.518-26.564,29.089-26.129c14.965,0.311,27.387,13.543,33.6,22.101&#xA;		c-2.009,6.05-3.077,13.303-2.054,21.114l-8.45-11.272l-15.28,11.396c-13.76,10.253-33.74,35.594-21.393,65.503&#xA;		c5.385,13.042,16.961,21.927,32.593,25.043c9.56,1.902,20.42,1.459,30.485-0.754c3.96,12.718,11.179,28.106,24.309,41.848&#xA;		l13.851,14.48l13.805-14.513c13.105-13.775,20.279-29.187,24.226-41.91c10.069,2.176,20.921,2.598,30.481,0.671&#xA;		c15.623-3.141,27.175-12.06,32.535-25.114c12.281-29.942-7.774-55.238-21.546-65.457l-15.309-11.351l-8.421,11.285&#xA;		c1.011-7.812-0.083-15.056-2.104-21.119c6.196-8.562,18.585-21.827,33.546-22.167c21.575-0.485,28.472,23.464,29.193,26.199&#xA;		l4.685,19.134c-0.029-0.145,18.945-5.404,18.945-5.404c25.494-7.062,43.428-27.803,46.825-54.152&#xA;		c3.724-28.935-11.08-56.879-38.632-72.904"/>
	<path fill="#FFFFFE" d="M181.495,65.61c-2.324,10.949-8.313,26.531-15.251,44.587c-5.082,13.22-10.835,28.201-16.042,43.742&#xA;		c-4.995,14.931-7.033,26.058-7.033,36.435c0,3.319,0.381,6.564,0.77,9.826c-19.206-13.195-57.051-31.235-98.326-7.099&#xA;		c-22.926,13.415-35.24,36.431-32.142,60.09c2.759,21.044,17.131,37.604,37.514,43.207l6.047,1.658l1.504-6.108&#xA;		c0.377-1.496,9.456-36.721,41.991-36.067c26.185,0.526,43.3,25.996,47.923,33.825c-2.199,4.07-4.026,9.681-4.026,16.121&#xA;		c0,6.904,2.348,14.757,8.342,22.631c-2.39,3.241-6.304,7.215-10.873,7.592c-6.515,0.535-13.109-6.328-17.492-12.188l-3.657-4.882&#xA;		l-4.892,3.651c-10.007,7.464-26.484,27.538-17.16,50.119c3.732,9.026,11.726,14.989,23.12,17.256&#xA;		c11.78,2.337,26.649,0.211,37.211-4.604c2.046,11.923,7.841,32.101,24.446,49.461l4.432,4.637l4.419-4.646&#xA;		c16.564-17.41,22.313-37.604,24.33-49.535c10.579,4.791,25.469,6.888,37.249,4.509c11.374-2.292,19.351-8.28,23.054-17.306&#xA;		c9.257-22.598-7.244-42.639-17.268-50.078l-4.896-3.634l-3.649,4.898c-4.374,5.86-10.955,12.747-17.475,12.221&#xA;		c-4.564-0.373-8.487-4.331-10.885-7.559c5.952-7.861,8.284-15.686,8.284-22.573c0-6.477-1.843-12.109-4.063-16.191&#xA;		c4.606-7.832,21.671-33.36,47.844-33.945c32.531-0.729,41.701,34.479,42.074,35.98l1.52,6.084l6.047-1.658&#xA;		c20.362-5.648,34.697-22.233,37.406-43.286c3.048-23.667-9.315-46.663-32.27-60.02c-41.358-24.061-79.186-5.893-98.347,7.352&#xA;		c0.356-3.174,0.725-6.324,0.725-9.561c0-10.489-2.025-21.798-7.062-36.713c-5.24-15.512-11.026-30.468-16.133-43.667&#xA;		c-6.983-18.044-13.006-33.626-15.354-44.575l-6.014-28.073l-5.944,28.085"/>
	<path d="M187.927,430.631c23.423-24.616,23.704-55.664,23.704-55.664c10.363,10.336,50.636,17.248,59.665-4.766&#xA;		c9.903-24.169-15.251-42.842-15.251-42.842c-24.38,32.697-40.736,0.696-40.736,0.696c18.564-20.074,4.635-38.172,4.635-38.172&#xA;		c1.214-3.634,21.803-39.597,54.769-40.335c37.994-0.858,48.146,40.625,48.146,40.625c39.842-11.048,47.537-66.622,3.695-92.121&#xA;		c-55.635-32.366-104.108,16.941-104.108,16.941c4.511-18.454,5.795-32.246-3.301-59.195&#xA;		c-12.331-36.539-27.445-69.187-31.669-88.917c-4.188,19.734-19.235,52.436-31.475,89c-9.025,26.974-7.7,40.766-3.164,59.203&#xA;		c0,0-48.585-49.187-104.141-16.697c-43.789,25.607-35.961,81.151,3.906,92.108c0,0,10.053-41.504,48.051-40.729&#xA;		c32.974,0.655,53.638,36.568,54.86,40.194c0,0-13.888,18.139,4.726,38.164c0,0-16.29,32.055-40.732-0.588&#xA;		c0,0-25.129,18.727-15.16,42.871c9.087,21.993,49.335,14.985,59.673,4.625c0,0,0.356,31.048,23.825,55.606"/>
	<path fill="#D3BC8D" d="M287.587,196.316c-45.276,0.046-82.4,51.491-82.4,51.491c1.611-8.417,20.967-46.29,3.45-91.557&#xA;		c-17.516-45.263-21.091-63.497-21.091-63.497l-0.083,0.518v-0.506c0,0-3.541,18.238-20.95,63.551&#xA;		c-17.413,45.308,2.038,83.14,3.661,91.54c0,0-37.245-51.35-82.52-51.292c-45.268,0.05-82.959,51.599-41.126,82.042&#xA;		c0,0,12.244-38.035,54.438-38.114c31.032-0.066,62.121,33.24,63.438,49.747c0,0-14.207,20.07,5.546,36.866&#xA;		c0,0-21.339,44.914-50.925,12.561c0,0-22.752,28.479,7,35.375c23.605,5.462,46.854-18.495,46.854-18.495&#xA;		s-2.535,37.844,14.948,58.528v-0.186l0.087,0.178c17.438-20.721,14.812-58.569,14.812-58.569s23.307,23.908,46.912,18.383&#xA;		c29.731-6.962,6.909-35.391,6.909-35.391c-29.503,32.42-50.938-12.437-50.938-12.437c19.699-16.846,5.443-36.879,5.443-36.879&#xA;		c1.276-16.494,32.278-49.883,63.322-49.892c42.202,0,54.533,37.994,54.533,37.994C370.67,247.737,332.854,196.258,287.587,196.316"/>
</g>
</svg>