<?xml version="1.0" encoding="utf-8"?>
<svg xmlns="http://www.w3.org/2000/svg" xmlns:xlink="http://www.w3.org/1999/xlink" version="1.1" id="Layer_1" x="0px" y="0px" viewBox="0 0 479.882 285.537" enable-background="new 0 0 479.882 285.537">
<g>
	<g>
		<path fill="#115740" d="M465.913,130.446c-8.155-27.043-43.449-59.167-94.521-86.006c-45.202-23.753-98.48-32.156-130.666-32.156&#xA;			h-1.541c-32.199,0-85.492,8.403-130.691,32.156c-51.079,26.84-86.373,58.963-94.525,86.007c-0.707,3.93-1.041,7.919-0.999,11.912&#xA;			v0.135c-0.044,3.994,0.29,7.982,0.995,11.913c8.153,27.044,43.449,59.166,94.52,86.006c45.464,23.89,99.094,32.263,131.24,32.155&#xA;			h0.965c32.2,0,85.498-8.403,130.697-32.156c51.071-26.837,86.367-58.962,94.521-86.005c0.705-3.932,1.038-7.922,0.994-11.916&#xA;			v-0.131c0.045-3.994-0.287-7.983-0.991-11.914L465.913,130.446z"/>
		<path fill="#FFFFFF" d="M310.774,97.107l3.928-7.446h1.963c1.259,0,1.889,0.482,1.889,1.445c-0.031,0.55-0.197,1.084-0.482,1.556&#xA;			l-2.366,4.445h13.781l1.89-3.449c0.507-0.829,0.8-1.771,0.853-2.742c0-1.407-1.087-2.456-3.26-3.148&#xA;			c1.178-0.166,2.334-0.464,3.445-0.889c0.982-0.469,1.873-1.108,2.631-1.889c1.542-1.494,2.397-3.558,2.365-5.705&#xA;			c0.079-1.238-0.351-2.456-1.189-3.371c-1.087-1.086-3.051-1.63-5.89-1.63h-21.11l-12.155,22.823h13.708L310.774,97.107z&#xA;			 M319.666,80.067h2.037c0.937,0,1.405,0.37,1.405,1.111c-0.02,0.444-0.147,0.876-0.371,1.26l-0.556,1.037&#xA;			c-0.476,1.139-1.576,1.893-2.81,1.926h-2.631l2.925-5.334L319.666,80.067z M189.627,97.107l7.484-8.854L195,97.107h13.706&#xA;			l20.377-22.818h-12.41l-8.225,10.705l3.038-10.705h-12.97l-7.854,10.632l2.702-10.632h-13.147l-4.297,22.818H189.627&#xA;			L189.627,97.107z M266.425,85.436c-0.964,1.756-1.52,3.707-1.626,5.707c-0.009,2.166,1.338,4.105,3.371,4.853&#xA;			c2.371,1.136,6.15,1.704,11.337,1.703c7.286,0,12.399-1.469,15.338-4.408c1.996-2.172,3.634-4.648,4.853-7.334&#xA;			c0.966-1.754,1.524-3.704,1.631-5.704c0.014-2.156-1.316-4.093-3.334-4.853c-2.396-1.136-6.187-1.704-11.373-1.704&#xA;			c-7.287,0-12.399,1.469-15.338,4.408c-2,2.171-3.641,4.647-4.863,7.334L266.425,85.436L266.425,85.436z M279.021,88.237&#xA;			l3.113-5.818c0.404-0.846,0.963-1.608,1.648-2.247c0.603-0.482,1.359-0.73,2.13-0.699c1.236,0,1.853,0.515,1.853,1.546&#xA;			c-0.049,0.755-0.278,1.487-0.667,2.135l-3.112,5.818c-0.393,0.827-0.933,1.576-1.593,2.21c-0.617,0.499-1.393,0.76-2.186,0.736&#xA;			c-1.234,0-1.852-0.515-1.853-1.546c0.05-0.754,0.278-1.485,0.667-2.133L279.021,88.237L279.021,88.237z M249.895,97.107&#xA;			l3.783-7.075l18.266-15.743h-12.787l-7.003,7.075l0.186-7.075h-13.893l1.001,15.336l-3.999,7.483h14.446L249.895,97.107z&#xA;			 M165.984,97.107l3.075-5.778h-14.375l1.594-2.89h12.892l2.964-5.594h-12.93l1.556-2.778h13.893l3.076-5.778h-27.157&#xA;			l-12.153,22.818L165.984,97.107L165.984,97.107z M347.829,97.107l5.372-10.113l0.667,10.113h13.56l-1.445-11.671l12.634-11.149&#xA;			h-12.782l-11.374,10.337l5.521-10.334h-14.079l-12.146,22.818L347.829,97.107L347.829,97.107z M336.625,116.428h-79.332&#xA;			l-8.461,15.809h21.047l-16.517,30.942c7.456,1.308,14.673,3.729,21.41,7.182c3.667,1.909,7.202,4.062,10.58,6.445l23.789-44.569&#xA;			h19.029L336.625,116.428L336.625,116.428z M118.867,86.513l2.297,10.59h11.929l12.153-22.818H134.13l-5.039,9.779l-2.149-9.779&#xA;			h-12.521l-12.152,22.821h11.115L118.867,86.513L118.867,86.513z M478.606,127.747l-0.156-0.648&#xA;			c-9.079-30.859-45.899-65.173-101.025-94.142C330.129,8.107,274.385-0.684,240.731-0.684h-1.557&#xA;			c-33.669,0-89.431,8.796-136.723,33.644C47.33,61.929,10.504,96.243,1.427,127.102l-0.153,0.643&#xA;			C0.377,132.586-0.05,137.503,0,142.427c-0.049,4.923,0.378,9.84,1.274,14.681l0.153,0.643&#xA;			c9.079,30.859,45.899,65.173,101.024,94.142c47.296,24.855,103.053,33.644,136.71,33.644h1.535&#xA;			c33.671,0,89.435-8.793,136.723-33.644c55.121-28.968,91.948-63.281,101.025-94.142l0.156-0.648&#xA;			c0.897-4.839,1.327-9.754,1.282-14.675c0.047-4.923-0.38-9.839-1.275-14.68L478.606,127.747z M466.912,142.492&#xA;			c0.044,3.995-0.289,7.984-0.994,11.916c-8.155,27.043-43.449,59.167-94.521,86.005c-45.2,23.753-98.498,32.156-130.697,32.156&#xA;			h-0.974c-32.146,0.108-85.776-8.265-131.24-32.155c-51.074-26.839-86.368-58.962-94.52-86.006&#xA;			c-0.706-3.931-1.038-7.92-0.994-11.914v-0.135c-0.044-3.993,0.289-7.982,0.995-11.912c8.151-27.044,43.449-59.166,94.52-86.007&#xA;			c45.206-23.753,98.496-32.156,130.698-32.156h1.546c32.186,0,85.466,8.403,130.67,32.156&#xA;			c51.072,26.838,86.367,58.963,94.521,86.006c0.705,3.932,1.038,7.921,0.994,11.915L466.912,142.492L466.912,142.492z&#xA;			 M258.762,191.986l0.917,0.769c0.321,1.436,0.541,2.893,0.66,4.359c2.779,0.045,5.558,0.094,8.336,0.186&#xA;			c8.971,0.236,17.948,0.586,26.922,1.21l1.621-1.952l-0.108-0.672c-2.034-6.888-10.615-15.115-24.102-22.184&#xA;			c-10.218-5.117-21.455-7.873-32.882-8.064h-0.358c-11.457,0.2-22.721,2.98-32.955,8.133&#xA;			c-13.471,7.097-22.035,15.345-24.055,22.235l-0.084,0.54l1.634,1.964c8.971-0.625,17.933-0.973,26.9-1.21&#xA;			c3.103-0.103,6.207-0.152,9.311-0.201c0.119-1.461,0.339-2.912,0.658-4.343l0.917-0.769c0.888-0.035,1.775-0.066,2.662-0.095&#xA;			l0.603,0.732c-0.812,4.66-0.812,9.426,0,14.086l-0.603,0.731c-0.887-0.029-1.774-0.061-2.662-0.095l-0.917-0.769&#xA;			c-0.32-1.431-0.539-2.882-0.658-4.343c-3.104-0.049-6.208-0.098-9.311-0.201c-8.971-0.235-17.934-0.586-26.9-1.21l-1.513,1.814&#xA;			c2.079,6.87,10.617,15.064,24.016,22.122c10.234,5.153,21.498,7.933,32.955,8.133h0.358c11.426-0.191,22.664-2.946,32.882-8.064&#xA;			c13.485-7.068,22.066-15.296,24.102-22.184l-1.513-1.823c-8.971,0.625-17.948,0.973-26.922,1.21&#xA;			c-2.779,0.092-5.558,0.14-8.336,0.186c-0.119,1.467-0.34,2.923-0.66,4.359l-0.917,0.769c-0.888,0.035-1.775,0.066-2.662,0.095&#xA;			l-0.603-0.731c0.812-4.66,0.812-9.426,0-14.086l0.603-0.732l2.66,0.098L258.762,191.986L258.762,191.986z M233.945,206.881&#xA;			l-0.682,0.763c-0.888-0.013-1.775-0.029-2.662-0.048l-0.839-0.782c-0.575-4.748-0.575-9.549,0-14.297l0.839-0.782&#xA;			c0.888-0.018,1.775-0.034,2.662-0.048l0.682,0.763c-0.352,4.805-0.353,9.63-0.004,14.435L233.945,206.881L233.945,206.881z&#xA;			 M242.522,206.917l-0.757,0.779h-2.662l-0.757-0.779c-0.112-4.834-0.112-9.668,0-14.501l0.757-0.78h2.662l0.757,0.78&#xA;			c0.11,4.837,0.108,9.672-0.004,14.506l0.004-0.004V206.917z M251.1,206.814l-0.839,0.782c-0.887,0.018-1.774,0.034-2.662,0.048&#xA;			l-0.682-0.763c0.35-4.804,0.35-9.627,0-14.431l0.682-0.763c0.888,0.013,1.775,0.029,2.662,0.048l0.839,0.782&#xA;			c0.574,4.75,0.572,9.552-0.004,14.301L251.1,206.814L251.1,206.814z M378.12,114.817c-22.958,0-32.424,3.626-39.269,10.471&#xA;			c-4.833,4.828-7.45,10.669-7.45,15.401c0,7.049,3.722,9.566,16.814,12.887c13.992,3.524,16.712,4.226,16.712,7.249&#xA;			c0,3.319-3.12,5.231-8.46,5.231c-4.829,0-7.143-1.513-7.143-3.925c0.005-1.792,0.452-3.556,1.303-5.133h-31.103&#xA;			c-1.444,2.766-2.204,5.838-2.218,8.959c0,9.566,8.054,14.097,35.841,14.097c23.454,0,32.925-3.933,39.266-10.266&#xA;			c5.032-5.036,7.648-10.973,7.648-16.809c0-7.153-4.724-10.071-17.92-13.192s-15.705-3.927-15.705-6.142&#xA;			c0-2.515,2.822-4.833,8.359-4.833c4.431,0,6.947,1.613,6.947,3.828c-0.017,1.633-0.471,3.232-1.314,4.631h30.512&#xA;			c1.26-2.743,1.88-5.736,1.811-8.753c0-9.669-9.263-13.7-34.633-13.7L378.12,114.817z M170.767,116.428h-38.261l-20.752,39.562&#xA;			c-2.82,5.231-4.936,8.051-9.163,8.051c-2.817,0-3.926-1.609-3.926-3.823c0.197-1.985,0.814-3.905,1.809-5.633l8.106-15.497H75.951&#xA;			l-3.967,7.541c-3.423,6.241-4.837,10.369-4.837,16.102c0,11.275,10.47,17.319,35.643,17.319c18.123,0,30.306-3.729,37.652-11.078&#xA;			c4.933-4.934,8.056-10.166,12.989-19.425l17.333-33.118L170.767,116.428z M182.764,202.528l0.017,0.048l-0.029-0.13&#xA;			L182.764,202.528L182.764,202.528z M205.055,170.432c6.933-3.568,14.375-6.047,22.064-7.349l0.184-0.344h-39.068l4.332-7.851&#xA;			h38.039l8.054-15.203h-38.141l4.225-7.547h37.759l8.361-15.705h-73.8l-33.023,62.012h48.36c3.982-3.025,8.214-5.706,12.65-8.015&#xA;			L205.055,170.432L205.055,170.432z"/>
	</g>
</g>
</svg>