<?xml version="1.0" encoding="utf-8"?>
<svg xmlns="http://www.w3.org/2000/svg" xmlns:xlink="http://www.w3.org/1999/xlink" version="1.1" id="Layer_1" x="0px" y="0px" viewBox="0 0 479.244 329.948" enable-background="new 0 0 479.244 329.948">
<g>
	<g transform="translate(10 84)">
		<path fill-rule="evenodd" clip-rule="evenodd" fill="#FFFFFF" d="M269.196-59.596l-23.361,24.485&#xA;			c38.267-15.9,121.712-43.198,121.712-43.198l-26.736,26.154C413.788-73.762,469.244-84,469.244-84s-16.07,37.398-40.077,74.848&#xA;			c4.644-0.501,34.957-4.034,34.957-4.034s-27.298,45.219-58.819,77.811l17.642,4.389c0,0-27.488,39.613-63.766,71.946&#xA;			c-52.17,46.492-79.015,39.35-79.015,39.35c-38.728,28.049-69.768,13.835-69.768,13.835s13.41-33.845-0.445-37.438&#xA;			c-12.489-3.245-31.489,6.519-33.861,10.436c-2.465,8.54-12.849,30.228-23.575,43.355c-20.568,25.164-43.375,35.45-43.375,35.45&#xA;			s-17.965-15.33-18.083-41.427c0,0-12.339,13.071-32.427,17.343c-14.061,2.991-33.251,0.562-52.91-15.852&#xA;			C-7.478,194.994-10,157.968-10,157.968s12.404-23.696,36.327-44.463c-5.295-4.543-8.54-10.258-9.559-13.786&#xA;			c63.588-27.754,63.632-54.248,114.186-86.456C180.76-18.468,212.059-33.058,269.196-59.596"/>
		<path fill-rule="evenodd" clip-rule="evenodd" fill="#004C54" d="M238.221-37.12l-19.978,20.94&#xA;			c39.455-17.464,122.775-45.829,122.775-45.829l-24.181,23.656c85.429-26.449,139.612-35.409,139.612-35.409&#xA;			s-17.707,39.463-41.27,72.985c11.41-1.095,35.207-3.86,35.207-3.86s-23.798,39.871-58.968,73.644&#xA;			c3.908,0.574,19.869,4.215,19.869,4.215s-21.211,31.473-58.075,63.754c-47.057,41.201-67.933,36.323-67.933,36.323&#xA;			s0.453-1.609,0.408-4.11c-0.032-1.382-0.327-2.635-0.34-2.736c-36.226,34.092-66.405,22.589-66.405,22.589&#xA;			s13.398-32.439-7.154-38.986c-15.92-5.068-40.308,7.962-42.252,14.942c-2.114,7.59-12.226,28.656-22.254,40.999&#xA;			c-17.395,21.417-36.65,31.19-36.65,31.19s-17.505-13.467-11.434-52.882c1.326-8.589-0.376-11.943-1.314-13.386&#xA;			c-2.874-4.397-25.269,0.4-30.733,12.893c-3.856,8.823,18.398,16.28,18.398,16.28S75.28,211.42,57.331,215.09&#xA;			c-11.288,2.308-28.769,1.572-47.122-14.32c-10.86-9.401-13.111-41.213-13.111-41.213s13.414-24.574,39.544-45.796&#xA;			c-5.157-3.375-9.074-9.094-10.064-11.341c52.651-22.678,59.87-54.745,119.307-90.578C173.586-4.86,202.763-21.293,238.221-37.12"/>
		<path fill-rule="evenodd" clip-rule="evenodd" d="M437.242-59.73c0,0-11.147,32.77-34.827,66.037&#xA;			c14.304-1.006,29.723-1.847,29.723-1.847s-16.579,33.348-54.013,69.065c2.11,0.436,10.759,2.001,15.577,3.997&#xA;			c-18.087,29.335-72.144,86.937-102.356,89.305c-0.34-5.052-2.3-9.361-4.668-12.331c-11.337,20.722-45.954,33.441-60.326,30.115&#xA;			c17.452-63.932-56.588-39.572-62.266-22.023c-14.74,45.57-52.158,67.011-52.158,67.011s-11.959-13.625-6.83-44.309&#xA;			c3.783-22.621-10.529-21.918-10.529-21.918c-5.707-0.263-27.362,2.348-34.193,17.46c-5.509,12.17,13.774,20.714,13.774,20.714&#xA;			s-27.843,22.229-60.056-5.323c-7.902-6.758-10.84-35.292-10.84-35.292c15.492-25.681,35.91-42.013,44.37-48.084&#xA;			c-8.969-3.439-11.761-8.096-11.761-8.096c43.25-19.833,60.213-52.797,97.033-77.293c40.575-26.994,71.635-40.251,71.635-40.251&#xA;			L192.808,1.959c0,0,9.813-4.195,14.093-6.293c38.639-18.964,104.106-39.629,104.106-39.629l-20.415,19.776&#xA;			c0,0,33.845-11.592,76.489-20.702C389.793-49.743,437.242-59.73,437.242-59.73z M126.423,89.478&#xA;			c-0.671,0.837-1.423,1.79-2.243,2.801c2.425,0.028,4.567,0.978,5.679,2.833c1.968,3.282,0.012,8.059-4.373,10.678&#xA;			c-4.385,2.615-9.534,2.077-11.507-1.208c-0.303-0.501-0.485-1.047-0.606-1.609c-0.833,0.59-1.693,1.136-2.583,1.633&#xA;			c0.186,0.639,0.449,1.265,0.796,1.847c2.789,4.636,9.898,5.505,15.888,1.928c5.99-3.569,8.585-10.221,5.8-14.865&#xA;			C131.864,91.171,129.342,89.805,126.423,89.478z"/>
		<path fill-rule="evenodd" clip-rule="evenodd" fill="#FFFFFF" d="M285.889-28.532c0,0-9.854,7.053-16.664,11.571&#xA;			c-9.239,6.131-17.42,12.056-17.42,12.056s0.36-0.162,1.027-0.445C330.4-29.659,394.473-22.057,394.473-22.057&#xA;			c-41.933,4.042-75.842,12.012-93.836,20.233c0,0,24.844-4.268,37.475-4.268c12.355,0,22.46,1.2,22.46,1.2&#xA;			C281.536,7.439,239.025,30.283,228.662,36.434c-4.312,1.835-6.572,2.979-6.572,2.979s12.889-4.038,29.226-8.087&#xA;			c28.749-4.409,70.819-2.037,111.409,10.011c0,0-28.142-1.491-40.441-1.217c-36.727,0.816-74.577,15.585-74.577,15.585&#xA;			c23.907-6.026,50.113-1.588,50.113-1.588c-10.189,0.586-35.244,7.279-47.817,12.457c-18.115,7.461-36.424,18.087-49.765,27.9&#xA;			c-5.396,3.201-8.281,5.311-8.281,5.311l0.015-0.008c0.354-0.189,7.139-3.789,18.355-8.116c19.643-6.608,52.91-12.505,89.863-0.093&#xA;			c-56.952-11.345-101.944,15.33-101.944,15.33c32.617-10.658,53.302-0.61,53.302-0.61c-39.536-4.806-69.016,16.001-79.165,28.979&#xA;			c5.719-11.547,14.158-18.992,14.158-18.992c-2.033,1.002-4.042,2.154-6.03,3.427c-8.144,4.688-41.496,21.627-70.459,3.633&#xA;			c-1.799-1.116-3.31-2.158-4.62-3.136c9.631,5.044,25.523,5.472,32.119-1.019c-23.094,5.957-27.197-4.587-27.69-11.147&#xA;			c-1.491,0.283-3.888,0.101-5.679-0.315c0,0,3.779-1.605,5.654-2.575c0.323-0.166,0.635-0.356,0.954-0.538&#xA;			c0.186,0.639,0.449,1.265,0.796,1.847c2.789,4.636,9.898,5.505,15.888,1.928c5.99-3.569,8.585-10.221,5.8-14.865&#xA;			c-1.411-2.344-3.933-3.71-6.851-4.038c2.077-2.413,6.075-7.748,12.246-12.186c-4.543,5.448-5.994,9.134-6.168,9.599&#xA;			c2.785,0.436,5.226,1.629,6.402,3.84c2.316,4.333,0.74,7.736-0.101,9.478c-0.004-0.004-0.008-0.004-0.012-0.004&#xA;			c-1.544,3.266-4.414,6.487-8.277,8.924c-5.23,3.302-10.961,4.337-15.177,3.148c0,0,0.756,1.378,1.98,2.191&#xA;			c2.037,1.362,8.055,3.347,16.757-0.586c3.225-1.459,5.646-3.116,7.493-4.798c6.544-4.911,7.255-11.191,9.591-16.704&#xA;			c5.509-13.018,16.886-24.291,30.143-28.971c-12.602,1.536-28.013,12.897-27.564,7.825c0.21-2.36,6.968-24.852,48.363-42.062&#xA;			c0.756-0.275,1.504-0.55,2.28-0.82c0,0-20.099,3.112-50.388,21.17c-11.911,7.105-22.613,16.927-28.029,24.388&#xA;			c0.238-4.903,2.886-9.656,4.494-13.402c-11.272,7.259-8.463,17.363-16.955,27.213c-3.718,3.965-7.635,7.76-11.79,10.46&#xA;			c-24.004,15.633-47.7,5.905-47.7,5.905c32.168-17.387,31.206-21.304,52.401-43.78c23.761-25.188,38.36-38.162,78.348-57.772&#xA;			c-2.615,3.371-13.422,12.853-15.755,15.548c0,0,8.023-4.292,23.215-11.503C246.106-19.005,285.889-28.532,285.889-28.532z&#xA;			 M118.186,98.923c-0.113,1.855,0.311,4.211,2.595,5.937c0,0-2.603,0.214-4.296-1.035c-0.962-0.711-1.374-1.552-1.544-2.037&#xA;			C116.081,100.883,117.16,99.917,118.186,98.923z"/>
		<path fill-rule="evenodd" clip-rule="evenodd" fill="#A5ACAF" d="M89.155,115.858c0,0,29.298,37.014,75.984,18.616&#xA;			c-2.146,3.791-3.092,7.978-4.49,12.917c-10.783,50.157-47.118,71.89-47.118,71.89c-6.616-15.019-2.914-29.533-1.786-34.969&#xA;			c2.562-12.384-3.383-21.603-3.383-21.603c23.903,1.136,0.469,30.911,9.348,43.877c16.062-9.352,25.75-42.252,28.142-54.001&#xA;			c0.166-0.441-2.267-2.17-4.236-2.894c-23.078-7.421-61.773-1.067-75.762,7.396c-43.812,26.514-2.825,44.701-2.825,44.701&#xA;			s-26.978,9.017-42.422-15.375c-3.787-6.467-4.741-18.26-5.569-27.475c16.062-27.188,41.31-37.996,48.323-42.83&#xA;			C69.444,117.757,80.465,118.517,89.155,115.858z M181.629,140.46c0,0,20.277-19.78,65.33-11.822&#xA;			c17.278,3.051,26.833,12.17,26.833,12.17c-7.703,13.398-22.937,19.95-22.937,19.95s0.97-21.32-32.871-26.76&#xA;			c-22.19-3.568-35.538,5.867-36.319,6.436L181.629,140.46z M210.325,91.66c29.573-11.422,89.948-27.928,144.656-0.505&#xA;			c-3.254,6.98-11.486,17.351-24.622,30.28c-12.509,12.307-20.819,15.852-22.985,17.028c-0.344,0.186-0.525,0.275-0.525,0.275&#xA;			c-4.466-16.898-41.634-32.984-95.117-19.715c-22.086,5.476-31.934,12.29-40.922,20.659l-0.598,0.56&#xA;			c0.655-1.73,1.39-3.387,2.17-4.975c10.149-12.978,39.629-33.785,79.165-28.979c0,0-20.685-10.048-53.302,0.61&#xA;			c0,0,44.992-26.675,101.944-15.33C263.235,79.155,229.968,85.052,210.325,91.66z M78.137,123.339&#xA;			c-5.816,3.015-10.165,5.359-10.165,5.359c-3.435,5.149,3.795,4.123,7.142,3.128c2.712-0.808,14.926-4.357,14.926-4.357&#xA;			C83.238,126.819,80.639,125.388,78.137,123.339z M202.1,29.172c-41.395,17.21-48.153,39.702-48.363,42.062&#xA;			c-0.449,5.072,14.962-6.289,27.564-7.825c-13.257,4.68-24.634,15.953-30.143,28.971c-2.336,5.513-3.047,11.794-9.591,16.704&#xA;			c5.516-5.016,5.724-10.196,5.731-10.678l0-0.036c0,0-3.043,1.835-5.642,2.118c-0.857,0.093-1.875-0.053-2.853-0.279&#xA;			c1.322-2.587,1.297-4.426,1.322-4.931c4.021-9.175,14.061-17.674,14.061-17.674s-7.425,4.418-8.536,0.141&#xA;			c-2.95-11.385,16.995-33.873,54.931-48.027C200.661,29.685,201.676,29.321,202.1,29.172z M282.291,24.92&#xA;			c47.373-7.287,112.8-0.263,112.8-0.263s-3.027,9.623-17.25,25.22c-13.41,14.716-18.446,18.592-18.446,18.592&#xA;			c-77.071-16.421-137.802,13.342-159.158,26.004c13.342-9.813,31.651-20.439,49.765-27.9c12.574-5.177,37.628-11.87,47.817-12.457&#xA;			c0,0-26.206-4.438-50.113,1.588c0,0,37.85-14.768,74.577-15.585c12.299-0.275,40.441,1.217,40.441,1.217&#xA;			c-40.591-12.048-82.661-14.421-111.409-10.011C261.081,28.913,272.074,26.488,282.291,24.92z M403.74-36.837&#xA;			c0,0-8.043,24.978-28.526,44.766c-14.368,1.431-50.048,2.942-80.757,9.025c-32.556,6.451-55.294,15.031-65.795,19.481&#xA;			c10.363-6.151,52.873-28.995,131.909-41.326c0,0-10.104-1.2-22.46-1.2c-12.63,0-37.475,4.268-37.475,4.268&#xA;			c17.994-8.221,51.903-16.191,93.836-20.233c0,0-64.073-7.602-141.641,16.708c5.428-2.3,32.641-13.281,74.747-21.098&#xA;			C368.068-33.96,403.74-36.837,403.74-36.837z"/>
	</g>
</g>
</svg>