<?xml version="1.0" encoding="utf-8"?>
<svg xmlns="http://www.w3.org/2000/svg" xmlns:xlink="http://www.w3.org/1999/xlink" version="1.1" id="Layer_1" x="0px" y="0px" viewBox="0 0 480 212.258" enable-background="new 0 0 480 212.258">
<g>
	<path fill="#FFFFFE" d="M402.277,174.054c-21.876-4.371-50.594-5.531-62.724-5.531l-288.654,0.064c-17.959,0-36.53,0-46.06-14.674&#xA;		c-9.668-14.886-4.415-29.532,11.889-58.838C17.945,92.897,67.382,0,67.382,0s5.051,6.268,10.143,10.261&#xA;		c5.028,3.938,10.194,6.038,23.968,6.038c24.465,0,182.29-0.345,183.899-0.355c32.037,0,64.396,3.316,85.364,26.299&#xA;		c10.885,1.161,46.023,5.803,74.982,19.643c16.945,8.088,28.124,20.178,32.35,34.943c1.276,4.463,1.912,9.156,1.912,14.02&#xA;		c0,14.015-5.249,29.536-15.544,45.666c-21.747,34.091-41.802,46.006-42.7,46.647c-12.359,8.691-24.327,9.096-24.327,9.096&#xA;		s10.779-12.251,14.415-24.502C415.485,175.505,402.277,174.054,402.277,174.054"/>
	<path fill="#002244" d="M442.167,69.357c33,15.775,38.788,45.914,15.313,82.714c-21.055,32.981-42.313,46.974-42.313,46.974&#xA;		s20.484-26.768-11.272-33.12c-23.917-4.772-54.548-5.683-64.341-5.683c-11.267,0-111.945,0.23-124.507,0.23&#xA;		s-16.032-1.713-18.788-5.504c-2.751-3.777-3.23-8.944,1.922-16.686c5.171-7.738,13.023-19.86,13.023-19.86l-33.94-27.293&#xA;		c28.479-28.403,51.226-37.928,71.083-37.928c20.134,0,29.009,2.957,62.152,16.857c33.147,13.909,44.101-0.88,44.101-0.88&#xA;		c-13.917,5.914-26.346,0.88-49.733-9.465c-23.378-10.358-37.286-15.084-58.29-15.084c-21.018,0-38.77,5.909-61.009,22.259&#xA;		c-20.94,15.392-22.525,18.556-54.097,18.556H31.158l38.631-72.291c0,0,2.889,11.422,31.705,11.422l183.899-0.35&#xA;		c31.599,0,62.862,3.348,81.364,25.949C366.757,50.174,409.158,53.582,442.167,69.357L442.167,69.357z M383.849,75.285&#xA;		c-15.014-3.592-2.18-12.279-2.18-12.279c-21.604,4.362-29.641,21.974-31.498,26.902c-0.346,0.668-0.7,1.354-1.065,2.077&#xA;		c-11.954,24.033-22.719,22.748-43.129,22.748h-34.954c-28.313,0-41.498,14.024-55.069,37.91h15.991&#xA;		c14.613-21.748,25.645-27.611,54.548-29.242c66.051,0.037,118.705,18.975,146.53,33.451&#xA;		C472.599,90.433,413.866,79.439,383.849,75.285L383.849,75.285z M260.914,152.384c7.387-11.16,22.406-14.95,46.622-13.555&#xA;		c59.76,3.459,94.12,15.088,120.816,25.027c-32.917-19.256-91.581-33.138-132.355-33.009c-19.926,0.06-37.327,3.542-47.548,21.536&#xA;		L260.914,152.384L260.914,152.384z M325.052,86.495c-7.788,10.86-18.046,14.568-47.138,12.583&#xA;		c-33.853-2.298-25.115-16.553-21.175-23.567l-0.115-0.014c1.078-1.985,2.922-5.356,4.793-8.751&#xA;		c-25.935-1.598-44.88,18.354-44.88,18.354c19.336,19.114,32.23,21.113,49.724,21.113h32.7c30.406,0,37.751-13.674,40.539-19.754&#xA;		c-5.249,0.654-9.972,0.599-14.447,0.037L325.052,86.495z"/>
	<path fill="#69BE28" d="M310.291,83.262c-0.618-0.249-1.258-0.511-1.899-0.774c-2.982,3.141-8.124,4.96-13.106,4.32&#xA;		c-6.558-0.838-10.336-5.601-8.475-10.625c0.267-0.737,0.659-1.428,1.124-2.091c-3.359-1.317-6.737-2.584-10.028-3.731&#xA;		c-6.737,10.892-10.687,18.11,12.691,20.081c14.562,1.239,18.512-1.253,21.571-6.476c-0.627-0.239-1.235-0.447-1.88-0.705"/>
	<path fill="#A5ACAF" d="M192.881,124.644c-12.06,20.919-16.843,25.723-8.373,35.653H50.9c-19.705,0-32.516-0.742-39.106-10.897&#xA;		c-6.41-9.861-5.092-19.266,12.18-50.303h113.599c19.558,0,24.585,1.115,35.198,9.345c10.613,8.24,20.111,16.203,20.111,16.203"/>
</g>
</svg>