<?xml version="1.0" encoding="utf-8"?>
<svg xmlns="http://www.w3.org/2000/svg" xmlns:xlink="http://www.w3.org/1999/xlink" version="1.1" id="Layer_1" x="0px" y="0px" viewBox="0 0 479.493 285.46" enable-background="new 0 0 479.493 285.46">
<g>
	<path fill="#FFFFFE" d="M241.025,285.46c81.738,0,162.272-27.711,205.168-70.61c21.786-21.783,33.3-46.938,33.3-72.761&#xA;		c0-25.633-11.364-50.539-32.853-72.03C404.075,27.5,323.365,0,241.025,0C183.366,0,124.528,13.57,79.596,37.232&#xA;		C28.266,64.259,0,101.5,0,142.088c0,25.453,11.403,50.307,32.982,71.879c21.566,21.559,52.9,39.702,90.624,52.458&#xA;		c36.816,12.455,77.423,19.033,117.418,19.033"/>
	<path d="M83.155,43.992C34.459,69.634,7.639,104.474,7.639,142.089c0,23.383,10.633,46.366,30.749,66.484&#xA;		c20.736,20.729,51.05,38.235,87.664,50.617c36.041,12.188,75.8,18.633,114.974,18.633c79.811,0,158.227-26.842,199.768-68.377&#xA;		c20.318-20.311,31.059-43.604,31.059-67.357c0-23.564-10.585-46.603-30.615-66.63C400.037,34.26,321.445,7.641,241.027,7.641&#xA;		c-56.454,0-113.997,13.247-157.87,36.35"/>
	<path fill="#B3995D" d="M240.883,264.284c70.456,0,137.225-22.992,174.238-59.996c18.67-18.672,28.537-39.982,28.537-61.635&#xA;		c0-21.649-9.867-42.959-28.537-61.627C378.103,44.017,311.339,21.03,240.883,21.03c-51.734,0-103.236,12.769-141.295,35.038&#xA;		c-39.647,23.198-61.485,53.947-61.485,86.584c0,21.654,9.871,42.963,28.546,61.635c37.009,37.004,103.774,59.996,174.234,59.996"/>
	<path fill="#AA0000" d="M241.249,259.965c103.275,0,187.001-53.499,187.001-117.961S344.524,25.286,241.249,25.286&#xA;		c-103.279,0-187.001,52.256-187.001,116.718S137.97,259.965,241.249,259.965"/>
	<path d="M387.518,127.341h-0.516v-4.259h-74.195c-1.592-8.342-6.39-16.086-13.244-22.131c-6.751-7.757-16.553-13.591-27.719-15.807&#xA;		l-4.621-0.955c-10.71-2.25-19.17-4.031-53.197-3.855c0-0.004-6.545-0.224-12.9-1.067c-1.609-0.409-3.016-0.895-4.225-1.42&#xA;		c0.469-2.831,5.645-6.733,11.493-7.486c0.602-0.112,37.431-6.888,75.336,17.661l0.929,0.598h24.914V50.501h-4.26v-4.259h-34.187&#xA;		l-5.762,4.401c-9.845-2.465-58.051-13.015-99.686,5.21c-17.496,7.228-28.352,20.871-27.577,34.728&#xA;		c0.392,6.987,3.735,13.079,9.518,17.803c4.251,5.309,10.938,9.448,19.647,11.96c12.324,3.549,22.762,5.012,32.883,5.593v17.377&#xA;		h4.256v4.259h13.003c5.383,0,6.769,2.982,7.1,4.092c-16.592-1.084-41.82-5.804-60.392-22.987l-0.697-0.753h-0.133&#xA;		c-1.024-0.981-2.031-1.996-3.016-3.055l-1.114-1.2h-18.692v54.257h4.26v4.251h15.25c2.233,0.159,9.316-0.628,14.208-14.916&#xA;		c7.93,2.766,27.474,8.648,51.54,9.302v33.756c-0.835,11.337-25.809,14.882-34.505,15.226l-3.597,0.142v16.783h4.256v4.251h109.643&#xA;		v-16.056l-2.793-0.74c-0.503-0.129-0.985-0.262-1.467-0.396v-3.674l-3.421-0.293c-6.166-0.546-10.908-1.613-14.583-2.926&#xA;		c-6.898-3.863-8.077-6.996-8.227-7.503v-17.997h32.134c3.395,0.512,6.304,2.001,8.769,3.932c4.626,5.696,6.738,12.21,6.769,12.318&#xA;		l0.822,2.637l2.758,0.009h0.09c0.383,0.968,0.581,1.579,0.594,1.613l0.818,2.642l2.762,0.004h14.505v-65.288h-4.26v-4.259h-17.194&#xA;		l-0.615,2.982c-4.501,21.697-29.596,21.378-51.906,18.126c4.376-1.187,8.769-2.633,13.15-4.371&#xA;		c11.945-4.745,20.908-11.199,26.497-18.762h48.163c3.356,0.108,6.209,0.951,8.61,2.521c5.047,7.4,4.544,18.311,4.535,18.435&#xA;		l-0.211,3.95h4.479l-0.004,0.301l-0.215,3.95l3.954,0.009h15.237v-50.544h-3.748"/>
	<path fill="#FFFFFE" d="M310.702,140.709c3.507-4.242,3.67-13.879,3.67-13.879h68.881v43.049h-11.485&#xA;		c0,0,1.639-28.438-21.153-29.17H310.702L310.702,140.709z M229.467,177.472c15.499,0.331,28.645-2.956,28.645-2.956&#xA;		c3.946-0.873,57.311,14.787,64.531-20.023h10.392v57.793h-10.757c0,0-6.381-20.789-22.969-23.159h-36.291v22.067&#xA;		c0,0,0.138,15.471,30.491,18.1v9.431H191.362v-9.431c0,0,36.928-1.437,38.107-18.762v-33.059L229.467,177.472z M261.334,120.608&#xA;		c-4.94-1.502-12.087-1.824-20.31-2.138c-29.423-1.123-47.939,2.383-76.984-5.989c-32.965-9.5-27.048-40.717,3.141-53.194&#xA;		c44.914-19.662,99.006-4.556,99.006-4.556l6.205-4.741h29.174v30.628h-20.06c-39.746-25.745-77.857-18.233-77.857-18.233&#xA;		c-12.401,1.605-24.436,15.278-3.287,20.565c6.751,0.912,13.679,1.132,13.679,1.132c38.378-0.202,43.696,2.087,57.074,4.737&#xA;		c34.768,6.892,54.002,50.853,3.464,70.924c-52.173,20.716-107.035-1.609-107.035-1.609c-4.557,17.14-11.665,16.048-11.665,16.048&#xA;		h-11.67V127.42h13.305c31.188,33.717,84.608,27.948,84.608,27.948s15.865-0.404,26.256-10.209&#xA;		c8.115-9.904,6.829-20.488-7.044-24.549V120.608z M217.75,139.573h-13.855v-12.417c10.74,0,32.651,0.095,48.154,0&#xA;		c15.594,0,17.681,9.018,11.106,15.118c-6.196,5.748-19.174,9.839-34.54,7.043C228.615,149.317,227.346,139.572,217.75,139.573&#xA;		L217.75,139.573z"/>
</g>
</svg>