<?xml version="1.0" encoding="utf-8"?>
<svg xmlns="http://www.w3.org/2000/svg" xmlns:xlink="http://www.w3.org/1999/xlink" version="1.1" id="Layer_1" x="0px" y="0px" viewBox="0 0 429.787 382.221" enable-background="new 0 0 429.787 382.221">
<g>
	<g transform="translate(35 59)">
		<path fill-rule="evenodd" clip-rule="evenodd" fill="#B1BABF" d="M296.436,220.88c-9.75,14.749-19.023,28.348-26.57,39.257&#xA;			c8.733,7.22,8.211,16.315,8.211,18.041c-0.168,9.671-5.317,16.89-10.033,21.111c-5.866,4.999-13.882,7.423-22.341,7.485&#xA;			c-0.248,0-6.3-0.186-8.379-0.664c-0.894,1.309-2.619,2.902-5.424,4.043c-0.309,0.885-0.734,1.77-1.292,2.61&#xA;			c-2.309,3.468-6.14,5.397-10.042,5.397c0,0-3.955-0.115-6.689-1.999c-3.504-2.31-5.433-6.15-5.433-10.061v-0.106&#xA;			c0.009-1.867,0.46-3.76,1.363-5.477c-0.407-0.964-1.831-6.724-1.831-6.724l3.725-3.283c0.301-0.177,1.221-1.566,2.256-5.114&#xA;			c1.097-3.459,2.407-8.6,5.149-14.59c3.495-7.609,8.343-15.484,11.883-20.934c-0.345-1.743-2.177-2.548-3.495-2.867&#xA;			c-1.478-0.398-3.3-1.256-4.75-2.946c-1.523-1.77-2.69-4.265-2.036-7.485c0.646-3.176,2.637-5.468,4.964-6.538v-0.009&#xA;			c2.637-1.371,5.893-0.717,5.893-0.717c7.759,0.717,13.493,7.919,13.493,7.919c7.724-10.777,25.694-37.506,26.074-38.09&#xA;			c-23.553,4.503-47.884,5.114-68.092,1.761c-36.745-6.096-65.013-25.658-83.275-34.577c-18.262-8.91-53.051-18.041-88.937-8.91&#xA;			c-35.878,9.131-59.572,42.186-59.572,42.186c10.715-75.489,57.475-88.212,61.961-89.486c6.813-6.379,15.749-25.844-5.415-38.974&#xA;			c-7.229-4.486-13.298-10.166-13.298-10.166c4.433,0.522,14.829-0.849,20.598-3.132c6.928-2.734,13.298-3.645,13.298-3.645&#xA;			c-5.468-5.211-13.82-7.821-13.82-7.821c8.343-0.522,21.385-3.389,29.463-7.043c8.078-3.645,12.511-10.166,11.201-13.033&#xA;			c-1.301-2.876-8.6-1.301-8.6-1.301c2.61-3.911,8.865-5.477,8.865-5.477c-17.987-1.044-31.091,8.75-31.091,8.75&#xA;			c2-4.291,8.573-12.006,8.573-12.006c-2.495,0.823-9.405,2.982-9.839,3.114C71.314-2.366,102.75-21.486,146.794-21.769&#xA;			c44.035-0.292,86.938,19.447,115.525,28.596c28.605,9.149,43.779,13.767,74.666,9.202c14.785-2.194,27.73-8.255,37.214-13.935&#xA;			c0,0,6.636-16.873,7.141-41.098c0,0,7.953,14.263,7.989,36.47c0.08,76.214-36.851,131.876-48.654,152.138&#xA;			C329.394,169.537,314.565,193.408,296.436,220.88z M377.65-59c0,0,1.001,18.324-2.46,35.099&#xA;			c-3.344,16.209-5.185,22.385-5.185,22.385c-7.078,4.15-18.536,9.255-35.285,12.042c-31.259,5.211-59.625-3.185-90.592-15.342&#xA;			c-30.976-12.157-72.419-25.251-110.871-20.836C95.973-21.371,69.297-6.267,55.114,3.58c-14.183,9.839-16.793,12.44-28.95,15.917&#xA;			c0,0,9.556,3.76,14.475,3.76c0,0-2.318,9.564-1.451,12.741c0,0,20.261-9.264,22.579-4.919s-7.237,7.246-13.891,8.972&#xA;			c-6.653,1.743-24.03,1.442-24.03,1.442s8.149,6.308,11.024,10.688c0,0-15.36,6.689-32.445,4.371c0,0-0.566,6.326,13.475,16.687&#xA;			c-2.991,1.071-6.777,2.805-9.122,5.309c0,0,14.714-3.035,23.96,7.264c2.433,3.052,3.229,5.786,2.955,9.237&#xA;			c-0.504,6.255-2.902,8.644-8.795,12.537c-3.371,1.371-6.954,3.088-10.414,5.202c-16.271,9.998-28.171,25.216-36.523,42.602&#xA;			c-3.619,7.529-6.512,16.28-8.556,24.216c-2.044,7.981-2.796,15.068-3.274,19.492C-34.345,203.512-35,217.43-35,217.43&#xA;			s7.299-10.228,10.723-15.13c3.406-4.884,24.995-32.029,56.44-39.894c10.06-2.557,20.076-3.628,29.649-3.628&#xA;			c23.013-0.018,43.566,6.229,55.732,12.183c17.66,8.547,46.672,28.72,84.708,35.028c8.955,1.478,18.607,2.212,28.614,2.212&#xA;			c9.6,0,19.536-0.699,29.463-2.053c-5.609,8.37-10.989,16.191-16.103,23.438c-5.185-4.937-12.219-5.45-12.219-5.45&#xA;			c-8.529-0.805-12.802,4.388-12.802,4.388c-1.726,1.867-3.018,4.291-3.522,7.149c-0.602,2.645,0.115,5.725,0.611,7.291&#xA;			c1.627,5.167,6.042,7.521,7.759,8.273c-12.466,16.607-16.085,35.728-16.085,35.736l-5.689,5.017l2.053,8.317&#xA;			c-3.167,10.201,1.805,17.855,8.255,21.022c6.547,3.221,12.661,1.354,12.661,1.354c3.849-1.079,7.335-3.504,9.706-7.06&#xA;			c0.364-0.54,0.681-1.088,0.964-1.637c1.327-0.717,2.469-1.522,3.442-2.389c1.796,0.204,6.397,0.345,6.397,0.345&#xA;			c9.432-0.08,18.651-2.752,25.685-8.724c5.539-4.955,11.635-13.404,11.847-24.951c0-2.168,0.398-10.909-6.822-18.527&#xA;			c45.558-66.889,75.135-109.951,94.016-153.765C420.508-10.16,377.835-58.584,377.65-59L377.65-59z"/>
		<path fill-rule="evenodd" clip-rule="evenodd" d="M227.486,280.886c-0.009,0.018-0.018,0.044-0.027,0.062&#xA;			c-0.009,0.009-0.009,0.018-0.009,0.027c0.009-0.018,0.018-0.035,0.027-0.053C227.477,280.904,227.486,280.895,227.486,280.886z&#xA;			 M318.476,176.182c-20.049,9.343-66.313,24.836-112.384,16.236c-16.032-2.991-37.134-7.998-65.04-24.915&#xA;			c-18.306-11.086-38.072-21.686-84.151-21.482c-38.169,0.186-62.686,17.483-70.49,23.915&#xA;			c20.713-67.579,81.939-57.696,81.939-57.696c-11.175-5.362-24.588-3.309-24.588-3.309c19.182-30.18-11.723-44.309-11.723-44.309&#xA;			c2.601,0,14.333-3.389,20.323-5.477c5.999-2.079,17.005-3.521,17.005-3.521c-3.84-3.53-15.705-6.379-15.705-6.379&#xA;			c11.21,0,21.358-5.433,28.419-12.785c2.46-2.557,9.193-15.36,1.557-20.323c-7.025-4.565-20.96,0.504-20.969,0.513&#xA;			c0.018-0.018,41.717-44.947,127.77-25.747c40.823,9.113,86.841,33.02,129.327,33.276c14.28,0.088,45.787-4.548,64.588-23.473&#xA;			C383.365,36.662,376.667,87.023,318.476,176.182z M264.31,255.298c-0.053-0.044-0.133-0.097-0.177-0.133&#xA;			c-1.088-0.991-2.494-2.185-4.052-3.486c2.539-3.619,31.631-46.875,40.16-60.288c2.983-1.053,5.884-2.203,8.75-3.406&#xA;			C303.223,197.107,271.751,244.53,264.31,255.298z M262.788,293.166c-3.946,3.442-10.653,5.636-17.66,5.503&#xA;			c-6.246-0.124-10.635-1.133-14.608-3.291c-0.018,0.044-0.027,0.08-0.034,0.133c-0.311,0.265-0.939,1.708-5.53,2.389&#xA;			c-3.08,0.504-4.866-0.115-5.053-0.177c5.415,5.477,10.316,2.026,10.316,2.026c0.231,0.956,0.566,1.637,0.566,1.637&#xA;			s-1.627,2.39-6.583,1.566c-0.602-0.097-1.115-0.265-1.619-0.451c0.097,0.053,0.186,0.088,0.283,0.15&#xA;			c1.902,1.248,2.415,3.805,1.169,5.698c-1.266,1.902-3.814,2.415-5.716,1.168c-1.894-1.256-2.416-3.813-1.16-5.707&#xA;			c1.026-1.557,2.902-2.168,4.592-1.663c-3.716-1.787-4.672-5.521-4.672-5.521c4.751-4.212,4.601-11.838,9.449-22.438&#xA;			c0.221-0.487,0.469-0.982,0.708-1.478c0,0.018-0.009,0.035-0.018,0.053c-1.053,2.637-2.062,7.167-1.646,10.467&#xA;			c0.089,0.717,0.231,1.371,0.398,2.008v0.009c0.071,0.292,1.699,6.884,6.149,5.813c-0.044,0.097-0.69,1.548-0.699,1.566&#xA;			c1.947,1.212,6.406,3.327,13.997,3.424c10.662,0.142,16.492-6.874,18.094-12.095c1.257-4.061-0.69-8.573-4.707-12.528&#xA;			c1.177-1.363,1.893-3.264,1.106-5.884c0.363,1.212-1.911,3.371-4.309,3.159c-0.221-0.018-0.434-0.053-0.655-0.115&#xA;			c-3.619-1.009-7.742-5.415-11.237-8.025c-3.477-2.61-4.495-6.654-4.424-9.52c0.053-2.867-0.92-6.264-3.654-8.839&#xA;			c-2.734-2.574-5.184-2.822-5.963-3.026c-0.787-0.211-1.009-0.699-0.929-1.221c0.16-0.858,1.266-0.699,1.266-0.699&#xA;			c6.636,1.327,11.483,7.902,12.554,9.83c0.991,1.77,11.467,9.954,15.519,13.537c1.893,1.38,10.095,7.671,11.564,14.121&#xA;			C271.388,282.443,266.726,289.734,262.788,293.166z M250.968,275.666c1.301,0.646,3.168,1.911,4.043,3.743&#xA;			c0.23,0.487,0.336,0.956,0.336,1.478c0.134,2.141-2.371,5.273-4.592,6.096c-1.61,0.664-3.743,0.991-5.804,0.982&#xA;			c-0.655,0-1.301-0.027-1.929-0.088c0.584-0.982,1.292-2.177,2.079-3.459C246.871,281.523,249.066,278.152,250.968,275.666z&#xA;			 M232.494,262.934c1.753-2.973,3.592-5.893,5.459-8.795c0.088-0.132,0.177-0.265,0.265-0.398c-0.08,0.611-0.292,3.928,0.823,7.22&#xA;			c0.646,1.575,1.672,3.167,3.291,4.654c1.451,1.336,2.663,2.407,3.672,3.247c-4.901,6.335-11.847,18.182-11.847,18.182&#xA;			c-2.973,0.177-4.459-0.805-6.139-4.388c-0.24-0.513-0.426-1.079-0.567-1.672v-0.009c-0.885-3.69-0.08-8.441-0.061-8.573&#xA;			C227.512,272.153,230.813,265.783,232.494,262.934z M281.466,196.921c4.07-0.991,8.096-2.07,12.051-3.309&#xA;			c0.115-0.035,0.231-0.071,0.345-0.115c-4.043,6.131-35.878,51.68-38.072,54.635c-0.177-0.142-5.645-4.822-5.839-4.99&#xA;			C258.064,231.869,281.006,197.62,281.466,196.921z M381.34-39.004c-0.505,24.225-7.141,41.098-7.141,41.098&#xA;			c-9.484,5.68-22.429,11.741-37.214,13.935c-30.887,4.565-46.061-0.053-74.666-9.202c-28.587-9.149-71.49-28.888-115.525-28.596&#xA;			C102.75-21.486,71.314-2.366,43.152,19.382c0.434-0.133,7.344-2.292,9.839-3.114c0,0-6.574,7.715-8.573,12.006&#xA;			c0,0,13.104-9.794,31.091-8.75c0,0-6.255,1.566-8.865,5.477c0,0,7.299-1.575,8.6,1.301c1.309,2.867-3.123,9.387-11.201,13.033&#xA;			c-8.078,3.654-21.12,6.521-29.463,7.043c0,0,8.352,2.61,13.82,7.821c0,0-6.37,0.911-13.298,3.645&#xA;			c-5.769,2.283-16.165,3.654-20.598,3.132c0,0,6.07,5.68,13.298,10.166c21.164,13.13,12.228,32.595,5.415,38.974&#xA;			c-4.486,1.274-51.246,13.997-61.961,89.486c0,0,23.694-33.055,59.572-42.186c35.886-9.131,70.676,0,88.937,8.91&#xA;			c18.262,8.919,46.53,28.481,83.275,34.577c20.208,3.353,44.54,2.743,68.092-1.761c-0.38,0.584-18.35,27.313-26.074,38.09&#xA;			c0,0-5.733-7.202-13.493-7.919c0,0-3.256-0.655-5.893,0.717v0.009c-2.327,1.071-4.318,3.362-4.964,6.538&#xA;			c-0.654,3.221,0.513,5.716,2.036,7.485c1.45,1.69,3.273,2.548,4.75,2.946c1.318,0.319,3.15,1.124,3.495,2.867&#xA;			c-3.539,5.45-8.388,13.325-11.883,20.934c-2.743,5.99-4.052,11.13-5.149,14.59c-1.035,3.548-1.955,4.937-2.256,5.114l-3.725,3.283&#xA;			c0,0,1.424,5.76,1.831,6.724c-0.902,1.716-1.354,3.61-1.363,5.477v0.106c0,3.911,1.929,7.751,5.433,10.061&#xA;			c2.734,1.884,6.689,1.999,6.689,1.999c3.902,0,7.733-1.929,10.042-5.397c0.557-0.841,0.983-1.725,1.292-2.61&#xA;			c2.805-1.141,4.53-2.734,5.424-4.043c2.079,0.478,8.131,0.664,8.379,0.664c8.458-0.062,16.474-2.486,22.341-7.485&#xA;			c4.716-4.22,9.865-11.439,10.033-21.111c0-1.725,0.522-10.821-8.211-18.041c7.547-10.909,16.82-24.508,26.57-39.257&#xA;			c18.129-27.472,32.958-51.343,44.239-71.276c11.803-20.262,48.733-75.923,48.654-152.138&#xA;			C389.293-24.742,381.34-39.004,381.34-39.004z M227.459,280.948c-0.009,0.009-0.009,0.018-0.009,0.027&#xA;			c0.009-0.018,0.018-0.035,0.027-0.053c0-0.018,0.009-0.027,0.009-0.035C227.477,280.904,227.468,280.93,227.459,280.948&#xA;			L227.459,280.948z"/>
		<path fill-rule="evenodd" clip-rule="evenodd" fill="#A71930" d="M288.182,127.165c-20.598,14.572-52.848,19.023-52.848,19.023&#xA;			c-0.363,1.398-2.495,2.867-2.495,2.867s3.3,1.221,11.405,7.317c8.096,6.096,5.901,5.795,8.485,7.538&#xA;			c2.584,1.734,4.052,1.248,4.052,1.248c0.779,1.566,0.877,3.893,0.877,3.893c1.079,1.017,6.361,6.061,1.45,11.281&#xA;			c-4.919,5.22-10.6,0.372-10.6,0.372c-2.008,0.425-3.964-0.239-3.964-0.239s-10.511,6.618-20.951-0.593&#xA;			c-8.495-5.857-7.982-12.803-7.485-15.2c-2.868,1.646-5.947,2.929-9.104,3.92c-8.521,2.672-19.395,3.778-30.198,0.186&#xA;			c-7.096-2.389-12.971-6.53-17.607-11.122c-4.645-4.601-8.078-9.679-10.316-14.254c-0.336-0.699-0.655-1.389-0.938-2.062&#xA;			c-0.743,1.77-4.3,8.486-15.315,8.007c-12.679-0.549-17.076-12.166-17.076-12.166s-1.955-0.655-3.3-2.194&#xA;			c0,0-7.45,0.442-8.228-6.689c-0.77-7.131,6.494-7.963,7.972-8.122c0,0,1.469-1.805,3.035-2.584c0,0,0.885,1.283,3.99,1.451&#xA;			c3.106,0.168,1.177-0.92,11.316-0.894c10.14,0.018,13.502,1.044,13.502,1.044s-0.814-2.46-0.257-3.796&#xA;			c0,0-23.031-23.004-30.666-47.052c-7.636-24.048-5.3-32.967,3.973-58.324c0,0,6.875,43.203,27.977,70.348&#xA;			c12.042,15.492,25.588,27.57,35.01,35.09c0.212,0,0.434,0.009,0.646,0.009c-2.008-2.238-3.539-4.866-4.3-7.874&#xA;			c-1.885-7.432-4.972-14.342-6.388-19.845c-1.416-5.512,1.734-16.528,1.734-16.528c-4.229-6.777-2.168-17.934-2.168-17.934&#xA;			s2.292-1.088,4.035-3.203c1.734-2.123,1.133-8.388,2.548-17.607s7.414-18.757,20.704-24.181&#xA;			c13.219-5.397,33.073,1.681,33.25,1.743c0.177,0.053,20.288,6.379,27.578,18.66c7.326,12.343,6.353,23.579,1.92,31.781&#xA;			c-4.432,8.211-8.697,12.838-8.582,15.581c0.106,2.734,1.283,4.981,1.283,4.981s-5.079,10.148-12.555,13.015&#xA;			c0,0-4.132,10.679-8.591,14.218c-4.442,3.539-11.077,7.184-17.067,11.98c-2.362,1.893-5.079,3.061-7.972,3.654&#xA;			c0.195,0.142,0.38,0.283,0.575,0.425c12.042-0.319,30.056-1.778,48.91-6.848c33.206-8.936,64.748-39.249,64.748-39.249&#xA;			C312.292,104.055,308.77,112.584,288.182,127.165z M319.768,24.178C277.281,23.921,231.264,0.014,190.44-9.099&#xA;			C104.387-28.298,62.688,16.63,62.67,16.648c0.009-0.009,13.944-5.079,20.969-0.513c7.636,4.964,0.902,17.766-1.557,20.323&#xA;			c-7.06,7.352-17.209,12.785-28.419,12.785c0,0,11.865,2.849,15.705,6.379c0,0-11.007,1.442-17.005,3.521&#xA;			c-5.99,2.088-17.722,5.477-20.323,5.477c0,0,30.905,14.13,11.723,44.309c0,0,13.413-2.053,24.588,3.309&#xA;			c0,0-61.226-9.883-81.939,57.696c7.804-6.432,32.321-23.73,70.49-23.915c46.079-0.204,65.845,10.396,84.151,21.482&#xA;			c27.906,16.917,49.008,21.925,65.04,24.915c46.071,8.6,92.335-6.892,112.384-16.236c58.192-89.159,64.889-139.52,65.88-175.477&#xA;			C365.555,19.63,334.048,24.266,319.768,24.178L319.768,24.178z"/>
		<path fill-rule="evenodd" clip-rule="evenodd" fill="#FFFFFF" d="M227.237,272.71c0,0.018-0.009,0.035-0.018,0.053&#xA;			c-1.054,2.637-2.062,7.166-1.647,10.468c0.088,0.716,0.231,1.371,0.399,2.008v0.01c-2.487,11.422-7.3,11.608-8.574,11.44&#xA;			c-0.203-0.027-0.319-0.063-0.319-0.063c4.75-4.211,4.6-11.837,9.449-22.438C226.75,273.701,226.998,273.205,227.237,272.71z&#xA;			 M238.217,253.739c-0.074,0.611-0.294,3.928,0.823,7.22c-0.009,0.008-6.142,8.027-11.591,20.023&#xA;			c0.087-0.227,0.04-0.116,0.007-0.032c-0.004,0.008-0.006,0.015-0.009,0.023c-0.882-3.689-0.078-8.441-0.06-8.573&#xA;			c0.123-0.248,3.423-6.618,5.105-9.469c1.752-2.972,3.592-5.892,5.46-8.794C238.041,254.005,238.129,253.872,238.217,253.739z&#xA;			 M293.861,193.5c-4.043,6.131-35.879,51.673-38.073,54.629c-0.178-0.142-5.646-4.822-5.84-4.99&#xA;			c8.114-11.272,31.056-45.515,31.516-46.214c4.071-0.991,8.097-2.07,12.051-3.309C293.631,193.58,293.747,193.544,293.861,193.5z&#xA;			 M241.142,160.334c0,0,1.782,1.429,1.931,1.541c0.678,0.513,2.131,1.857,2.799,2.515c0.551,0.544,1.102,1.088,1.647,1.639&#xA;			c0.401,0.406,2.059,1.97,2.621,2.389c0.426,0.317,0.857,0.596,1.305,0.816c0.41,0.201,0.834,0.359,1.284,0.468l0,0l-0.042,0.03&#xA;			c-0.923,0.692-2.008,1.146-3.175,1.146c-0.401,0-0.835-0.059-1.224-0.153c-0.544-0.133-1.065-0.331-1.563-0.587&#xA;			c-0.314-0.164-0.622-0.339-0.918-0.537c-0.181-0.121-0.365-0.253-0.551-0.394c-0.004-0.005-0.011-0.019-0.014-0.023&#xA;			c0.052-0.24,0.094-0.495,0.111-0.782c0.063-1.039-0.152-2.231-0.541-3.193C244.165,163.506,241.207,160.388,241.142,160.334z&#xA;			 M230.439,153.679c0.147,0.083,0.287,0.156,0.439,0.242c0.72,0.405,1.443,0.806,2.158,1.217c1.508,0.87,2.996,1.772,4.46,2.713&#xA;			c1.046,0.672,2.083,1.361,3.092,2.085c0.129,0.096,0.257,0.19,0.385,0.285c0.987,1.098,1.992,2.509,2.459,3.82&#xA;			c0.549,1.51,0.587,2.906,0.391,3.929c-3.207-3.086-9.951-8.043-11.849-9.026C232.159,156.678,231.222,154.816,230.439,153.679z&#xA;			 M176.578,127.238c1.024,0.132,2.023,0.282,3.002,0.447c-0.557,0.763-1.088,1.548-1.593,2.354&#xA;			c1.085,0.197,2.184,0.422,3.295,0.672c0.453-0.829,0.925-1.642,1.411-2.434c0.933,0.201,1.853,0.417,2.756,0.648&#xA;			c-0.415,0.82-0.821,1.66-1.218,2.513c1.034,0.276,2.075,0.577,3.121,0.903c0.329-0.877,0.66-1.742,0.99-2.592&#xA;			c0.878,0.273,1.748,0.564,2.613,0.875c-0.25,0.877-0.508,1.765-0.774,2.663c1.032,0.367,2.042,0.753,3.035,1.152&#xA;			c0.196-0.916,0.378-1.825,0.541-2.725c0.865,0.359,1.724,0.74,2.592,1.146c-0.089,0.917-0.203,1.84-0.339,2.766&#xA;			c1.035,0.463,2.046,0.94,3.029,1.428c0.079-0.932,0.127-1.863,0.143-2.791c0.883,0.458,1.77,0.943,2.666,1.455&#xA;			c0.042,0.935,0.044,1.87,0.005,2.801c0.541,0.296,1.071,0.593,1.593,0.893c0.005,0.146,0.007,0.292,0.011,0.439&#xA;			c0.019,0.822,0.008,1.649-0.029,2.481c-0.011,0.239-0.023,0.48-0.036,0.719c-0.626-0.318-1.26-0.634-1.905-0.948&#xA;			c-0.238,1.441-0.589,2.864-1.07,4.259c-0.952-0.553-1.925-1.084-2.905-1.593c0.431-1.337,0.769-2.69,1.026-4.051&#xA;			c-1.048-0.476-2.12-0.943-3.213-1.4c-0.288,1.293-0.634,2.584-1.039,3.871c-1.003-0.464-2.017-0.909-3.037-1.326&#xA;			c0.398-1.251,0.759-2.501,1.087-3.745c-1.07-0.412-2.157-0.813-3.262-1.201c-0.377,1.208-0.767,2.428-1.171,3.655&#xA;			c-1.04-0.373-2.08-0.725-3.133-1.051c0.417-1.223,0.841-2.43,1.269-3.62c-1.115-0.355-2.224-0.688-3.328-1.002&#xA;			c-0.488,1.188-0.954,2.4-1.389,3.636c-1.063-0.284-2.141-0.541-3.219-0.778c0.449-1.263,0.951-2.493,1.496-3.694&#xA;			c-1.149-0.291-2.289-0.562-3.414-0.81c-0.611,1.233-1.151,2.507-1.609,3.824c-1.088-0.188-2.185-0.348-3.282-0.484&#xA;			c0.453-1.386,1.026-2.72,1.696-3.999c-0.708-0.135-1.409-0.263-2.102-0.383c0.15-0.227,0.303-0.453,0.458-0.677&#xA;			c0.479-0.693,0.976-1.364,1.493-2.013c0.06-0.076,0.119-0.154,0.18-0.228c0.601,0.071,1.209,0.15,1.823,0.238&#xA;			C175.388,128.742,175.966,127.977,176.578,127.238z M309.973,93.757c-0.165,0.386-6.725,15.453-34.01,27.29&#xA;			c-1.213,0.526-2.451,1.05-3.748,1.562c-5.547,2.086-17.226,6.033-32.671,8.822c-6.244,1.127-12.561,1.896-18.881,2.427&#xA;			c-0.506,0.042-4.17,0.311-4.17,0.311c-1.149-1.473-2.409-2.925-3.788-4.351c8.374-0.37,16.973-1.201,25.412-2.717&#xA;			c34.818-6.257,56.202-20.819,66.454-28.915c0.937-0.741,1.762-1.413,2.516-2.034C308.847,94.725,309.941,93.823,309.973,93.757z&#xA;			 M129.611,123.216c0.311-0.002,0.93,0.011,0.883,0.016c-1.623,0.089-4.19,0.685-5.825,1.667c-0.009,0.004-0.018,0.012-0.027,0.019&#xA;			c-0.935,0.545-1.933,1.461-2.442,2.423c-0.034,0.063-0.219,0.413-0.27,0.47c-5.323,0-6.275-4.03-6.294-4.103&#xA;			c0.44,0.188,0.887,0.317,1.347,0.403l0,0l0.366,0.059c0.369,0.05,0.749,0.071,1.139,0.073c1.635,0.015,3.332-0.294,5.1-0.54&#xA;			C125.582,123.424,127.596,123.226,129.611,123.216z M130.738,123.23c0.697,0.014,1.394,0.035,2.09,0.07&#xA;			c1.099,0.053,2.197,0.132,3.293,0.23c2.207,0.197,4.775,0.49,6.964,0.837c-1.314,0.436-3.125,1.296-4.345,3.226&#xA;			c-0.017,0.017-0.035,0.035-0.048,0.05c-2.115-0.365-10.484-0.475-14.9,0.047c0.459-0.933,1.331-2.023,2.678-2.899&#xA;			C127.631,124.029,129.291,123.509,130.738,123.23z M115.789,28.591c1.905,8.016,7.565,37.861,37.194,69.958&#xA;			c5.862,6.35,12.273,12.239,18.779,17.62c-1.964,0.319-3.862,0.728-5.67,1.222c-4.553-4.013-15.084-14.388-15.634-14.928&#xA;			l-0.022-0.022c-8.815-8.874-15.396-17.401-20.347-25.328c-1.032-1.688-1.833-3.079-2.473-4.12l0,0l-0.98-1.762&#xA;			C112.97,46.2,115.789,28.591,115.789,28.591z M175.194,82.946c1.386-1.16,4.505-0.619,4.505-0.619s1.4,1.471,1.73,2.572&#xA;			c0.321,1.108-0.011,7.144,2.374,11.297l0,0v-0.098c0,0,0.118-0.439,0.624-1.193c0.511-0.755,1.502-1.824,2.097-1.401&#xA;			c0.595,0.421,0.515,1.608,0.501,2.879c-0.01,1.271-0.439,2.629-0.76,3.014c0,0,0.495,1.013,1.84,1.655&#xA;			c0,0-0.057-0.484,0.042-1.174c0.212-1.218,0.825-2.223,1.217-3.331c0.119-0.388,0.498-0.787,1.063-0.484&#xA;			c0.011,0,1.124,0.58,2.11,1.073c0.114,0.083,0.8,0.606,0.434,1.59c-0.017,0.036-0.02,0.057-0.031,0.084&#xA;			c-0.014,0.045-0.035,0.083-0.049,0.128c-0.37,0.928-0.684,1.777-1.157,2.756c0,0-0.242,0.904-0.667,0.942&#xA;			c0,0,0.829,0.544,1.202,0.702c0.571,0.242,1.281,0.548,1.632,0.634c0,0-0.379-0.586-0.283-1.423&#xA;			c0.227-1.193,0.58-2.834,0.881-4.208c0.104-0.323,0.394-0.869,1.057-0.66c0.747,0.308,1.507,0.6,2.268,0.878&#xA;			c0.639,0.268,0.633,0.899,0.608,1.111c-0.349,1.517-0.74,3.336-1.155,4.788c-0.095,0.221-0.227,0.532-0.338,0.646&#xA;			c0,0,0.684,0.48,1.144,0.602c0.456,0.119,1.324,0.296,1.324,0.296s-0.166-0.587,0.044-1.213c0.004-0.012,0.004-0.023,0.004-0.038&#xA;			c0.339-0.97,0.68-1.943,1.024-2.922c0.082-0.25,0.325-0.803,0.463-1.163c0.074-0.181,0.37-0.738,1.047-0.595&#xA;			c0.893,0.268,1.79,0.515,2.691,0.74c0.667,0.197,0.285,1.22,0.285,1.22s-0.967,2.376-1.593,3.907l0,0&#xA;			c-0.007-0.003-0.218,0.536-0.564,0.819c0,0,0.621,0.275,1.087,0.368c0.982,0.194,1.566,0.175,1.812,0.192&#xA;			c0,0-0.303-0.733,0.053-1.609c0.021-0.036,0.031-0.081,0.045-0.121c0.299-0.693,0.61-1.386,0.897-2.081&#xA;			c0.084-0.196,0.158-0.394,0.236-0.593c0.101-0.301,0.578-0.793,1.363-0.653c0.027,0.002,0.043-0.002,0.068,0.002&#xA;			c0.626,0.118,1.253,0.223,1.88,0.319l0,0c0.006,0.007,1.128,0.237,0.718,1.288c-0.567,1.259-1.168,2.522-1.842,3.793&#xA;			c0.7,0.055,1.407,0.095,2.114,0.114c0,0-0.088-0.063,0.202-0.848c0.29-0.785,1.14-2.458,1.225-2.707&#xA;			c0.085-0.245,0.41-1.217,0.818-1.265c0.411-0.043,2.013,1.24,1.596,3.714c4.402-1.88,7.763-6.882,8.688-7.563&#xA;			c0.809-0.596,2.424-0.919,2.83-0.994c0.68,0.391,2.653,1.628,2.988,3.085c0,0-3.316,3.052-7.399,4.85&#xA;			c-4.089,1.8-10.272,5.698-12.709,7.322c-0.923,0.614-2.177,1.144-3.763,1.436c-0.989-1.764-4.429-3.942-8.838-5.423&#xA;			c-4.609-1.548-8.841-1.847-10.567-0.888c-1.258-1.289-2.026-2.576-2.42-3.712c-0.959-2.764-3.546-9.607-5.717-13.504&#xA;			C175.999,87.38,175.194,82.946,175.194,82.946z M188.547,32.202c0.088-4.592,4.946-23.491,30.135-19.2&#xA;			c4.645,0.964,8.37,2.088,9.343,2.398c0.097,0.035,0.186,0.062,0.283,0.097c0.478,0.15,1.133,0.363,1.921,0.655&#xA;			c0.229,0.088,0.468,0.177,0.716,0.274c0.327,0.124,0.672,0.257,1.035,0.407c0.478,0.195,0.982,0.407,1.513,0.637&#xA;			c0.522,0.239,1.071,0.487,1.638,0.761c1.229,0.593,2.538,1.292,3.857,2.088c0.133,0.071,0.265,0.15,0.389,0.23&#xA;			c0.044,0.018,0.08,0.044,0.115,0.071c10.255,6.238,13.068,13.856,13.068,20.155c0,5.539-2.177,10.069-3.371,11.741&#xA;			c-1.681,2.336-3.194,3.937-3.973,5.114c-0.929-1.663-1.646-3.433-1.92-5.202l0,0.006l0.002,0.02&#xA;			c0.035,0.522,0.634,8.558,4.724,12.685l0.211,0.206c0,0-2.38,5.317-2.876,8.547c-0.487,3.238,0.77,6.645,0.77,6.645&#xA;			s-0.319,0.513-0.779,1.221c-2.512,2.964-6.91,5.53-9.272,5.096c-2.681-0.495-9.14-2.69-12.882-1.92&#xA;			c-3.07,0.637-4.919,2.371-5.937,4.123c0,0,0.009-0.009,0.018-0.009c-0.274,0.327-0.531,0.69-0.708,1.115&#xA;			c0,0-0.796,1.389-1.017,3.247c-0.548-0.239-1.017-0.425-1.017-0.425c0.009,0.097,0.009,0.23-0.018,0.372&#xA;			c-0.035,0.274-0.159,0.717-0.176,0.779c-0.01,0.097-0.019,0.168-0.035,0.195c-0.063,0.248-0.134,0.495-0.196,0.743&#xA;			c-0.247,0.902-0.468,1.637-0.752,2.522c-0.009,0.009-0.027,0.035-0.035,0.062c-0.283,0.841-1.133,0.566-1.133,0.566&#xA;			c-0.009,0-0.096-0.035-0.096-0.035c-0.62-0.31-1.301-0.637-2.009-0.973c0,0-0.796-0.416-0.672-1.239&#xA;			c-0.009-0.018,0-0.035,0.009-0.062c0.009-0.035,0-0.062,0.019-0.088c0.026-0.071,0.043-0.159,0.07-0.221&#xA;			c0.221-0.796,0.69-2.504,0.752-2.902c0.08-0.469,0.389-1.327,0.584-1.663c-0.133-0.133-0.469-0.495-0.761-0.637&#xA;			c-0.248-0.124-0.513-0.177-0.876-0.15c-0.133,0.115-0.354,0.46-0.363,0.646c-0.009,0.106-0.291,0.991-0.602,1.964&#xA;			c-0.318,0.982-0.681,2.062-0.841,2.548c-0.176,0.531-0.557,0.646-0.867,0.646c-0.192,0-0.355-0.045-0.424-0.067l-0.036-0.012&#xA;			c-0.618-0.248-1.46-0.549-2.123-0.796c-0.043-0.009-0.08-0.035-0.124-0.044c-0.796-0.301-0.743-0.982-0.69-1.256&#xA;			c0.345-1.026,0.787-2.327,1.124-3.344c0.071-0.239,0.159-0.478,0.23-0.726c0-0.009,0.009-0.018,0.018-0.035&#xA;			c0.027-0.106,0.327-0.867,0.787-1.097c-0.301-0.23-0.902-0.469-1.353-0.628c-0.541-0.177-1.505-0.345-1.558-0.354&#xA;			c0.159,0.345,0.196,0.947,0.115,1.248c-0.115,0.398-1.177,4.105-1.221,4.247c-0.053,0.142-0.239,0.584-0.531,0.69&#xA;			c-0.283,0.106-1.079-0.15-1.079-0.15c-0.053-0.009-0.088-0.018-0.133-0.027c-0.672-0.203-1.628-0.354-2.264-0.531&#xA;			c0,0-1.045-0.301-0.718-1.256c0,0,0.681-2.495,1.018-3.681c0-0.027,0.009-0.071,0.018-0.106c0.027-0.088,0.177-0.584,0.23-1.336&#xA;			s-0.451-0.929-0.823-0.929c-0.353,0-0.743,0.637-0.831,1.009c-0.098,0.398-0.319,1.062-0.319,1.062l0,0l-0.027,0.062&#xA;			c-0.027,0.062-0.053,0.124-0.071,0.177c-0.363,0.964-0.646,1.761-0.973,2.725c-0.308,0.815-1.156,0.752-1.331,0.73l-0.032-0.005&#xA;			c-0.761-0.159-1.495-0.31-2.177-0.434c-0.009,0-0.097-0.027-0.097-0.035c0,0-0.849-0.292-0.566-1.133c0-0.027,0-0.053,0.018-0.08&#xA;			c0.302-0.876,0.557-1.584,0.911-2.46c0.097-0.23,0.451-1.071,0.655-1.398c0.212-0.327,0.495-0.504,0.495-0.504&#xA;			c0.01-0.195-0.283-0.557-0.814-0.743c-0.061-0.018-0.133-0.035-0.212-0.053c0.31-0.77,0.699-1.831,0.885-2.725&#xA;			c0.584-2.168,0.513-5.22-2-8.096c-2.522-2.876-9.007-5.017-11.431-6.238c-2.433-1.221-4.619-7.087-4.327-11.139&#xA;			c0,0,3.052-1.964,4.61-4.84c1.575-2.867,2.867-8.538,2.867-8.538c5.884-0.664,11.387-6.928,11.724-7.317&#xA;			c-1.461,1.407-3.372,2.46-5.354,3.274C188.706,37.821,188.485,35.556,188.547,32.202z"/>
		<path fill-rule="evenodd" clip-rule="evenodd" fill="#B1BABF" d="M228.74,237.954c0.161-0.858,1.267-0.699,1.267-0.699&#xA;			c6.636,1.327,11.484,7.901,12.554,9.83c0.992,1.77,11.468,9.955,15.52,13.538c1.894,1.38,10.096,7.672,11.564,14.122&#xA;			c1.744,7.698-2.919,14.988-6.857,18.422c-3.946,3.442-10.654,5.635-17.661,5.503c-6.247-0.125-10.635-1.133-14.607-3.291&#xA;			c-0.019,0.044-0.028,0.08-0.036,0.133c-0.31,0.265-0.939,1.707-5.53,2.389c-3.08,0.504-4.866-0.115-5.053-0.177&#xA;			c5.416,5.478,10.316,2.026,10.316,2.026c0.232,0.956,0.566,1.637,0.566,1.637s-1.627,2.39-6.582,1.567&#xA;			c-0.603-0.098-1.116-0.265-1.619-0.451c0.096,0.053,0.185,0.088,0.282,0.15c1.903,1.248,2.415,3.805,1.169,5.697&#xA;			c-1.266,1.903-3.813,2.416-5.716,1.169c-1.894-1.256-2.416-3.813-1.16-5.707c1.026-1.557,2.901-2.169,4.592-1.663&#xA;			c-3.716-1.787-4.672-5.523-4.672-5.523s0.115,0.035,0.319,0.063c1.274,0.168,6.087-0.018,8.574-11.44&#xA;			c0.071,0.292,1.699,6.883,6.149,5.812c-0.044,0.098-0.69,1.548-0.699,1.567c1.946,1.212,6.406,3.327,13.997,3.424&#xA;			c10.662,0.142,16.493-6.875,18.095-12.095c1.256-4.062-0.69-8.574-4.708-12.529c1.177-1.363,1.894-3.265,1.106-5.885&#xA;			c0.363,1.213-1.911,3.372-4.31,3.16c-0.221-0.019-0.432-0.054-0.653-0.115c-3.62-1.01-7.744-5.416-11.238-8.026&#xA;			c-3.477-2.61-4.495-6.654-4.424-9.52c0.051-2.868-0.921-6.265-3.655-8.84c-2.734-2.575-5.184-2.822-5.963-3.026&#xA;			C228.882,238.963,228.661,238.476,228.74,237.954z M250.965,275.665c1.301,0.646,3.168,1.911,4.043,3.743&#xA;			c0.23,0.487,0.337,0.956,0.337,1.477c0.134,2.142-2.371,5.274-4.593,6.098c-1.61,0.664-3.743,0.991-5.805,0.981&#xA;			c-0.655,0-1.299-0.026-1.928-0.088c0.584-0.983,1.293-2.177,2.078-3.459C246.868,281.522,249.064,278.151,250.965,275.665z&#xA;			 M239.04,260.959c0.646,1.575,1.672,3.167,3.291,4.654c1.452,1.336,2.663,2.407,3.673,3.248&#xA;			c-4.902,6.335-11.848,18.182-11.848,18.182c-2.972,0.178-4.46-0.804-6.14-4.388c-0.24-0.514-0.425-1.079-0.566-1.672&#xA;			C232.898,268.986,239.031,260.967,239.04,260.959z M308.992,187.988c-5.769,9.122-37.242,56.54-44.685,67.308&#xA;			c-0.051-0.044-0.133-0.097-0.176-0.133c-1.089-0.991-2.495-2.186-4.052-3.486c2.538-3.62,31.632-46.878,40.162-60.283&#xA;			C303.223,190.341,306.125,189.191,308.992,187.988z M230.147,143.11c0,0,0.517-0.382,0.825,0.008&#xA;			c0.181,0.241,0.203,0.553-0.14,0.868c-0.335,0.318-1.509,1.101-2.203,3.14c-0.696,2.053-0.265,4.036,0.537,5.475&#xA;			c0.745,1.335,1.062,2.945,0.805,4.457c-0.088,0.537-0.252,1.075-0.481,1.568c-0.569,1.216-1.015,2.486-1.53,3.726&#xA;			c-0.564,1.351-1.189,2.609-1.994,3.375c-0.894,0.848-2.336,0.587-3.22-0.127c-0.036-0.03-0.081-0.049-0.115-0.08&#xA;			c0.372,1.597,1.373,2.236,2.41,2.466c-0.486,3.186,0.645,5.505,4.481,7.387c3.925,1.923,10.733,1.916,15.817-2.937&#xA;			c-0.509-0.572-1.118-0.992-1.711-1.467c-0.009-0.007-0.018-0.016-0.026-0.019c0.395-0.114,0.905-0.331,1.23-0.735&#xA;			c0.181-0.226,0.31-0.597,0.403-1.025l0,0l0.021,0.016c0.187,0.141,0.37,0.273,0.551,0.394c0.296,0.198,0.603,0.373,0.918,0.537&#xA;			c0.498,0.257,1.019,0.455,1.563,0.587c0.388,0.094,0.823,0.153,1.224,0.153c1.167,0,2.252-0.454,3.175-1.146&#xA;			c0.011-0.008,0.023-0.013,0.032-0.021c0.01,0.004,0.088,0.565,0.093,0.689c0.038,0.726-0.042,1.882-0.724,3.009&#xA;			c0.703-0.536,1.685-0.65,2.517-0.196c1.131,0.61,1.552,2.027,0.937,3.154c-0.61,1.13-2.025,1.553-3.156,0.938&#xA;			c-1.092-0.593-1.496-1.923-0.972-3.029c-0.181,0.187-0.355,0.377-0.582,0.555c-1.34,1.028-2.385,1.187-3.037,1.148&#xA;			c-0.463-0.029-0.731-0.158-0.731-0.158s0.027-0.294-0.104-0.782c-0.018-0.066-0.028-0.125-0.052-0.199&#xA;			c0.159,0.014,0.455,0.019,0.823-0.033c1.133-0.161,2.986-0.879,3.874-3.797c0,0-0.218,0.283-0.591,0.649&#xA;			c-0.816,0.805-2.496,2.01-4.808,1.839c-1.109,0.951-7.978,6.41-16.207,3.498c-8.987-3.183-9.056-8.73-8.831-10.542&#xA;			c0.147-1.184,0.779-3.133,0.81-3.228c0.731-2.272,4.438-10.476,4.457-11.746C226.458,150.208,227.138,145.57,230.147,143.11z&#xA;			 M231.974,158.945c1.898,0.983,8.642,5.939,11.849,9.026c-0.101,0.514-0.242,0.96-0.446,1.221&#xA;			c-0.319,0.399-0.781,0.618-1.179,0.752c-2.821-1.931-7.107-4.465-11.625-6.499c0.279-0.698,0.6-1.565,0.981-2.638&#xA;			C231.796,160.116,231.974,158.945,231.974,158.945z M149.028,115.622c0.484-0.127,0.669,0.492,0.669,0.492&#xA;			c0.912,3.776-1.341,7.886-2.088,8.912c-0.75,1.023-2.747,9.804-3.536,12.061c0,0-0.93,2.315-1.3,3.062&#xA;			c-0.816,1.632-4.317,5.963-13.403,3.076c-8.323-2.641-10.549-11.129-10.861-12.549c-2.837-1.826-2.758-5.257-2.758-5.257&#xA;			c-1.396,3.801,0.899,5.541,1.438,5.89c-0.062-0.041-0.539,0.457-0.595,0.523c-0.009,0.01-0.115,0.162-0.124,0.16&#xA;			c0,0-0.816-0.154-1.566-1.214c-0.312-0.442-0.617-1.025-0.84-1.844c-0.081-0.296-0.134-0.581-0.164-0.856&#xA;			c-0.004,0.032-0.004,0.062-0.009,0.093c-0.194,1.285-1.396,2.166-2.679,1.974c-1.282-0.194-2.17-1.397-1.977-2.682&#xA;			c0.193-1.286,1.396-2.169,2.678-1.972c1.012,0.151,1.777,0.932,1.96,1.887c0.072-2.315,1.761-3.672,1.761-3.672&#xA;			c0.019,0.073,0.971,4.103,6.294,4.103c-0.185,0.399-0.306,0.772-0.299,1.061c0.018,0.519,0.29,0.998,0.543,1.328l0,0l-0.261,0&#xA;			c-0.588,0.001-2.022,0.014-2.024,0.137c1.126,6.941,6.555,11.052,10.843,11.883c4.189,0.814,6.491-0.349,8.02-3.173&#xA;			c0.97,0.442,2.162,0.52,3.424-0.526c-1.848,0.079-2.65-1.041-2.79-1.851c-0.367-2.126,0.957-5.347,1.472-7.792&#xA;			c0.522-2.446,2.38-3.944,3.889-4.605c1.514-0.662,3.048-1.986,3.733-4.041c0.682-2.046,0.214-3.379,0.138-3.836&#xA;			C148.538,115.937,148.738,115.702,149.028,115.622z M309.973,93.757c0.004-0.002-0.162,0.482-0.162,0.482&#xA;			c-2.032,5.86-5.796,11.311-9.917,15.889c-2.995,3.329-6.26,6.36-9.744,9.172c-5.343,4.311-11.419,7.808-17.614,10.733&#xA;			c-6.154,2.906-12.606,5.213-19.161,7.031c-10.253,2.843-21.101,4.334-31.821,4.935c-0.818-1.588-1.793-3.211-2.895-4.848&#xA;			c34.453-2.467,57.131-15.967,57.131-15.967l0,0l0.173-0.138C303.248,109.211,309.808,94.143,309.973,93.757z M123.791,127.69&#xA;			c4.417-0.522,12.785-0.412,14.9-0.047c0.013-0.016,0.031-0.034,0.048-0.05c-0.328,0.52-0.624,1.098-0.841,1.785&#xA;			c-0.349,1.08-0.611,1.969-0.814,2.693c-5.091-1.397-13.189-1.829-13.189-1.829c-0.232-0.341-0.47-0.799-0.484-1.308&#xA;			C123.404,128.603,123.561,128.161,123.791,127.69z M115.789,28.591c0,0-2.819,17.609,10.847,42.64l-0.041-0.075l-0.036-0.065&#xA;			c0,0,9.74,24.092,35.285,46.688l0.779,0.684c-1.867,0.65-3.622,1.358-5.229,2.124c-0.257,0.122-2.833-2.444-3.149-2.724&#xA;			c-2.575-2.279-5.084-4.631-7.515-7.062c-5.664-5.665-10.888-11.784-15.467-18.36c-3.719-5.338-7.058-10.96-9.758-16.881&#xA;			c-2.639-5.786-4.791-11.781-6.137-18.003c-1.267-5.857-1.829-11.881-1.512-17.869c0.187-3.539,0.618-7.219,1.762-10.591&#xA;			C115.619,29.094,115.789,28.591,115.789,28.591z M177.285,72.015c0,0,2.402,1.165,3.151,1.602c0,0-0.005,0.026-0.012,0.078&#xA;			c-0.09,0.672-0.724,5.464-0.756,7.77c-0.004,0.354,0.003,0.649,0.033,0.862c0,0-3.12-0.541-4.505,0.619&#xA;			c0,0,0.805,4.434,2.979,8.335c2.17,3.897,4.757,10.74,5.717,13.504c0.394,1.135,1.162,2.423,2.42,3.712&#xA;			c1.726-0.959,5.958-0.66,10.567,0.888c4.409,1.481,7.849,3.659,8.838,5.423c1.586-0.292,2.84-0.822,3.763-1.436&#xA;			c2.437-1.624,8.62-5.523,12.709-7.322c4.083-1.799,7.399-4.85,7.399-4.85c-0.335-1.457-2.308-2.694-2.988-3.085&#xA;			c0.06-0.011,0.095-0.015,0.095-0.015c1.134-1.148,4.248-6.64,4.633-7.321c0.027-0.047,0.04-0.071,0.04-0.071&#xA;			c0.864,0.105,3.474,0.62,3.474,0.62s-2.72,6.325-4.331,9.049c-1.606,2.713-2.914,3.636-4.48,4.742&#xA;			c-1.563,1.102-8.467,5.664-10.295,6.953c-1.822,1.289-6.67,5.639-10.904,6.39c-2.1,0.372-3.921,0.417-5.649,0.223&#xA;			c-1.728-0.195-3.367-0.627-5.095-1.206c-0.011-0.002-0.021-0.007-0.031-0.012c-0.014-0.004-0.027-0.005-0.035-0.008&#xA;			c-3.457-1.163-6.26-2.572-9.163-5.7c-2.56-2.757-3.829-7.997-4.561-10.691c-0.105-0.385-0.198-0.718-0.285-0.985&#xA;			c-0.677-2.127-3.428-9.93-4.012-11.753c-0.587-1.826-1.071-3.35-0.712-6.485c0.335-2.945,1.798-9.006,1.981-9.753&#xA;			C177.278,72.04,177.285,72.015,177.285,72.015z M216.571,90.168c0,0,1.566-1.106,4.37-0.972c0,0-0.017,0.017-0.017,0.026l0,0&#xA;			l0.017-0.009c-0.079,0.212-0.715,1.955-0.885,3.486c-0.096,0.947-0.557,3.336-0.557,3.354c-0.823,2.867-3.583,4.45-3.832,4.291&#xA;			c-0.292-0.186-0.672-0.885,0.566-4.849c0-0.194,0.638-0.424,0.779-0.415c0.256-0.044,0.512-0.08,0.769-0.124&#xA;			c0,0-0.071-0.15-0.336-0.531c-0.115-0.187-0.415-0.302-0.601-0.408c-0.213-0.115-1.292-0.593-1.292-0.602&#xA;			c0.203-1.702,0.889-3.012,1.002-3.219L216.571,90.168z M174.754,56.589c-0.292,4.052,1.893,9.919,4.327,11.14&#xA;			c2.424,1.22,8.91,3.361,11.433,6.238c2.513,2.876,2.584,5.929,2,8.097c-0.187,0.893-0.576,1.955-0.885,2.725&#xA;			c-0.17-0.044-0.346-0.071-0.522-0.088c-0.513-0.062-1.328-0.116-1.497,0.522c-0.008,0.026-0.017,0.044-0.017,0.044&#xA;			c0.08,0.273,0.142,0.61,0.106,0.796c-0.045,0.204-0.115,0.389-0.15,0.479c-1.389,3.902-2.123,4.237-2.469,4.211&#xA;			c-0.292-0.017-1.54-2.954-0.469-5.734c0.008-0.017,0.017-0.035,0.017-0.052c0.549-1.24,1.071-2.142,1.558-2.956&#xA;			c0.858-1.416,1.407-3.335,1.407-3.335l0,0l0.017,0.035v-0.027c0.718,0.488,1.327,1.08,1.894,1.725&#xA;			c0.017,0.019,0.026,0.027,0.026,0.036c0.257,0.425,0.655,0.751,0.885,1.203c0.063,0.132,0.107,0.257,0.107,0.353&#xA;			c0.194-0.743,0.168-1.645-0.116-2.37c-0.017-0.027-0.017-0.054-0.026-0.08c-1.052-2.876-3.778-4.566-6.309-6&#xA;			c-1.69-0.956-3.451-1.788-5.229-2.566c-5.211-2.292-5.291-3.813-5.99-6.22c-0.08-0.302-0.15-0.656-0.203-1.045&#xA;			c-0.097-0.769-0.124-1.69-0.124-2.601C174.524,58.845,174.754,56.589,174.754,56.589z M245.345,81.762&#xA;			c-0.017,0.035-0.036,0.062-0.062,0.096c-1.044,1.859-2.45,3.85-4.168,5.141c-2,1.504-2.981,2.663-8.528,1.353&#xA;			c-2.177-0.521-4.381-0.99-6.6-1.264c-2.841-0.363-6.601-0.46-8.672,1.928c-0.01,0.019-0.019,0.019-0.035,0.036&#xA;			c-0.019,0-0.027,0.018-0.035,0.027c1.026-1.761,2.876-3.504,5.955-4.141c3.743-0.771,10.201,1.424,12.883,1.92&#xA;			C238.444,87.292,242.833,84.725,245.345,81.762z M211.088,67.454c2,0.801,3.112,2.809,2.509,4.611&#xA;			c-0.38,1.15-0.292,2.07-0.204,3.291l0,0l0.011,0.035v0.019c0.043,0.981,0.265,1.503,0.503,2.176&#xA;			c0.241,0.629,0.533,1.629,0.161,2.654l0,0l-0.47,1.398c-0.627,1.885-2.893,2.814-5.051,2.098l0,0c0-0.01,1.449-0.38,1.92-1.77&#xA;			c0.008-0.018,0.017-0.036,0.017-0.053c0.894-0.134,1.673-0.664,1.954-1.513l0,0l0.496-1.46c0.495-1.495-0.61-2.169-0.672-4.584&#xA;			c-0.088-1.248-0.176-2.461,0.31-3.902C212.961,69.285,212.308,67.991,211.088,67.454z M205.793,69.436&#xA;			c0.612-1.787,2.708-2.734,4.815-2.141c-1.302-0.328-2.62,0.319-3.009,1.486c-0.487,1.451-1.309,2.353-2.123,3.291&#xA;			c-1.513,1.893-2.806,1.761-3.3,3.257l0,0l-0.495,1.459c-0.284,0.841,0.017,1.726,0.637,2.372&#xA;			c-0.009,0.018-0.019,0.043-0.019,0.062c-0.468,1.398,0.469,2.565,0.469,2.565c-2.149-0.725-3.389-2.83-2.761-4.707l0,0&#xA;			l0.471-1.398c0.326-1.045,1.148-1.672,1.734-2.026c0.601-0.389,1.088-0.672,1.716-1.424l0,0l0.026-0.036&#xA;			C204.777,71.277,205.413,70.587,205.793,69.436z M243.647,64.959l0.079,0.008c0,0-1.106,7.468-2.929,10.397&#xA;			c-1.824,2.938-3.565,5.646-8.097,5.398c0,0,2.628-0.761,1.788-2.823c-0.062-0.15-0.106-0.3-0.142-0.459&#xA;			c1.212-0.681,2.3-1.194,3.291-2.23c1.318-1.372,2.361-3.063,3.114-4.796c0.328-0.771,0.603-1.557,0.825-2.362&#xA;			c0,0,0.584-2.682,1.716-3.079C243.417,64.995,243.531,64.976,243.647,64.959L243.647,64.959z M208.138,57.659&#xA;			c0.964,2.097,8.565,4.645,10.645,3.574c-0.01,0.044-0.204,2.778-0.196,4.406c0.009,1.638,0.567,7.964,3.337,9.619l0,0&#xA;			c0.009,0-0.683,0.822,0.202,3.398c-0.212-0.071-3.681-1.354-4.927-4.159c-1.292-2.885-0.035-10.636-4.672-12.255&#xA;			c-4.673-1.512-8.344,5.433-11.124,6.955c-2.768,1.521-6.449,0.344-6.449,0.344c2.135-1.423,2.219-2.451,2.221-2.578l0-0.013&#xA;			c3.202,0.354,7.452-4.354,8.45-5.663C206.618,59.987,208.138,57.659,208.138,57.659z M185.991,45.59l0.054,0.035l0.018,0.009&#xA;			c0.079,0.08,0.168,0.168,0.248,0.257c0.664,1-0.487,3.487-0.487,3.487c-0.292,0.726-0.523,1.469-0.718,2.221&#xA;			c-0.664,2.575-0.911,5.769,0.15,8.335c0.044,0.088,0.718,1.256,0.682,1.292c-0.062,0.053-0.125,0.106-0.196,0.15&#xA;			c-0.071,0.053-0.141,0.098-0.211,0.142c-1.841,1.079-0.398,3.15-0.283,3.309c-3.752-2.522-3.522-5.733-3.195-9.175&#xA;			C182.372,52.217,185.991,45.59,185.991,45.59L185.991,45.59z M235.131,18.232l1.025,0.434&#xA;			c26.375,12.688,20.562,32.728,19.049,36.559c-1.371,3.442-4.096,6.839-5.29,8.777c-1.399-1.531-3.283-3.813-4.699-6.37&#xA;			c0.779-1.177,2.292-2.778,3.973-5.114c1.194-1.672,3.371-6.202,3.371-11.741c0-6.3-2.814-13.917-13.068-20.155&#xA;			c-0.035-0.027-0.071-0.053-0.115-0.071c-0.124-0.08-0.257-0.159-0.389-0.23C237.67,19.524,236.36,18.825,235.131,18.232z&#xA;			 M194.22,40.945c4.407-1.097,11.565,5.574,15.776,9.088c3.584,3.167,5.151,3.468,5.47,3.557c0.326,0.124,1.751,0.831,6.503,0.459&#xA;			c5.486-0.256,15.219-1.264,18.077,2.275c0,0.097-6.919-0.681-11.583,0.071c-4.636,0.982-11.218,1.611-14.139,0.593&#xA;			c-2.937-0.948-7.813-5.424-10.909-8.998C200.167,44.599,194.22,41.06,194.22,40.945z M209.198,11.994&#xA;			c2.115,0,4.38,0.15,6.813,0.495c0.876,0.15,1.725,0.319,2.548,0.487l0.124,0.027l0,0c-25.19-4.291-30.047,14.608-30.135,19.2&#xA;			c-0.062,3.353,0.159,5.618,0.053,6.963c-3.663,1.531-7.583,2.088-7.583,2.088c0.212-2.123,0.204-6.813,1.115-10.511&#xA;			C182.991,27.265,188.795,12.083,209.198,11.994z"/>
		<path fill-rule="evenodd" clip-rule="evenodd" fill="#0A0B09" d="M196.687,8.296c13.219-5.397,33.073,1.681,33.25,1.743&#xA;			c0.177,0.053,20.288,6.379,27.578,18.66c7.326,12.343,6.353,23.579,1.92,31.781c-4.432,8.211-8.697,12.838-8.582,15.581&#xA;			c0.106,2.734,1.283,4.981,1.283,4.981s-5.079,10.148-12.555,13.015c0,0-4.132,10.679-8.591,14.218&#xA;			c-4.442,3.539-11.077,7.184-17.067,11.98c-2.362,1.893-5.079,3.061-7.972,3.654c0.195,0.142,0.38,0.283,0.575,0.425&#xA;			c12.042-0.319,30.056-1.778,48.91-6.848c33.206-8.936,64.748-39.249,64.748-39.249c-7.891,25.818-11.414,34.347-32.001,48.928&#xA;			c-20.598,14.572-52.848,19.023-52.848,19.023c-0.363,1.398-2.495,2.867-2.495,2.867s3.3,1.221,11.405,7.317&#xA;			c8.096,6.096,5.901,5.795,8.485,7.538c2.427,1.629,3.87,1.298,4.036,1.252l0.016-0.005c0.779,1.566,0.877,3.893,0.877,3.893&#xA;			c1.079,1.017,6.361,6.061,1.45,11.281c-4.919,5.22-10.6,0.372-10.6,0.372c-2.008,0.425-3.964-0.239-3.964-0.239&#xA;			s-10.511,6.618-20.951-0.593c-8.495-5.857-7.982-12.803-7.485-15.2c-2.868,1.646-5.947,2.929-9.104,3.92&#xA;			c-8.521,2.672-19.395,3.778-30.198,0.186c-7.096-2.389-12.971-6.53-17.607-11.122c-4.645-4.601-8.078-9.679-10.316-14.254&#xA;			c-0.336-0.699-0.655-1.389-0.938-2.062c-0.743,1.77-4.3,8.486-15.315,8.007c-12.679-0.549-17.076-12.166-17.076-12.166&#xA;			s-1.955-0.655-3.3-2.194c0,0-7.45,0.442-8.228-6.689c-0.77-7.131,6.494-7.963,7.972-8.122c0,0,1.469-1.805,3.035-2.584&#xA;			c0,0,0.885,1.283,3.99,1.451c3.106,0.168,1.177-0.92,11.316-0.894c10.14,0.018,13.502,1.044,13.502,1.044s-0.814-2.46-0.257-3.796&#xA;			c0,0-23.031-23.004-30.666-47.052c-7.636-24.048-5.3-32.967,3.973-58.324c0,0,6.875,43.203,27.977,70.348&#xA;			c12.042,15.492,25.588,27.57,35.01,35.09c0.212,0,0.434,0.009,0.646,0.009c-2.008-2.238-3.539-4.866-4.3-7.874&#xA;			c-1.885-7.432-4.972-14.342-6.388-19.845c-1.416-5.512,1.734-16.528,1.734-16.528c-4.229-6.777-2.168-17.934-2.168-17.934&#xA;			s2.292-1.088,4.035-3.203c1.734-2.123,1.133-8.388,2.548-17.607S183.398,13.72,196.687,8.296z M230.972,143.118&#xA;			c-0.31-0.389-0.823-0.009-0.823-0.009c-3.008,2.46-3.689,7.096-3.716,8.37c-0.018,1.274-3.724,9.476-4.45,11.75&#xA;			c-0.035,0.089-0.664,2.044-0.814,3.221c-0.221,1.814-0.15,7.361,8.83,10.547c8.229,2.912,15.103-2.548,16.209-3.495&#xA;			c2.309,0.168,3.99-1.035,4.804-1.84c0.336-0.327,0.54-0.584,0.584-0.646c-0.876,2.911-2.734,3.628-3.866,3.787&#xA;			c-0.363,0.053-0.664,0.053-0.823,0.035c0.027,0.08,0.035,0.133,0.053,0.204c0.133,0.486,0.106,0.778,0.106,0.778&#xA;			s0.265,0.133,0.725,0.159c0.655,0.035,1.699-0.124,3.045-1.15c0.221-0.177,0.397-0.363,0.574-0.549&#xA;			c-0.522,1.106-0.115,2.433,0.974,3.026c1.132,0.611,2.547,0.195,3.158-0.937c0.619-1.125,0.195-2.549-0.938-3.16&#xA;			c-0.832-0.451-1.813-0.336-2.513,0.195c0.681-1.124,0.761-2.283,0.717-3.007c0-0.125-0.08-0.682-0.088-0.682&#xA;			c0.009-0.009,0.009-0.009,0.009-0.009c-0.451-0.115-0.876-0.274-1.283-0.469c-0.451-0.221-0.876-0.504-1.301-0.823&#xA;			c-0.566-0.416-2.22-1.982-2.627-2.389c-0.541-0.549-1.098-1.088-1.647-1.637c-0.664-0.655-2.123-2-2.796-2.513&#xA;			c-0.133-0.105-1.628-1.292-1.885-1.495c0.38,0.389,3.017,3.229,3.619,4.831c0.389,0.956,0.611,2.15,0.549,3.185&#xA;			c-0.018,0.292-0.062,0.549-0.115,0.787c0,0,0.009,0.018,0.018,0.018c-0.009,0-0.018-0.009-0.027-0.009&#xA;			c-0.089,0.425-0.221,0.796-0.398,1.026c-0.327,0.399-0.841,0.62-1.23,0.734c0.009,0,0.018,0.009,0.027,0.018&#xA;			c0.593,0.469,1.203,0.894,1.708,1.469c-5.087,4.849-11.891,4.857-15.82,2.929c-3.831-1.875-4.964-4.194-4.477-7.388&#xA;			c-1.035-0.221-2.035-0.867-2.415-2.46c0.035,0.027,0.081,0.044,0.116,0.08c0.885,0.717,2.326,0.973,3.22,0.124&#xA;			c0.805-0.761,1.433-2.017,2-3.371c0.513-1.239,0.956-2.513,1.531-3.725c0.23-0.495,0.389-1.035,0.478-1.566&#xA;			c0.257-1.513-0.062-3.123-0.805-4.459c-0.805-1.442-1.23-3.424-0.54-5.477c0.699-2.044,1.867-2.822,2.203-3.141&#xA;			C231.175,143.675,231.158,143.357,230.972,143.118z M230.441,153.682c0.779,1.133,1.716,3,1.531,5.264&#xA;			c0,0-0.177,1.168-0.415,1.858c-0.381,1.071-0.709,1.938-0.983,2.637c4.522,2.035,8.803,4.574,11.626,6.503&#xA;			c0.398-0.133,0.859-0.354,1.177-0.752c0.203-0.265,0.346-0.708,0.442-1.221c0.203-1.026,0.16-2.424-0.389-3.928&#xA;			c-0.46-1.309-1.469-2.725-2.46-3.821c-0.123-0.098-0.257-0.187-0.38-0.284c-1.009-0.726-2.044-1.416-3.097-2.088&#xA;			c-1.46-0.938-2.946-1.84-4.459-2.707c-0.717-0.416-1.433-0.814-2.159-1.221C230.724,153.832,230.583,153.762,230.441,153.682z&#xA;			 M192.351,122.308c-17.536-5.884-36.559,2.814-40.735,8.096c-0.177,0.212-0.336,0.434-0.469,0.672&#xA;			c-0.018,0.027-0.027,0.08-0.053,0.097c0,0-0.106,0.159-0.221,0.487c-1.663,4.972,8.414,26.101,27.437,32.489&#xA;			c19.04,6.388,39.62-3.822,41.478-9.361c0.133-0.398,0.159-0.726,0.159-0.726c0.186-1.309-0.106-3.176-0.832-5.362&#xA;			C216.285,140.295,206.871,127.183,192.351,122.308z M203.457,139.851c6.682,3.917,11.654,8.134,14.189,11.153&#xA;			c-3.715-2.74-8.545-5.783-14.218-8.673C203.465,141.5,203.476,140.673,203.457,139.851z M149.131,115.603l-0.107,0.016&#xA;			c-0.283,0.08-0.487,0.319-0.407,0.779c0.08,0.451,0.549,1.787-0.142,3.831c-0.681,2.062-2.212,3.38-3.725,4.043&#xA;			c-1.513,0.664-3.371,2.159-3.893,4.61c-0.513,2.442-1.84,5.663-1.469,7.786c0.133,0.814,0.938,1.929,2.787,1.858&#xA;			c-1.265,1.044-2.451,0.964-3.424,0.522c-1.531,2.822-3.831,3.981-8.025,3.167c-4.282-0.823-9.715-4.937-10.838-11.883&#xA;			c0-0.118,1.438-0.131,2.025-0.133h0.258c-0.248-0.327-0.522-0.814-0.54-1.327c-0.009-0.292,0.115-0.664,0.301-1.062&#xA;			c0.044-0.062,0.23-0.407,0.265-0.469c0.513-0.964,1.504-1.876,2.442-2.424c0.009-0.009,0.018-0.018,0.027-0.018&#xA;			c1.637-0.982,4.203-1.575,5.831-1.663c0.044-0.009-0.575-0.027-0.885-0.018c-2.017,0.009-4.026,0.204-6.025,0.487&#xA;			c-1.77,0.248-3.468,0.549-5.096,0.54c-0.522-0.009-1.026-0.044-1.513-0.133c-0.451-0.088-0.902-0.221-1.345-0.407&#xA;			c0,0-1.69,1.354-1.761,3.672c-0.177-0.956-0.947-1.734-1.955-1.885c-1.283-0.195-2.486,0.681-2.681,1.973&#xA;			c-0.195,1.283,0.699,2.486,1.982,2.681c1.274,0.195,2.477-0.69,2.672-1.973c0.009-0.035,0.009-0.062,0.009-0.097&#xA;			c0.035,0.274,0.088,0.566,0.168,0.858c0.221,0.823,0.522,1.398,0.841,1.84c0.743,1.062,1.566,1.221,1.566,1.221&#xA;			c0.009,0,0.115-0.15,0.124-0.168c0.053-0.062,0.495-0.522,0.584-0.522c-0.549-0.363-2.814-2.106-1.433-5.884&#xA;			c0,0-0.08,3.433,2.76,5.256c0.31,1.416,2.539,9.909,10.865,12.546c9.087,2.893,12.581-1.442,13.404-3.079&#xA;			c0.363-0.743,1.292-3.061,1.292-3.061c0.787-2.256,2.787-11.033,3.539-12.059c0.743-1.026,2.999-5.132,2.088-8.91&#xA;			c0,0-0.186-0.619-0.672-0.495L149.131,115.603z M309.973,93.756c-0.035,0.071-1.124,0.973-2.884,2.398&#xA;			c-0.752,0.619-1.584,1.292-2.522,2.035c-10.246,8.096-31.631,22.65-66.447,28.914c-8.441,1.513-17.041,2.345-25.42,2.716&#xA;			c1.381,1.424,2.645,2.876,3.796,4.353c0,0,3.663-0.273,4.167-0.319c6.317-0.531,12.635-1.292,18.881-2.424&#xA;			c15.448-2.787,27.127-6.733,32.666-8.821c1.301-0.513,2.539-1.035,3.751-1.566l0,0l-0.167,0.142c0,0-22.686,13.502-57.131,15.97&#xA;			c1.097,1.637,2.07,3.256,2.893,4.849c10.715-0.602,21.562-2.097,31.816-4.937c6.556-1.823,13.006-4.123,19.164-7.034&#xA;			c6.193-2.92,12.272-6.423,17.616-10.732c3.477-2.814,6.742-5.84,9.741-9.175c4.123-4.574,7.883-10.024,9.918-15.882l0,0l0.15-0.46&#xA;			L309.973,93.756z M130.736,123.228c-1.442,0.283-3.106,0.796-4.265,1.566c-1.354,0.876-2.221,1.964-2.681,2.893&#xA;			c-0.23,0.478-0.389,0.92-0.38,1.248c0.018,0.513,0.257,0.964,0.487,1.309c0,0,8.096,0.434,13.192,1.831&#xA;			c0.195-0.726,0.46-1.619,0.805-2.699c0.221-0.69,0.522-1.265,0.849-1.787c1.221-1.929,3.026-2.787,4.344-3.221&#xA;			c-2.194-0.354-4.76-0.646-6.963-0.841c-1.097-0.097-2.194-0.177-3.3-0.23C132.134,123.263,131.435,123.246,130.736,123.228z&#xA;			 M154.278,129.86c3.929-0.872,10.648-1.283,18.563-0.341c-0.518,0.649-1.015,1.32-1.493,2.013&#xA;			C164.887,130.38,159.02,129.902,154.278,129.86z M115.792,28.593l-0.177,0.504c-1.141,3.371-1.575,7.052-1.761,10.591&#xA;			c-0.319,5.99,0.248,12.015,1.513,17.864c1.345,6.229,3.495,12.219,6.14,18.005c2.699,5.928,6.034,11.546,9.759,16.881&#xA;			c4.574,6.574,9.803,12.697,15.466,18.359c2.424,2.433,4.937,4.787,7.512,7.069c0.319,0.274,2.893,2.84,3.15,2.725&#xA;			c1.61-0.77,3.362-1.478,5.229-2.132c-25.72-22.429-35.745-46.601-36.055-47.353l0,0l0.071,0.124&#xA;			c0.319,0.584,0.637,1.168,0.982,1.761c0.637,1.044,1.433,2.433,2.469,4.123c4.955,7.928,11.529,16.457,20.35,25.331&#xA;			c0.027,0.027,10.98,10.83,15.652,14.944c1.814-0.495,3.707-0.902,5.671-1.221c-6.503-5.379-12.918-11.272-18.784-17.616&#xA;			C123.357,66.452,117.694,36.609,115.792,28.593L115.792,28.593z M177.284,72.017c0,0-0.009,0.027-0.018,0.071&#xA;			c-0.186,0.752-1.646,6.813-1.982,9.759c-0.044,0.389-0.071,0.752-0.088,1.097c-0.142,2.415,0.283,3.787,0.805,5.388&#xA;			c0.584,1.823,3.336,9.626,4.008,11.75c0.088,0.265,0.186,0.602,0.292,0.982c0.726,2.699,2,7.936,4.557,10.697&#xA;			c2.903,3.123,5.707,4.53,9.166,5.698c0,0,0.018,0,0.027,0.009c0.018,0,0.027,0.009,0.035,0.009&#xA;			c1.725,0.584,3.362,1.009,5.096,1.203c1.725,0.195,3.548,0.15,5.646-0.221c4.237-0.752,9.086-5.096,10.908-6.388&#xA;			c1.823-1.292,8.733-5.848,10.291-6.954c1.565-1.106,2.875-2.026,4.485-4.742c1.61-2.725,4.327-9.051,4.327-9.051&#xA;			s-2.61-0.513-3.477-0.619c0,0-0.009,0.027-0.035,0.071c-0.389,0.681-3.504,6.176-4.635,7.326c0,0-0.036,0-0.089,0.018&#xA;			c-0.407,0.071-2.026,0.389-2.831,0.991c-0.929,0.681-4.291,5.68-8.688,7.565c0.416-2.477-1.185-3.76-1.601-3.716&#xA;			c-0.407,0.044-0.725,1.017-0.814,1.265c-0.088,0.248-0.938,1.92-1.221,2.707c-0.292,0.787-0.203,0.849-0.203,0.849&#xA;			c-0.709-0.027-1.417-0.062-2.115-0.115c0.672-1.274,1.274-2.539,1.84-3.796c0.368-0.953-0.509-1.232-0.68-1.276l-0.028-0.007&#xA;			l-0.009-0.009c-0.628-0.097-1.255-0.195-1.884-0.319l0,0h-0.063c-0.787-0.142-1.264,0.354-1.363,0.655&#xA;			c-0.08,0.195-0.158,0.398-0.239,0.593c-0.292,0.69-0.602,1.389-0.902,2.079c-0.009,0.044-0.018,0.088-0.044,0.124&#xA;			c-0.354,0.876-0.053,1.61-0.053,1.61c-0.239-0.018-0.823,0-1.814-0.195c-0.46-0.097-1.079-0.372-1.079-0.372&#xA;			c0.345-0.283,0.557-0.823,0.557-0.823c0.628-1.531,1.593-3.902,1.593-3.902s0.38-1.026-0.283-1.221&#xA;			c-0.902-0.221-1.796-0.469-2.69-0.734c-0.681-0.15-0.973,0.407-1.044,0.593c-0.142,0.354-0.38,0.911-0.469,1.159&#xA;			c-0.345,0.982-0.681,1.955-1.017,2.92c0,0.018,0,0.027-0.009,0.044c-0.212,0.619-0.044,1.212-0.044,1.212&#xA;			s-0.867-0.177-1.318-0.301c-0.46-0.115-1.15-0.602-1.15-0.602c0.116-0.106,0.248-0.425,0.345-0.646&#xA;			c0.407-1.451,0.805-3.265,1.15-4.787c0.027-0.212,0.035-0.841-0.611-1.106c-0.761-0.283-1.522-0.575-2.265-0.885&#xA;			c-0.664-0.203-0.956,0.345-1.062,0.664c-0.301,1.371-0.646,3.017-0.876,4.212c-0.097,0.832,0.283,1.416,0.283,1.416&#xA;			c-0.353-0.08-1.062-0.389-1.628-0.628c-0.38-0.159-1.203-0.708-1.203-0.708c0.425-0.035,0.664-0.938,0.664-0.938&#xA;			c0.469-0.982,0.787-1.831,1.159-2.76c0.009-0.044,0.035-0.08,0.044-0.124c0.009-0.027,0.018-0.044,0.035-0.088&#xA;			c0.363-0.982-0.319-1.504-0.434-1.584c-0.991-0.495-2.106-1.079-2.115-1.079c-0.566-0.301-0.938,0.097-1.062,0.487&#xA;			c-0.389,1.106-1,2.115-1.212,3.336c-0.097,0.69-0.044,1.168-0.044,1.168c-1.345-0.637-1.84-1.655-1.84-1.655&#xA;			c0.319-0.38,0.752-1.743,0.761-3.008c0.009-1.274,0.088-2.46-0.504-2.884c-0.593-0.416-1.584,0.646-2.097,1.407&#xA;			c-0.504,0.752-0.619,1.194-0.619,1.194l0,0v0.097c-2.389-4.158-2.053-10.193-2.38-11.299c-0.327-1.106-1.725-2.575-1.725-2.575&#xA;			c-0.027-0.212-0.035-0.504-0.035-0.858c0.035-2.309,0.672-7.096,0.761-7.768c0.009-0.053,0.009-0.08,0.009-0.08&#xA;			C179.69,73.176,177.284,72.017,177.284,72.017z M209.198,11.994c-20.403,0.088-26.207,15.271-27.065,18.748&#xA;			c-0.911,3.698-0.902,8.388-1.115,10.511c0,0,3.92-0.557,7.583-2.088c1.982-0.814,3.893-1.867,5.354-3.274&#xA;			c-0.337,0.389-5.84,6.653-11.724,7.317c0,0-1.292,5.671-2.867,8.538c-1.557,2.876-4.61,4.84-4.61,4.84s-0.23,2.256-0.23,4.53&#xA;			c0,0.911,0.027,1.831,0.124,2.601c0.053,0.389,0.124,0.743,0.203,1.044c0.699,2.407,0.779,3.928,5.99,6.22&#xA;			c1.778,0.779,3.539,1.61,5.229,2.566c2.53,1.433,5.256,3.123,6.308,5.999c0.009,0.027,0.009,0.053,0.027,0.08&#xA;			c0.282,0.726,0.309,1.628,0.114,2.371c0-0.097-0.044-0.221-0.106-0.354c-0.229-0.451-0.628-0.779-0.885-1.203&#xA;			c0-0.009-0.008-0.018-0.027-0.035c-0.566-0.646-1.177-1.239-1.893-1.725l0,0v0.027l-0.018-0.035c0,0-0.549,1.92-1.407,3.336&#xA;			c-0.487,0.814-1.009,1.716-1.557,2.955c0,0.018-0.009,0.035-0.018,0.053c-1.071,2.778,0.177,5.716,0.469,5.733&#xA;			c0.345,0.027,1.079-0.31,2.469-4.212c0.035-0.088,0.106-0.274,0.15-0.478c0.035-0.186-0.027-0.522-0.106-0.796&#xA;			c0,0,0.009-0.018,0.018-0.044c0.168-0.637,0.982-0.584,1.495-0.522c0.177,0.018,0.354,0.044,0.522,0.088&#xA;			c0.08,0.018,0.151,0.035,0.212,0.053c0.531,0.186,0.824,0.549,0.814,0.743c0,0-0.283,0.177-0.495,0.504&#xA;			c-0.203,0.327-0.557,1.168-0.655,1.398c-0.354,0.876-0.61,1.584-0.911,2.46c-0.018,0.027-0.018,0.053-0.018,0.08&#xA;			c-0.25,0.742,0.382,1.056,0.534,1.12l0.032,0.013c0,0.009,0.088,0.035,0.097,0.035c0.681,0.124,1.416,0.274,2.177,0.434&#xA;			c0,0,1.018,0.186,1.363-0.726c0.327-0.964,0.61-1.761,0.973-2.725c0.018-0.053,0.044-0.115,0.071-0.168l0,0v-0.009l0.027-0.062&#xA;			c0,0,0.221-0.664,0.319-1.062c0.088-0.372,0.478-1.009,0.831-1.009c0.372,0,0.876,0.177,0.823,0.929s-0.203,1.248-0.23,1.336&#xA;			c-0.009,0.035-0.018,0.08-0.018,0.106c-0.336,1.186-1.018,3.681-1.018,3.681c-0.327,0.956,0.718,1.256,0.718,1.256&#xA;			c0.636,0.177,1.592,0.327,2.264,0.531c0.044,0.009,0.08,0.018,0.133,0.027c0,0,0.796,0.257,1.079,0.15&#xA;			c0.292-0.106,0.478-0.549,0.531-0.69c0.044-0.142,1.106-3.849,1.221-4.247c0.081-0.301,0.044-0.902-0.115-1.248&#xA;			c0.053,0.009,1.017,0.177,1.558,0.354c0.45,0.159,1.052,0.398,1.353,0.628c-0.46,0.23-0.761,0.991-0.787,1.097&#xA;			c-0.009,0.018-0.018,0.027-0.018,0.035c-0.071,0.248-0.159,0.487-0.23,0.726c-0.336,1.017-0.779,2.318-1.124,3.344&#xA;			c-0.053,0.274-0.106,0.956,0.69,1.256l0,0l0.124,0.044c0.664,0.248,1.505,0.549,2.123,0.796c0,0,0.203,0.08,0.46,0.08&#xA;			c0.31,0,0.691-0.115,0.867-0.646c0.159-0.487,0.523-1.566,0.841-2.548c0.311-0.973,0.593-1.858,0.602-1.964&#xA;			c0.009-0.186,0.23-0.531,0.363-0.646c0.363-0.027,0.628,0.027,0.876,0.15c0.292,0.142,0.628,0.504,0.761,0.637&#xA;			c-0.195,0.336-0.504,1.194-0.584,1.663c-0.062,0.398-0.531,2.106-0.752,2.902c-0.027,0.062-0.044,0.15-0.07,0.221&#xA;			c-0.019,0.027-0.01,0.053-0.019,0.088c-0.009,0.027-0.018,0.044-0.009,0.062c-0.124,0.823,0.672,1.239,0.672,1.239&#xA;			c0.708,0.336,1.389,0.664,2.009,0.973c0,0,0.088,0.035,0.096,0.035c0,0,0.849,0.274,1.133-0.566&#xA;			c0.009-0.027,0.027-0.053,0.035-0.062c0.284-0.885,0.505-1.619,0.752-2.522c0.062-0.248,0.133-0.495,0.196-0.743&#xA;			c0.017-0.027,0.026-0.097,0.035-0.195c0.017-0.062,0.141-0.504,0.176-0.779c0.027-0.142,0.027-0.274,0.018-0.372&#xA;			c0,0,0.47,0.186,1.017,0.425c0,0.009,1.079,0.487,1.292,0.602c0.186,0.106,0.487,0.221,0.602,0.416&#xA;			c0.265,0.372,0.336,0.522,0.336,0.522l0,0l-0.77,0.124c-0.142-0.009-0.779,0.221-0.779,0.416&#xA;			c-1.239,3.964-0.858,4.663-0.565,4.849c0.247,0.159,3.007-1.416,3.83-4.282c0-0.027,0.46-2.415,0.558-3.362&#xA;			c0.167-1.531,0.804-3.274,0.885-3.486l0,0l-0.019,0.009c0-0.009,0.019-0.027,0.019-0.027c-2.806-0.133-4.372,0.973-4.372,0.973&#xA;			c0.177-0.425,0.434-0.787,0.708-1.115c0.018-0.018,0.027-0.018,0.035-0.035c2.07-2.389,5.831-2.292,8.671-1.929&#xA;			c2.221,0.274,4.424,0.743,6.6,1.265c5.556,1.309,6.531,0.15,8.529-1.354c1.726-1.292,3.132-3.283,4.176-5.141&#xA;			c0.019-0.035,0.044-0.062,0.062-0.097c0.46-0.708,0.779-1.221,0.779-1.221s-1.256-3.406-0.77-6.645&#xA;			c0.495-3.229,2.876-8.547,2.876-8.547c-4.424-4.194-4.937-12.918-4.937-12.918c0.274,1.77,0.991,3.539,1.92,5.202&#xA;			c1.417,2.557,3.3,4.84,4.699,6.37c1.194-1.938,3.919-5.335,5.29-8.777c1.513-3.831,7.326-23.871-19.049-36.559l0,0l-1.025-0.434&#xA;			c-0.567-0.274-1.116-0.522-1.638-0.761c-0.531-0.239-1.035-0.451-1.513-0.637c-0.363-0.15-0.708-0.283-1.035-0.407&#xA;			c-0.257-0.097-0.495-0.186-0.716-0.274c-0.788-0.292-1.443-0.504-1.921-0.655c-0.097-0.035-0.186-0.062-0.283-0.097&#xA;			c-0.973-0.31-4.698-1.433-9.343-2.398l0,0l-0.124-0.027c-0.823-0.168-1.672-0.336-2.548-0.487&#xA;			C213.577,12.145,211.312,11.994,209.198,11.994z M207.599,68.782c0.389-1.168,1.708-1.815,3.009-1.486&#xA;			c0.08,0.018,0.158,0.035,0.23,0.062c0.086,0.028,0.167,0.063,0.25,0.096c1.22,0.537,1.873,1.831,1.483,3&#xA;			c-0.486,1.441-0.398,2.654-0.31,3.902c0.062,2.415,1.168,3.089,0.672,4.584l0,0l-0.496,1.46c-0.281,0.849-1.061,1.379-1.954,1.513&#xA;			c-0.417,0.053-0.859,0.053-1.301-0.088c-1.37-0.46-2.14-1.859-1.716-3.106c0.071-0.212-0.054-0.442-0.275-0.523&#xA;			c-0.221-0.07-0.45,0.044-0.521,0.249c-0.415,1.256-1.876,1.902-3.256,1.442c-0.442-0.15-0.796-0.416-1.097-0.726&#xA;			c-0.62-0.646-0.921-1.531-0.637-2.372l0,0l0.495-1.459c0.495-1.496,1.787-1.363,3.3-3.257&#xA;			C206.289,71.135,207.112,70.233,207.599,68.782z M218.783,61.234c0,0,0.035,0.044,0.053,0.071&#xA;			c0.133,0.195,0.751,1.054,1.699,1.964l0,0c0.168,0.168,0.344,0.327,0.531,0.488c0.009,0.008,0.026,0.017,0.035,0.035&#xA;			c0.691,0.575,1.505,1.106,2.444,1.417c2.856,0.964,7.024,0.282,11.492-0.532c0.39-0.061,0.77-0.114,1.151-0.159&#xA;			c4.008-0.459,7.53,0.426,7.53,0.426l0,0l0.008,0.026l-0.079-0.008c-0.116,0.017-0.23,0.035-0.355,0.053&#xA;			c-1.132,0.397-1.716,3.079-1.716,3.079c-0.221,0.805-0.496,1.592-0.825,2.362c-0.752,1.733-1.795,3.424-3.114,4.796&#xA;			c-0.991,1.035-2.079,1.548-3.291,2.23c-0.01-0.009-0.01-0.009-0.01-0.009c-0.017,0-0.699,0.212-1.061,0.256&#xA;			c-2.745,0.337-8.512-0.548-11.281-2.442c-0.027-0.009-0.045-0.018-0.062-0.026l0,0c-2.779-1.655-3.337-7.982-3.346-9.619&#xA;			C218.58,64.012,218.773,61.278,218.783,61.234z M186.018,45.59c0.203,0.08,3.414,1.486,6.246,4.185&#xA;			c0.284,0.266,0.558,0.541,0.825,0.823c3.077,3.345,5.99,6.407,8.848,7.362c0.929,0.31,1.91,0.38,2.805,0.337&#xA;			c0.009,0,0.026,0,0.045-0.01c0.247-0.009,0.486-0.027,0.715-0.053l0,0c1.469-0.186,2.638-0.575,2.638-0.575&#xA;			s-1.521,2.328-2.513,3.628c-0.999,1.309-5.248,6.017-8.45,5.663c-0.026,0-0.053-0.018-0.08-0.018&#xA;			c-3.354-0.168-8.494-2.938-10.477-4.858c-0.265-0.265-0.672-0.841-0.68-0.841c-0.062,0.053-0.125,0.097-0.196,0.142&#xA;			c0.071-0.044,0.134-0.097,0.196-0.15c0.035-0.035-0.638-1.203-0.682-1.292c-1.062-2.566-0.814-5.76-0.15-8.335&#xA;			c0.195-0.752,0.426-1.495,0.718-2.221c0,0,1.15-2.487,0.487-3.487c-0.08-0.088-0.169-0.177-0.248-0.257l0,0l-0.018-0.009&#xA;			C186.045,45.617,186.035,45.609,186.018,45.59z"/>
		<path fill-rule="evenodd" clip-rule="evenodd" fill="#C2242B" d="M217.84,155.909c-7.048,4.442-22.778,8.552-37.928,3.471&#xA;			c-14.869-4.993-24.748-17.703-27.912-25.441c-0.371-0.803-0.467-2.972,1.705-3.977c0,0-1.372,0.196-2.608,1.209&#xA;			c0,0-0.109,0.16-0.22,0.492c-1.664,4.964,8.412,26.097,27.436,32.484c19.035,6.389,39.622-3.821,41.48-9.356&#xA;			c0.127-0.403,0.153-0.726,0.153-0.726c-0.432-1.355-1.258-2.199-1.258-2.199C219.746,153.863,218.66,155.328,217.84,155.909"/>
		<path fill-rule="evenodd" clip-rule="evenodd" fill="#DC4405" d="M203.428,142.332c-0.011,0.239-0.023,0.48-0.036,0.719&#xA;			c-0.626-0.318-1.26-0.634-1.905-0.948c-0.238,1.441-0.589,2.864-1.07,4.259c-0.952-0.553-1.925-1.084-2.905-1.593&#xA;			c0.431-1.337,0.769-2.69,1.026-4.051c-1.048-0.476-2.12-0.943-3.213-1.4c-0.288,1.293-0.634,2.584-1.039,3.871&#xA;			c-1.003-0.464-2.017-0.909-3.037-1.326c0.398-1.251,0.759-2.501,1.087-3.745c-1.07-0.412-2.157-0.813-3.262-1.201&#xA;			c-0.377,1.208-0.767,2.428-1.171,3.655c-1.04-0.373-2.08-0.725-3.133-1.051c0.417-1.223,0.841-2.43,1.269-3.62&#xA;			c-1.115-0.355-2.224-0.688-3.328-1.002c-0.488,1.188-0.954,2.4-1.389,3.636c-1.063-0.284-2.141-0.541-3.219-0.778&#xA;			c0.449-1.263,0.951-2.493,1.496-3.694c-1.149-0.291-2.289-0.562-3.414-0.81c-0.611,1.233-1.151,2.507-1.609,3.824&#xA;			c-1.088-0.188-2.185-0.348-3.282-0.484c0.453-1.386,1.026-2.72,1.696-3.999c-0.708-0.135-1.409-0.263-2.102-0.383&#xA;			c0.15-0.227,0.303-0.453,0.458-0.677c-6.461-1.153-12.328-1.631-17.07-1.672c3.929-0.872,10.648-1.283,18.563-0.341&#xA;			c0.06-0.076,0.119-0.154,0.18-0.228c0.601,0.071,1.209,0.15,1.823,0.238c0.543-0.787,1.122-1.552,1.733-2.292&#xA;			c1.024,0.132,2.023,0.282,3.002,0.447c-0.557,0.763-1.088,1.548-1.593,2.354c1.085,0.197,2.184,0.422,3.295,0.672&#xA;			c0.453-0.829,0.925-1.642,1.411-2.434c0.933,0.201,1.853,0.417,2.756,0.648c-0.415,0.82-0.821,1.66-1.218,2.513&#xA;			c1.034,0.276,2.075,0.577,3.121,0.903c0.329-0.877,0.66-1.742,0.99-2.592c0.878,0.273,1.748,0.564,2.613,0.875&#xA;			c-0.25,0.877-0.508,1.765-0.774,2.663c1.032,0.367,2.042,0.753,3.035,1.152c0.196-0.916,0.378-1.825,0.541-2.725&#xA;			c0.865,0.359,1.724,0.74,2.592,1.146c-0.089,0.917-0.203,1.84-0.339,2.766c1.035,0.463,2.046,0.94,3.029,1.428&#xA;			c0.079-0.932,0.127-1.863,0.143-2.791c0.883,0.458,1.77,0.943,2.666,1.455c0.042,0.935,0.044,1.87,0.005,2.801&#xA;			c0.541,0.296,1.071,0.593,1.593,0.893c0.005,0.146,0.007,0.292,0.011,0.439c6.682,3.917,11.654,8.134,14.189,11.153&#xA;			C213.931,148.264,209.101,145.222,203.428,142.332z M192.353,122.309c-17.534-5.882-36.558,2.809-40.74,8.091&#xA;			c-0.17,0.215-0.33,0.441-0.464,0.679c-0.014,0.025-0.031,0.074-0.051,0.093c1.236-1.014,2.608-1.209,2.608-1.209&#xA;			c-2.172,1.005-2.076,3.174-1.705,3.977c3.164,7.738,13.043,20.448,27.912,25.441c15.149,5.081,30.879,0.971,37.928-3.471&#xA;			c0.82-0.581,1.906-2.046,0.848-4.043c0,0,0.826,0.844,1.258,2.199c0.183-1.316-0.104-3.179-0.834-5.36&#xA;			C216.286,140.299,206.871,127.18,192.353,122.309L192.353,122.309z"/>
	</g>
</g>
</svg>