<?xml version="1.0" encoding="utf-8"?>
<svg xmlns="http://www.w3.org/2000/svg" xmlns:xlink="http://www.w3.org/1999/xlink" version="1.1" id="Layer_1" x="0px" y="0px" viewBox="0 0 469.974 313.832" enable-background="new 0 0 469.974 313.832">
<g>
	<path fill="#FFFFFE" d="M49.575,222.742c32.674-20.866,42.952-44.371,42.952-44.371L0,191.653l39.321-69.854l79.004-6.653&#xA;		c0,0,30.736-27.436,78.324-47.108c0,0,4.963-8.656,32.141-24.303c0,0,24.927-14.683,53.314-24.078c0,0,19.24-6.619,24.917-6.952&#xA;		l-1.669-6.12l36.277-3.109L342.564,0c0,0,18.936,1.278,29.797,6.086l2.139-2.849c0,0,25.343,11.652,44.205,40.283&#xA;		c0,0,18.295-1.018,34.671,6.82c0,0,17.355,6.903,16.572,27.055c0,0-0.117,25.713-7.802,51.196c0,0-1.18,3.99-2.276,6.37&#xA;		c0,0-1.596,3.246-4.674,7.344c0,0-8.594,8.852-11.927,16.646c0,0-1.806,5.185-5.394,14.604c0,0-2.76,12.954-21.574,13.674&#xA;		c0,0-18.31,23.177-25.945,29.83l-0.646-5.63c0,0-12.774,11.838-23.86,18.829l3.744-32.812c0,0,0.92-5.86-2.8-6.281l-9.568-0.23&#xA;		c0,0,3.132,19.75-0.651,28.881c0,0-2.408,14.335-24.643,21.16c0,0-17.179,5.469-36.835,7.006l-4.224-0.671l-30.942,12.685&#xA;		l9.045-32.455c0,0-11.595,1.175-12.593-0.279l-34.456,14.776l13.543-38.819l9.28-5.141l-2.961-4.024l-19.049,0.171l-7.009,5.454&#xA;		c-16.181-4.215-31.911-3.079-31.911-3.079l-80.066,65.002l-20.062,44.361L59.734,273.92l7.498-9.811l-2.848-2.144l-10.86,8.548&#xA;		l-16.078,43.319l-23.679-33.429l6.089-13.586l-1.346-8.323c7.048-4.656,11.609-7.775,15.172-11.779&#xA;		c1.943-2.507,3.015-3.378,5.271-7.593c2.129-5.15,2.207-10.727,4.581-12.494c2.971-2.017,5.242-3.373,6.04-3.882"/>
	<path fill="#C60C30" d="M43.815,128.8l-30.614,53.967l395.024-58.892c0,0-13.729-10.443,6.172-26.957L43.815,128.8"/>
	<path fill="#00338D" d="M444.795,89.403l-315.477,25.924c33.878-27.73,80.433-44.547,80.433-44.547l-4.136-2.272l7.748-3.647&#xA;		l1.111-3.339C275.413,20.71,318.37,18.718,318.37,18.718l-1.938-5.767c20.83-2.174,30.379-2.105,30.379-2.105l0.798-2.184&#xA;		c15.716-0.176,26.816,7.466,26.816,7.466l2.359-3.515c32.483,22.492,37.182,38.898,37.182,38.898&#xA;		c23.566-1.929,36.154,5.018,36.154,5.018c16.939,7.285,11.883,32.014,11.883,32.014c0.039,4.764-4.664,29.762-4.664,29.762&#xA;		c-3.896,17.248-10.909,23.818-10.909,23.818c-9.059,8.92-11.257,17.987-11.257,17.987c-4.689,12.905-6.348,14.57-6.348,14.57&#xA;		c-3.617,5.929-18.28,5.635-18.28,5.635c-3.426,8.279-16.783,22.746-16.783,22.746l-1.224-4.122l-17.629,15.711l2.76-21.86&#xA;		c1.008-7.456-7.023-9.17-7.023-9.17l-38.543,1.684c-5.638,26.237-25.891,30.247-25.891,30.247&#xA;		c-29.199,5.909-48.605,4.705-48.605,4.705l-1.248-0.94l-22.298,9.708l7.86-21.791l11.883-4.72c0.915-0.294,0.582-1.518,0.582-1.518&#xA;		l-1.135-3.491c12.241-1.106,23.414-9.704,23.414-9.704c1.424-1.155-0.71-1.645-0.71-1.645l-56.73,1.253l-4.473,4.294&#xA;		c-49.002-8.112-82.562,6.213-82.562,6.213c-38.039,14.174-61.169,50.383-61.169,50.383l-23.635,18.159l-11.937,32.234&#xA;		l-13.195-18.952l5.389-12.372l-0.822-5.767c11.507-7.363,16.474-16.024,16.474-16.024c4.008-5.336,3.695-9.748,3.695-9.748&#xA;		c0.289-3.535,3.519-5.43,3.519-5.43c44.044-26.638,50.685-54.77,50.685-54.77l310.563-47.01&#xA;		c-5.056,23.618,14.061,15.011,14.061,15.011c-12.368-8.729-1.175-14.932-1.175-14.932c-10.694-18.198,20.15-39.294,20.15-39.294&#xA;		H444.795z M335.975,190.15l13.327-0.152c0,0,2.667,17.596,1.087,25.444c0,0-2.628,11.667-14.536,16.23&#xA;		c0,0-17.541,7.427-43.843,9.111l-1.273-1.092l-19.939,8.416l6.549-23.197c0,0,26.728-2.066,34.803-4.485&#xA;		c0,0,20.722-4.073,23.825-30.276L335.975,190.15z M171.805,197.038l-73.811,59.818l-15.946,35.343l-14.149-18.967l7.973-10.991&#xA;		l-0.622-4.372c16.783-9.39,16.871-23.236,16.871-23.236C124.512,196.47,171.805,197.038,171.805,197.038L171.805,197.038z"/>
</g>
</svg>