<?xml version="1.0" encoding="utf-8"?>
<svg xmlns="http://www.w3.org/2000/svg" xmlns:xlink="http://www.w3.org/1999/xlink" version="1.1" id="Layer_1" x="0px" y="0px" viewBox="0 0 439.48 293.339" enable-background="new 0 0 439.48 293.339">
<g>
	<path fill="#0B162A" d="M134.743,20.309C84.56,41.076,61.738,72.579,51.456,95.338c-6.612,14.79-13.102,25.886-20.425,34.943&#xA;		c-7.509,7.818-21.236,16.441-29.26,19.481l-1.499,0.568L0,155.797l2.073,0.411c10.392,2.067,23.337,9.88,27.535,15.23&#xA;		c5.396,5.426,9.153,9.179,18.619,25.967c0.133,0.203,4.846,7.667,4.846,7.667c3.068,5.166,6.241,10.511,14.74,19.921&#xA;		c6.536,9.185,37.84,38.076,71.905,50.504c23.934,11.866,55.365,17.732,95.845,17.842c59.452,0.342,104.454-12.665,145.906-42.147&#xA;		c17.189-13.319,22.747-18.682,37.238-35.899c9.709-11.478,20.263-31.718,20.715-54.077l0.058-2.502l-84.109-0.093l-0.463,1.865&#xA;		c-6.837,27.455-34.488,44.579-50.363,52.345c-41.424,17.616-93.593,17.831-132.782,0.486&#xA;		c-36.636-18.363-56.112-43.201-54.739-69.892c1.395-27.206,24.553-53.214,58.989-66.244c66.608-24.415,130.634-3.423,154.816,19.29&#xA;		l0.706,0.66l98.004-0.093l-1.326-3.347c-20.159-51.106-93.06-79.916-125.209-85.858C231.035-8.648,168.879,3.467,134.745,20.307"/>
	<path fill="#FFFFFE" d="M46.02,122.88c5.118-8.09,7.15-12.653,9.946-18.977l2.999-6.637c9.026-19.209,24.212-36.814,43.902-50.903&#xA;		c19.244-12.897,40.561-23.228,58.427-28.318c77.643-22.562,157.028-3.197,191.452,15.323c13.605,6.243,50.421,28.104,65.311,56.497&#xA;		h-82.934c-57.75-44.939-135.653-33.513-174.072-14.756c-15.522,8.623-24.542,15.578-35.837,27.623&#xA;		c-17.536,21.23-26.967,57.395,3.862,89.808c13.935,13.557,27.871,22.741,45.239,29.864c40.167,16.649,96.534,14.796,137.06-4.517&#xA;		c25.891-13.511,43.079-31.434,50.033-51.905h69.96c-2.478,17.773-7.654,36.154-34.181,61.843l-2.953,2.647&#xA;		c-12.847,11.599-30.453,27.496-64.842,40.051c-58.659,22.765-146.387,20.135-195.609-5.837c-0.029-0.012-3.092-1.558-3.092-1.558&#xA;		c-11.058-5.536-26.209-13.111-45.297-30.866c-13.322-12.231-22.602-24.317-34.274-44.597&#xA;		c-12.725-23.292-28.658-31.787-37.226-35.395C21.362,148.506,35.958,139.547,46.02,122.88"/>
	<path fill="#C83803" d="M49.053,135.765c8.314-9.202,14.879-32.847,28.021-50.805c18.659-26.309,43.357-40.086,61.733-48.876&#xA;		C180.833,15.497,241.258,9.63,300.368,23.819c21.45,5.085,42.906,12.706,58.225,22.689c15.331,9.109,33.278,22.249,43.352,35.036&#xA;		h-63.14c-18.735-14.976-39.316-22.249-57.704-26.193c-20.576-5.252-52.979-8.055-91.508,1.147&#xA;		c-22.77,5.687-38.529,13.568-53.854,24.519c-30.204,21.462-63.482,77.866-4.377,126.922c19.267,16.284,35.461,21.548,53.414,27.768&#xA;		c33.278,9.631,74.875,7.795,98.954,1.222c36.341-9.636,49.911-22.336,61.733-32.407c10.948-10.511,20.142-23.216,22.683-29.783&#xA;		l51.839-0.087c-3.595,19.359-17.606,35.123-31.176,48.263c-15.545,14.657-27.147,22.336-50.091,33.814&#xA;		c-53.674,25.747-132.486,24.873-181.083,7.268c-24.958-9.115-31.964-13.227-50.791-26.28&#xA;		c-15.325-12.347-25.398-20.495-39.843-42.831c-6.565-10.951-9.634-17.078-17.073-27.148c-5.257-5.698-8.759-10.957-17.953-15.335&#xA;		c8.429-5.907,13.021-10.291,17.079-16.638"/>
</g>
</svg>