<?xml version="1.0" encoding="utf-8"?>
<svg xmlns="http://www.w3.org/2000/svg" xmlns:xlink="http://www.w3.org/1999/xlink" version="1.1" id="Layer_1" x="0px" y="0px" viewBox="0 0 409.506 287.881" enable-background="new 0 0 409.506 287.881">
<g>
	<path fill="#FFFFFE" d="M367.936,139.248c-2.166-1.096-1.896-3.052-0.335-4.212c18.435-13.639,30.877-31.141,30.877-58.155&#xA;		C398.478,44.894,375.568,0,285.987,0H55.077L2.779,90.968h38.402c4.29,0,7.753,3.458,7.753,7.727v90.811&#xA;		c0,4.269-3.463,7.734-7.753,7.734H0l52.853,90.641l244.079-0.028c78.771,0,112.826-41.03,112.826-85.07&#xA;		C409.758,173.613,389.014,149.978,367.936,139.248"/>
	<path fill="#FB4F14" d="M231.168,123.845h-37.932V87.39c0.036-3.821,3.135-6.901,6.969-6.901h30.962&#xA;		c18.171,0,24.92,9.249,24.92,21.323c0,12.806-6.748,22.034-24.92,22.034L231.168,123.845z M231.168,207.712h-30.962&#xA;		c-3.848,0-6.969-3.109-6.969-6.951v-36.399h37.932c18.171,0,24.92,8.893,24.92,21.33c0,12.785-6.748,22.02-24.92,22.02H231.168z&#xA;		 M339.433,141.304c-2.779-0.655-2.323-4.055-0.292-4.817c25.041-9.462,39.656-26.31,39.656-55.999&#xA;		c0.349-39.806-34.882-67.162-92.182-67.162H69.458L31.355,80.531h26.224c5.188,0,9.378,4.183,9.378,9.356v108.441&#xA;		c0,5.172-4.19,9.356-9.378,9.356H31.648l38.388,66.871l226.898-0.028c64.782,0,91.476-42.994,91.476-74.626&#xA;		C388.41,172.104,367.887,148.106,339.433,141.304L339.433,141.304z"/>
	<path d="M143.333,255.573c-40.262-75.565-50.844-162.442-35.844-242.247H69.458L31.355,80.531h26.224&#xA;		c5.188,0,9.378,4.183,9.378,9.356v83.206C86.496,204.753,114.794,235.076,143.333,255.573L143.333,255.573z M333.219,20.804&#xA;		c-46.084,68.237-71.053,155.206-59.844,234.421c13.732-66.636,49.554-128.178,105.35-172.758c0.014-0.662,0.071-1.302,0.071-1.978&#xA;		C379.031,53.055,362.371,31.526,333.219,20.804L333.219,20.804z M255.966,13.327c-7.226,18.897-14.815,41.699-21.2,67.297&#xA;		c-1.14-0.085-2.344-0.135-3.599-0.135h-30.962c-3.834,0-6.934,3.081-6.969,6.901v36.455h32.566&#xA;		c-2.152,13.07-3.891,26.609-5.045,40.518h-27.521v36.399c0,3.842,3.121,6.951,6.969,6.951h19.012&#xA;		c0.285,21.821,2.23,44.21,6.321,66.814h-28.304c-22.333-53.844-53.067-144.94-22.497-261.2L255.966,13.327L255.966,13.327z"/>
</g>
</svg>