<?xml version="1.0" encoding="utf-8"?>
<svg xmlns="http://www.w3.org/2000/svg" xmlns:xlink="http://www.w3.org/1999/xlink" version="1.1" id="Layer_1" x="0px" y="0px" viewBox="0 0 479.054 452.757" enable-background="new 0 0 479.054 452.757">
<g>
	<path fill="#FFFFFE" d="M479.054,173.052h-181.66L239.527,0l-57.872,173.052H0l148.834,106.554L91.699,452.757L239.527,347.16&#xA;		l147.839,105.394l-57.152-172.943L479.054,173.052"/>
	<path fill="#002244" d="M239.527,20.594l-53.226,158.918H20.097l136.353,97.609l-52.44,158.913l135.545-96.802l135.5,96.802&#xA;		l-52.462-158.913l136.359-97.609H292.747L239.527,20.594"/>
	<path fill="#FFFFFE" d="M239.527,64.393l-42.8,128.72H62.1l110.449,79.066l-42.476,128.714l109.784-78.401l109.118,78.401&#xA;		l-42.476-128.709l110.455-79.071H282.322L239.527,64.393"/>
	<path fill="#002244" d="M239.527,102.249l-33.64,101.688H99.545l87.246,62.464l-33.563,101.688l86.739-61.941l85.854,61.941&#xA;		l-33.568-101.683l87.25-62.469H273.162L239.527,102.249"/>
</g>
</svg>