<?xml version="1.0" encoding="utf-8"?>
<svg xmlns="http://www.w3.org/2000/svg" xmlns:xlink="http://www.w3.org/1999/xlink" version="1.1" id="Layer_1" x="0px" y="0px" viewBox="0 0 480 281.195" enable-background="new 0 0 480 281.195">
<g>
	<path fill="#002244" d="M243.155,278.263c0.014,0.184-0.203,1.411-0.688,1.946c-0.489,0.54-1.205,0.738-1.897,0.89&#xA;		c-1.131,0.249-2.248,0.009-3.148-0.673c-0.739-0.558-1.2-1.342-1.255-2.103l-0.005-0.042l-0.005,0.005l-8.405-27.339&#xA;		c-4.708-14.02-11.825-29.059-25.631-42.368c-16.677-16.072-41.26-27.191-75.157-33.97c-29.545-5.912-48.991-10.999-63.055-16.482&#xA;		c-13.501-5.262-21.463-10.741-29.264-17.34C14.761,123.959,0.9,102.505,0,75.48c0,0,19.783,27.933,41.527,14.592&#xA;		c10.279-6.304,17.669-5.405,17.669-5.405c-6.688-7.374-11.622-17.004-12.942-27.477c-1.052-8.375-0.365-17.672,2.04-27.629&#xA;		C52.388,12.613,64.31,0.193,64.426,0c0,0-4.69,40.713,14.793,55.157c12.015,6.756,24.343,4.031,24.343,4.031&#xA;		s-16.178-7.485-18.444-31.512c-0.992-10.561,0.568-18.867,0.983-20.988c0,0,21.357,30.124,42.755,17.751&#xA;		c4.786-2.767,30.039-15.809,40.927-18.701C185.767,1.5,201.585,1.2,216.798,4.853c12.629,3.03,24.957,8.804,36.649,17.156&#xA;		c20.84,14.891,34.336,34.224,39.169,41.847c0,0,41.943-1.845,64.897,27.468l0.032,0.046l53.09,23.414l-6.019,3.846l-0.263,0.171&#xA;		l0.272,0.171c17.18,10.911,47.237,30.249,55.421,37.222l0.018,0.018l0.028,0.014l15.209,7.227l-2.774,7.356v0.005&#xA;		c-0.185,0.493-4.311,12.286,3.476,18.12l3.914,2.933l0.083,0.065l-0.037,0.092l-11.955,31.641l-3.028-4.063&#xA;		c-16.677-22.967-32.439-27.209-40.36-27.371c-8.964-0.189-9.596,4.584-8.484,6.641c3.605,6.655,23.697,10.104,31.142,10.861&#xA;		c-0.005,0,4.925,0.641,5.068,0.659l-19.354,17.326l-35.089-2.204l-0.143-0.009l0.014-0.143l0.591-6.885v-0.042&#xA;		c-0.18-1.305-2.552-13.061-31.244-24.862l-0.083-0.028l-0.083,0.037c-4.879,2.251-14.89,6.134-27.159,6.793&#xA;		c-14.793,0.798-28.52-3.191-40.803-11.848l-0.083-0.051l-0.102,0.023c-4.925,1.679-14.641,5.47-24.352,12.134&#xA;		c-18.024,12.383-27.86,28.575-29.231,48.133c0,0-1.579,16.118-2.068,29.501"/>
	<path fill="#FB4F14" d="M128.742,60.915c39.074-11.99,65.52-10.122,74.548,5.229c-33.175,3.791-66.351,13.198-98.603,27.973&#xA;		c-16.158-1.098-31.002-7.687-39.715-17.643C53.987,63.922,50.36,45.213,57.934,21.616c0.54,20.355,6.466,32.303,16.297,39.031&#xA;		c11.534,7.895,29.363,7.978,54.512,0.267L128.742,60.915z M250.191,28.971c13.389,10.011,25.957,23.8,36.369,39.903&#xA;		c-20.312-3.749-41.146-5.229-61.925-4.395c-6.143-12.28-16.542-21.282-27.849-24.09c-12.549-3.113-28.634-0.71-47.811,7.143&#xA;		c-17.22,7.051-30.955,7.83-40.828,2.32c-5.52-3.08-9.822-8.116-12.798-14.96c-2.386-5.483-3.369-10.846-3.868-13.807l0.24,0.244&#xA;		c5.234,5.423,19.14,19.829,40.643,8.693c8.178-4.238,30.018-14.95,39.678-17.547c14.912-4.007,29.7-4.1,43.92-0.42&#xA;		c11.774,3.048,23.289,8.739,34.228,16.915L250.191,28.971z M12.983,95.293c0,0,11.806,11.238,31.671,1.07&#xA;		c22.334-11.432,26.142,1.19,44.797,7.079c-67.389,38.69-76.468-8.148-76.468-8.148V95.293z"/>
	<path fill="#FFFFFE" d="M462.471,176.276c0.051-5.188,1.44-9.412,1.731-10.224l-9.051-4.224l-0.037-0.009l-0.018-0.028&#xA;		c-5.589-6.041-66.111-44.072-66.72-44.459l-0.231-0.143l0.226-0.143l4.472-2.979l-41.017-17.358l-0.046-0.023l-0.032-0.042&#xA;		C335.1,71.765,302.29,70.774,295.99,70.82c12.498,3.86,16.315,7.66,17.28,10.191c0.642,1.692,0,2.748-0.028,2.79l-0.069,0.111&#xA;		l-0.12-0.032C171.531,45.337,55.759,134.016,50.908,137.806c5.557,5.603,18.046,13.152,62.94,23.113&#xA;		c10.02-7.821,57.775-41.748,129.854-39.751l-11.695-17.653c0,0,44.645,11.593,70.131,25.741&#xA;		c-1.966,18.852,9.72,37.021,28.569,42.582c13.514,3.984,27.448,0.544,37.426-7.941l32.026,20.42l-30.725-11.911&#xA;		c-13.066,9.444-30.314,12.732-46.823,7.369c-20.428-6.627-33.974-24.639-35.898-44.727&#xA;		c-69.162-17.353-120.157,26.345-130.348,35.965c8.238,2.605,15.84,5.566,22.735,8.863c8.4,4.021,15.965,8.637,22.597,13.793&#xA;		c5.123-6.244,25.546-27.692,64.712-28.015c0,0-38.455,9.942-50.714,41.24c10.892,12.603,16.5,25.921,20.811,38.639&#xA;		c0.978-12.087,4.846-23.182,11.543-32.981c5.478-8.005,12.831-15.172,21.858-21.296c15.369-10.427,30.471-14.263,30.623-14.3&#xA;		l0.083-0.023l0.065,0.055c31.163,25.096,65.465,5.335,65.806,5.128l0.069-0.037l0.083,0.028&#xA;		c9.591,3.661,17.695,7.766,24.069,12.207c5.109,3.546,9.134,7.323,11.963,11.21c4.389,6.036,4.514,10.376,4.486,11.28l23.238,1.522&#xA;		l6.817-5.815c-21.12-2.735-27.522-9.292-28.828-14.909c-2.271-13.553,11.575-15.222,17.885-14.402&#xA;		c14.709,1.918,32.594,15.084,39.328,24.242l4.985-13.373c-6.785-5.151-8.16-12.52-8.109-17.796"/>
	<path fill="#002244" d="M380.534,121.856c-0.402,2.707-2.834,4.685-5.612,4.469c-2.898-0.217-5.072-2.748-4.851-5.649&#xA;		c0.111-1.36,0.729-2.564,1.652-3.431c-15.535-7.618-23.663-8.776-23.663-8.776c18.817,12.479,26.848,22.887,26.848,22.887&#xA;		l5.086-3.468l47.58,26.534C408.646,138.997,392.894,128.708,380.534,121.856"/>
	<path fill="#FB4F14" d="M370.071,120.675c-0.222,2.901,1.952,5.432,4.851,5.649c2.778,0.217,5.211-1.762,5.612-4.469&#xA;		c-0.748-0.415-1.486-0.821-2.215-1.208l-5.192,3.809l1.445-5.783c-0.974-0.503-1.925-0.978-2.848-1.43&#xA;		c-0.923,0.867-1.542,2.071-1.652,3.431"/>
	<path fill="#002244" d="M373.126,124.457l5.192-3.809c-1.288-0.701-2.538-1.356-3.748-1.974l-1.445,5.783 M455.777,167.159&#xA;		c-11.202,4.478,3.235,17.311,3.235,17.311C427.618,159.711,455.777,167.159,455.777,167.159 M319.212,86.302&#xA;		c20.298,0.41,0.152-8.195,0.152-8.195s14.612,2.241,23.114,15.785C334.456,90.802,325.683,87.892,319.212,86.302"/>
</g>
</svg>