<?xml version="1.0" encoding="utf-8"?>
<svg xmlns="http://www.w3.org/2000/svg" xmlns:xlink="http://www.w3.org/1999/xlink" version="1.1" id="Layer_1" x="0px" y="0px" viewBox="0 0 479.091 365.212" enable-background="new 0 0 479.091 365.212">
<g>
	<path fill="#B0B7BC" d="M424.971,115.724c0,0,5.994-5.145,12.263-5.032c6.284,0.098,10.621,2.205,12.982,4.719&#xA;		c0,0,4.996-0.683,10.422,0.806c5.419,1.498,13.074,5.972,16.056,11.181c2.978,5.218,3.324,11.215,0.229,16.889&#xA;		c0,0,1.026,3.858-1.506,8.644c-2.555,4.797-6.721,7.288-6.721,7.288s-2.851,7.09-10.288,10.386&#xA;		c-7.452,3.301-17.236-0.427-17.236-0.427s-5.541,1.08-9.72,1.08c-4.211-0.008-10.087-1.816-11.892-2.666&#xA;		c0,0-4.991,7.326-6.382,9.073c0,0,6.816,5.932,14.273,8.268c7.442,2.335,13.294,3.405,16.706,5.844&#xA;		c3.382,2.463,4.686,4.853,4.686,4.853s5.202-0.81,10.196,0.368c5.004,1.174,10.842,5.106,14.677,10.331&#xA;		c3.831,5.217,6.17,11.912,4.574,18.286c-1.595,6.395-5.241,8.719-5.241,8.719s-1.777,5.873-5.398,9.48&#xA;		c-3.607,3.641-8.761,3.874-8.761,3.874s-2.828,3.798-10.168,4.963c-7.335,1.174-12.588-2.886-12.588-2.886&#xA;		s-5.798,0.657-13.688-1.794c-7.867-2.438-13.255-10.508-13.255-10.508s-5.125-2.465-14.6-2.9&#xA;		c-9.471-0.431-30.62-4.687-40.036-10.165c0,0-5.538,2.675-22.319,3.544c0,0-2.487-7.581-7.352-11.382&#xA;		c0,0-14.425,8.007-18.984,10.122c-4.58,2.137-13.048,5.824-20.416,6.271c0,0-1.932,12.034-5.449,18.532&#xA;		c-3.503,6.501-10.248,11.33-15.96,13.224c0,0,8.313,2.951,12.687,9.441c4.349,6.502,5.842,13.626,2.868,19.37&#xA;		c-2.985,5.749-6.347,7.31-6.347,7.31s-1.707,5.803-8.423,8.817c-6.724,3.016-15.174,1.419-15.174,1.419s-4.679,2.467-11.086,2.417&#xA;		c-6.417-0.057-14.457-5.516-14.457-5.516s-21.034,1.925-27.294,1.399c-6.256-0.505-13.666-3.102-17.198-12.346&#xA;		c0,0-3.843,3.21-9.577,5.98c-5.743,2.767-16.622,8.102-24.438,13.671l0.26,4.156c0,0,11.425,4.305,12.157,16.007&#xA;		c0.751,11.71-5.642,16.053-7.456,17.294c0,0-2.431,5.281-7.646,7.936c-5.208,2.651-10.966,1.429-10.966,1.429&#xA;		s-12.846,5.704-22.637-3.667c-9.796-9.358-7.024-19.468-6.91-21.927c0.096-2.438,0.809-23.893,0.708-24.889&#xA;		c0,0-4.862-6.502-3.8-13.848c1.064-7.339,6.7-11.925,9.353-14.153c2.669-2.24,5.86-5.951,7.442-11.595&#xA;		c1.592-5.635,1.703-17.148,2.237-21.399c0.539-4.258,0.761-11.391,0.761-11.391s-19.252-5.311-29.258-16.488&#xA;		c-10.001-11.18-12.773-19.27-15.337-30.324c-2.535-11.067-4.337-22.251-14.5-28.525c0,0-6.655,1.906-14.301-1.179&#xA;		c-7.655-3.082-12.343-9.256-17.229-15.322c-4.896-6.067-22.322-8.834-28.514-9.149c0,0,13.082-14.482,30.745-20.654&#xA;		c17.652-6.163,26.053-3.727,31.906-0.423c5.855,3.301,10.453,8.857,12.619,16.405c0,0,11.512,4.981,19.395,14.249&#xA;		c7.869,9.25,11.59,17.448,14.153,27.556c2.55,10.122,5.76,22.38,26.051,26.834c0,0,12.023-12.03,16.58-15.025&#xA;		c4.587-2.968,10.319-4.656,11.973-5.142c1.643-0.486,9.374-3.003,9.374-3.003s12.147-9.912,14.126-11.891&#xA;		c0,0,4.529-8.051,7.399-12.733c2.873-4.682,7.368-9.325,7.368-9.325s-5.897-10.964-5.571-22.963c0,0,2.903,1.319,5.502,1.696&#xA;		c0,0-0.178-8.886,5.575-17.083c5.74-8.21,11.536-13.347,11.536-13.347s-0.438-10.796,6.101-21.026c0,0-4.982-7.988-5.41-13.095&#xA;		c0,0,8.294-0.745,14.57-2.555c6.282-1.808,9.358-3.078,12.553-6.927c3.187-3.826,10.84-13.191,20.524-17.773&#xA;		c9.691-4.573,20.425-6.236,28.134-5.627c0,0-4.728-4.059-9.959-5.755c0,0,8.92-6.571,26.477-8.447c0,0,0.131-8.899,2.029-13.583&#xA;		c0,0,23.312,15.962,35.001,20.546c11.703,4.584,20.203,6.066,26.27,9.054c6.042,2.964,10.339,8.458,11.326,11.841&#xA;		c0,0,6.533,2.512,11.533,6.029c4.993,3.509,7.891,11.981,7.891,11.981s9.448,3.771,19.238,9.726&#xA;		c9.776,5.958,21.785,18.521,21.785,18.521s-7.567,3.334-13.992,12.627c0,0-2.955,10.314-7.828,15.395"/>
	<path fill="#FFFFFE" d="M411.297,120.027c0,0,4.405-0.087,8.263,0.989c3.874,1.083,6.319,2.353,6.319,2.353&#xA;		s2.847-1.808,4.297-3.063c1.435-1.276,5.759-3.512,9.614-2.887c3.874,0.63,6.607,3.391,7.322,4.568c0,0,3.301,0.2,6.358,0.029&#xA;		c3.061-0.19,8.728,0.889,13.218,4.493c4.519,3.599,8.635,8.918,3.152,16.018c0,0,1.175,4.504-0.446,7.74&#xA;		c-1.618,3.252-5.804,5.021-5.804,5.021s-2.576,7.681-8.594,9.656c-6.028,1.99-13.59-1.722-13.59-1.722s-7.093,1.722-12.229,1.368&#xA;		c-5.123-0.367-10.73-4.699-10.73-4.699s-1.232,0.735-2.39,2.435c-1.181,1.718-10.008,14.098-12.065,16.279&#xA;		c0,0,8.637,8.396,17.18,11.896c8.55,3.505,12.864,4.064,15.127,4.679c2.235,0.64,7.183,3.427,8.993,8.837&#xA;		c0,0,5.493-1.368,9.08-1.087c3.602,0.266,7.109,0.981,13.405,7.461c6.295,6.482,4.862,12.344,3.87,15.034&#xA;		c-0.987,2.684-4.731,5.015-4.731,5.015s-0.312,5.427-3.554,8.311c-3.243,2.869-7.634,2.376-7.634,2.376s-1.72,3.28-6.21,4.647&#xA;		c-4.51,1.352-9.363-1.004-11.627-2.799c0,0-9.258,0.815-15.275-2.161c-6.015-2.968-8.847-8.794-8.847-8.794&#xA;		s-10.21-4.177-20.831-4.264c-10.611-0.086-31.165-5.829-37.899-10.745c0,0-10.22,4.659-18.456,4.782c0,0-2.543-7.715-11.451-13.07&#xA;		c0,0-19.088,10.584-25.925,13.734c-6.831,3.15-18.862,4.292-20.622,4.482c0,0,0.747,2.89-0.14,7.576&#xA;		c-0.931,4.676-3.791,13.868-6.217,16.927c-2.443,3.059-9.188,6.832-13.137,8.276c-3.954,1.442-8.898,2.707-13.056,4.765&#xA;		c-4.124,2.076-9.164,6.288-11.369,8.276c0,0,6.369,1.613,8.289,1.529c1.915-0.074,5.339-1.98,7.866-2.956&#xA;		c2.525-1,9.62-2.351,15.29,1.885c5.668,4.229,8.632,9.712,8.438,13.868c-0.16,4.134-2.845,7.142-6.805,9.19&#xA;		c0,0-1.182,5.844-6.122,7.638c-4.97,1.795-13.199,0.167-13.199,0.167s-3.906,2.537-8.584,2.797&#xA;		c-4.675,0.277-10.967-3.774-11.957-4.311c-1.002-0.549-1.981-1.078-3.697-1.078c-1.72,0-20.229,1.532-25.989,1.532&#xA;		c-5.751,0-9.708-2.802-12.14-7.295c-2.43-4.506,0.977-11.706,3.151-14.571c2.145-2.898,5.58-6.858,6.01-7.672&#xA;		c0.454-0.81,0.557-2.15-0.617-2.964c-1.171-0.81-4.926-2.663-4.926-2.663s-5.69,11.401-7.844,15.262&#xA;		c-2.165,3.869-4.955,8.189-10.344,11.521c-5.405,3.334-16.835,8.381-22.847,12.065c-6.037,3.684-9.609,7.086-9.609,7.086&#xA;		s0.062,10.848,0.389,12.184c0,0,5.431,1.071,7.603,2.957c2.162,1.9,4.308,4.958,4.217,9.187c-0.075,4.229-0.641,9.205-5.908,11.172&#xA;		c0,0-1.471,5.477-5.6,7.094c-4.142,1.624-8.376,0.186-8.376,0.186s-5.655,2.869-11.595,1.617&#xA;		c-5.933-1.257-10.883-7.37-10.974-13.595c-0.086-6.218,0.981-28.708,0.981-30.164c0-1.437,0-2.963-1.067-4.936&#xA;		c-1.085-1.982-3.611-6.927-2.965-10.085c0.627-3.15,3.858-6.845,6.828-9.369c2.966-2.515,6.577-5.028,8.369-10.078&#xA;		c1.791-5.024,3.321-11.96,3.51-17.28c0.181-5.299,0.825-22.581,1.99-27.261c0,0-22.328-4.957-32.398-16.476&#xA;		c-10.068-11.525-11.783-20.71-14.66-33.036c-2.88-12.337-6.555-21.768-18.282-27.905c0,0-6.284,3.062-14.362-0.446&#xA;		c-8.103-3.513-12.516-12.694-16.823-15.947c-4.319-3.231-16.072-5.091-18.422-5.024c0,0,14.003-9.723,23.637-12.604&#xA;		c9.621-2.877,20.068-3.776,26.625,1.451c6.56,5.2,7.549,14.216,7.549,14.216s13.501,5.58,21.331,15.205&#xA;		c7.828,9.638,10.144,18.626,11.68,24.661c1.536,6.031,6.282,18.088,13.895,23.408c7.616,5.324,16.544,7.561,21.197,7.876&#xA;		c0,0,13.133-13.729,17.634-16.704c4.483-2.969,9.527-4.147,11.673-4.771c2.168-0.621,9.648-3.103,9.648-3.103&#xA;		s13.237-11.405,15.78-13.373c0,0,7.677-13.31,9.834-16.469c2.17-3.144,7.962-10.547,7.962-10.547s-5.307-6.061-5.24-13.907&#xA;		c0,0,3.127,0.622,5.106,0.428c0,0-2.6-4.407-1.337-10.622c1.262-6.21,7.99-16.296,16.993-24.044c0,0-0.356-6.56,1.525-12.755&#xA;		c1.897-6.223,5.733-11.189,5.733-11.189s-4.105-5.082-4.753-9.067c0,0,7.755-0.728,13.154-2.517c5.392-1.816,9.712-5.64,9.712-5.64&#xA;		s10.331-14.268,22.92-18.77c12.614-4.502,25.456-3.111,25.456-3.111s6.37-4.147,8.995-5.06c0,0-4.999-5.631-9.146-7.364&#xA;		c0,0,9.712-2.935,18.658-2.248c0,0,0.164-6.227,1.181-9.843c0,0,15.592,11.256,22.703,14.395c7.101,3.15,20.675,7.654,25.276,9.1&#xA;		c4.583,1.436,12.363,4.427,14.006,12.738c0,0,7.563,3.185,10.544,4.81c2.97,1.626,6.032,5.497,6.655,7.118&#xA;		c0.613,1.609,1.241,3.61,2.015,4.857c0.778,1.259,2.109,2.15,3.373,2.592c1.264,0.462,13.76,6.04,19.53,10.36&#xA;		c5.742,4.337,13.586,11.797,13.586,11.797s-7.804,6.228-9.724,9.101c0,0-2.335,7.833-6.11,13.402&#xA;		c-3.792,5.58-9.44,7.758-9.44,7.758v1.878"/>
	<path fill="#0076B6" d="M394.555,178.866c0,0-20.466,20.634-38.937,30.596c0,0-8.607,4.068-15.292,5.028&#xA;		c0,0-5.257-10.042-15.77-13.153c0,0-22.267-8.529-54.461-1.821c0,0,30.629-2.241,45.972,6.612&#xA;		c-6.992,3.872-16.548,9.002-21.616,10.982c-8.604,3.352-19.817,3.119-24.137,3.835c0,0,2.157,7.646,1.911,10.037&#xA;		c-0.232,2.383-2.619,14.353-6.674,17.697c-4.07,3.336-14.583,6.683-20.074,8.612c-5.493,1.898-17.685,9.552-21.509,20.069&#xA;		c0,0,14.34,3.121,18.159,3.58c3.826,0.475,7.407-1.671,10.044-2.857c2.622-1.207,5.962-1.924,9.552,0.233&#xA;		c3.579,2.166,5.259,5.265,5.972,7.655c0.719,2.387-1.9,4.53-6.214,5.261c0,0,0.483,5.022-2.141,6.208&#xA;		c-2.637,1.194-9.084,0.486-12.68-0.722c0,0-2.369,3.364-7.395,3.364c-5.012,0-8.367-5.269-13.616-5.506&#xA;		c-5.255-0.238-21.742,1.912-27.719,1.44c-5.977-0.484-6.447-4.064-5.253-7.423c1.199-3.335,8.598-10.749,9.795-14.105&#xA;		c1.034-2.913,1.95-8.007-9.982-12.756c0.514-0.634,9.112-11.253,22.621-19.403c13.227-7.966,26.36-15.405,41.743-20.305&#xA;		c-6.204,0.601-15.71,2.913-28.12,8.152c-18.651,7.901-29.385,18.102-29.385,18.102s1.38-5.388,17.502-19.723l-0.167,0.115&#xA;		c-22.038,10.044-31.247,32.724-31.412,33.075c-2.779,5.667-10.468,21.113-13.389,24.227c-3.575,3.822-13.605,7.41-21.007,11.706&#xA;		c-7.421,4.307-16.977,9.813-18.172,13.39c-1.197,3.593,0.26,19.835,0.718,20.807c0,0,8.371,0.712,10.033,2.862&#xA;		c1.67,2.149,1.452,6.45,0.47,7.651c-0.942,1.208-4.531,1.208-4.531,1.208s0.239,4.759-2.152,6.197&#xA;		c-2.386,1.45-7.64-0.703-7.64-0.703s-1.44,2.153-5.015,2.616c-3.579,0.486-6.213-0.937-7.887-3.577&#xA;		c-1.673-2.632-0.947-6.217-0.947-9.095c0-2.865,1.182-22.95,0.705-27.731c-0.463-4.769-4.537-8.118-3.819-11.236&#xA;		c0.718-3.098,9.551-8.133,12.414-13.389c2.877-5.264,5.505-12.193,6.21-24.372c0.718-12.197,0.718-23.444,2.635-29.653&#xA;		c0.245-0.782,0.48-1.522,0.693-2.245c-7.763-1.462-24.381-6.037-32.151-12.84c-8.747-7.63-12.65-15.267-14.517-25.127&#xA;		c-1.86-9.88-5.847-21.015-9.85-28.12c-4.178-7.356-16.939-13.959-16.939-13.959s-5.695,4.591-13.182,0.432&#xA;		c-8.371-4.631-9.233-7.485-12.164-11.357c-2.607-3.416-7.716-4.437-9.103-4.668c17.54-6.842,26.223,2.588,26.223,2.588&#xA;		s-0.442-4.742-7.196-6.485c-2.032-0.541-4.552-1.151-7.321-1.406c1.323-0.508,2.534-0.916,3.426-1.145&#xA;		c2.954-0.739,9.913-1.466,15.212,2.113c4.929,3.332,6.694,13.411,6.694,13.411c2.417,1.488,16.743,8.621,21.402,14.579&#xA;		c4.665,5.966,8.012,12.047,10.055,20.051c2.05,8.012,4.834,19.745,16.74,29.614c9.141,7.555,22.634,9.323,28.434,9.733&#xA;		c0.235-0.316,0.46-0.627,0.712-0.948c4.057-5.264,16.25-16.73,19.82-18.396c3.584-1.677,17.93-5.281,19.605-6.94&#xA;		c1.679-1.66,15.775-12.919,16.961-14.588c1.201-1.66,7.649-13.148,11.467-18.895c3.819-5.733,13.388-16.238,13.388-16.238&#xA;		s-8.113-0.254-10.254-3.84c0,0,8.852-3.896,9.643-8.915c0.455-2.966-1.587-5.099-7.586-2.632c0,0,0.774-5.662,5.794-12.831&#xA;		c5.035-7.171,14.527-15.133,18.403-17.93c4.793-3.461,6.453-7.883,5.253-10.275c-1.198-2.403-6.457-2.641-10.047,1.436&#xA;		c0,0,3.361-10.046,9.567-14.338c0,0-4.55-0.965-6.206-4.562c0,0,6.923,0.245,11.706-2.394c4.783-2.616,17.214-10.498,21.977-10.741&#xA;		c0,0-3.824-1.925-9.789,0.243c0,0,9.151-11.003,23.173-13.157c14.037-2.153,26.513,1.67,32.246-0.958c0,0-2.626-3.337-8.842-3.337&#xA;		c0,0,7.655-4.555,12.434-4.555c0,0-4.059-4.782-9.807-6.937c0,0,12.424,0.484,16.973,2.637c0,0-3.121-3.583-2.625-7.658&#xA;		c0,0,9.558,8.605,23.642,13.394c14.096,4.781,22.706,6.455,25.095,10.273c2.39,3.828,0.959,5.98,0.959,5.98&#xA;		s10.266,4.318,13.855,6.206c3.582,1.924,5.012,6.227,5.486,7.673c0.481,1.416,2.88,5.492,4.779,6.212&#xA;		c1.916,0.716,12.433,5.259,18.152,8.844c5.743,3.589,11.233,8.608,11.233,8.608s-5.489,3.099-6.671,5.736&#xA;		c-1.205,2.624-3.602,15.291-13.874,18.639c0,0,3.101-5.259,0.743-10.514c0,0-12.204-0.721-20.814,4.549&#xA;		c0,0-1.548,10.282,3.947,13.161c5.493,2.862,11.817-5.765,12.546-7.676c0,0-0.182,4.845,0,8.112l1.466,0.237&#xA;		c0.347,3.448-0.273,8.394-0.273,8.394s4.056-3.111,10.759-1.915c6.682,1.187,8.353,3.345,10.513,3.345&#xA;		c2.153,0,6.438-2.864,7.862-4.302c1.45-1.431,3.849-2.398,5.989-1.674c2.148,0.717,3.344,4.069,3.344,4.069&#xA;		s8.137,0.717,10.759,0.23c2.619-0.482,7.873,2.399,9.309,3.587c1.431,1.199,3.113,3.117,2.616,4.558&#xA;		c-0.463,1.419-3.82,3.577-3.82,3.577s1.92,3.826,1.674,6.209c-0.235,2.396-5.253,3.345-5.253,3.345s-1.67,6.459-4.775,8.122&#xA;		c-3.092,1.68-11.951-1.902-11.951-1.902s-5.26,1.902-11.22,1.679c-5.972-0.24-9.329-4.788-9.329-4.788s-4.533-0.722-8.131,2.392&#xA;		c-3.559,3.116-10.968,16.739-18.382,23.43L394.555,178.866z M344.504,138.659c8.479,9.138,2.392,17.467,2.392,17.467&#xA;		c8.825-1.842,33.8-10.965,47.419-21.968c0,0-9.85-5.257-16.963-5.658c-6.339-0.361-10.239,6.585-10.676,13.435&#xA;		c-5.107,3.127-12.408,4.579-12.408,4.579l0.02-0.131c0.177-1.106,1.069-9.312-8.908-14.433&#xA;		c-10.425-5.355-30.741-8.791-52.683,3.086C314.639,126.786,337.68,131.328,344.504,138.659L344.504,138.659z M257.274,135.957&#xA;		c14.171-3.356,23.089-11.43,30.63-15.114c8.65-4.234,20.165-8.121,35.303-5.88c0,0-21.547-9.054-41.933,1.779&#xA;		c-20.384,10.821-30.129,16.637-50.697,17.362C230.577,134.104,242.321,139.492,257.274,135.957L257.274,135.957z M308.725,92.498&#xA;		c-21.255-3.876-35.36,9.781-35.36,9.781s15.997-6.404,33.046-4.613c17.026,1.791,33.009,14.671,33.009,14.671&#xA;		S329.973,96.381,308.725,92.498z M380.591,69.893c-2.105,0-9.646,1.729-9.646,1.729s7.338,1.55,9.281,2.904&#xA;		c1.928,1.35,8.092,5.989,8.092,5.989s-1.531-1.933-1.168-2.898c0.395-0.959,3.092-4.65,3.092-4.65&#xA;		C387.15,72.776,382.718,69.892,380.591,69.893L380.591,69.893z M465.742,220.462c0.725,3.106-2.616,5.023-5.483,5.023&#xA;		c0,0,0.723,6.691-1.682,8.366c-2.386,1.667-6.92-0.728-6.92-0.728s-0.241,4.79-3.823,5.98c-3.579,1.194-7.883-3.106-7.883-3.106&#xA;		s-8.373,1.446-14.088-1.194c-5.735-2.628-6.939-7.882-6.939-7.882s-9.326-4.298-18.397-5.252c-7.778-0.833-24.57-1.683-38.78-8.465&#xA;		c5.889-3.49,14.574-8.944,21.383-14.559c6.543-5.403,12.451-11.189,16.28-15.157c4.297,3.905,10.668,9.201,15.94,11.64&#xA;		c8.831,4.059,15.292,5.743,18.148,6.208c2.859,0.471,5.024,3.593,5.726,5.26c0.727,1.673,3.599,4.297,6.944,4.068&#xA;		c3.348-0.245,7.65-2.154,11.465,0C461.444,212.814,465.039,217.347,465.742,220.462L465.742,220.462z"/>
</g>
</svg>