<?xml version="1.0" encoding="utf-8"?>
<svg xmlns="http://www.w3.org/2000/svg" xmlns:xlink="http://www.w3.org/1999/xlink" version="1.1" id="Layer_1" x="0px" y="0px" viewBox="0 0 409.47 307.178" enable-background="new 0 0 409.47 307.178">
<g>
	<path d="M132.992,152.585c0.977,0.762,4.691,3.049,5.452,3.811c0,0,2.499-1.638,4.463-2.07c0,0-4.248,3.049-5.224,4.698&#xA;		c0,0,1.851-0.978,3.157-0.978c0,0,3.373,2.07,5.542,2.07c2.181,0,6.315-0.66,6.315-0.66s2.396-1.627,5.02-1.854&#xA;		c0,0-2.737,1.854-3.384,2.73c0,0,1.09-0.114,1.749,0.33c0.647,0.432,2.828,0.865,4.793,0.102c1.953-0.762,3.907-1.524,3.805-3.925&#xA;		c-0.114-2.4-1.522-5.233-1.522-5.233s2.567-2.15,3.986-2.821c-0.341,0.046-3.123,0.466-4.861,1.183c0,0-2.169-4.368-4.463-5.779&#xA;		c-2.294-1.411-4.577-1.638-7.076-0.546c-2.51,1.092-6.224,2.15-6.224,2.15s-3.43,1.649-3.884,2.309&#xA;		c0.068-0.159,0.693-1.456,1.613-2.173c0,0-3.146,0.011-5.452,0.114c-2.283,0.102-4.781,0.33-5.111,2.503&#xA;		c-0.318,2.184,0.329,3.276,1.306,4.038V152.585z M165.531,179.295c-2.385-2.48-4.713-3.299-6.11-1.923c0,0-0.704-2.639-2.317-3.356&#xA;		c-1.624-0.717-2.726-0.58-2.726-0.58s-6.315,1.263-8.916,2.867c0.511-0.33,4.691-3.037,6.178-3.993l-3.509,0.808&#xA;		c0,0-3.691,0.011-7.121-0.262c-3.419-0.262-11.323-1.081-12.788-0.796c0,0,0.988-0.683,1.579-1.035&#xA;		c-0.159,0-2.748,0.023-4.463,1.411c0,0-5.258,0.546-6.269,4.095c-1.022,3.561,1.59,6.086,2.351,6.643c0,0,1.056-1.661,3.191-2.707&#xA;		c0,0-1.215,1.968-1.17,3.606c0,0,4.486,2.378,13.436,3.618c8.961,1.24,8.314,0.58,11.46,2.537c0,0,3.328-2.355,5.168-2.912&#xA;		c0,0-2.589,3.686-2.828,5.062c0,0,4.157,3.549,7.587,3.811c3.441,0.273,6.383-1.058,6.019-4.607l1.238-1.524l-2.192,0.159&#xA;		l0.636-1.194c0,0-0.102-1.809-1.102-3.208c0.17,0.091,1.885,1.024,3.509,0.58l-0.477,0.899c0,0,1.874-0.216,3.26-2.594&#xA;		l-1.136-0.307c0,0-0.091-2.616-2.487-5.096L165.531,179.295z M309.326,257.219c-2.465,4.653-5.486,9.01-9.006,12.923&#xA;		c-6.008,6.678-13.402,11.967-21.499,15.778c-8.416,3.959-18.013,6.837-27.371,7.201c1.67-1.786,3.339-3.561,4.986-5.335&#xA;		c-9.211,1.604-18.762,1.866-27.984,0.046c1.124-0.83,2.647-2.093,2.817-3.572c-0.636-0.057-1.317-0.364-1.908-0.569&#xA;		c-1.579-0.557-3.112-1.229-4.611-1.968c-5.531-2.707-10.63-6.302-15.287-10.329c-8.155-7.053-15.026-15.539-20.795-24.64&#xA;		c-3.487-5.495-6.303-11.399-10.165-16.643c-3.316-4.493-7.166-8.577-11.403-12.195c-6.621-5.688-14.185-10.204-22.147-13.708&#xA;		c-12.857-5.642-25.611-11.74-37.684-18.941c-3.396-2.025-6.724-4.164-9.983-6.416c-6.917-4.823-13.663-10.227-19.398-16.415&#xA;		l-0.386-0.421c0.159-0.137,1.374-1.183,1.999-1.695c1.079-0.865,2.203-1.672,3.35-2.446c1.079-0.739,3.578-2.07,3.578-2.07&#xA;		l0.034-0.023v0.034c-0.034,0.353-0.045,0.728-0.011,1.16c0,0,1.249-1.365,2.408-2.002c0,0-1.885,2.946-2.101,5.153&#xA;		c0,0-0.42,3.674,3.044,5.563c3.453,1.888,8.609,3.367,10.074,4.516c0,0,2.624-1.888,4.089-2.514c0,0-3.464,3.356-4.407,6.507&#xA;		c0,0,2.101-1.991,3.26-2.412c0,0,3.248,2.412,5.236,2.196c1.988-0.205,4.827-0.102,5.974-2.73c1.158-2.616,0.943-3.037,1.476-3.879&#xA;		c0,0-1.897,1.16-3.26,2.412c0,0,0.636-2.616,3.26-4.619c2.612-1.991,3.884-2.309,3.884-2.309s6.19-8.202-1.045-12.195&#xA;		c0,0,3.555-1.786,5.554-3.037c0,0-5.781,1.467-7.666,2.093c0,0-4.293-0.842-6.599-0.842c-2.317,0-6.292-0.307-8.075-0.842&#xA;		c-1.783-0.523-3.566-1.149-3.566-1.149s1.045-0.626,1.885-0.842c0,0-4.066-0.307-6.474,3.515l-0.034-0.011&#xA;		c0.011-0.307,0.148-1.786,1.261-3.185c0,0-2.135,0.978-3.339,2.332l-0.034-0.011c-0.795-0.296-1.601-0.546-2.408-0.796&#xA;		c-1.283-0.387-2.589-0.728-3.896-1.035c-0.863-0.205-1.738-0.41-2.624-0.58c6.814-4.516,14.356-7.883,22.113-10.511&#xA;		c2.589-0.876,8.086-2.446,8.086-2.446c1.102,1.047,2.215,1.843,2.215,1.843s3.691-0.887,5.463-1.581c0,0-3.702,2.605-6.587,3.856&#xA;		c0,0,4.395-0.148,5.906-0.421l-0.681,1.524c0,0,1.919,1.502,6.44,0.819c4.52-0.683,7.405-1.649,7.405-3.993&#xA;		c0-2.332-0.557-3.435,0.136-5.768c0,0-1.647,0.273-2.885,0c0,0,2.612-1.513,3.566-3.151c0,0-0.239-1.479-0.954-2.946l-0.011-0.011&#xA;		c3.623-0.387,7.269-0.705,10.892-0.921c-0.454-0.535-0.943-1.035-1.465-1.513c-3.646-3.367-8.745-5.529-13.322-6.996&#xA;		c9.109-1.217,18.319-1.581,27.485-1.9c5.247-0.193,10.494-0.319,15.73-0.375c-1.102-0.921-2.624-1.456-3.941-1.979&#xA;		c3.078-0.353,6.292-0.057,9.37,0.171c-2.624-1.32-5.599-2.07-8.404-2.901c-1.976-0.58-3.964-1.138-5.951-1.661l0.239,0.011&#xA;		l0.227,0.023l0.045,0.011c7.223,0.956,14.889,2.173,23.283,3.674c53.811,9.613,89.314,24.162,104.783,31.454&#xA;		c4.089,1.854,6.871,3.265,8.291,4.004c1.283,0.375,3.066,0.58,3.964-0.728c0.17-0.239,0.295-0.489,0.386-0.728l0.011-0.023&#xA;		c0.159,0.023,0.284,0.034,0.375,0.023c3.373-0.205,6.667-0.535,9.938-1.433c0.92-0.25,1.829-0.535,2.737-0.842&#xA;		c1.851-0.637,3.646-1.388,5.417-2.207c-0.091,0-2.998-3.777-3.339-4.152c-2.612-2.935-5.542-5.608-8.768-7.883&#xA;		c0.432-0.125,0.897-0.262,1.363-0.375c0.466-0.114,0.954-0.182,1.42-0.171c-2.589-2.571-5.792-4.619-8.836-6.53&#xA;		c-1.124-0.728-2.283-1.411-3.43-2.082l-0.988-0.592l-0.704-0.421c-1.317-0.762-2.646-1.513-3.986-2.23&#xA;		c8.223,2.798,16.378,6.006,24.373,9.453c0.613,0.262,1.215,0.523,1.817,0.785c6.678,2.901,13.447,6.018,19.466,10.113&#xA;		c1.329,0.899,2.589,1.888,3.737,2.98l0.125,0.114c2.362,1.786,3.998,4.471,5.043,7.212c0.5,1.331,0.875,2.73,1.056,4.141&#xA;		c0.068,0.478,0.25,5.199-0.068,5.187c-0.432-0.023-0.863-0.034-1.295-0.046c-3.43-0.046-6.86,0.319-10.222,0.978&#xA;		c-6.008,1.194-11.607,3.47-17.32,5.597c-4.134,1.547-8.075,3.595-12.277,5.005c-5.951,2.002-12.232,2.969-18.524,2.491&#xA;		c-6.496-0.489-12.845-2.343-18.319-5.915c-4.145-2.707-7.712-6.211-10.733-10.102c-2.157-2.787-4.055-5.768-5.656-8.907&#xA;		c8.257,2.98,14.753,5.665,19.432,7.747c4.134,1.763,6.951,3.106,8.382,3.811c1.283,0.353,3.078,0.512,3.952-0.808&#xA;		c1.817-2.753-1.511-4.948-1.511-4.948s-40.875-19.987-115.799-28.235c-8.802-0.967-16.957-1.649-24.475-2.116&#xA;		c7.394,0.796,15.378,1.832,23.998,3.174c13.163,2.048,25.247,4.425,36.219,6.928c-1.204,0.159-2.385,0.387-3.555,0.694&#xA;		c-2.26,0.603-4.418,1.524-6.428,2.742c-3.737,2.275-6.758,5.574-9.052,9.271c-4.634,7.463-6.826,16.688-7.144,25.402&#xA;		c-0.386,10.853,2.351,21.614,5.872,31.784c4.18,12.058,9.574,23.673,16.275,34.537c3.328,5.404,6.962,10.625,11.062,15.448&#xA;		c4.35,5.096,9.324,10.056,15.322,13.15c6.382,3.288,13.457,3.265,20.374,2.218c4.872-0.739,9.597-2.685,14.231-4.277&#xA;		c10.892-3.731,22.294-7.747,33.993-6.484c3.861,0.421,7.973,1.217,11.448,3.037c0.534,0.25,0.466,0.273,0.17,0.842L309.326,257.219&#xA;		z M394.506,109.413c0,0-6.655-14.629-25.599-27.097c4.747-6.097,6.587-13.423,4.395-19.214&#xA;		c-2.271-6.018-18.217-17.007-24.225-20.124c-6.008-3.106-14.299-7.679-14.299-7.679s-21.306-12.946-38.047-20.26&#xA;		c-20.182-8.805-56.537-20.533-96.072-12.172c0,0-23.725-7.792-66.622,5.483c-15.003,4.129-40.478,10.909-54.765,13.298&#xA;		c-21.17,3.538-42.647,3.902-59.285,5.665c-8.768,0.933-14.606-1.012-17.456,3.936C-9.996,52.988,27.358,89.778,40.896,95.591&#xA;		c-4.009,22.604,1.079,49.348,24.77,76.07c25.758,29.077,61.398,34.594,82.295,50.054c23.453,17.348,28.314,39.258,47.905,59.757&#xA;		c18.024,18.861,53.255,34.946,84.817,19.544c34.231-16.711,40.443-44.605,41.681-49.837c0.409-2.673-1.136-5.381-4.577-7.042&#xA;		c-0.579-0.273-1.726-0.842-3.237-1.638c1.363-5.46,4.838-21.887,1.408-36.209c0,0-9.676,14.186-16.991,22.035&#xA;		c-2.044-1.923-11.437-11.444-9.881-22.729c4.293-1.706,9.279-4.038,13.084-6.905c2.192-1.661,4.134-3.31,5.894-4.926&#xA;		c19.262-5.529,23.589-13.503,23.589-13.503c0.716,1.957,3.146,4.459,3.146,4.459c2.839-1.604,6.621-4.459,6.621-4.459&#xA;		c0.363,2.321,0.318,6.427,0.318,6.427c1.431-0.535,2.828-0.66,2.828-0.66c-1.431,7.133-9.767,19.225-9.767,19.225&#xA;		c29.222-8.384,41.522-29.998,41.522-29.998l-0.011-0.114c1.102-0.228,1.874-0.523,1.874-0.523s19.614-5.586,28.62-24.845&#xA;		s-7.28-37.927-12.3-40.361L394.506,109.413z M142.248,145.929c0,0-3.146,0.011-5.452,0.114c-2.283,0.102-4.781,0.33-5.111,2.503&#xA;		c-0.318,2.184,0.329,3.276,1.306,4.038s4.691,3.049,5.452,3.811c0,0,2.499-1.638,4.463-2.07c0,0-4.248,3.049-5.224,4.698&#xA;		c0,0,1.851-0.978,3.157-0.978c0,0,3.373,2.07,5.542,2.07c2.181,0,6.315-0.66,6.315-0.66s2.396-1.627,5.02-1.854&#xA;		c0,0-2.737,1.854-3.384,2.73c0,0,1.09-0.114,1.749,0.33c0.647,0.432,2.828,0.865,4.793,0.102c1.953-0.762,3.907-1.524,3.805-3.925&#xA;		c-0.114-2.4-1.522-5.233-1.522-5.233s2.567-2.15,3.986-2.821c-0.341,0.046-3.123,0.466-4.861,1.183c0,0-2.169-4.368-4.463-5.779&#xA;		c-2.294-1.411-4.577-1.638-7.076-0.546c-2.51,1.092-6.224,2.15-6.224,2.15s-3.43,1.649-3.884,2.309&#xA;		c0.068-0.159,0.693-1.456,1.613-2.173V145.929z M165.531,179.294c-2.385-2.48-4.713-3.299-6.11-1.923c0,0-0.704-2.639-2.317-3.356&#xA;		c-1.624-0.717-2.726-0.58-2.726-0.58s-6.315,1.263-8.916,2.867c0.511-0.33,4.691-3.037,6.178-3.993l-3.509,0.808&#xA;		c0,0-3.691,0.011-7.121-0.262c-3.419-0.262-11.323-1.081-12.788-0.796c0,0,0.988-0.683,1.579-1.035&#xA;		c-0.159,0-2.748,0.023-4.463,1.411c0,0-5.258,0.546-6.269,4.095c-1.022,3.561,1.59,6.086,2.351,6.643c0,0,1.056-1.661,3.191-2.707&#xA;		c0,0-1.215,1.968-1.17,3.606c0,0,4.486,2.378,13.436,3.618c8.961,1.24,8.314,0.58,11.46,2.537c0,0,3.328-2.355,5.168-2.912&#xA;		c0,0-2.589,3.686-2.828,5.062c0,0,4.157,3.549,7.587,3.811c3.441,0.273,6.383-1.058,6.019-4.607l1.238-1.524l-2.192,0.159&#xA;		l0.636-1.194c0,0-0.102-1.809-1.102-3.208c0.17,0.091,1.885,1.024,3.509,0.58l-0.477,0.899c0,0,1.874-0.216,3.26-2.594&#xA;		l-1.136-0.307c0,0-0.091-2.616-2.487-5.096L165.531,179.294z M376.982,101.847c0,0-5.781,7.144-8.643,4.948&#xA;		c-2.873-2.196,1.499-5.13,0.579-10.853c-0.909-5.711-19.614-24.959-43.237-39.156c0,0,10.926,4.528,21.488,10.136l0.25,0.125&#xA;		c2.328,1.183,4.793,2.594,7.098,4.027c3.169,1.934,6.019,3.891,8.143,5.768c0,0,4.293-5.244,1.726-11.364&#xA;		c-0.136-0.341-0.318-0.694-0.511-1.047l-0.08-0.137c-0.398-0.694-0.875-1.399-1.42-2.116c-0.477-0.319-1.158-0.717-1.919-1.012&#xA;		c-1.488-0.569-2.896-0.808-3.884-1.297c0,0-2.271-2.309-3.032-3.413c0,0-0.239,1.012,0.386,2.207c0,0-1.749-1.536-3.35-1.877&#xA;		c-1.601-0.33-3.532-0.978-4.032-1.354c-0.488-0.375-1.476-1.24-1.476-1.24s0.045,0.785,0.284,1.365c0,0-1.647-0.125-1.931-1.854&#xA;		s1.068-2.434,1.068-2.434s-0.125-0.489,0-1.103c0,0,1.476,1.638,2.181,2.059c0,0,0.318-1.047-0.284-2.844l-0.545-0.307&#xA;		c-0.545-0.296-1.079-0.569-1.579-0.796c-0.42-0.193-24.759-14.015-36.298-19.817c-0.852-0.08-2.022-0.262-3.26-0.683&#xA;		c0,0-1.931-0.899-2.249-1.82c0,0-0.136,0.478,0.148,1.001c0.488,0.887,1.522,1.832,1.829,3.06c0,0-1.919-1.138-3.498-1.957&#xA;		c-1.386-0.717-4.293-1.547-5.94-2.776c-0.341-0.25-0.602-0.512-0.784-0.762l-0.182-0.228c-0.17-0.25-0.273-0.501-0.341-0.717&#xA;		l-0.068-0.284l-0.023-0.125l-0.023-0.307l0.011-0.216l0.091,0.068l0.08,0.068l0.114,0.091c0.693,0.592,1.431,1.251,2.294,1.49&#xA;		l0.216,0.057l-0.08-0.102l-0.091-0.102l-0.216-0.25c-0.442-0.489-1.056-1.274-1.567-2.275c-9.427-4.675-20.693-9.647-35.935-12.65&#xA;		c-21.931-4.334-36.65-0.683-36.65-0.683s4.327,0.262,13.345,3.424c0.568-0.182,1.329-0.489,1.999-0.967&#xA;		c1.296-0.933,2.135-1.115,2.692-1.115c0.557,0,2.953,2.867,2.953,2.867s-0.261-2.218-0.727-4.084c0,0,2.362-0.205,3.26,0&#xA;		c1.317,0.307,2.408,0.751,2.873,0.751c0.467,0,0.659-0.557,0.659-0.557s0.829,0.546,0.829,1.206c0,0,1.863,1.297,1.863,2.514&#xA;		c0,1.206-0.284,2.787,0,3.538c0,0-0.466,0.273-1.215-0.933c0,0-1.204,1.024-2.408,1.024c-0.568,0-1.079,0.137-1.476,0.296&#xA;		c4.157,1.866,8.859,4.152,14.151,6.985c0,0,0.602,0.421,1.045,0.751c0,0,0.432-1.763,0.716-2.036c0,0,0.545,0.489,0.659,0.774&#xA;		c0,0,0.102-0.774-0.057-1.649c0,0,1.476-1.206,2.624-1.32c1.158-0.114,1.601-0.114,1.976-0.33c0,0,0.261-0.921-0.125-1.911&#xA;		c0,0,1.931,1.126,2.317,2.571c0,0,0.17-0.876,0.114-1.763c0,0,2.022-0.33,3.509,0.057c1.476,0.375,2.476,0.887,2.805,1.433&#xA;		c0.329,0.546,1.249,2.389,0.738,2.787c-0.522,0.398-1.454,0.557-1.738,1.001c-0.273,0.432-0.375,0.819-0.761,1.092&#xA;		c-0.375,0.273-0.886,0.341-0.886,0.341s-0.102,1.524,0.284,2.298c0,0-0.784-0.102-1.17-1.035c0,0,0.182,0.865-0.375,1.479&#xA;		c-0.545,0.603-0.92,0.978-1.464,1.138c0,0-1.353-1.285-1.466-1.786c0,0,0.148,3.037-0.375,2.469c0,0-2.851-2.525-3.419-2.833&#xA;		c0,0-1.227,0.182-1.715,0.125c-0.5-0.046-2.192-0.705-2.521-1.263c0,0-0.057,0.66,0.875,1.32c0,0-0.84-0.137-1.158-0.284&#xA;		c0,0-0.488,0.557-1.363,0.785c0,0,0.875,0.99,1.261,1.365c0,0-1.726-0.307-2.51-1.138c0,0-0.999,0.046-2.101-0.284&#xA;		c-1.09-0.33-1.76-0.216-2.748-0.057c-0.988,0.159-1.147,0.057-1.863-0.114c-0.716-0.159-2.68-1.263-2.68-1.263&#xA;		s0.329,0.876,0.659,1.16c0,0-0.169,0.717-1.76,0.273c-1.59-0.444-1.647-0.933-2.465-1.433c-0.829-0.489-1.374-1.206-1.204-1.809&#xA;		c0.159-0.603,0.659-1.047,0.659-1.047s0.488,0.444,1.363,0.83c0,0-1.476-1.866-1.647-2.525c0,0,0.772,0.159,1.158,0.216&#xA;		c0,0,0.273-1.047,2.578-1.536c0.772-0.171,1.42-0.273,1.942-0.353c-6.349-1.991-15.219-4.471-25.463-6.53&#xA;		c-0.17,0.193-0.307,0.387-0.432,0.592c-0.148,0.239-0.273,0.489-0.398,0.751c-0.375,0.774-0.659,1.558-1.261,2.07&#xA;		c0,0-4.758-1.49-6.292-2.252c0,0,2.408,1.979,4.09,2.878c0,0-1.444,2.4-6.486,1.843c0,0-2.328,1.012-4.157,0.819&#xA;		c-1.817-0.193-4.588-1.399-5.156-2.332c-0.568-0.956-0.5-2.912,1.454-4.05c0,0,2.669,1.627,3.986,2.378&#xA;		c0,0-2.351-2.935-2.169-3.879c0,0,0.84-0.694,1.84-1.297c-1.17-0.159-2.351-0.307-3.543-0.432&#xA;		c-10.778-1.217-20.307-1.399-28.95-0.91c0.681,0.99,0.545,1.911,1.09,2.901c0.659,1.206-0.307,1.752-0.307,1.752&#xA;		c-0.727-0.592-3.725-1.866-3.725-1.866c1.136,1.081,2.112,2.582,2.112,2.582c-0.727,0.421-2.635,0.796-4.691,0.899&#xA;		c-2.056,0.091-4.975,1.797-4.975,1.797c-1.227-0.364-2.271-1.615-3.305-2.571l-0.511-0.444l-0.136-0.114l-0.08-0.068l-0.102-0.068&#xA;		c0.045,0.046,0.091,0.216,0.125,0.33l0.011,0.034l0.011,0.034l0.204,0.523c0.148,0.341,0.307,0.694,0.488,1.024&#xA;		c0.522,1.001,1.147,1.945,1.772,2.878l0.034,0.057c0.261,0.421,0.5,0.808,0.704,1.126c0.091,0.125,0.17,0.239,0.239,0.364&#xA;		l0.045,0.08l0.08,0.125l0.091,0.137l0.045,0.08l0.057,0.091c-0.261-0.33-1.079-0.489-1.476-0.626l-0.068-0.023&#xA;		c-0.681-0.273-1.317-0.626-1.942-1.024l-0.034-0.023c-0.284-0.205-1.113-0.956-1.454-0.83l-0.204,0.068l-0.136,0.034l-0.261,0.08&#xA;		l-0.329,0.08l-0.341,0.08l-0.488,0.091c-0.295,0.046-0.579,0.08-0.875,0.102h-0.045c-0.363,0.011-0.772,0.023-1.181,0.011&#xA;		c-2.112-0.125-4.691-1.923-6.485-3.743c-0.647-0.637-0.852-1.342-0.863-1.991c-1.874,0.444-3.714,0.91-5.508,1.399&#xA;		c-2.68,0.626-17.263,3.891-32.164,7.246c0.091,1.035-0.341,2.15-0.341,2.73c0,1.035,0.829,1.82,0.829,1.82&#xA;		c-1.704,0.137-4.713-1.001-4.713-1.001c0.852,1.217,3.305,2.616,3.305,2.616s-0.352,1.354-1.476,1.82s-1.976,0.284-3.373,0.182&#xA;		c-1.408-0.091-2.624,0.569-4.407,0.66s-3.964-1.012-3.964-1.012c1.965,0.182,3.43-1.149,3.43-1.149&#xA;		c-2.521-0.284-3.305-1.217-3.589-1.775c-0.204-0.41-0.829-0.967-1.408-1.376c-10.937,2.446-19.398,4.346-19.398,4.346&#xA;		c-6.939,0.933-12.539,1.638-12.539,1.638c-2.056,0.148-4.123,0.273-6.178,0.387c-11.323,0.603-22.658,0.341-33.958,1.035&#xA;		c-1.681,0.102-3.339,0.148-5.02,0.148h-0.068c0.92,0.205,1.84,0.455,2.748,0.705c1.238,0.33,2.465,0.683,3.691,1.058&#xA;		c4.134,1.24,8.234,2.639,12.277,4.209c1.999,0.774,3.986,1.593,5.951,2.446c2.09,0.921,4.157,1.888,6.19,2.912&#xA;		c0.557-0.853,3.066-0.853,3.066-0.853l-0.318-0.66c0,0,0.704,0.444,1.579,0.387l0.17-0.023l0.636-0.239&#xA;		c0.284-0.182,0.522-0.432,1.079-0.614c0.931-0.33,2.226-0.193,2.226-0.193c0.352-0.637,1.908-1.251,1.908-1.251&#xA;		c-0.307-0.284-0.681-0.592-0.681-0.592c0.625-0.102,2.056,0.193,2.658,0.262c0.409-0.034,0.738-0.068,0.863-0.137l0.057-0.034&#xA;		c0.17-0.137,0.284-0.421,0.125-0.671c-0.295-0.273-0.954-0.478-1.408-0.683c-0.522-0.239-0.579-0.58-0.591-0.683l-0.023-0.046&#xA;		c-0.545,0.114-1.794-0.421-1.794-0.421s1.045-0.057,1.317-0.239c0.125-0.068,0.375-0.193,0.693-0.307&#xA;		c0.386-0.182,0.875-0.341,1.329-0.398c0.829-0.102,1.817,0.66,1.817,0.66s0.875,0.159,1.749-0.171&#xA;		c0.897-0.307,2.726-0.273,2.635-0.25c-0.568,0.102-1.136,0.489-1.681,0.489c0.443,0,1.045,0.307,1.397,0.557&#xA;		c1.624,1.103-0.432,2.537-1.488,3.049c-1.613-0.182-2.612,0.455-2.612,0.455s2.078,0,1.976,0.603&#xA;		c-0.114,0.603-1.045,0.99-2.033,1.206c-0.988,0.216-1.76,1.206-1.76,1.206c0.443,0.057,0.829,0.489,0.829,0.489&#xA;		s-1.045,0.114-1.204,0.228c-0.17,0.102-0.716,1.32-1.158,1.866c-0.432,0.546-1.965,0.933-1.965,0.933&#xA;		c0.704,0.387,2.953,0.66,2.953,0.66c-1.238,0.444-2.692,0.523-3.191,0.546c0.352,0.216,3.782,2.4,3.907,2.48l0.023,0.011&#xA;		c0.182,0.125,2.976,1.877,3.941,2.446c4.066,2.4,8.257,4.584,12.686,6.234c1.34,0.444,2.669,0.956,4.02,1.376&#xA;		c1.499,0.466,3.021,0.865,4.543,1.217c1.397,0.319,2.817,0.569,4.225,0.785c2.521,0.375,5.088,0.523,7.632,0.455&#xA;		c2.567-0.057,5.122-0.41,7.655-0.876c2.93-0.546,5.838-1.183,8.7-2.014c0.477-0.125,0.943-0.273,1.408-0.41&#xA;		c3.952-1.217,7.78-2.969,11.471-4.857c0.965-0.478,1.931-0.967,2.873-1.479l0.068-0.046l0.068-0.023&#xA;		c-0.057,0.068-6.86,5.722-10.199,7.77c-0.727,0.444-1.465,0.887-2.215,1.32c-1.215,0.694-2.465,1.354-3.714,1.991&#xA;		c-1.068,0.557-2.135,1.069-3.214,1.547c-0.568,0.25-1.136,0.489-1.715,0.717l-0.091,0.046c-7.087,2.821-14.31,3.788-21.942,4.334&#xA;		c-6.565,0.466-16.127,0.728-25.906-0.489c-16.082-2.014-24.577-7.428-24.577-7.428c14.685,2.582,22.453,2.127,25.986,1.536&#xA;		c-5.361-3.413-9.972-7.713-15.968-11.478C35.309,45.798,21.76,40.178,7.109,41.532c0,0,4.804,1.183,8.189,5.722&#xA;		c-1.056,4.459,4.713,14.356,13.413,21.933c1.511,1.32,3.146,2.742,4.929,4.164c-1.567-0.034-6.553-0.148-6.553-0.148&#xA;		c4.611,2.992,16.832,7.019,16.832,7.019c-2.68,0.899-7.291,1.638-7.291,1.638c0.295,0.341,9.12,4.926,25.565,5.608&#xA;		c9.018,0.364,17.99-1.217,26.304-4.744l0.193-0.091l0.261-0.148l0.068-0.023c-0.023,0.023-0.227,0.25-0.659,0.637&#xA;		c-4.997,4.584-11.38,7.36-17.876,9.146c-3.498,0.956-7.076,1.649-10.676,2.093c-0.557,0.068-1.102,0.125-1.67,0.182&#xA;		c-0.227,0.08-0.386,0.182-0.443,0.307c-1.772,5.54-1.829,11.524-1.522,17.28c0.17,3.094,0.545,6.177,1.102,9.237l0.011,0.046&#xA;		c0.398-0.398,0.875-0.83,1.42-1.274c0,0,1.647-1.365,4.52-1.786l-0.125-0.114l-0.125-0.114c-0.613-0.523-1.556-0.785-2.385-0.91&#xA;		c-0.227-0.057-0.443-0.08-0.636-0.102l0.545-0.091c1.794-0.375,3.918-0.705,5.656-0.33l0.125,0.023&#xA;		c1.056,0.239,1.988,0.944,2.555,1.854l0.148,0.284c0.068,0.125,0.125,0.25,0.17,0.375l0.034,0.091&#xA;		c0.045,0.125,0.091,0.262,0.114,0.387l0.08,0.375l0.011,0.08l0.023,0.387c0,0.466-0.091,0.933-0.295,1.376&#xA;		c-0.681,1.513-1.919,4.402-1.919,5.495c0,0.501-2.578,2.298-3.271,3.003l-0.114,0.125l0.216-0.011l0.17-0.023&#xA;		c0.761-0.068,1.511-0.205,2.271-0.284c0.42-0.034,0.806-0.068,1.113-0.068h0.034c0,0,1.772,3.299,3.146,4.402&#xA;		c1.374,1.092,2.601,3.424,3.021,5.21l0.045,0.011c0.17,0.011,0.363-0.046,0.568-0.125l0.068-0.023l0.239-0.102l0.511-0.239&#xA;		c0.261-0.102,0.511-0.216,0.772-0.33l0.738-0.375l0.068-0.034c0,0-2.589,3.822-5.611,5.62c0.193,0.034,2.601,0.387,3.793-0.125&#xA;		l0.034-0.011c0,0,0.204,4.562-4.236,9.476c-0.307,0.341,3.305,4.63,5.52,7.144l0.25,0.296l0.193,0.228l0.466,0.512l0.295,0.341&#xA;		c0.159-0.137,1.374-1.183,1.999-1.695c1.079-0.865,2.203-1.672,3.35-2.446c1.079-0.739,3.578-2.07,3.578-2.07l0.034-0.023v0.034&#xA;		c-0.034,0.353-0.045,0.728-0.011,1.16c0,0,1.249-1.365,2.408-2.002c0,0-1.885,2.946-2.101,5.153c0,0-0.42,3.674,3.044,5.563&#xA;		c3.453,1.888,8.609,3.367,10.074,4.516c0,0,2.624-1.888,4.089-2.514c0,0-3.464,3.356-4.407,6.507c0,0,2.101-1.991,3.26-2.412&#xA;		c0,0,3.248,2.412,5.236,2.196c1.988-0.205,4.827-0.102,5.974-2.73c1.158-2.616,0.943-3.037,1.476-3.879c0,0-1.897,1.16-3.26,2.412&#xA;		c0,0,0.636-2.616,3.26-4.619c2.612-1.991,3.884-2.309,3.884-2.309s6.19-8.202-1.045-12.195c0,0,3.555-1.786,5.554-3.037&#xA;		c0,0-5.781,1.467-7.666,2.093c0,0-4.293-0.842-6.599-0.842c-2.317,0-6.292-0.307-8.075-0.842c-1.783-0.523-3.566-1.149-3.566-1.149&#xA;		s1.045-0.626,1.885-0.842c0,0-4.066-0.307-6.474,3.515l-0.034-0.011c0.011-0.307,0.148-1.786,1.261-3.185&#xA;		c0,0-2.135,0.978-3.339,2.332l-0.034-0.011c-0.795-0.296-1.601-0.546-2.408-0.796c-1.283-0.387-2.589-0.728-3.896-1.035&#xA;		c-0.863-0.205-1.738-0.41-2.624-0.58c6.814-4.516,14.356-7.883,22.113-10.511c2.589-0.876,8.086-2.446,8.086-2.446&#xA;		c1.102,1.047,2.215,1.843,2.215,1.843s3.691-0.887,5.463-1.581c0,0-3.702,2.605-6.587,3.856c0,0,4.395-0.148,5.906-0.421&#xA;		l-0.681,1.524c0,0,1.919,1.502,6.44,0.819c4.52-0.683,7.405-1.649,7.405-3.993c0-2.332-0.557-3.435,0.136-5.768&#xA;		c0,0-1.647,0.273-2.885,0c0,0,2.612-1.513,3.566-3.151c0,0-0.239-1.479-0.954-2.946l-0.011-0.011&#xA;		c3.623-0.387,7.269-0.705,10.892-0.921c-0.454-0.535-0.943-1.035-1.465-1.513c-3.646-3.367-8.745-5.529-13.322-6.996&#xA;		c9.109-1.217,18.319-1.581,27.485-1.9c5.247-0.193,10.494-0.319,15.73-0.375c-1.102-0.921-2.624-1.456-3.941-1.979&#xA;		c3.078-0.353,6.292-0.057,9.37,0.171c-2.624-1.32-5.599-2.07-8.404-2.901c-1.976-0.58-3.964-1.138-5.951-1.661l0.239,0.011&#xA;		l0.227,0.023l0.045,0.011c7.223,0.956,14.889,2.173,23.283,3.674c53.811,9.613,89.314,24.162,104.783,31.454&#xA;		c4.089,1.854,6.871,3.265,8.291,4.004c1.283,0.375,3.066,0.58,3.964-0.728c0.17-0.239,0.295-0.489,0.386-0.728l0.011-0.023&#xA;		c0.159,0.023,0.284,0.034,0.375,0.023c3.373-0.205,6.667-0.535,9.938-1.433c0.92-0.25,1.829-0.535,2.737-0.842&#xA;		c1.851-0.637,3.646-1.388,5.417-2.207c-0.091,0-2.998-3.777-3.339-4.152c-2.612-2.935-5.542-5.608-8.768-7.883&#xA;		c0.432-0.125,0.897-0.262,1.363-0.375c0.466-0.114,0.954-0.182,1.42-0.171c-2.589-2.571-5.792-4.619-8.836-6.53&#xA;		c-1.124-0.728-2.283-1.411-3.43-2.082l-0.988-0.592l-0.704-0.421c-1.317-0.762-2.646-1.513-3.986-2.23l-0.045-0.023l0.057-0.011&#xA;		h0.17c4.839,0,9.733-0.205,14.594-0.08c0.545,0.011,5.349,0.228,5.611,0.25c1.408,0.091,2.806,0.193,4.202,0.319&#xA;		c3.032,0.273,6.065,0.614,9.075,1.047l2.249,0.33c3.827,0.58,7.643,1.331,11.425,2.173l0.114,0.034&#xA;		c2.078,0.694,4.373,1.001,6.496,1.547c1.193,0.319,2.385,0.626,3.578,0.956c2.624,0.717,5.224,1.479,7.802,2.321&#xA;		c1.647,0.535,3.295,1.081,4.929,1.672c0.432,0.148,2.476,1.194,2.771,0.978c0.818-0.58,5.406-3.777,8.995-4.471&#xA;		c3.952-0.762,7.655-2.252,7.655-6.712c-0.386-4.653-4.055-9.476-8.052-12.695L376.982,101.847z M336.186,121.027&#xA;		c-4.6-0.421-8.234,1.649-8.234,1.649s13.504,0,18.433,4.277c4.94,4.289,3.623,7.588,3.623,7.588s4.929,7.918,6.258,11.205&#xA;		c0,0,9.211-8.566,9.87-14.504C366.136,131.242,348.248,122.13,336.186,121.027L336.186,121.027z M280.103,226.242l0.693,7.645&#xA;		l5.304,3.458C287.622,231.168,280.103,226.242,280.103,226.242L280.103,226.242z M254.38,171.604&#xA;		c-5.044-15.869-23.761-18.941-23.761-18.941s15.332,6.268,15.741,50.634c0.136,14.925,4.691,21.239,4.691,21.239&#xA;		c-7.734-4.129-9.767-19.362-10.46-31.158c-0.352-5.995-2.783-35.208-25.088-42.42c-13.549-4.391-20.057-0.66-20.057-0.66&#xA;		s10.449,2.503,16.344,13.264c8.903,16.188,2.566,44.809,9.21,60.098c8.211,18.907,23.237,24.003,23.237,24.003&#xA;		c19.705-10.602,23.93-27.086,23.93-27.086C251.301,211.818,259.41,187.485,254.38,171.604z M311.858,218.802&#xA;		c0,0-11.948,19.168-17.331,23.127c0,0-1.295-3.128-2.873-4.687c0,0-6.553,4.437-7.859,6.871c0.136-0.25-1.181-2.07-1.317-2.309&#xA;		c-0.738-1.217-1.488-2.412-2.396-3.504c-2.612,1.547-5.645,3.8-7.019,6.564c1.102-2.218,1.931-4.493,2.544-6.894&#xA;		c0.363-1.479,0.613-2.992,0.772-4.505c0.534-5.21-0.135-10.511-1.817-15.46c0,0-6.201,15.221-13.345,22.672&#xA;		c-7.155,7.44-11.062,9.34-11.516,10.397c-0.454,1.035-0.545,4.812,7.848,3.743c8.382-1.092,14.299-7.349,14.299-7.349&#xA;		s11.482-2.139,21.568-0.762c0,0,2.805,3.049,6.792,2.764c3.986-0.273,12.277-15.915,11.653-30.669L311.858,218.802z&#xA;		 M293.641,176.131c1.317,13.503-10.653,25.698-10.653,25.698c19.41-5.46,29.598-21.091,32.732-26.71&#xA;		c0.329-0.83,0.579-1.513,0.727-1.957C309.212,174.891,301.217,176.211,293.641,176.131L293.641,176.131z M364.783,164.084&#xA;		c-2.805-0.648-6.258,1.194-8.188,2.434c-0.365-0.762-1.057-1.433-2.363-1.888c-3.941-1.331-8.802,2.423-8.802,2.423&#xA;		c0.409-2.867-3.509-2.048-3.668-2.025c-1.158,0.091-6.019,1.638-8.904,3.253c-4.259,1.49-9.881,3.299-16.093,4.801&#xA;		c1.17,6.643,0.806,11.308,0.806,11.308c6.599-3.424,12.061-10.466,15.389-15.539c0.716,3.413,3.589,8.031,3.589,8.031&#xA;		c4.622-2.878,8.734-7.042,8.734-7.042c1.42,2.571,1.181,7.974,1.181,7.974c3.248-1.058,6.157-3.162,8.03-4.744&#xA;		c-2.078,11.023-8.734,21.716-8.734,21.716c7.791-2.935,22.669-18.793,23.635-23.116c0.943-4.311-0.477-6.655-4.611-7.588&#xA;		L364.783,164.084z M392.836,143.471l-0.307,0.046c-1.17,0.182-3.453-0.171-3.146-1.832c0.182-1.024,1.59-1.888,2.476-2.252&#xA;		c2.521-1.024,4.986-1.991,7.246-3.515c0.818-0.546,1.59-1.138,2.294-1.832c0.193-0.182,1.227-1.012,1.194-1.32&#xA;		c-0.308-2.548-0.978-4.778-1.796-6.678c-0.273,0.637-0.716,1.49-1.34,2.434c-1.386,2.366-3.101,3.458-3.725,3.8&#xA;		c-0.909,0.512-2.68,1.047-3.487-0.523c-0.818-1.558,1.431-2.901,1.431-2.901c3.328-2.4,4.668-4.835,5.213-6.427&#xA;		c-1.783-2.764-3.498-4.22-3.498-4.22s-4.77,11.933-17.275,18.008c-8.972,4.368-17.206,9.442-22.476,15.482&#xA;		c-0.738,0.865-1.431,1.752-2.067,2.662l0.102,0.011c12.675,1.411,18.899,6.78,20.943,9.385c0.149,0.182,0.261,0.341,0.363,0.489&#xA;		l0.045-0.011c0.784-0.137,13.504-2.434,21.375-11.126c-0.284,0.011-0.568,0.011-0.852,0c-1.942-0.08-9.37,0.125-7.496-3.618&#xA;		c0.626-1.251,2.851-0.91,3.964-0.842c1.908,0.114,3.805,0.319,5.713,0.216c2.635-0.148,3.123-2.537,3.782-4.721&#xA;		c0.625-2.116,0.999-4.107,1.17-5.984c-2.907,3.709-8.132,4.96-9.847,5.267L392.836,143.471z"/>
	<path fill="#FFFFFE" d="M150.744,143.644c2.499-1.092,4.781-0.865,7.076,0.546c2.294,1.411,4.463,5.779,4.463,5.779&#xA;		c1.738-0.717,4.52-1.138,4.861-1.183c-1.42,0.671-3.986,2.821-3.986,2.821s1.408,2.833,1.522,5.233&#xA;		c0.102,2.4-1.851,3.162-3.805,3.925c-1.965,0.762-4.145,0.33-4.793-0.102c-0.659-0.444-1.749-0.33-1.749-0.33&#xA;		c0.647-0.876,3.384-2.73,3.384-2.73c-2.624,0.228-5.02,1.854-5.02,1.854s-4.134,0.66-6.315,0.66c-2.169,0-5.542-2.07-5.542-2.07&#xA;		c-1.306,0-3.157,0.978-3.157,0.978c0.977-1.649,5.224-4.698,5.224-4.698c-1.965,0.432-4.463,2.07-4.463,2.07&#xA;		c-0.761-0.762-4.475-3.049-5.452-3.811c-0.977-0.762-1.624-1.854-1.306-4.038c0.329-2.173,2.828-2.4,5.111-2.503&#xA;		c2.306-0.102,5.452-0.114,5.452-0.114c-0.92,0.717-1.545,2.014-1.613,2.173c0.454-0.66,3.884-2.309,3.884-2.309&#xA;		s3.714-1.058,6.224-2.15L150.744,143.644z M169.154,184.699c-1.386,2.378-3.26,2.594-3.26,2.594l0.477-0.899&#xA;		c-1.624,0.444-3.339-0.489-3.509-0.58c0.999,1.399,1.102,3.208,1.102,3.208l-0.636,1.194l2.192-0.159l-1.238,1.524&#xA;		c0.363,3.549-2.578,4.88-6.019,4.607c-3.43-0.262-7.587-3.811-7.587-3.811c0.239-1.376,2.828-5.062,2.828-5.062&#xA;		c-1.84,0.557-5.168,2.912-5.168,2.912c-3.146-1.957-2.499-1.297-11.46-2.537c-8.95-1.24-13.436-3.618-13.436-3.618&#xA;		c-0.045-1.638,1.17-3.606,1.17-3.606c-2.135,1.047-3.191,2.707-3.191,2.707c-0.761-0.557-3.373-3.083-2.351-6.643&#xA;		c1.011-3.549,6.269-4.095,6.269-4.095c1.715-1.388,4.304-1.411,4.463-1.411c-0.591,0.353-1.579,1.035-1.579,1.035&#xA;		c1.465-0.284,9.37,0.535,12.788,0.796c3.43,0.273,7.121,0.262,7.121,0.262l3.509-0.808c-1.488,0.956-5.667,3.663-6.178,3.993&#xA;		c2.601-1.604,8.916-2.867,8.916-2.867s1.102-0.137,2.726,0.58c1.613,0.717,2.317,3.356,2.317,3.356&#xA;		c1.397-1.376,3.725-0.557,6.11,1.923c2.396,2.48,2.487,5.096,2.487,5.096l1.136,0.307L169.154,184.699z M350.974,149.013&#xA;		c0.068,0.478,0.25,5.199-0.068,5.187c-0.432-0.023-0.863-0.034-1.295-0.046c-3.43-0.046-6.86,0.319-10.222,0.978&#xA;		c-6.008,1.194-11.607,3.47-17.32,5.597c-4.134,1.547-8.075,3.595-12.277,5.005c-5.951,2.002-12.232,2.969-18.524,2.491&#xA;		c-6.496-0.489-12.845-2.343-18.319-5.915c-4.145-2.707-7.712-6.211-10.733-10.102c-2.157-2.787-4.055-5.768-5.656-8.907&#xA;		c8.257,2.98,14.753,5.665,19.432,7.747c4.134,1.763,6.951,3.106,8.382,3.811c1.283,0.353,3.078,0.512,3.952-0.808&#xA;		c1.817-2.753-1.511-4.948-1.511-4.948s-40.875-19.987-115.799-28.235c-8.802-0.967-16.957-1.649-24.475-2.116&#xA;		c7.394,0.796,15.378,1.832,23.998,3.174c13.163,2.048,25.247,4.425,36.219,6.928c-1.204,0.159-2.385,0.387-3.555,0.694&#xA;		c-2.26,0.603-4.418,1.524-6.428,2.742c-3.737,2.275-6.758,5.574-9.052,9.271c-4.634,7.463-6.826,16.688-7.144,25.402&#xA;		c-0.386,10.853,2.351,21.614,5.872,31.784c4.18,12.058,9.574,23.673,16.275,34.537c3.328,5.404,6.962,10.625,11.062,15.448&#xA;		c4.35,5.096,9.324,10.056,15.322,13.15c6.382,3.288,13.457,3.265,20.374,2.218c4.872-0.739,9.597-2.685,14.231-4.277&#xA;		c10.892-3.731,22.294-7.747,33.993-6.484c3.861,0.421,7.973,1.217,11.448,3.037c0.534,0.25,0.466,0.273,0.17,0.842&#xA;		c-2.465,4.653-5.486,9.01-9.006,12.923c-6.008,6.678-13.402,11.967-21.499,15.778c-8.416,3.959-18.013,6.837-27.371,7.201&#xA;		c1.67-1.786,3.339-3.561,4.986-5.335c-9.211,1.604-18.762,1.866-27.984,0.046c1.124-0.83,2.647-2.093,2.817-3.572&#xA;		c-0.636-0.057-1.317-0.364-1.908-0.569c-1.579-0.557-3.112-1.229-4.611-1.968c-5.531-2.707-10.63-6.302-15.287-10.329&#xA;		c-8.155-7.053-15.026-15.539-20.795-24.64c-3.487-5.495-6.303-11.399-10.165-16.643c-3.316-4.493-7.166-8.577-11.403-12.195&#xA;		c-6.621-5.688-14.185-10.204-22.147-13.708c-12.857-5.642-25.611-11.74-37.684-18.941c-3.396-2.025-6.724-4.164-9.983-6.416&#xA;		c-6.917-4.823-13.663-10.227-19.398-16.415l-0.386-0.421c0.159-0.137,1.374-1.183,1.999-1.695c1.079-0.865,2.203-1.672,3.35-2.446&#xA;		c1.079-0.739,3.578-2.07,3.578-2.07l0.034-0.023v0.034c-0.034,0.353-0.045,0.728-0.011,1.16c0,0,1.249-1.365,2.408-2.002&#xA;		c0,0-1.885,2.946-2.101,5.153c0,0-0.42,3.674,3.044,5.563c3.453,1.888,8.609,3.367,10.074,4.516c0,0,2.624-1.888,4.089-2.514&#xA;		c0,0-3.464,3.356-4.407,6.507c0,0,2.101-1.991,3.26-2.412c0,0,3.248,2.412,5.236,2.196c1.988-0.205,4.827-0.102,5.974-2.73&#xA;		c1.158-2.616,0.943-3.037,1.476-3.879c0,0-1.897,1.16-3.26,2.412c0,0,0.636-2.616,3.26-4.619c2.612-1.991,3.884-2.309,3.884-2.309&#xA;		s6.19-8.202-1.045-12.195c0,0,3.555-1.786,5.554-3.037c0,0-5.781,1.467-7.666,2.093c0,0-4.293-0.842-6.599-0.842&#xA;		c-2.317,0-6.292-0.307-8.075-0.842c-1.783-0.523-3.566-1.149-3.566-1.149s1.045-0.626,1.885-0.842c0,0-4.066-0.307-6.474,3.515&#xA;		l-0.034-0.011c0.011-0.307,0.148-1.786,1.261-3.185c0,0-2.135,0.978-3.339,2.332l-0.034-0.011&#xA;		c-0.795-0.296-1.601-0.546-2.408-0.796c-1.283-0.387-2.589-0.728-3.896-1.035c-0.863-0.205-1.738-0.41-2.624-0.58&#xA;		c6.814-4.516,14.356-7.883,22.113-10.511c2.589-0.876,8.086-2.446,8.086-2.446c1.102,1.047,2.215,1.843,2.215,1.843&#xA;		s3.691-0.887,5.463-1.581c0,0-3.702,2.605-6.587,3.856c0,0,4.395-0.148,5.906-0.421l-0.681,1.524c0,0,1.919,1.502,6.44,0.819&#xA;		c4.52-0.683,7.405-1.649,7.405-3.993c0-2.332-0.557-3.435,0.136-5.768c0,0-1.647,0.273-2.885,0c0,0,2.612-1.513,3.566-3.151&#xA;		c0,0-0.239-1.479-0.954-2.946l-0.011-0.011c3.623-0.387,7.269-0.705,10.892-0.921c-0.454-0.535-0.943-1.035-1.465-1.513&#xA;		c-3.646-3.367-8.745-5.529-13.322-6.996c9.109-1.217,18.319-1.581,27.485-1.9c5.247-0.193,10.494-0.319,15.73-0.375&#xA;		c-1.102-0.921-2.624-1.456-3.941-1.979c3.078-0.353,6.292-0.057,9.37,0.171c-2.624-1.32-5.599-2.07-8.404-2.901&#xA;		c-1.976-0.58-3.964-1.138-5.951-1.661l0.239,0.011l0.227,0.023l0.045,0.011c7.223,0.956,14.889,2.173,23.283,3.674&#xA;		c53.811,9.613,89.314,24.162,104.783,31.454c4.089,1.854,6.871,3.265,8.291,4.004c1.283,0.375,3.066,0.58,3.964-0.728&#xA;		c0.17-0.239,0.295-0.489,0.386-0.728l0.011-0.023c0.159,0.023,0.284,0.034,0.375,0.023c3.373-0.205,6.667-0.535,9.938-1.433&#xA;		c0.92-0.25,1.829-0.535,2.737-0.842c1.851-0.637,3.646-1.388,5.417-2.207c-0.091,0-2.998-3.777-3.339-4.152&#xA;		c-2.612-2.935-5.542-5.608-8.768-7.883c0.432-0.125,0.897-0.262,1.363-0.375c0.466-0.114,0.954-0.182,1.42-0.171&#xA;		c-2.589-2.571-5.792-4.619-8.836-6.53c-1.124-0.728-2.283-1.411-3.43-2.082l-0.988-0.592l-0.704-0.421&#xA;		c-1.317-0.762-2.646-1.513-3.986-2.23c8.223,2.798,16.378,6.006,24.373,9.453c0.613,0.262,1.215,0.523,1.817,0.785&#xA;		c6.678,2.901,13.447,6.018,19.466,10.113c1.329,0.899,2.589,1.888,3.737,2.98l0.125,0.114c2.362,1.786,3.998,4.471,5.043,7.212&#xA;		c0.5,1.331,0.875,2.73,1.056,4.141L350.974,149.013z M64.188,39.845c0.159,0.251,0.045,0.536-0.125,0.672l-0.057,0.034&#xA;		c-0.124,0.068-0.453,0.102-0.864,0.138c-0.601-0.069-2.033-0.364-2.658-0.262c0,0,0.375,0.306,0.681,0.592&#xA;		c0,0-1.557,0.614-1.909,1.251c0,0-1.295-0.137-2.227,0.193c-0.545,0.182-0.785,0.433-1.069,0.614l-0.636,0.24l-0.17,0.022&#xA;		c-0.875,0.057-1.581-0.386-1.581-0.386l0.319,0.659c0,0-2.512,0-3.068,0.854c-2.034-1.024-4.102-1.992-6.193-2.913&#xA;		c-1.966-0.854-3.956-1.672-5.956-2.447c-4.033-1.56-8.136-2.961-12.272-4.2c-1.228-0.377-2.455-0.729-3.695-1.059&#xA;		c-0.909-0.25-1.829-0.502-2.75-0.706h0.068c1.681,0,3.342-0.044,5.023-0.148c11.307-0.695,22.636-0.433,33.955-1.035&#xA;		c2.057-0.114,4.125-0.239,6.183-0.388c-0.342,0.422-0.797,1.116-0.206,1.322c0,0,1.147,0.375,2.578,0.478&#xA;		c1.354,0.091,2.864,0,2.864,0s-5.534,2.585-6.203,2.767c-0.67,0.192-1.536,1.057-1.536,1.057l-0.044,0.035l-0.102,0.09&#xA;		l-0.057,0.046l-0.102,0.104c-0.318,0.125-0.569,0.25-0.694,0.317c-0.271,0.173-1.32,0.229-1.32,0.229s1.252,0.535,1.797,0.432&#xA;		l0.022,0.044c0.014,0.092,0.069,0.435,0.592,0.672c0.454,0.206,1.114,0.411,1.409,0.683L64.188,39.845z M112.054,68.29&#xA;		l-0.898,0.468c-1.953,1.218-3.955,2.356-6.046,3.334l-0.091,0.047c-0.693,0.329-1.387,0.648-2.091,0.954l-0.045,0.023l-0.058,0.023&#xA;		c-1.898,0.83-3.841,1.582-5.772,2.277c-1.522,0.535-3.068,1.036-4.636,1.479c-11.103,3.244-17.864,3.165-17.864,3.165&#xA;		c0.748,0.341,1.76,0.648,2.681,0.853c3.341,0.752,11.341,1.457,11.716,1.571l-0.261,0.148l-0.194,0.092&#xA;		c-8.318,3.528-17.284,5.109-26.308,4.745C45.745,86.788,36.926,82.2,36.62,81.857c0,0,4.613-0.739,7.296-1.637&#xA;		c0,0-12.218-4.029-16.832-7.013c0,0,4.99,0.115,6.558,0.148c-1.784-1.422-3.421-2.846-4.932-4.165&#xA;		c-8.704-7.581-14.467-17.472-13.408-21.935c-3.387-4.54-8.193-5.725-8.193-5.725c14.646-1.354,28.205,4.269,42.534,13.239&#xA;		c6.001,3.755,10.602,8.057,15.966,11.473c-3.534,0.592-11.296,1.047-25.99-1.537c0,0,8.502,5.419,24.581,7.434&#xA;		c9.784,1.216,19.342,0.954,25.911,0.488C97.747,72.081,104.963,71.114,112.054,68.29L112.054,68.29z M402.686,138.2&#xA;		c-0.174,1.879-0.546,3.871-1.172,5.987c-0.66,2.185-1.146,4.576-3.784,4.724c-1.907,0.102-3.805-0.102-5.715-0.216&#xA;		c-1.105-0.068-3.33-0.41-3.955,0.842c-1.879,3.746,5.554,3.54,7.488,3.62c0.283,0.011,0.568,0.011,0.853,0&#xA;		c-7.864,8.685-20.591,10.983-21.376,11.122l-0.047,0.01l-0.352-0.489c-2.044-2.608-8.273-7.969-20.953-9.38l-0.093-0.011&#xA;		c0.626-0.909,1.319-1.797,2.068-2.662c5.262-6.045,13.499-11.121,22.468-15.481c12.509-6.078,17.273-18.018,17.273-18.018&#xA;		s1.715,1.457,3.5,4.224c-0.546,1.593-1.888,4.029-5.206,6.432c0,0-2.25,1.341-1.432,2.901c0.808,1.571,2.579,1.036,3.487,0.524&#xA;		c0.616-0.342,2.332-1.436,3.72-3.803c0.625-0.945,1.068-1.799,1.339-2.436c0.82,1.901,1.488,4.132,1.797,6.682&#xA;		c0.035,0.306-0.999,1.138-1.193,1.32c-0.705,0.695-1.48,1.287-2.298,1.833c-2.26,1.525-4.726,2.482-7.239,3.506&#xA;		c-0.885,0.364-2.293,1.229-2.476,2.254c-0.308,1.662,1.977,2.015,3.148,1.833l0.296-0.046c1.716-0.306,6.943-1.56,9.852-5.27&#xA;		L402.686,138.2z M300.203,249.474c-3.988,0.284-6.783-2.765-6.783-2.765c-10.09-1.378-21.569,0.762-21.569,0.762&#xA;		s-5.921,6.261-14.307,7.343c-8.386,1.08-8.297-2.698-7.841-3.735c0.454-1.059,4.363-2.96,11.511-10.403&#xA;		c7.148-7.444,13.343-22.672,13.343-22.672c1.682,4.951,2.351,10.255,1.818,15.468c-0.149,1.513-0.41,3.017-0.773,4.497&#xA;		c-0.602,2.4-1.432,4.678-2.535,6.896c1.375-2.765,4.4-5.019,7.011-6.567c0.911,1.092,1.659,2.289,2.4,3.505&#xA;		c0.136,0.239,1.454,2.062,1.319,2.312c1.306-2.434,7.865-6.864,7.865-6.864c1.576,1.549,2.863,4.678,2.863,4.678&#xA;		c5.385-3.959,17.342-23.128,17.342-23.128c0.625,14.764-7.672,30.403-11.663,30.675L300.203,249.474z M369.399,171.676&#xA;		c-0.965,4.315-15.84,20.181-23.637,23.117c0,0,6.659-10.698,8.739-21.715c-1.875,1.581-4.785,3.677-8.033,4.735&#xA;		c0,0,0.237-5.396-1.185-7.969c0,0-4.112,4.167-8.727,7.035c0,0-2.873-4.611-3.59-8.024c-3.329,5.077-8.794,12.112-15.398,15.536&#xA;		c0,0,0.363-4.665-0.806-11.303c6.215-1.502,11.841-3.311,16.101-4.802c2.876-1.617,7.74-3.166,8.9-3.257&#xA;		c0.159-0.022,4.08-0.842,3.67,2.027c0,0,4.864-3.755,8.797-2.425c1.306,0.456,1.999,1.128,2.363,1.891&#xA;		c1.931-1.241,5.385-3.084,8.192-2.436c4.139,0.933,5.558,3.279,4.613,7.591L369.399,171.676z M316.444,173.169&#xA;		c-0.149,0.443-0.398,1.126-0.727,1.956c-3.126,5.614-13.319,21.252-32.727,26.704c0,0,11.976-12.19,10.649-25.7&#xA;		c7.579,0.09,15.579-1.23,22.806-2.959L316.444,173.169z"/>
	<path fill="#D7A22A" d="M327.012,49.419c0.942-0.24,1.397-0.24,1.762-0.205c0,0,0.045-0.57-0.41-1.07c0,0,2.672,1.605,3.91,2.891&#xA;		l-0.332-1.16c0,0,2.137,0.535,3.126,1.49c0.989,0.945,1.478,2.016,1.773,2.505c0.283,0.501,1.07,2.151,0.739,2.64&#xA;		c-0.332,0.501-0.819,0.501-0.819,0.501s-2.967-1.775-3.749-2.151c0,0,1.487,2.312,1.692,2.846c0,0-2.555-0.377-3.216-1.275&#xA;		c0,0-2.876-0.705-3.908-1.4c-1.024-0.705-1.854-1.776-1.854-2.356c0,0,1.649,0.786,2.478,1.161c0,0-2.227-2.686-2.921-3.335&#xA;		c0,0,0.773-0.83,1.729-1.081L327.012,49.419z M324.49,45.718c0,0-2.377-2.094-3.206-2.821c0,0,1.16,2.754,1.341,3.344&#xA;		c0,0-2.239,0.08-3.455-0.863c-1.216-0.944-2.964-2.06-2.512-2.06c0,0,0.546,0.033,1.002,0.102c0,0-1.387-1.673-3.762-1.811&#xA;		c0,0-1.445,0.331-3.105-0.512c-1.658-0.853-2.349-1.719-2.349-1.719s-0.91-1.011-1.081-2.31c0,0,1.626,1.139,2.423,1.457&#xA;		c0,0-1.434-2.049-1.434-3.266c0,0,1.023-0.206,2.307,0.284c1.297,0.489,1.65,0.102,1.65,0.102s-0.559-0.729-0.773-1.469&#xA;		c0,0,1.635,1.366,2.331,1.673c0,0,2.023-0.626,3.556,0.033c1.531,0.661,3.271,2.367,3.545,2.686&#xA;		c0.261,0.298,1.296,1.083,1.422,1.174c-0.103-0.138-0.909-1.218-1.128-2.072c0.126,0.08,1.138,0.739,1.595,0.967&#xA;		c0.485,0.251,1.421,1.229,1.603,1.854c0.168,0.628-0.843,1.64-0.843,1.64s1.328,1.708,1.328,2.403c0,0.693-0.452,1.182-0.452,1.182&#xA;		L324.49,45.718z M312.682,55.61c0,0-1.749-0.728-3.282-0.728c0,0-0.685,1.035-2.308,0.693c-1.626-0.329-3.216-1.569-3.216-1.569&#xA;		s1.455,0.066,2.611,0.066c0,0-0.51-0.58-1.885-0.875c-1.383-0.284-2.203-0.524-3.181-1.288c0,0-0.239,0.775,0.41,1.288&#xA;		c0,0-2.183,0.58-2.546-1.605s-1.603-2.037-0.727-3.643c0.863-1.582,2.67-1.593,2.727-1.593c0,0-1.558-0.957-2.579-1.538&#xA;		c0,0,3.567,0.945,6.327,2.618c0,0-0.214-1.092-0.871-1.672c0,0,1.897-0.581,4.009,0.877c2.101,1.456,2.182,2.765,3.785,3.858&#xA;		s0.647,2.777-0.08,3.21C311.876,53.709,312.388,55.018,312.682,55.61L312.682,55.61z M297.614,37.307&#xA;		c-0.078,1.012-0.808,1.821-2.047,1.968c-1.239,0.138-1.966-0.363-2.396,0.217c-0.433,0.58-1.091,1.16-1.751,1.308&#xA;		c0,0-4.216-2.618-6.047-3.573c0,0,1.537,1.969,1.898,2.776c0,0-2.543,0.217-4.295-0.511c-1.748-0.728-2.919-1.343-4.148-1.879&#xA;		c-1.237-0.523-2.545-2.276-2.545-2.276s2.036,0.945,3.127,1.242c0,0-1.818-2.05-1.888-2.698c0,0,1.374-0.365,2.033-1.173&#xA;		c0.616-0.751,2.419-1.241,3.785-1.308h0.294c1.388,0,4.81,1.821,6.478,3.061c0,0-1.455-2.037-2.545-3.061c0,0,2.614,0,3.273-0.216&#xA;		c0.66-0.229,2.182-0.377,3.273,0.137c1.021,0.478,1.603,1.536,1.67,1.672c-0.136-0.056-1.216-0.513-2.033-0.717&#xA;		c0,0,0,0.877,1.749,2.117C297.25,35.622,297.681,36.283,297.614,37.307L297.614,37.307z M285.442,52.263&#xA;		c0,0,1.911,1.743,2.41,2.687c0,0-0.988,0.808-1.306,1.388c-0.308,0.57-1.16,1.89-2.115,2.254c0,0-1.013,1.309-2.103,1.39&#xA;		c-1.09,0.067-1.829-0.183-2.555-0.217c-0.718-0.034-3.637,0-5.817-2.186c0,0,3.123,0.435,3.93,0.435c0,0-2.773-2.039-3.352-2.914&#xA;		c0,0,0.808-0.513,0.726-1.241c-0.068-0.728-0.293-1.389,0.444-2.185c0,0,2.546,0.877,4.069,1.092c0,0-1.671-1.685-3.341-3.061&#xA;		c0,0,1.035-0.104,2.261,0.386c0,0,0.502-0.102,1.668-1.045c1.16-0.945,3.422-0.696,4.728,0.171&#xA;		c1.308,0.852,2.547,2.607,2.547,2.607s1.533,0.796,2.545,2.469c0,0-2.647-1.73-4.739-2.026L285.442,52.263z M269.511,39.059&#xA;		c0,0-1.514-0.374-2.102-0.58c0.112,0.172,1.012,1.467,1.227,2.174c0,0-1.375,0.911-2.432,1.151&#xA;		c-1.056,0.238-1.354,0.534-1.932,1.182c-0.581,0.661-2.047,1.457-3.501,1.241c-1.398-0.205-4.181-1.025-4.419-1.082&#xA;		c0.159,0.149,1.398,1.366,1.943,2.323c0,0-1.59,0.795-4.218,1.173c0,0-2.396,0-3.419-0.297c-1.023-0.296-1.966-0.809-2.035-1.457&#xA;		c-0.08-0.66,0.502-1.388,0.502-1.388s2.112,0.808,3.353,1.024c0,0-3.128-2.914-4.229-3.722c0,0,2.193,0.364,3.5,0.808&#xA;		c0,0-0.148-0.808-0.66-1.685c-0.509-0.865,0.444-1.74,0.877-1.967c0.442-0.218,2.475-1.014,2.987-1.378&#xA;		c0,0-1.306-1.093-2.773-1.901c0,0,2.843,0.295,4.298,0.728c0,0,1.171,0.08,2.409-0.433c1.238-0.512,1.671-0.512,2.692-0.364&#xA;		c1.012,0.149,1.137,0.433,1.809,0.501c0.67,0.081,1.317,0.013,1.317,0.013s-0.432-0.593-1.523-1.025c0,0,2.331,0.296,3.421,1.025&#xA;		c0,0,1.884,0.33,2.977,1.399c1.104,1.07-0.067,2.538-0.067,2.538L269.511,39.059z M238.361,31.546&#xA;		c-1.227,1.012-2.726,1.606-2.726,1.606s0.181,1.263,0.897,1.992c0,0-1.375-0.125-2.525-0.786c0,0-1.021,1.149-1.136,1.628&#xA;		c-0.124,0.479-1.624,2.403-2.522,3.061c-0.898,0.66-2.761,1.379-2.761,1.379s1.66,2.389,3.035,3.357&#xA;		c-0.353-0.149-4.977-2.175-6.875-4.132c0,0-0.182,1.445,0.295,2.163c0,0-2.274,1.024-4.853,0.42&#xA;		c-2.432-0.568-4.864-2.31-5.136-2.515c0.284,0.047,2.533,0.468,3.988,0.468c0,0-3.296-1.618-3.897-3.243&#xA;		c-0.604-1.617-0.42-3.483,1.384-4.326c1.797-0.842,3.354-0.717,3.354-0.717s4.328,2.036,6.839,2.639c0,0-3.294-2.163-4.135-3.549&#xA;		c0,0,2.341,0.068,2.999-0.354s1.136-1.503,2.398-1.924c1.262-0.421,2.582-0.546,2.582-0.546s-1.195-0.661-1.5-1.025&#xA;		c0,0,2.465,0.66,3.249,0.66c0,0,2.158,0.125,3.113,0.251c0.965,0.114,2.762-0.49,4.262-0.011&#xA;		C240.19,28.532,239.586,30.523,238.361,31.546L238.361,31.546z M197.395,28.246c-0.149,1.069-0.909,3.813-2.352,4.429&#xA;		c-1.456,0.602-1.842,0.716-1.842,0.716v3.176c0,0-2.159-1.935-2.612-2.55c0,0-0.58,0.024-2.103-0.204s-3.353,2.367-6.17,2.141&#xA;		c0,0-4.638-0.992-5.399-2.904c-0.76-1.901-0.465-3.505-0.157-4.04c0,0,1.601,2.059,2.737,2.662c0,0-1.056-2.434-1.056-3.96&#xA;		c0,0,0.91-0.683,1.056-1.378c0.159-0.683,1.911-1.753,2.978-1.981c1.068-0.229,2.114,0.228,2.114,0.228s1.25,2.846,2.16,3.916&#xA;		c0,0-0.387-5.589,0.067-7.569c0,0,1.16,2.573,1.774,3.414c0,0,1.272-0.135,3.102-0.443c1.831-0.307,3.421-0.149,4.488,0.91&#xA;		c1.068,1.07,1.375,2.367,1.216,3.438L197.395,28.246z M154.712,31.137c-0.227,1.969-2.751,3.711-3.432,4.154&#xA;		c-0.671,0.456-1.931,1.354-2.307,2.619c-0.375,1.274-1.716,2.093-2.546,2.174c-0.817,0.067-1.931,1.263-1.931,1.263&#xA;		c1.171,0.286,2.818-0.215,3.035-0.284c-0.171,0.149-1.591,1.298-2.218,1.787c-0.669,0.523-2.907,1.048-3.725,0.968l-4.183-0.068&#xA;		c-2.544-0.081-5.454-0.307-6.329-1.912c-0.829-1.527-1.182-1.572-1.216-1.572c-1.794,0.82-5.522,0.787-5.522,0.787&#xA;		c3.591-1.491,6.659-4.861,6.659-4.861c-1.932,0.82-4.125,1.149-4.125,1.149c-0.308-0.523-0.365-1.069-0.295-2.196&#xA;		c0.081-1.115,1.124-1.72,1.124-1.72s0.069-0.59,0.818-1.571c0.751-0.967,3.285-2.309,4.706-2.39c1.42-0.08,3.203-0.818,4.181-1.49&#xA;		c0.967-0.672,4.398-2.094,6.114-1.948c1.715,0.149,2.399,0.445,2.399,0.445c0.967-0.068,3.124-0.445,3.124-0.445&#xA;		c-2.829,2.243-4.625,3.064-4.625,3.064c3.283-0.377,6.124-1.719,6.124-1.719c3.354,0.228,4.399,1.799,4.172,3.767L154.712,31.137z&#xA;		 M100.791,40.208c0,0,1.375,0.775,1.455,2.641c0.08,1.868-0.376,2.686,0.08,3.961c0.443,1.274-0.308,2.163-2.091,3.21&#xA;		c0,0-1.797,0.375-3.591,0.228c0,0,1.352,0.671,1.943,0.751c0,0-1.943,1.639-4.704,0.967c0,0-3.353,2.017-5.898,1.652&#xA;		c-2.535-0.375-3.126-1.423-3.126-1.423s3.023-0.547,5.181-0.841c0,0-3.943-0.911-5.215-1.652c0,0,0.396-1.844,1.227-2.663&#xA;		c0.819-0.832,0.626-1.037,0.626-1.037s-3.238-0.761-4.432-1.205c0,0,3.806-0.582,5-1.025c0,0-0.453-0.923,1.045-2.117&#xA;		c1.49-1.196,2.762-2.391,3.353-3.074c0.603-0.671,3.512-0.739,5.148-0.297c1.647,0.456,1.637,0.456,2.534,0.456&#xA;		c0.898,0,4.716-0.374,4.716-0.374s-0.75,1.183-3.249,1.842H100.791z M376.979,101.844c4,3.222,7.67,8.047,8.056,12.702&#xA;		c0,4.451-3.702,5.943-7.659,6.705c-3.59,0.695-8.169,3.894-8.989,4.473c-0.293,0.215-2.34-0.83-2.772-0.979&#xA;		c-1.637-0.592-3.283-1.138-4.93-1.672c-2.58-0.843-5.182-1.606-7.797-2.322c-1.194-0.331-2.385-0.638-3.58-0.957&#xA;		c-2.124-0.546-4.42-0.854-6.5-1.548l-0.112-0.034c-3.785-0.832-7.592-1.582-11.421-2.163c0,0-2.638-2.39-3.888-4.335&#xA;		c-1.25-1.96-1.137-4.03-1.137-4.03c3.16-0.193,4.99-1.651,5.457-3.505c0.555-2.232-1.91-4.052-1.91-4.052l-0.149-0.057&#xA;		c-3.431-3.064-14.896-5.43-23.091-5.327c-2.829,0.033-5.908,0.511-8.967,1.229h-0.022c4.613-2.197,17.999-3.516,20.624-3.301&#xA;		c2.637,0.229,6.149,0.661,6.149-0.876s-1.534-7.035-5.705-15.379c-2.772-5.542-7.261-10.185-9.988-12.69&#xA;		c-0.91-0.945-1.91-1.879-3.047-2.846l0.069,0.137l0.111,0.205l0.092,0.195l0.126,0.226l0.228,0.479l0.135,0.284l0.271,0.614&#xA;		c0.284,0.661,0.603,1.456,0.91,2.346c0.308,0.888,0.592,1.855,0.83,2.879c0.08,0.341,0.148,0.683,0.204,1.035l0.056,0.388&#xA;		c0.455,2.788,0.365,5.816-1.021,8.411c-0.092,0.195-0.206,0.387-0.318,0.569v0.011c-0.204,0.307-0.422,0.604-0.65,0.899&#xA;		c-0.24,0.297-0.5,0.581-0.781,0.854l-0.241,0.206h-0.01c-4.251,1.57-8.808,2.083-13.173,0.579&#xA;		c-0.723-0.249-1.475-0.511-2.201-0.819c-0.275-0.114-0.537-0.239-0.808-0.375c-4.377-2.197-8.34-5.384-12.218-8.354&#xA;		c-6.647-5.1-13.6-9.595-21.328-12.839c0.396-0.274,0.67-0.422,0.67-0.422c-0.024-0.206-0.059-0.432-0.102-0.671&#xA;		c-0.057-0.273-0.112-0.557-0.181-0.796l-0.047-0.172l-0.044-0.192l-0.069-0.217l-0.057-0.217c0.659,0.457,1.124,1.026,1.386,1.424&#xA;		l0.126,0.182l0.159,0.286c1.306-0.446,3.612-1.857,4.045-2.778c0.419-0.923,1.055-3.209,0.853-3.951&#xA;		c-0.217-0.738-2.535-1.946-3.821-2.083c-1.283-0.135-3.011,0.719-3.011,0.719c-1.271-0.433-2.999-0.662-2.999-0.662&#xA;		s-7.556-0.853-12.933,3.04l0.444,0.274l0.148,0.09l0.308,0.206l0.145,0.09l0.319,0.217l0.101,0.068l0.4,0.273l0.023,0.01&#xA;		l0.304,0.218l0.116,0.09l0.148,0.102l0.1,0.069l0.024,0.022c-1.739-0.536-3.478-1.036-5.228-1.525&#xA;		c-0.057-0.489-0.202-1.059-0.544-1.218c-0.592-0.284-2.454-1.457-2.785-1.615c-0.328-0.171-1.648-0.832-2.387-0.661&#xA;		c-0.736,0.16-0.659,0.957-0.818,1.32c-0.158,0.321-0.363,0.388-0.396,0.4c-3.183-0.763-6.387-1.47-9.581-2.084&#xA;		c-12.966-2.527-26.239-3.495-39.42-3.984c-2.353-0.091-4.704-0.148-7.056-0.148c1.783,0.776,3.26,2.356,4.239,4.018&#xA;		c-2.625-0.192-5.252-0.342-7.876-0.454c-1.59-0.547-3.83-1.105-6.182-1.025c-1.271,0.044-2.193,0.444-2.909,0.909&#xA;		c-6.524,0.125-13.035,0.742-19.456,2.255c-10.239,2.414-20.443,4.963-30.658,7.478l-0.251,0.067&#xA;		c1.729-1.081,3.228-2.606,4.601-4.108c-3.021,0.751-6.089,1.376-9.17,1.912c-5.021,0.887-10.191,1.661-15.305,1.365&#xA;		c-8.466-0.488-16.922-2.423-25.172-4.324l-2.182-0.514l-0.022-0.009c-0.125-0.081-3.558-2.266-3.91-2.483&#xA;		c0.501-0.022,1.953-0.101,3.194-0.546c0,0-2.251-0.272-2.955-0.66c0,0,1.533-0.387,1.967-0.934c0.443-0.546,0.988-1.764,1.16-1.867&#xA;		c0.157-0.114,1.204-0.228,1.204-0.228s-0.387-0.432-0.83-0.488c0,0,0.773-0.991,1.763-1.208c0.988-0.215,1.919-0.603,2.033-1.206&#xA;		c0.102-0.603-1.977-0.603-1.977-0.603s1.002-0.638,2.614-0.456c1.055-0.512,3.113-1.946,1.488-3.05&#xA;		c-0.352-0.25-0.955-0.556-1.398-0.556c0.546,0,1.114-0.388,1.682-0.48c0.091-0.022-1.739-0.066-2.636,0.251&#xA;		c-0.875,0.33-1.75,0.169-1.75,0.169s-0.988-0.772-1.818-0.66c-0.454,0.057-0.942,0.217-1.329,0.388l0.102-0.104l0.057-0.046&#xA;		l0.102-0.09l0.044-0.035c0,0,0.865-0.865,1.536-1.057c0.669-0.182,6.203-2.767,6.203-2.767s-1.511,0.091-2.864,0&#xA;		c-1.431-0.102-2.578-0.478-2.578-0.478c-0.592-0.206-0.136-0.9,0.206-1.322c0,0,5.603-0.705,12.533-1.639&#xA;		c0,0,8.466-1.9,19.41-4.348c0.568,0.411,1.194,0.967,1.398,1.378c0.284,0.557,1.068,1.491,3.59,1.777c0,0-1.464,1.331-3.431,1.148&#xA;		c0,0,2.182,1.106,3.966,1.015c1.784-0.092,2.999-0.753,4.409-0.661c1.397,0.102,2.25,0.284,3.374-0.182&#xA;		c1.127-0.468,1.479-1.821,1.479-1.821s-2.454-1.4-3.307-2.619c0,0,3.011,1.139,4.716,1.002c0,0-0.829-0.785-0.829-1.821&#xA;		c0-0.58,0.432-1.695,0.342-2.731c14.897-3.347,29.477-6.614,32.158-7.24c1.796-0.49,3.637-0.956,5.512-1.399&#xA;		c0.011,0.648,0.217,1.355,0.863,1.991c1.797,1.811,4.375,3.608,6.478,3.735c0.408,0.022,0.818,0.01,1.181-0.011h0.047&#xA;		c0.294-0.023,0.578-0.047,0.873-0.104l0.488-0.091l0.342-0.068l0.33-0.09l0.26-0.069l0.137-0.046l0.204-0.068&#xA;		c0.34-0.125,1.171,0.637,1.455,0.832l0.033,0.022c0.625,0.399,1.263,0.752,1.943,1.025l0.069,0.023&#xA;		c0.398,0.137,1.215,0.296,1.475,0.627l-0.056-0.091l-0.045-0.081l-0.091-0.137l-0.08-0.125l-0.047-0.081l-0.237-0.364&#xA;		c-0.206-0.317-0.443-0.705-0.704-1.125l-0.034-0.047c-0.626-0.934-1.25-1.878-1.773-2.879c-0.182-0.33-0.342-0.684-0.487-1.025&#xA;		l-0.207-0.523l-0.011-0.034l-0.011-0.035c-0.033-0.113-0.078-0.283-0.125-0.328l0.103,0.067l0.078,0.068l0.135,0.114l0.513,0.444&#xA;		c1.035,0.956,2.08,2.207,3.307,2.572c0,0,2.921-1.705,4.977-1.799c2.057-0.102,3.966-0.477,4.683-0.899&#xA;		c0,0-0.967-1.502-2.103-2.583c0,0,2.999,1.274,3.716,1.867c0,0,0.965-0.547,0.307-1.753c-0.546-0.991-0.408-1.912-1.091-2.902&#xA;		c8.647-0.49,18.182-0.308,28.956,0.91c1.193,0.126,2.376,0.273,3.545,0.432c-1.001,0.603-1.841,1.298-1.841,1.298&#xA;		c-0.181,0.944,2.17,3.881,2.17,3.881c-1.317-0.751-3.986-2.38-3.986-2.38c-1.956,1.139-2.024,3.095-1.455,4.042&#xA;		c0.569,0.944,3.341,2.14,5.156,2.332c1.832,0.196,4.16-0.818,4.16-0.818c5.034,0.568,6.478-1.834,6.478-1.834&#xA;		c-1.682-0.898-4.089-2.878-4.089-2.878c1.532,0.761,6.294,2.251,6.294,2.251c0.601-0.511,0.886-1.296,1.261-2.07&#xA;		c0.126-0.262,0.25-0.512,0.399-0.751c0.124-0.205,0.26-0.398,0.432-0.593c10.249,2.06,19.113,4.542,25.468,6.523&#xA;		c-0.524,0.08-1.172,0.182-1.946,0.353c-2.307,0.489-2.578,1.535-2.578,1.535c-0.387-0.056-1.16-0.215-1.16-0.215&#xA;		c0.17,0.661,1.646,2.527,1.646,2.527c-0.873-0.386-1.362-0.83-1.362-0.83s-0.5,0.445-0.658,1.048&#xA;		c-0.173,0.604,0.374,1.321,1.202,1.809c0.818,0.501,0.877,0.99,2.468,1.434c1.589,0.445,1.762-0.272,1.762-0.272&#xA;		c-0.33-0.284-0.661-1.163-0.661-1.163s1.966,1.105,2.683,1.265c0.716,0.169,0.877,0.272,1.863,0.113&#xA;		c0.988-0.159,1.65-0.273,2.751,0.057c1.094,0.331,2.091,0.284,2.091,0.284c0.785,0.832,2.513,1.139,2.513,1.139&#xA;		c-0.386-0.375-1.263-1.366-1.263-1.366c0.877-0.226,1.365-0.786,1.365-0.786c0.317,0.149,1.157,0.284,1.157,0.284&#xA;		c-0.932-0.659-0.873-1.32-0.873-1.32c0.328,0.559,2.024,1.218,2.524,1.264c0.486,0.056,1.713-0.125,1.713-0.125&#xA;		c0.568,0.307,3.423,2.834,3.423,2.834c0.522,0.57,0.374-2.47,0.374-2.47c0.112,0.502,1.465,1.788,1.465,1.788&#xA;		c0.545-0.159,0.922-0.536,1.467-1.14c0.555-0.614,0.375-1.479,0.375-1.479c0.386,0.933,1.17,1.035,1.17,1.035&#xA;		c-0.386-0.772-0.284-2.299-0.284-2.299s0.501-0.068,0.876-0.341c0.387-0.273,0.5-0.661,0.772-1.093&#xA;		c0.273-0.444,1.205-0.602,1.727-1.001c0.512-0.397-0.408-2.242-0.738-2.788c-0.33-0.546-1.319-1.048-2.796-1.433&#xA;		c-1.488-0.388-3.512-0.058-3.512-0.058c0.057,0.888-0.115,1.764-0.115,1.764c-0.384-1.434-2.317-2.561-2.317-2.561&#xA;		c0.386,0.978,0.124,1.901,0.124,1.901c-0.373,0.226-0.815,0.215-1.976,0.33c-1.147,0.114-2.625,1.318-2.625,1.318&#xA;		c0.159,0.878,0.057,1.653,0.057,1.653c-0.112-0.284-0.658-0.775-0.658-0.775c-0.285,0.273-0.718,2.036-0.718,2.036&#xA;		c-0.443-0.329-1.045-0.751-1.045-0.751c-5.286-2.834-9.99-5.12-14.149-6.978c0.398-0.159,0.909-0.295,1.479-0.295&#xA;		c1.206,0,2.409-1.025,2.409-1.025c0.75,1.207,1.216,0.934,1.216,0.934c-0.285-0.752,0-2.333,0-3.54&#xA;		c0-1.217-1.864-2.515-1.864-2.515c0-0.661-0.831-1.208-0.831-1.208s-0.191,0.559-0.658,0.559c-0.466,0-1.556-0.443-2.876-0.751&#xA;		c-0.898-0.205-3.262,0-3.262,0c0.466,1.867,0.728,4.086,0.728,4.086s-2.398-2.869-2.955-2.869c-0.555,0-1.396,0.183-2.693,1.116&#xA;		c-0.671,0.479-1.421,0.786-1.99,0.968c-9.021-3.165-13.353-3.426-13.353-3.426s14.728-3.654,36.649,0.683&#xA;		c15.25,3.005,26.513,7.979,35.944,12.644c0.502,1.003,1.115,1.789,1.557,2.279l0.218,0.25l0.09,0.102l0.078,0.102l-0.214-0.058&#xA;		c-0.864-0.239-1.603-0.899-2.285-1.49l-0.116-0.091l-0.089-0.068l-0.08-0.068l-0.012,0.216l0.023,0.307l0.023,0.125l0.069,0.284&#xA;		c0.066,0.216,0.168,0.468,0.341,0.718l0.171,0.229c0.192,0.249,0.443,0.511,0.784,0.762c1.656,1.229,4.555,2.06,5.943,2.777&#xA;		c1.576,0.819,3.498,1.959,3.498,1.959c-0.307-1.231-1.34-2.176-1.829-3.064c-0.283-0.523-0.148-1.001-0.148-1.001&#xA;		c0.32,0.921,2.251,1.821,2.251,1.821c1.238,0.421,2.407,0.604,3.26,0.683c11.536,5.805,35.877,19.622,36.296,19.818&#xA;		c0.501,0.226,1.035,0.501,1.581,0.795l0.544,0.307c0.604,1.799,0.285,2.846,0.285,2.846c-0.703-0.421-2.182-2.06-2.182-2.06&#xA;		c-0.125,0.615,0,1.105,0,1.105s-1.352,0.705-1.068,2.436c0.285,1.73,1.931,1.855,1.931,1.855c-0.239-0.581-0.284-1.366-0.284-1.366&#xA;		s0.988,0.866,1.478,1.241c0.499,0.375,2.433,1.024,4.033,1.354c1.604,0.332,3.353,1.868,3.353,1.868&#xA;		c-0.625-1.196-0.385-2.198-0.385-2.198c0.751,1.103,3.022,3.403,3.022,3.403c0.989,0.49,2.396,0.729,3.888,1.299&#xA;		c0.761,0.296,1.441,0.693,1.917,1.012c0.549,0.718,1.026,1.424,1.422,2.116c-0.692,1.39-3.716,4.759-16.625,2.631&#xA;		c-10.558-5.613-21.49-10.131-21.49-10.131c23.627,14.194,42.33,33.441,43.243,39.154c0.919,5.715-3.456,8.652-0.583,10.848&#xA;		C371.205,108.994,376.978,101.845,376.979,101.844L376.979,101.844z M322.626,138.648c-1.772,0.819-3.566,1.57-5.417,2.207&#xA;		c-0.909,0.307-1.817,0.592-2.737,0.842c-3.271,0.899-6.565,1.229-9.938,1.433c-0.091,0.011-0.216,0-0.375-0.023l0.08-0.25&#xA;		c0.034-0.159,0.068-0.307,0.08-0.444c0.204-2.025-1.952-3.526-1.952-3.526l-0.069-0.034l-0.193-0.091l-0.08-0.034&#xA;		c-1.397-0.66-2.805-1.297-4.214-1.934c-2.453-1.103-4.918-2.161-7.405-3.174l-1.431-0.58c-0.352-0.148-0.704-0.296-1.056-0.432&#xA;		c-5.712-2.264-11.505-4.323-17.365-6.211c-3.532-1.138-7.076-2.207-10.63-3.219l-1.704-0.489c-5.985-1.729-12.55-3.47-19.682-5.187&#xA;		c-4.679-4.402-9.29-8.816-14.242-12.866c32.902,8.771,55.424,18.463,66.872,23.992c4.077,1.9,6.848,3.333,8.257,4.095&#xA;		c1.272,0.387,3.055,0.603,3.975-0.694c1.897-2.685-1.352-4.994-1.352-4.994s-28.859-15.278-83.022-26.437&#xA;		c-5.338-3.8-10.994-6.973-16.548-10.409c-1.919-1.183-3.896-2.423-5.542-3.982c-0.84-0.785-1.738-1.775-1.851-2.98&#xA;		c-0.023-0.228-0.023-0.466,0-0.694l0.011-0.046c0.011-0.148,0.034-0.296,0.068-0.444l0.034-0.137l0.034-0.102l0.125-0.375&#xA;		l0.091-0.216c0.488-1.138,1.363-2.173,2.237-2.901l0.386-0.341l0.273-0.228l0.352-0.296l0.375-0.319l0.023-0.011l0.136-0.114&#xA;		l0.08-0.068l0.023-0.023l0.102-0.091l0.057-0.034l0.057-0.011h0.011l0.011-0.011l0.341-0.08l0.488-0.125&#xA;		c2.317-0.58,4.77-1.172,7.257-1.57c0.829-0.137,1.67-0.239,2.499-0.33c0.897,2.912,4.872,7.224,4.872,7.224&#xA;		c-1.885,0.137-4.304-0.535-4.304-0.535c3.498,4.71,13.186,10.636,20.716,12.115c7.541,1.479,14.39,1.206,14.39,1.206&#xA;		c-1.068,0.546-2.817,1.217-2.817,1.217s2.953-0.137,6.985,0.671c0.522,0.102,1.09,0.239,1.704,0.41&#xA;		c2.681,0.694,5.985,1.797,7.927,2.48c0.227,0.068,0.443,0.148,0.625,0.216l0.034,0.011l0.023,0.011&#xA;		c0.603,0.398,1.181,0.785,1.749,1.183c3.362,2.241,6.565,4.732,9.62,7.372c0.886,0.762,1.76,1.536,2.612,2.321&#xA;		c1.387,1.274,2.635,2.651,3.998,3.936c-0.114-0.102-0.136-0.626-0.182-0.785c-0.08-0.296-0.193-0.592-0.307-0.887&#xA;		c-0.25-0.614-0.477-1.24-0.738-1.843c-0.511-1.217-1.09-2.412-1.715-3.572c-1.261-2.332-2.703-4.562-4.282-6.7&#xA;		c-0.886-1.194-1.817-2.378-2.783-3.526c-0.704-0.819-1.442-1.615-2.181-2.423c-0.591-0.648-1.306-1.82-2.181-2.105l-0.023-0.011&#xA;		l-0.045-0.023c0.716,0.023,1.386,0.08,2.033,0.159c0.216,0.023,0.421,0.046,0.625,0.08c0.284,0.034,0.545,0.08,0.818,0.137&#xA;		c0.716,0.125,1.374,0.296,1.999,0.489c0.239,0.068,0.466,0.148,0.693,0.228s0.443,0.159,0.659,0.25&#xA;		c0.432,0.171,0.84,0.364,1.227,0.557c0.193,0.091,0.386,0.193,0.568,0.296l0.534,0.319l0.511,0.33l0.477,0.341l0.273,0.205&#xA;		c0.182,0.137,0.363,0.284,0.534,0.432c0.204,0.171,0.386,0.341,0.568,0.523c0.114,0.091,0.216,0.193,0.308,0.296&#xA;		c0.817,0.83,1.453,1.695,1.941,2.503l0.261,0.466c0.613,1.092,0.954,2.048,1.136,2.651l0.069,0.239l0.112,0.455&#xA;		c8.382-0.307,14.481,8.407,16.105,10.602h0.068l-0.057,0.011l0.045,0.023c1.34,0.717,2.669,1.467,3.986,2.23l0.704,0.421&#xA;		l0.988,0.592c1.147,0.671,2.306,1.354,3.43,2.082c3.044,1.911,6.247,3.959,8.836,6.53c-0.466-0.011-0.954,0.057-1.42,0.171&#xA;		s-0.931,0.25-1.363,0.375c3.225,2.275,6.156,4.948,8.768,7.883c0.341,0.375,3.248,4.152,3.339,4.152L322.626,138.648z"/>
	<path fill="#0A0B09" d="M330.488,102.608c-2.023,4.178-12.762-1.434-24.284-2.47c-11.512-1.035-27.01,3.438-27.01,3.438&#xA;		l0.373-0.296c1.102-0.819,2.308-1.481,3.536-2.094c1.011-0.512,2.044-0.99,3.089-1.446c3.66-1.582,7.491-2.846,11.377-3.768h0.022&#xA;		c3.059-0.718,6.138-1.196,8.967-1.229c8.194-0.102,19.66,2.264,23.091,5.327c0.91,0.808,1.262,1.661,0.842,2.537L330.488,102.608z&#xA;		 M303.398,132.033c-0.923,1.298-2.708,1.081-3.98,0.693c-1.408-0.761-4.18-2.197-8.249-4.098&#xA;		c-11.455-5.531-33.98-15.217-66.879-23.994c-11.316-3.016-23.839-5.93-37.578-8.525c-8.58-1.617-16.525-2.925-23.887-3.961&#xA;		c7.511,0.718,15.624,1.662,24.397,2.913c11.421,1.639,22.013,3.519,31.798,5.533c54.169,11.165,83.021,26.44,83.021,26.44&#xA;		s3.254,2.312,1.356,4.999L303.398,132.033z M304.317,142.416c-0.011,0.137-0.045,0.284-0.08,0.444l-0.08,0.25l-0.011,0.023&#xA;		c-0.091,0.239-0.216,0.489-0.386,0.728c-0.897,1.308-2.68,1.103-3.964,0.728c-1.42-0.739-4.202-2.15-8.291-4.004&#xA;		c-15.469-7.292-50.972-21.842-104.783-31.454c-8.393-1.502-16.059-2.719-23.283-3.674l-0.045-0.011l-0.227-0.023l-0.102-0.023&#xA;		c1.34,0.114,2.714,0.239,4.089,0.375c0.227,0.011,0.443,0.034,0.659,0.057c7.848,0.83,15.673,1.718,23.476,2.798&#xA;		c9.847,1.365,19.637,3.026,29.381,4.96c8.87,1.763,17.717,3.947,26.485,6.154c3.702,0.933,7.382,1.911,11.062,2.946l1.704,0.489&#xA;		c3.555,1.012,7.098,2.082,10.63,3.219c5.86,1.888,11.654,3.947,17.365,6.211c0.352,0.137,0.704,0.284,1.056,0.432l1.431,0.58&#xA;		c2.487,1.012,4.952,2.07,7.405,3.174c1.408,0.637,2.817,1.274,4.214,1.934l0.08,0.034l0.193,0.091l0.069,0.034&#xA;		c0,0,2.157,1.502,1.952,3.526L304.317,142.416z M308.648,63.727c13.407,13.885,3.942,25.735,3.942,25.735&#xA;		s-16.887-3.506-29.705-2.788c-6.115,0.352-13.33,3.129-19.217,5.93l0.16,0.022l0.09,0.035c0.876,0.286,1.592,1.456,2.182,2.106&#xA;		c0.739,0.809,1.478,1.604,2.182,2.424c0.968,1.149,1.898,2.322,2.786,3.516c1.578,2.141,3.011,4.371,4.273,6.705&#xA;		c0.624,1.16,1.205,2.356,1.714,3.573c0.262,0.604,0.5,1.23,0.742,1.844c0.111,0.297,0.225,0.593,0.306,0.887&#xA;		c0.043,0.162,0.067,0.684,0.179,0.786c-1.352-1.285-2.611-2.664-3.986-3.938c-0.862-0.785-1.729-1.56-2.614-2.322&#xA;		c-3.056-2.641-6.261-5.133-9.624-7.376l-1.806-1.205c-0.935-0.625-1.876-1.242-2.842-1.822c-1.977-1.241-4.694-2.88-7.206-4.2&#xA;		c-3.806-2.015-7.715-3.892-11.725-5.487c-2.502-1.274-4.957-2.618-7.378-4.018c-3.271-1.901-6.523-3.904-9.613-6.101&#xA;		c-1.466-1.035-3.17-1.902-4.443-3.175c-0.082-0.081-0.183-0.171-0.261-0.182c-0.795-0.125-1.592-0.184-2.342-0.206&#xA;		c-1.01-0.034-2.034,0-3.045,0.068c-0.08,0.013-1.238,0.138-1.238,0.126c-0.831,0.09-1.672,0.193-2.501,0.329&#xA;		c-2.488,0.399-4.943,0.992-7.263,1.571l-0.487,0.126l-0.341,0.078c0.296-0.249,3.272-2.81,5.089-3.823&#xA;		c2.647-1.48,5.604-2.391,8.491-3.268c2.999-0.898,6.511-1.604,9.624-1.9c10.546-1.001,20.979,0.762,30.764,4.085&#xA;		c9.522,3.234,18.284,8.185,28.045,10.802c1.244,0.334,2.496,0.635,3.755,0.902l0.701,0.143l0.012,0.002&#xA;		c4.072,0.842,8.392,1.523,12.477,0.501c2.455-0.614,5.141-1.832,7.062-3.558l0.279-0.243c0.832-0.804,1.525-1.779,2.001-2.837&#xA;		c1.172-2.591,1.012-5.161,0.769-7.907l-0.056-0.388c-0.057-0.353-0.125-0.694-0.204-1.035c-0.239-1.024-0.522-1.991-0.83-2.879&#xA;		c-0.307-0.89-0.626-1.685-0.91-2.346c-0.102-0.216-0.192-0.421-0.271-0.614l-0.135-0.284l-0.228-0.479l-0.126-0.226l-0.092-0.195&#xA;		l-0.111-0.205l-0.069-0.137c1.137,0.967,2.137,1.901,3.047,2.846L308.648,63.727z"/>
	<path fill="#9F792C" d="M326.249,107.685c0,0-0.114,2.07,1.137,4.03c1.249,1.945,3.888,4.335,3.888,4.335&#xA;		c-0.751-0.113-1.501-0.229-2.252-0.33c-3.011-0.431-6.046-0.775-9.078-1.048c-1.397-0.125-2.796-0.228-4.203-0.317&#xA;		c-0.262-0.023-5.059-0.239-5.605-0.251c-4.862-0.126-9.76,0.08-14.6,0.08h-0.24c-1.625-2.196-7.718-10.914-16.101-10.608&#xA;		c0,0,15.498-4.473,27.01-3.438c11.522,1.035,22.262,6.648,24.284,2.47c0.42-0.876,0.068-1.729-0.842-2.537l0.149,0.057&#xA;		c0,0,2.466,1.82,1.91,4.052C331.239,106.034,329.408,107.491,326.249,107.685L326.249,107.685z M238.536,117.502&#xA;		c7.132,1.718,13.697,3.458,19.682,5.187c-3.68-1.035-7.36-2.014-11.062-2.946c-8.768-2.207-17.615-4.391-26.485-6.154&#xA;		c-9.745-1.934-19.535-3.595-29.381-4.96c-7.802-1.081-15.628-1.968-23.476-2.798c-0.216-0.023-0.432-0.046-0.659-0.057&#xA;		c-1.374-0.137-2.748-0.262-4.089-0.375l0.102,0.023l-0.239-0.011c1.988,0.523,3.975,1.081,5.951,1.661&#xA;		c2.805,0.83,5.781,1.581,8.404,2.901c-3.078-0.228-6.292-0.523-9.37-0.171c1.317,0.523,2.839,1.058,3.941,1.979&#xA;		c-5.236,0.057-10.483,0.182-15.73,0.375c-9.165,0.319-18.376,0.683-27.485,1.9c4.577,1.467,9.676,3.629,13.322,6.996&#xA;		c0.522,0.478,1.011,0.978,1.465,1.513c-3.623,0.216-7.269,0.535-10.892,0.921c-0.454-0.944-1.124-1.9-2.044-2.423&#xA;		c-0.307-0.182-0.636-0.319-0.999-0.398l-0.602-0.137c-0.398-0.08-0.818-0.182-1.238-0.296c-0.647-0.171-1.317-0.387-1.976-0.66&#xA;		c-0.227-0.091-0.443-0.193-0.659-0.296c-0.227-0.091-0.443-0.205-0.647-0.341c-0.534-0.307-1.045-0.671-1.522-1.092l-0.034-0.023&#xA;		c-1.034-0.967-1.908-2.252-2.465-4.027c0,0-0.965-2.742-3.021-3.435l-0.045-0.011c-0.716-0.239-1.715-0.546-2.76-0.83&#xA;		c-0.284-0.08-0.568-0.148-0.852-0.216c-0.602-0.148-1.193-0.262-1.738-0.341c-0.965-0.137-1.772-0.137-2.158,0.125&#xA;		c-1.034,0.694-1.204,2.082-1.227,2.23v0.011c0,0,2.385-0.137,3.759-0.398l0.068-0.011c0,0-2.601,1.923-7.802,2.605l0.011,0.011&#xA;		c0.182,0.046,0.875,0.239,1.67,0.341c0.466,0.068,0.965,0.102,1.42,0.057h0.045c0,0-0.545,1.934-0.818,3.162&#xA;		c-0.273,1.24,0.273,3.572,1.635,4.664l0.011,0.011c0,0,2.294-0.137,4.736-0.671l0.057-0.011c0,0-0.818,1.365-1.919,2.196&#xA;		c0,0,1.238,0.683,0.545,1.786c-0.681,1.092-2.328,3.982-1.363,5.904c0.386,0.785,1.147,1.627,1.919,2.343&#xA;		c0,0-5.497,1.57-8.086,2.446c-7.757,2.628-15.298,5.995-22.113,10.511c0.886,0.171,1.76,0.375,2.624,0.58&#xA;		c1.306,0.307,2.612,0.648,3.896,1.035c0.806,0.25,1.613,0.501,2.408,0.796l0.034,0.011c0,0-0.579,0.648-0.761,1.342&#xA;		c-0.102,0.41-0.216,0.751-0.341,1.035l-0.114,0.273l-0.159,0.307l-0.136,0.216c-0.08,0.114-0.159,0.205-0.239,0.284&#xA;		c-0.227,0.25-0.466,0.387-0.681,0.512c-0.522,0.307-1.158,0.421-1.579,0.944c-0.318,0.398-0.693,1.047-0.818,2.173l-0.034,0.023&#xA;		c0,0-2.499,1.331-3.578,2.07c-1.147,0.774-2.271,1.581-3.35,2.446c-0.625,0.512-1.84,1.558-1.999,1.695l-0.295-0.341l-0.466-0.512&#xA;		l-0.193-0.228l-0.25-0.296c-2.215-2.514-5.826-6.803-5.52-7.144c4.441-4.914,4.236-9.476,4.236-9.476l-0.034,0.011&#xA;		c-1.193,0.512-3.6,0.159-3.793,0.125c3.021-1.797,5.611-5.62,5.611-5.62l-0.068,0.034l-0.738,0.375&#xA;		c-0.261,0.114-0.511,0.228-0.772,0.33l-0.511,0.239l-0.239,0.102l-0.068,0.023c-0.204,0.08-0.398,0.137-0.568,0.125l-0.045-0.011&#xA;		c-0.42-1.786-1.647-4.118-3.021-5.21c-1.374-1.103-3.146-4.402-3.146-4.402h-0.034c-0.307,0-0.693,0.034-1.113,0.068&#xA;		c-0.761,0.08-1.511,0.216-2.271,0.284l-0.17,0.023l-0.216,0.011l0.114-0.125c0.693-0.705,3.271-2.503,3.271-3.003&#xA;		c0-1.092,1.238-3.982,1.919-5.495c0.204-0.444,0.295-0.91,0.295-1.376l-0.023-0.387l-0.011-0.08l-0.08-0.375&#xA;		c-0.023-0.125-0.068-0.262-0.114-0.387l-0.034-0.091c-0.045-0.125-0.102-0.25-0.17-0.375l-0.148-0.284&#xA;		c-0.568-0.91-1.499-1.615-2.555-1.854l-0.125-0.023c-1.738-0.375-3.861-0.046-5.656,0.33l-0.545,0.091&#xA;		c0.193,0.023,0.409,0.046,0.636,0.102c0.829,0.125,1.772,0.387,2.385,0.91l0.125,0.114l0.125,0.114&#xA;		c-2.873,0.421-4.52,1.786-4.52,1.786c-0.545,0.444-1.022,0.876-1.42,1.274l-0.011-0.046c-0.557-3.06-0.931-6.143-1.102-9.237&#xA;		c-0.307-5.756-0.25-11.74,1.522-17.28c0.057-0.125,0.216-0.228,0.443-0.307c0.568-0.057,1.113-0.114,1.67-0.182&#xA;		c3.6-0.444,7.178-1.138,10.676-2.093c6.496-1.786,12.879-4.562,17.876-9.146c0.432-0.387,0.636-0.614,0.659-0.637l-0.068,0.023&#xA;		c-0.375-0.114-8.37-0.819-11.709-1.57c-0.931-0.205-1.942-0.512-2.692-0.853c0,0,6.769,0.08,17.865-3.174&#xA;		c1.567-0.432,3.112-0.944,4.645-1.479c1.919-0.694,3.873-1.445,5.77-2.275l0.057-0.023l0.045-0.023&#xA;		c0.704-0.307,1.397-0.626,2.09-0.956l0.091-0.046c2.09-0.978,4.089-2.116,6.042-3.333l0.897-0.466l0.091-0.046&#xA;		c0.579-0.228,1.147-0.466,1.715-0.717c1.079-0.478,2.147-0.99,3.214-1.547c1.249-0.637,2.499-1.297,3.714-1.991&#xA;		c0.75-0.432,1.488-0.876,2.215-1.32c3.339-2.048,10.142-7.701,10.199-7.77l-0.068,0.023l-0.068,0.046&#xA;		c-0.943,0.512-1.908,1.001-2.873,1.479c-3.691,1.888-7.519,3.64-11.471,4.857c-0.466,0.137-0.931,0.284-1.408,0.41&#xA;		c-2.862,0.83-5.77,1.467-8.7,2.014c-2.533,0.466-5.088,0.819-7.655,0.876c-2.544,0.068-5.111-0.08-7.632-0.455&#xA;		c-1.408-0.216-2.828-0.466-4.225-0.785c-1.522-0.353-3.044-0.751-4.543-1.217c-1.352-0.421-2.68-0.933-4.02-1.376&#xA;		c-4.429-1.649-8.62-3.834-12.686-6.234c-0.965-0.569-3.759-2.321-3.941-2.446l2.181,0.512c8.245,1.9,16.707,3.834,25.168,4.323&#xA;		c5.122,0.296,10.29-0.478,15.31-1.365c3.078-0.535,6.144-1.16,9.165-1.911c-1.374,1.502-2.873,3.026-4.6,4.107l0.25-0.068&#xA;		c10.222-2.514,20.42-5.062,30.665-7.474c6.417-1.513,12.925-2.127,19.455-2.252c-0.488,0.319-0.875,0.683-1.181,0.967&#xA;		c-0.75,0.705-2.362,0.99-2.362,0.99c-0.886,0.08-3.237,0.193-3.237,0.193c3.373,0.944,4.327,2.105,6.383,2.889&#xA;		c-1.885-0.284-5.202-0.921-5.202-0.921c-0.443,1.854-1.76,2.446-2.748,3.185c-0.988,0.751-1.068,1.32-1.068,1.32&#xA;		c1.76,0.375,6.247,2.912,6.247,2.912c-1.647-0.455-6.247-0.466-6.247-0.466c-0.25,0.819-0.454,0.819,0.863,2.343&#xA;		c1.306,1.524,1.193,2.15,0.738,2.639c-0.454,0.489-1.488,1.729,0.488,3.299c1.988,1.558,5.69,1.274,6.883,1.103&#xA;		c1.193-0.159,2.351,0.102,2.351,0.102c-0.897-0.66-2.306-2.082-2.306-2.082c0.909,0.08,3.861,0.751,3.861,0.751&#xA;		s-0.909-0.91-0.329-1.57c0.568-0.66,2.385-0.41,3.737-1.479c1.363-1.069,1.068-3.504,1.363-4.038&#xA;		c0.284-0.535,1.681-1.354,1.681-1.354c0.534-0.046,1.363,0,1.363,0c-1.238-0.751-5.315-2.73-5.315-2.73&#xA;		c1.476,0.034,3.998,0.239,3.998,0.239c-0.125-0.66-0.954-2.503-1.238-3.333c-0.284-0.819-0.034-1.558,0.08-2.059&#xA;		c0.125-0.489,0.045-1.354,0.045-1.354c-0.409-0.455-1.147-0.865-1.147-0.865c1.476,0.034,3.657,0.364,3.657,0.364&#xA;		c-0.216-0.102-1.056-0.512-2.271-0.933c2.624,0.114,5.258,0.262,7.882,0.455c-0.988-1.661-2.453-3.242-4.248-4.016&#xA;		c2.362,0,4.713,0.057,7.064,0.148c13.175,0.489,26.451,1.456,39.421,3.982c3.191,0.614,6.394,1.32,9.574,2.082&#xA;		c0.819,0.648,2.056,1.274,2.351,1.411c-0.818-0.296-3.578-0.387-3.578-0.387c-0.409,0.33-0.602,1.285-0.193,2.935l0.034,0.171&#xA;		c-1.227-0.273-4.418-0.83-6.962,0.068c0,0,2.306,1.49,4.259,4.232c0,0-18.899,3.47-26.451,17.041l-0.307,0.626l-0.102,0.091&#xA;		l-0.023,0.023l-0.08,0.068l-0.136,0.114l-0.023,0.011l-0.375,0.319l-0.352,0.296l-0.273,0.228l-0.386,0.341&#xA;		c-0.875,0.728-1.749,1.763-2.237,2.901l-0.091,0.216l-0.125,0.375l-0.034,0.102l-0.034,0.137c-0.034,0.148-0.057,0.296-0.068,0.444&#xA;		l-0.011,0.046c-0.023,0.228-0.023,0.466,0,0.694c0.114,1.206,1.011,2.196,1.851,2.98c1.647,1.558,3.623,2.798,5.542,3.982&#xA;		c5.554,3.435,11.21,6.609,16.548,10.409c-9.789-2.014-20.375-3.902-31.801-5.54c-8.768-1.251-16.888-2.196-24.396-2.912&#xA;		c7.36,1.035,15.31,2.343,23.884,3.959c13.742,2.605,26.258,5.517,37.581,8.532c4.952,4.05,9.563,8.464,14.242,12.866&#xA;		L238.536,117.502z M324.341,91.795c0,1.537-3.512,1.105-6.149,0.876c-2.625-0.215-16.01,1.105-20.624,3.301&#xA;		c-3.885,0.921-7.716,2.185-11.377,3.768c-1.045,0.456-2.078,0.934-3.089,1.446c-1.228,0.613-2.434,1.275-3.536,2.094l-0.373,0.296&#xA;		c0,0-0.605-3.324-3.524-6.306c-0.159-0.173-0.329-0.341-0.513-0.501c-0.35-0.331-0.736-0.648-1.158-0.957&#xA;		c-1.238-0.921-2.784-1.742-4.671-2.321c-0.622-0.196-1.294-0.355-1.998-0.49c-1.068-0.206-2.218-0.331-3.478-0.377h-0.023&#xA;		l-0.16-0.022c5.887-2.801,13.102-5.579,19.217-5.93c12.818-0.718,29.705,2.788,29.705,2.788s9.465-11.85-3.942-25.735&#xA;		c2.727,2.505,7.215,7.147,9.988,12.69c4.17,8.344,5.705,13.842,5.705,15.379L324.341,91.795z M298.523,84.214&#xA;		c-4.085,1.023-8.406,0.341-12.477-0.501c-0.97-0.268-2.237-0.664-3.355-1.105c-1.533-0.604-3.068-1.263-4.237-1.82&#xA;		c-0.275-0.126-0.533-0.25-0.775-0.388c-3.781-2.094-6.248-4.941-7.385-6.829c0,0-0.182,1.706,0.191,3.027&#xA;		c0,0-7.762-3.415-11.93-6.829c-3.216-2.629-4.727-7.012-4.727-9.105v-0.172c0.727-0.716,1.521-1.308,2.057-1.684&#xA;		c7.728,3.243,14.68,7.739,21.328,12.839c3.879,2.97,7.841,6.158,12.218,8.354c0.27,0.137,0.533,0.262,0.808,0.375&#xA;		c0.726,0.308,1.478,0.57,2.201,0.819c4.366,1.504,8.922,0.991,13.173-0.579l-0.033,0.033l0.005,0.005&#xA;		c-1.921,1.727-4.607,2.944-7.062,3.558L298.523,84.214z M362.658,76.85c-2.124-1.878-4.976-3.836-8.136-5.772&#xA;		c-2.307-1.433-4.77-2.844-7.101-4.029l-0.251-0.124c12.909,2.127,15.933-1.241,16.625-2.631l0.08,0.138&#xA;		c0.194,0.353,0.377,0.706,0.512,1.048c2.569,6.122-1.729,11.371-1.729,11.371L362.658,76.85z"/>
	<path fill="#006778" d="M286.103,237.343l-5.31-3.451l-0.692-7.648C280.101,226.244,287.623,231.174,286.103,237.343&#xA;		L286.103,237.343z M268.17,220.574c0,0-4.228,16.484-23.933,27.091c0,0-15.023-5.101-23.238-24.006&#xA;		c-6.637-15.287-0.308-43.911-9.206-60.098c-5.897-10.756-16.341-13.26-16.341-13.26s6.501-3.734,20.047,0.66&#xA;		c22.307,7.216,24.737,36.423,25.092,42.422c0.694,11.792,2.727,27.022,10.466,31.153c0,0-4.559-6.315-4.694-21.237&#xA;		c-0.407-44.369-15.738-50.629-15.738-50.629s18.716,3.073,23.752,18.941c5.032,15.878-3.07,40.215,13.795,48.965L268.17,220.574z&#xA;		 M366.14,131.248c-0.662,5.93-9.877,14.5-9.877,14.5c-1.32-3.29-6.251-11.201-6.251-11.201s1.319-3.299-3.625-7.591&#xA;		c-4.931-4.28-18.432-4.28-18.432-4.28s3.637-2.072,8.228-1.652c12.069,1.106,29.957,10.223,29.957,10.223L366.14,131.248z&#xA;		 M271.556,84.168c0,0-11.681,7.366-20.137,5.181c-8.466-2.186-22.977-13.682-22.977-13.682s5.555-0.728,14.74,0.808l0.237,0.047&#xA;		c1.671,0.374,3.455,1.73,4.794,2.673c0.82,0.581,1.557,1.265,2.343,1.879c0.159,0.124,2.203,1.376,2.295,1.376l-0.033,0.456&#xA;		c0,2.151,1.748,3.904,3.907,3.904c2.149,0,3.898-1.753,3.898-3.904c0-0.854-0.273-1.639-0.738-2.279&#xA;		c7.705,2.2,11.671,3.54,11.671,3.54L271.556,84.168z"/>
	<path fill="#0A0B09" d="M324.489,45.719c0,0-2.377-2.094-3.206-2.821c0,0,1.16,2.754,1.341,3.344c0,0-2.239,0.08-3.455-0.863&#xA;		c-1.216-0.944-2.964-2.06-2.512-2.06c0,0,0.546,0.033,1.002,0.102c0,0-1.387-1.673-3.762-1.811c0,0-1.445,0.331-3.105-0.512&#xA;		c-1.658-0.853-2.349-1.719-2.349-1.719s-0.91-1.011-1.081-2.31c0,0,1.626,1.139,2.423,1.457c0,0-1.434-2.049-1.434-3.266&#xA;		c0,0,1.023-0.206,2.307,0.284c1.297,0.489,1.65,0.102,1.65,0.102s-0.559-0.729-0.773-1.469c0,0,1.635,1.366,2.331,1.673&#xA;		c0,0,2.023-0.626,3.556,0.033c1.531,0.661,3.271,2.367,3.545,2.686c0.261,0.298,1.296,1.083,1.422,1.174&#xA;		c-0.103-0.138-0.909-1.218-1.128-2.072c0.126,0.08,1.138,0.739,1.595,0.967c0.485,0.251,1.421,1.229,1.603,1.854&#xA;		c0.168,0.628-0.843,1.64-0.843,1.64s1.328,1.708,1.328,2.403c0,0.693-0.452,1.182-0.452,1.182L324.489,45.719z M337.579,56.51&#xA;		c-0.332,0.501-0.819,0.501-0.819,0.501s-2.967-1.775-3.749-2.151c0,0,1.487,2.312,1.692,2.846c0,0-2.555-0.377-3.216-1.275&#xA;		c0,0-2.876-0.705-3.908-1.4c-1.024-0.705-1.854-1.776-1.854-2.356c0,0,1.649,0.786,2.478,1.161c0,0-2.227-2.686-2.921-3.335&#xA;		c0,0,0.773-0.83,1.729-1.081c0.942-0.24,1.397-0.24,1.762-0.205c0,0,0.045-0.57-0.41-1.07c0,0,2.672,1.605,3.91,2.891l-0.332-1.16&#xA;		c0,0,2.137,0.535,3.126,1.49c0.989,0.945,1.478,2.016,1.773,2.505c0.283,0.501,1.07,2.151,0.739,2.64L337.579,56.51z&#xA;		 M240.089,66.606c0,0-1.592-1.024-2.49-1.274c0.181,0.182,2,2.049,0.978,2.287c0,0-0.909-1.057-2.558-1.797&#xA;		c-1.648-0.741-4.681-2.232-5.59-3.05c-0.853-0.775-1.409-2.414-1.466-2.619c0.101,0.137,0.603,0.808,1.055,0.887&#xA;		c0.457,0.08,1.796,0.945,1.967,1.059c-0.057-0.135-0.522-1.264-1.068-1.718c-0.569-0.502-1.966-1.163-2.706-2.061l0.819-0.25&#xA;		c0,0,0.228-1.617-0.135-3.21l-0.033-0.171c-0.41-1.649-0.219-2.605,0.192-2.936c0,0,2.76,0.091,3.58,0.387&#xA;		c-0.296-0.137-1.536-0.762-2.352-1.411c0.033-0.013,0.239-0.08,0.396-0.4c0.159-0.363,0.082-1.159,0.818-1.32&#xA;		c0.739-0.171,2.059,0.49,2.387,0.661c0.33,0.158,2.193,1.331,2.785,1.615c0.342,0.159,0.487,0.729,0.544,1.218&#xA;		c1.75,0.489,3.489,0.99,5.228,1.525l0.102,0.081l0.023,0.01l0.057,0.046c-1.035-0.251-3.17-0.546-4.169-0.684&#xA;		c-0.298,0.297-0.955,0.956-1.229,1.298c0,0-0.601,0.786-0.954,2.8c-0.112,0.65,0.25,2.141,0.91,2.722&#xA;		c0.658,0.569,2.716,2.47,3.045,3.367c0.332,0.911-0.271,2.323-0.135,2.937L240.089,66.606z M238.36,31.548&#xA;		c-1.227,1.012-2.726,1.606-2.726,1.606s0.181,1.263,0.897,1.992c0,0-1.375-0.125-2.525-0.786c0,0-1.021,1.149-1.136,1.628&#xA;		c-0.124,0.479-1.624,2.403-2.522,3.061c-0.898,0.66-2.761,1.379-2.761,1.379s1.66,2.389,3.035,3.357&#xA;		c-0.353-0.149-4.977-2.175-6.875-4.132c0,0-0.182,1.445,0.295,2.163c0,0-2.274,1.024-4.853,0.42&#xA;		c-2.432-0.568-4.864-2.31-5.136-2.515c0.284,0.047,2.533,0.468,3.988,0.468c0,0-3.296-1.618-3.897-3.243&#xA;		c-0.604-1.617-0.42-3.483,1.384-4.326c1.797-0.842,3.354-0.717,3.354-0.717s4.328,2.036,6.839,2.639c0,0-3.294-2.163-4.135-3.549&#xA;		c0,0,2.341,0.068,2.999-0.354s1.136-1.503,2.398-1.924c1.262-0.421,2.582-0.546,2.582-0.546s-1.195-0.661-1.5-1.025&#xA;		c0,0,2.465,0.66,3.249,0.66c0,0,2.158,0.125,3.113,0.251c0.965,0.114,2.762-0.49,4.262-0.011c1.5,0.49,0.896,2.481-0.33,3.505&#xA;		L238.36,31.548z M261.771,55.236c-0.434,0.921-2.739,2.332-4.045,2.778l-0.159-0.286l-0.126-0.182&#xA;		c-0.261-0.398-0.727-0.967-1.386-1.424l0.057,0.217l0.069,0.217l0.044,0.192l0.047,0.172c0.068,0.239,0.124,0.523,0.181,0.796&#xA;		c0.043,0.239,0.078,0.465,0.102,0.671c0,0-0.274,0.148-0.67,0.422c-0.536,0.375-1.33,0.968-2.057,1.684&#xA;		c-0.568,0.546-1.091,1.161-1.444,1.821c-1.148,2.117-1.059,3.722-1.059,3.722s-0.989-0.421-1.884-1.115c0,0,0.453,1.911,2.068,2.72&#xA;		c0,0,0.92,1.218,0.522,2.139c0,0-2.829-0.226-3.49-0.761c-0.659-0.547-2.761-1.309-2.761-1.309s0.704-0.115,1.455-0.068&#xA;		c0,0-0.761-1.854-1.488-2.48c-0.728-0.617-2.195-1.743-1.865-3.177c0,0,1.727,0.124,2.555,0.455c0,0-2.726-2.367-4.396-2.743&#xA;		l2.285-0.124c0,0-0.309-1.618,2.591-3.029c2.91-1.412,3.806-2.31,4.421-3.22c0.601-0.911,0.852-1.844,1.613-2.39&#xA;		c0,0,1.422,0.808,2.545,1.661c0,0-0.647-1.924-2.704-3.335c0,0,1.729,0.229,2.999,0.662c0,0,1.727-0.854,3.011-0.719&#xA;		c1.286,0.137,3.604,1.345,3.821,2.083c0.202,0.742-0.434,3.028-0.853,3.951L261.771,55.236z M269.51,39.061&#xA;		c0,0-1.514-0.374-2.102-0.58c0.112,0.172,1.012,1.467,1.227,2.174c0,0-1.375,0.911-2.432,1.151&#xA;		c-1.056,0.238-1.354,0.534-1.932,1.182c-0.581,0.661-2.047,1.457-3.501,1.241c-1.398-0.205-4.181-1.025-4.419-1.082&#xA;		c0.159,0.149,1.398,1.366,1.943,2.323c0,0-1.59,0.795-4.218,1.173c0,0-2.396,0-3.419-0.297c-1.023-0.296-1.966-0.809-2.035-1.457&#xA;		c-0.08-0.66,0.502-1.388,0.502-1.388s2.112,0.808,3.353,1.024c0,0-3.128-2.914-4.229-3.722c0,0,2.193,0.364,3.5,0.808&#xA;		c0,0-0.148-0.808-0.66-1.685c-0.509-0.865,0.444-1.74,0.877-1.967c0.442-0.218,2.475-1.014,2.987-1.378&#xA;		c0,0-1.306-1.093-2.773-1.901c0,0,2.843,0.295,4.298,0.728c0,0,1.171,0.08,2.409-0.433c1.238-0.512,1.671-0.512,2.692-0.364&#xA;		c1.012,0.149,1.137,0.433,1.809,0.501c0.67,0.081,1.317,0.013,1.317,0.013s-0.432-0.593-1.523-1.025c0,0,2.331,0.296,3.421,1.025&#xA;		c0,0,1.884,0.33,2.977,1.399c1.104,1.07-0.067,2.538-0.067,2.538L269.51,39.061z M311.874,53.711c0,0,0.512,1.309,0.806,1.901&#xA;		c0,0-1.749-0.728-3.282-0.728c0,0-0.685,1.035-2.308,0.693c-1.626-0.329-3.216-1.569-3.216-1.569s1.455,0.066,2.611,0.066&#xA;		c0,0-0.51-0.58-1.885-0.875c-1.383-0.284-2.203-0.524-3.181-1.288c0,0-0.239,0.775,0.41,1.288c0,0-2.183,0.58-2.546-1.605&#xA;		s-1.603-2.037-0.727-3.643c0.863-1.582,2.67-1.593,2.727-1.593c0,0-1.558-0.957-2.579-1.538c0,0,3.567,0.945,6.327,2.618&#xA;		c0,0-0.214-1.092-0.871-1.672c0,0,1.897-0.581,4.009,0.877c2.101,1.456,2.182,2.765,3.785,3.858S312.601,53.278,311.874,53.711&#xA;		L311.874,53.711z M287.851,54.952c0,0-0.988,0.808-1.306,1.388c-0.308,0.57-1.16,1.89-2.115,2.254c0,0-1.013,1.309-2.103,1.39&#xA;		c-1.09,0.067-1.829-0.183-2.555-0.217c-0.718-0.034-3.637,0-5.817-2.186c0,0,3.123,0.435,3.93,0.435c0,0-2.773-2.039-3.352-2.914&#xA;		c0,0,0.808-0.513,0.726-1.241c-0.068-0.728-0.293-1.389,0.444-2.185c0,0,2.546,0.877,4.069,1.092c0,0-1.671-1.685-3.341-3.061&#xA;		c0,0,1.035-0.104,2.261,0.386c0,0,0.502-0.102,1.668-1.045c1.16-0.945,3.422-0.696,4.728,0.171&#xA;		c1.308,0.852,2.547,2.607,2.547,2.607s1.533,0.796,2.545,2.469c0,0-2.647-1.73-4.739-2.026c0,0,1.911,1.743,2.41,2.687&#xA;		L287.851,54.952z M297.613,37.309c-0.078,1.012-0.808,1.821-2.047,1.968c-1.239,0.138-1.966-0.363-2.396,0.217&#xA;		c-0.433,0.58-1.091,1.16-1.751,1.308c0,0-4.216-2.618-6.047-3.573c0,0,1.537,1.969,1.898,2.776c0,0-2.543,0.217-4.295-0.511&#xA;		c-1.748-0.728-2.919-1.343-4.148-1.879c-1.237-0.523-2.545-2.276-2.545-2.276s2.036,0.945,3.127,1.242c0,0-1.818-2.05-1.888-2.698&#xA;		c0,0,1.374-0.365,2.033-1.173c0.616-0.751,2.419-1.241,3.785-1.308h0.294c1.388,0,4.81,1.821,6.478,3.061&#xA;		c0,0-1.455-2.037-2.545-3.061c0,0,2.614,0,3.273-0.216c0.66-0.229,2.182-0.377,3.273,0.137c1.021,0.478,1.603,1.536,1.67,1.672&#xA;		c-0.136-0.056-1.216-0.513-2.033-0.717c0,0,0,0.877,1.749,2.117C297.249,35.624,297.68,36.285,297.613,37.309L297.613,37.309z&#xA;		 M163.157,151.607c0,0,1.408,2.833,1.522,5.233c0.102,2.4-1.851,3.162-3.805,3.925c-1.965,0.762-4.145,0.33-4.793-0.102&#xA;		c-0.659-0.444-1.749-0.33-1.749-0.33c0.647-0.876,3.384-2.73,3.384-2.73c-2.624,0.228-5.02,1.854-5.02,1.854&#xA;		s-4.134,0.66-6.315,0.66c-2.169,0-5.542-2.07-5.542-2.07c-1.306,0-3.157,0.978-3.157,0.978c0.977-1.649,5.224-4.698,5.224-4.698&#xA;		c-1.965,0.432-4.463,2.07-4.463,2.07c-0.761-0.762-4.475-3.049-5.452-3.811c-0.977-0.762-1.624-1.854-1.306-4.038&#xA;		c0.329-2.173,2.828-2.4,5.111-2.503c2.306-0.102,5.452-0.114,5.452-0.114c-0.92,0.717-1.545,2.014-1.613,2.173&#xA;		c0.454-0.66,3.884-2.309,3.884-2.309s3.714-1.058,6.224-2.15c2.499-1.092,4.781-0.865,7.076,0.546&#xA;		c2.294,1.411,4.463,5.779,4.463,5.779c1.738-0.717,4.52-1.138,4.861-1.183c-1.42,0.671-3.986,2.821-3.986,2.821V151.607z&#xA;		 M109.847,95.244c-0.886,0.58-0.965,1.194-1.648,2.072c-0.693,0.887-4.896,1.081-4.896,1.081c-2.546-0.887-5.864-0.887-5.864-0.887&#xA;		c1.659,0.489,3.907,1.184,3.907,1.184s-2.351,0.386-4.306,0.192c-1.956-0.192-3.035-2.356-4.102-3.825&#xA;		c-1.08-1.467,0.193-3.721,0.193-3.721c-0.591-0.398-1.273-0.594-1.273-0.594c2.148-0.191,6.159,0.104,6.159,0.104&#xA;		c-1.851-0.592-3.953-1-3.953-1s0.239-1.06,0.727-2.142c0.49-1.069,2.84-0.785,3.818-0.683c0.977,0.102,2.25-1.082,2.954-1.307&#xA;		c0.705-0.24,2.92,0.523,4.091,0.92c1.17,0.387,1.272,1.274,1.272,1.274c-1.079-0.101-2.647,0.196-2.647,0.196l3.818,1.069&#xA;		c0,0,2.545,1.275,2.932,2.549C111.427,93.001,110.744,94.673,109.847,95.244L109.847,95.244z M132.822,129.594&#xA;		c-0.693,2.332-0.136,3.435-0.136,5.768c0,2.343-2.885,3.31-7.405,3.993c-4.52,0.683-6.44-0.819-6.44-0.819l0.681-1.524&#xA;		c-1.511,0.273-5.906,0.421-5.906,0.421c2.885-1.251,6.587-3.856,6.587-3.856c-1.772,0.694-5.463,1.581-5.463,1.581&#xA;		s-1.113-0.796-2.215-1.843c-0.772-0.717-1.533-1.558-1.919-2.343c-0.965-1.923,0.681-4.812,1.363-5.904&#xA;		c0.693-1.103-0.545-1.786-0.545-1.786c1.102-0.83,1.919-2.196,1.919-2.196l-0.057,0.011c-2.442,0.535-4.736,0.671-4.736,0.671&#xA;		l-0.011-0.011c-1.363-1.092-1.908-3.424-1.635-4.664c0.273-1.229,0.818-3.162,0.818-3.162h-0.045&#xA;		c-0.454,0.046-0.954,0.011-1.42-0.057c-0.795-0.102-1.488-0.296-1.67-0.341l-0.011-0.011c5.202-0.683,7.802-2.605,7.802-2.605&#xA;		l-0.068,0.011c-1.374,0.262-3.759,0.398-3.759,0.398v-0.011c0.023-0.148,0.193-1.536,1.227-2.23&#xA;		c0.386-0.262,1.193-0.262,2.158-0.125c0.545,0.08,1.136,0.193,1.738,0.341c0.284,0.068,0.568,0.137,0.852,0.216&#xA;		c1.045,0.284,2.044,0.592,2.76,0.83l0.045,0.011c2.056,0.694,3.021,3.435,3.021,3.435c0.557,1.775,1.431,3.06,2.465,4.027&#xA;		l0.034,0.023c0.477,0.421,0.988,0.785,1.522,1.092c0.204,0.137,0.42,0.25,0.647,0.341c0.216,0.102,0.432,0.205,0.659,0.296&#xA;		c0.659,0.273,1.329,0.489,1.976,0.66c0.42,0.114,0.84,0.216,1.238,0.296l0.602,0.137c0.363,0.08,0.693,0.216,0.999,0.398&#xA;		c0.92,0.523,1.59,1.479,2.044,2.423l0.011,0.011c0.716,1.467,0.954,2.946,0.954,2.946c-0.954,1.638-3.566,3.151-3.566,3.151&#xA;		C131.175,129.867,132.822,129.594,132.822,129.594L132.822,129.594z M100.791,40.209c0,0,1.375,0.775,1.455,2.641&#xA;		c0.08,1.868-0.376,2.686,0.08,3.961c0.443,1.274-0.308,2.163-2.091,3.21c0,0-1.797,0.375-3.591,0.228c0,0,1.352,0.671,1.943,0.751&#xA;		c0,0-1.943,1.639-4.704,0.967c0,0-3.353,2.017-5.898,1.652c-2.535-0.375-3.126-1.423-3.126-1.423s3.023-0.547,5.181-0.841&#xA;		c0,0-3.943-0.911-5.215-1.652c0,0,0.396-1.844,1.227-2.663c0.819-0.832,0.626-1.037,0.626-1.037s-3.238-0.761-4.432-1.205&#xA;		c0,0,3.806-0.582,5-1.025c0,0-0.453-0.923,1.045-2.117c1.49-1.196,2.762-2.391,3.353-3.074c0.603-0.671,3.512-0.739,5.148-0.297&#xA;		c1.647,0.456,1.637,0.456,2.534,0.456c0.898,0,4.716-0.374,4.716-0.374s-0.75,1.183-3.249,1.842H100.791z M156.837,106.445&#xA;		c-0.954,1.457-4.808,1.957-6.875,1.708c0,0-3.863,1.74-6.069,1.445c-2.193-0.296-6.193-1.799-6.193-1.799s1.228-0.638,2.433-0.83&#xA;		c0,0-0.74-1.48-2.535-3.175c-1.796-1.709-4.102-3.803-4.5-5.214c0,0,2.363-0.992,4.068-1.389c0,0-2.851,0.08-4.454-0.615&#xA;		c0,0-0.114-2.994,0.488-4.199c0.602-1.196,1.001-2.198,1.001-2.801c0-0.604-0.114-0.557,0.784-0.854&#xA;		c0.897-0.296,5.216-1.047,5.216-1.047s-0.399-0.99-3.103-1.4c0,0,2.399-0.899,5.103-0.501c2.693,0.398,4.487,3.597,5.387,5.305&#xA;		c0.91,1.695,2.602,3.596,3.704,4.404c1.103,0.797,5.238-0.204,5.238-0.204s-2.612,2.595-4.271,2.47c0,0,0.83,3.038,2.227,4.247&#xA;		c1.398,1.193,3.306,2.994,2.352,4.45L156.837,106.445z M94.278,125.259c-1.227,0.967-4.387,3.574-6.033,5.498&#xA;		c-1.649,1.924-3.421,3.983-7.126,3.016c-3.705-0.957-4.262-6.317-4.262-6.317c0.967-1.366,5.354-3.425,5.354-3.425&#xA;		c-2.329,0-5.286,0.523-5.286,0.523c0.058-1.116,0.216-4.372,0.216-6.99c0-2.605-1.374-5.076-1.374-5.076&#xA;		c0.955-0.967,3.295-2.196,3.295-2.196c-4.534,0.683-6.862,0.137-6.862,0.137c1.238,0,3.021-0.967,3.021-0.967&#xA;		c-0.271-1.367,0.275-3.291,0.955-3.985c0.681-0.684,2.751-3.29,3.706-3.984c0.954-0.684,3.431-0.273,5.897,0.138&#xA;		c2.467,0.408,2.876,1.924,2.876,1.924c1.237,0.272,2.477,0.135,2.477,0.135c-1.511,1.103-5.353,2.333-5.353,2.333&#xA;		c1.784,0.284,3.297,0.284,3.297,0.284s1.09,3.985,1.646,6.045c0.24,0.887,0.694,1.626,1.273,2.332&#xA;		c-1.068,0.638-2.896,1.652-4.432,2.198c0,0,2.649-0.08,5.478-1.06c0.545,0.547,1.148,1.106,1.796,1.742&#xA;		C96.758,119.489,95.52,124.304,94.278,125.259L94.278,125.259z M204.667,54.939c0,0,1.081,1.194,0.886,2.424&#xA;		c-0.191,1.229-0.613,1.467-0.965,2.276c-0.34,0.808-1.374,1.502-2.455,2.002c0,0,1.399,0.604,2.854,1.458&#xA;		c-0.341-0.035-3.069-0.388-3.852-0.49c0,0-1.546,0.923-2.239,1.959c-0.694,1.047-1.922,1.968-3.693,2.048&#xA;		c0,0-2.227-0.661-3.114-0.852c0,0,1.16,1,1.613,1.502c0,0-1.261,0.501-2.5,0.238c-1.227-0.273-4.034-1.433-4.887-1.695&#xA;		c0,0,2.047,0.147,2.661,0.228c0,0-4.081-3.279-4.694-4.008c0,0,1.763,0.297,2.546,0.49c-0.285-0.171-2.592-1.582-2.66-3.425&#xA;		c-0.044-1.116,0.727-1.958,1.648-2.458c0.932-0.502,1.965-0.547,2.352-1.242c0.386-0.695,0.454-1.536,0.454-1.536&#xA;		s3.035,0.579,4.375,0.887c0,0-1.193-1.776-1.966-2.083c0,0,0.251-0.695,1.25-1.161c1.001-0.454,2.727-0.921,3.773-1.729&#xA;		c1.034-0.808,2.193-0.581,2.968-0.421c0.76,0.148,2.26,1.081,4.032,1.617c0,0-0.921-0.775-1.228-1.424c0,0,1.923,0.115,2.888,0.536&#xA;		c0.954,0.421,1.453,1.422,0.998,2.163c-0.466,0.728-1.045,0.809-1.079,1.308c-0.045,0.502,1.307,1.39,1.886,1.891&#xA;		c0,0-0.852-0.274-1.852-0.501L204.667,54.939z M119.386,162.857c0,0-1.272,0.319-3.884,2.309c-2.624,2.002-3.26,4.619-3.26,4.619&#xA;		c1.363-1.251,3.26-2.412,3.26-2.412c-0.534,0.842-0.318,1.263-1.476,3.879c-1.147,2.628-3.986,2.525-5.974,2.73&#xA;		c-1.988,0.216-5.236-2.196-5.236-2.196c-1.158,0.421-3.26,2.412-3.26,2.412c0.943-3.151,4.407-6.507,4.407-6.507&#xA;		c-1.465,0.626-4.089,2.514-4.089,2.514c-1.465-1.149-6.621-2.628-10.074-4.516c-3.464-1.888-3.044-5.563-3.044-5.563&#xA;		c0.216-2.207,2.101-5.153,2.101-5.153c-1.158,0.637-2.408,2.002-2.408,2.002c-0.034-0.432-0.023-0.808,0.011-1.16v-0.034&#xA;		c0.125-1.126,0.5-1.775,0.818-2.173c0.42-0.523,1.056-0.637,1.579-0.944c0.216-0.125,0.454-0.262,0.681-0.512&#xA;		c0.08-0.08,0.159-0.171,0.239-0.284l0.136-0.216l0.159-0.307l0.114-0.273c0.125-0.284,0.239-0.626,0.341-1.035&#xA;		c0.182-0.694,0.761-1.342,0.761-1.342c1.204-1.354,3.339-2.332,3.339-2.332c-1.113,1.399-1.249,2.878-1.261,3.185l0.034,0.011&#xA;		c2.408-3.822,6.474-3.515,6.474-3.515c-0.84,0.216-1.885,0.842-1.885,0.842s1.783,0.626,3.566,1.149&#xA;		c1.783,0.535,5.758,0.842,8.075,0.842c2.306,0,6.599,0.842,6.599,0.842c1.885-0.626,7.666-2.093,7.666-2.093&#xA;		c-1.999,1.251-5.554,3.037-5.554,3.037c7.235,3.993,1.045,12.195,1.045,12.195L119.386,162.857z M169.154,184.699&#xA;		c-1.386,2.378-3.26,2.594-3.26,2.594l0.477-0.899c-1.624,0.444-3.339-0.489-3.509-0.58c0.999,1.399,1.102,3.208,1.102,3.208&#xA;		l-0.636,1.194l2.192-0.159l-1.238,1.524c0.363,3.549-2.578,4.88-6.019,4.607c-3.43-0.262-7.587-3.811-7.587-3.811&#xA;		c0.239-1.376,2.828-5.062,2.828-5.062c-1.84,0.557-5.168,2.912-5.168,2.912c-3.146-1.957-2.499-1.297-11.46-2.537&#xA;		c-8.95-1.24-13.436-3.618-13.436-3.618c-0.045-1.638,1.17-3.606,1.17-3.606c-2.135,1.047-3.191,2.707-3.191,2.707&#xA;		c-0.761-0.557-3.373-3.083-2.351-6.643c1.011-3.549,6.269-4.095,6.269-4.095c1.715-1.388,4.304-1.411,4.463-1.411&#xA;		c-0.591,0.353-1.579,1.035-1.579,1.035c1.465-0.284,9.37,0.535,12.788,0.796c3.43,0.273,7.121,0.262,7.121,0.262l3.509-0.808&#xA;		c-1.488,0.956-5.667,3.663-6.178,3.993c2.601-1.604,8.916-2.867,8.916-2.867s1.102-0.137,2.726,0.58&#xA;		c1.613,0.717,2.317,3.356,2.317,3.356c1.397-1.376,3.725-0.557,6.11,1.923c2.396,2.48,2.487,5.096,2.487,5.096l1.136,0.307&#xA;		L169.154,184.699z M167.462,56.02c0,0,4.08,1.969,5.32,2.721c0,0-0.831-0.047-1.366,0c0,0-1.396,0.818-1.68,1.354&#xA;		c-0.298,0.535,0,2.97-1.365,4.041c-1.35,1.07-3.17,0.82-3.738,1.48c-0.579,0.66,0.329,1.571,0.329,1.571s-2.954-0.671-3.864-0.752&#xA;		c0,0,1.408,1.422,2.308,2.083c0,0-1.16-0.262-2.353-0.101c-1.195,0.169-4.897,0.454-6.875-1.106&#xA;		c-1.977-1.57-0.944-2.811-0.488-3.301c0.453-0.489,0.569-1.114-0.739-2.639c-1.319-1.527-1.113-1.527-0.863-2.345&#xA;		c0,0,4.591,0.01,6.239,0.466c0,0-4.478-2.527-6.239-2.903c0,0,0.078-0.569,1.069-1.321c0.987-0.738,2.295-1.331,2.739-3.185&#xA;		c0,0,3.315,0.635,5.203,0.92c-2.056-0.785-3.012-1.946-6.374-2.891c0,0,2.34-0.113,3.237-0.192c0,0,1.604-0.286,2.353-0.991&#xA;		c0.306-0.286,0.693-0.648,1.182-0.969c0.716-0.465,1.638-0.865,2.909-0.909c2.352-0.08,4.592,0.478,6.182,1.025&#xA;		c1.215,0.42,2.056,0.83,2.273,0.932c0,0-2.182-0.33-3.658-0.364c0,0,0.738,0.41,1.147,0.866c0,0,0.08,0.865-0.044,1.355&#xA;		c-0.116,0.499-0.365,1.241-0.08,2.059c0.284,0.832,1.113,2.674,1.238,3.334C171.464,56.258,168.94,56.054,167.462,56.02&#xA;		L167.462,56.02z M185.27,85.444c-1.865-0.387-5.09-0.66-5.09-0.66c2.408,0.934,4.214,1.638,4.214,1.638s-0.327,0.286-0.76,0.331&#xA;		c-0.443,0.057-1.216-0.433-1.865-0.331c-0.658,0.113-1.16,1.218-1.874,1.821c-0.705,0.603-1.637,0.432-1.637,0.432&#xA;		s-0.228,0.888-0.93,1.436c-0.718,0.546-1.876,0.272-3.354,0.056c-1.476-0.229-1.978-3.357-1.978-3.357&#xA;		c-1.534-1.366-3.886-2.63-3.886-2.63c0.99,0.046,2.251,0.273,2.251,0.273c-0.499-0.832-3.408-2.196-3.408-2.196&#xA;		c-0.49-0.229-1.98-1.048-1.98-1.048c1.49,0.114,6.036,1.15,6.036,1.15c-1.479-0.934-4.443-2.083-4.443-2.083&#xA;		c0.226-0.502,0.5-0.877,1.215-0.877c0.704,0,2.193,0.215,2.68-0.171c0.501-0.386,0.604-1.378,1.489-1.924&#xA;		c0.877-0.547,2.467-0.102,3.889,0.273c1.431,0.387,3.18,1.047,3.18,1.047c-1.647,0.114-3.34,0.114-3.34,0.114&#xA;		c2.022,0.49,4.001,1.481,5.863,2.63c1.909,1.183,1.16,2.312,2.751,2.914c1.59,0.603,0.978,1.16,0.978,1.16L185.27,85.444z&#xA;		 M154.712,31.138c-0.227,1.969-2.751,3.711-3.432,4.154c-0.671,0.456-1.931,1.354-2.307,2.619&#xA;		c-0.375,1.274-1.716,2.093-2.546,2.174c-0.817,0.067-1.931,1.263-1.931,1.263c1.171,0.286,2.818-0.215,3.035-0.284&#xA;		c-0.171,0.149-1.591,1.298-2.218,1.787c-0.669,0.523-2.907,1.048-3.725,0.968l-4.183-0.068c-2.544-0.081-5.454-0.307-6.329-1.912&#xA;		c-0.829-1.527-1.182-1.572-1.216-1.572c-1.794,0.82-5.522,0.787-5.522,0.787c3.591-1.491,6.659-4.861,6.659-4.861&#xA;		c-1.932,0.82-4.125,1.149-4.125,1.149c-0.308-0.523-0.365-1.069-0.295-2.196c0.081-1.115,1.124-1.72,1.124-1.72&#xA;		s0.069-0.59,0.818-1.571c0.751-0.967,3.285-2.309,4.706-2.39c1.42-0.08,3.203-0.818,4.181-1.49&#xA;		c0.967-0.672,4.398-2.094,6.114-1.948c1.715,0.149,2.399,0.445,2.399,0.445c0.967-0.068,3.124-0.445,3.124-0.445&#xA;		c-2.829,2.243-4.625,3.064-4.625,3.064c3.283-0.377,6.124-1.719,6.124-1.719c3.354,0.228,4.399,1.799,4.172,3.767L154.712,31.138z&#xA;		 M197.395,28.247c-0.149,1.069-0.909,3.813-2.352,4.429c-1.456,0.602-1.842,0.716-1.842,0.716v3.176c0,0-2.159-1.935-2.612-2.55&#xA;		c0,0-0.58,0.024-2.103-0.204s-3.353,2.367-6.17,2.141c0,0-4.638-0.992-5.399-2.904c-0.76-1.901-0.465-3.505-0.157-4.04&#xA;		c0,0,1.601,2.059,2.737,2.662c0,0-1.056-2.434-1.056-3.96c0,0,0.91-0.683,1.056-1.378c0.159-0.683,1.911-1.753,2.978-1.981&#xA;		c1.068-0.229,2.114,0.228,2.114,0.228s1.25,2.846,2.16,3.916c0,0-0.387-5.589,0.067-7.569c0,0,1.16,2.573,1.774,3.414&#xA;		c0,0,1.272-0.135,3.102-0.443c1.831-0.307,3.421-0.149,4.488,0.91c1.068,1.07,1.375,2.367,1.216,3.438L197.395,28.247z&#xA;		 M139.36,72.059c-0.433-0.035-2.934-0.24-4.433-0.047c0,0-0.932,0.934-1.977,0.99c-1.045,0.057-1.261,0.832-1.045,1.434&#xA;		c0.227,0.602,1.272,2.801-0.047,4.338c-1.317,1.536-4.385,1.012-4.385,1.012s-3.08,2.288-6.454,1.787&#xA;		c-3.377-0.501-6.058-1.787-6.058-1.787s-3.068-0.695-4.762-1.594c0,0,4.172,0.398,7.444,0.205c0,0-3.512-1.081-4.535-2.333&#xA;		c0,0,1.194-0.751,0.979-1.843c-0.228-1.106-0.558-2.643-0.057-3.519c0,0,3.069,1.48,4.602,1.867c0,0-1.967-1.651-2.683-3.131&#xA;		c0,0,1.319,0,2.524-0.99c1.204-0.99,2.49-2.765,4.728-2.731c0,0,1.035-1.059,2.08-1.287c1.034-0.216,1.908-0.216,1.908-0.216&#xA;		s1.215,0.546,3.295,0.933c0,0-2.794-1.867-3.455-2.685c0,0,1.263,0.432,2.308,0.375c0,0,1.147-0.33,3.011,0.171&#xA;		c1.865,0.489,3.126,1.924,3.126,3.129c0,1.208-1.693,2.801-1.09,3.847c0.558,0.957,4.419,1.935,4.978,2.073L139.36,72.059z"/>
	<path fill="#FFFFFE" d="M255.544,80.811c-0.069,1.127-0.819,1.811-1.817,1.811c-0.285,0-0.592-0.069-0.876-0.172&#xA;		c-0.092,0-2.136-1.252-2.295-1.376c-0.786-0.614-1.523-1.298-2.343-1.879c-1.339-0.943-3.111-2.288-4.784-2.673&#xA;		c1.024,0.193,5.026,0.978,7.374,1.604c1.185,0.308,2.285,0.614,3.365,0.911c0,0,1.445,0.637,1.375,1.775L255.544,80.811z&#xA;		 M250.203,93.639c2.512,1.32,5.229,2.959,7.206,4.2c0.965,0.58,1.907,1.198,2.842,1.822l-0.626-0.217&#xA;		c-1.944-0.683-5.249-1.787-7.922-2.471c-0.614-0.169-1.182-0.306-1.705-0.408c-4.034-0.809-6.989-0.672-6.989-0.672&#xA;		s1.75-0.672,2.82-1.218c0,0-6.853,0.274-14.387-1.206s-17.217-7.41-20.717-12.122c0,0,2.421,0.671,4.308,0.535&#xA;		c0,0-3.977-4.302-4.875-7.216c0,0.011,1.158-0.114,1.238-0.126c1.011-0.068,2.035-0.102,3.045-0.068&#xA;		c0.75,0.022,1.547,0.081,2.342,0.206c0.078,0.011,0.179,0.101,0.261,0.182c1.273,1.273,2.977,2.14,4.443,3.175&#xA;		c3.09,2.197,6.342,4.2,9.613,6.101c2.42,1.4,4.876,2.744,7.378,4.018c4.01,1.595,7.919,3.472,11.725,5.487L250.203,93.639z&#xA;		 M213.146,69.678c-2.887,0.877-5.843,1.788-8.491,3.268c-1.817,1.014-4.793,3.574-5.089,3.823l-0.011,0.013h-0.012l-0.055,0.011&#xA;		l-0.161,0.124l0.102-0.101l0.308-0.626c7.557-13.569,26.454-17.04,26.454-17.04c-1.952-2.732-4.261-4.224-4.261-4.224&#xA;		c2.546-0.899,5.739-0.341,6.968-0.068c0.363,1.594,0.135,3.21,0.135,3.21l-0.819,0.25c0.74,0.899,2.137,1.56,2.706,2.061&#xA;		c0.545,0.454,1.011,1.582,1.068,1.718c-0.171-0.114-1.511-0.979-1.967-1.059c-0.452-0.08-0.954-0.751-1.055-0.887&#xA;		c0.057,0.205,0.613,1.844,1.466,2.619c0.909,0.818,3.942,2.309,5.59,3.05c1.649,0.741,2.558,1.797,2.558,1.797&#xA;		c1.022-0.238-0.797-2.105-0.978-2.287c0.897,0.25,2.49,1.274,2.49,1.274c-0.136-0.614,0.467-2.026,0.135-2.937&#xA;		c-0.329-0.898-2.387-2.798-3.045-3.367c-0.66-0.581-1.022-2.073-0.91-2.722c0.353-2.014,0.954-2.8,0.954-2.8&#xA;		c0.274-0.342,0.931-1.001,1.229-1.298c0.999,0.138,3.135,0.432,4.169,0.684l-0.057-0.046l-0.023-0.01l-0.102-0.081l-0.024-0.022&#xA;		l-0.1-0.069l-0.148-0.102l-0.116-0.09l-0.304-0.218l-0.023-0.01l-0.4-0.273l-0.101-0.068l-0.319-0.217l-0.145-0.09l-0.308-0.206&#xA;		l-0.148-0.09l-0.444-0.274c5.377-3.893,12.933-3.04,12.933-3.04c2.057,1.412,2.704,3.335,2.704,3.335&#xA;		c-1.123-0.853-2.545-1.661-2.545-1.661c-0.761,0.546-1.012,1.479-1.613,2.39c-0.616,0.91-1.512,1.809-4.421,3.22&#xA;		c-2.9,1.412-2.591,3.029-2.591,3.029l-2.285,0.124c1.671,0.375,4.396,2.743,4.396,2.743c-0.828-0.331-2.555-0.455-2.555-0.455&#xA;		c-0.33,1.434,1.137,2.561,1.865,3.177c0.727,0.626,1.488,2.48,1.488,2.48c-0.751-0.047-1.455,0.068-1.455,0.068&#xA;		s2.102,0.762,2.761,1.309c0.661,0.535,3.49,0.761,3.49,0.761c0.398-0.92-0.522-2.139-0.522-2.139&#xA;		c-1.615-0.809-2.068-2.72-2.068-2.72c0.895,0.694,1.884,1.115,1.884,1.115s-0.09-1.605,1.059-3.722&#xA;		c0.352-0.66,0.876-1.275,1.444-1.821v0.172c0,2.093,1.511,6.476,4.727,9.105c4.168,3.414,11.93,6.829,11.93,6.829&#xA;		c-0.373-1.321-0.191-3.027-0.191-3.027c1.137,1.888,3.604,4.735,7.385,6.829c0.242,0.138,0.5,0.262,0.775,0.388&#xA;		c1.17,0.557,2.704,1.216,4.237,1.82c1.114,0.439,2.374,0.834,3.342,1.102l-0.701-0.143c-1.258-0.267-2.511-0.568-3.755-0.902&#xA;		c-9.76-2.618-18.523-7.568-28.045-10.802c-9.784-3.323-20.217-5.086-30.764-4.085C219.658,68.073,216.146,68.779,213.146,69.678&#xA;		L213.146,69.678z"/>
</g>
</svg>