<?xml version="1.0" encoding="utf-8"?>
<svg xmlns="http://www.w3.org/2000/svg" xmlns:xlink="http://www.w3.org/1999/xlink" version="1.1" id="Layer_1" x="0px" y="0px" viewBox="0 0 459.937 330.169" enable-background="new 0 0 459.937 330.169">
<g>
	<g transform="translate(20 84.996)">
		<path fill="#003594" d="M383.853-28.916c-62.97-62.99-161.07-74.213-236.639-27.073l0,0&#xA;			C126.38-42.168,108.337-24.545,94.029-4.043c-0.05,0.06-0.102,0.119-0.154,0.179H54.414L-20,164.505h96.542&#xA;			c13.961,26.025,35.115,47.483,60.938,61.815c49.258,27.108,109.45,24.843,156.531-5.891c5.448-3.567,7.925-10.275,6.103-16.527&#xA;			c-1.822-6.252-7.516-10.578-14.028-10.659c-1.473,0.002-2.937,0.22-4.347,0.646c-9.623,2.89-19.617,4.353-29.664,4.343&#xA;			c-28.91,0.069-56.475-12.201-75.772-33.727h90.153l15.483-21.573l60.094,0.006c0,0-1.829,4.65-2.833,6.926l-6.453,14.647H431.1&#xA;			l2.094-7.696C451.259,90.536,432.43,19.658,383.853-28.916z M423.122,154.073h-74.374c3.082-6.989,5.628-14.202,7.615-21.577&#xA;			h-79.862L261.1,154.073h-71.59L296.544,4.13l-0.012-0.005c-14.108-5.764-29.214-8.688-44.453-8.604&#xA;			c-1.945,0-3.878,0.05-5.796,0.149c-58.066,2.925-104.373,49.542-104.373,106.422c0,3.695,0.196,7.388,0.589,11.062h63.228&#xA;			l-18.828,26.492c-5.941,7.989-13.816,14.421-25.822,14.421h-5.154c18.877,32.552,54.907,54.594,96.161,54.594&#xA;			c11.067,0.011,22.075-1.601,32.674-4.785c0.431-0.133,0.88-0.202,1.332-0.205c1.897,0.078,3.526,1.373,4.031,3.202&#xA;			c0.505,1.83-0.229,3.776-1.817,4.817c-34.214,22.336-76.405,28.817-115.745,17.779c-39.341-11.038-72.002-38.52-89.603-75.395&#xA;			H-3.978L61.211,6.578h37.667c26.099-33.91,66.13-54.203,108.909-55.208c1.024-0.022,2.06-0.033,3.083-0.033&#xA;			c60.286,0,110.85,36.073,131.322,89.138l-37.066,51.931h56.437c-0.23-50.35-25.46-97.296-67.324-125.271&#xA;			s-94.89-33.323-141.497-14.272c63.196-39.391,144.068-36.059,203.808,8.398S442.706,82.227,423.122,154.073z M213.341,102.717&#xA;			h-60.985c0-0.205-0.015-0.415-0.015-0.624c0-51.164,41.492-93.334,94.471-96.002c1.764-0.09,3.535-0.135,5.263-0.135&#xA;			c9.374-0.01,18.71,1.2,27.772,3.598L213.341,102.717z M345.575,53.853c2.656,9.17,4.369,18.586,5.111,28.104h-25.163&#xA;			L345.575,53.853z"/>
		
			<linearGradient id="SVGID_1_" gradientUnits="userSpaceOnUse" x1="-745.9384" y1="619.744" x2="-745.9384" y2="618.744" gradientTransform="matrix(276.7725 0 0 -228.6273 206746.3438 141615.8281)">
			<stop offset="0.217" style="stop-color:#FFD100"/>
			<stop offset="0.296" style="stop-color:#FFD724"/>
			<stop offset="0.474" style="stop-color:#FFE87F"/>
			<stop offset="0.707" style="stop-color:#FFFFFF"/>
		</linearGradient>
		<path fill="url(#SVGID_1_)" d="M152.741-47.137c57.15-23.362,122.761-9.706,165.842,34.52s55.015,110.171,30.164,166.69h74.374&#xA;			c19.603-71.85-6.809-148.372-66.556-192.834S215.935-86.548,152.741-47.137"/>
		<path fill="#D7D2CB" d="M342.175,40.495l-14.316,20.061c-13.725-14.111-32.58-22.063-52.265-22.042&#xA;			c-1.229,0-2.448,0.031-3.658,0.092L296.543,4.13C314.894,11.679,330.721,24.291,342.175,40.495z M356.363,132.496&#xA;			c3.461-12.866,5.209-26.133,5.199-39.457c0-0.214,0-0.428,0-0.642h-15.477c3.567,13.153,3.389,27.041-0.512,40.098&#xA;			L356.363,132.496z"/>
		<path fill="#FFD100" d="M288.296,211.697c-43.848,28.617-99.902,30.727-145.776,5.486l0,0&#xA;			c-11.321-14.27-19.679-30.657-24.583-48.2c15.842-0.737,38.785,0.632,55.744,7.921c20.958,20.456,49.112,31.863,78.398,31.765&#xA;			c11.067,0.011,22.075-1.601,32.674-4.785c0.431-0.133,0.88-0.202,1.332-0.205c1.896,0.079,3.524,1.374,4.029,3.203&#xA;			S289.884,210.657,288.296,211.697z M142.491,113.162c-0.394-3.674-0.591-7.367-0.59-11.062&#xA;			c0-56.885,46.311-103.502,104.378-106.422c-67.32,2.739-122.452,52.915-131.861,117.49L142.491,113.162z"/>
		<path fill="#FFA300" d="M155.914,154.073h-41.233c0.801,5.028,1.887,10.007,3.252,14.912l0,0&#xA;			c15.842-0.737,38.785,0.632,55.744,7.921C166.756,170.129,160.781,162.449,155.914,154.073z"/>
		<path fill="#FF8200" d="M82.953,154.073c5.141,10.747,11.616,20.804,19.272,29.932c3.999-6.159,9.377-11.302,15.709-15.02&#xA;			c-1.365-4.905-2.451-9.884-3.252-14.912H82.953z"/>
		
			<linearGradient id="SVGID_00000161626180611523236200000005185208586790784156_" gradientUnits="userSpaceOnUse" x1="-746.3356" y1="619.4209" x2="-745.3356" y2="619.4209" gradientTransform="matrix(266.1014 0 0 -265.8454 198677.0625 164754.4531)">
			<stop offset="0" style="stop-color:#FFA300"/>
			<stop offset="0.134" style="stop-color:#FFA800"/>
			<stop offset="0.289" style="stop-color:#FFB600"/>
			<stop offset="0.453" style="stop-color:#FFCD00"/>
			<stop offset="0.478" style="stop-color:#FFD100"/>
		</linearGradient>
		<path fill="url(#SVGID_00000161626180611523236200000005185208586790784156_)" d="M296.531,4.125&#xA;			c-14.108-5.764-29.214-8.688-44.453-8.604c-1.945,0-3.878,0.05-5.796,0.149c-67.319,2.739-122.451,52.915-131.859,117.49H76.091&#xA;			L123.306,6.578H98.878c26.099-33.91,66.13-54.203,108.909-55.208c1.024-0.022,2.06-0.033,3.083-0.033&#xA;			c60.286,0,110.851,36.073,131.323,89.138l-0.016,0.024C330.72,24.289,314.889,11.673,296.531,4.125z M117.933,168.982&#xA;			L117.933,168.982c-6.332,3.718-11.711,8.861-15.709,15.02c11.272,13.449,24.933,24.698,40.294,33.18&#xA;			c-11.321-14.27-19.679-30.657-24.583-48.2H117.933z"/>
		<path fill="#FFFFFF" d="M348.635,111.551c0,7.093-1.03,14.149-3.061,20.945h-69.074L261.1,154.073h-71.59l82.426-115.468&#xA;			c1.212-0.059,2.431-0.09,3.658-0.092c19.685-0.021,38.54,7.931,52.265,22.042l-22.734,31.847h40.959&#xA;			C347.777,98.644,348.635,105.083,348.635,111.551L348.635,111.551z M61.211,6.578l-65.19,147.495h165.047&#xA;			c12.005,0,19.885-6.427,25.822-14.422l18.828-26.491H76.091L123.306,6.578H61.211z"/>
	</g>
</g>
</svg>