<?xml version="1.0" encoding="utf-8"?>
<svg xmlns="http://www.w3.org/2000/svg" xmlns:xlink="http://www.w3.org/1999/xlink" version="1.1" id="Layer_1" x="0px" y="0px" viewBox="0 0 479.699 211.524" enable-background="new 0 0 479.699 211.524">
<g>
	<g transform="translate(10 144)">
		<path fill-rule="evenodd" clip-rule="evenodd" fill="#FFFFFF" d="M468.716,67.524c-26.598-35.822-73.022-79.578-128.33-104.143&#xA;			l11.296,26.026c-47.03-23.686-99.308-40.689-158.57-40.42l12.63,13.674C96.273-33.05,32.052,21.233-10,67.524&#xA;			C-9.016,4.845,35.894-51.759,95.061-86.315L82.883-97.62c44.034-30.477,105.793-39.028,157.919-33.008L233.39-144&#xA;			C406.065-131.168,479.205-2.3,468.716,67.524"/>
		<path fill-rule="evenodd" clip-rule="evenodd" fill="#0080C6" d="M192.304-42.631l-13.267-14.365&#xA;			c50.278-1.672,101.107,5.898,160.235,33.69l-10.893-25.1c44.515,17.246,93.837,49.439,135.194,99.372&#xA;			c-3.642-75.608-79.999-173.58-218.881-187.59l7.722,13.931c-56.133-9.536-119.203,0.388-159.341,25.981l12.552,11.65&#xA;			C45.209-52.66,5.521-1.118-2.998,50.966C46.868-1.118,111.699-37.092,192.304-42.631"/>
		<path fill-rule="evenodd" clip-rule="evenodd" fill="#FFC20E" d="M441.901,10.375c-23.534-63.346-94.317-117.962-173.776-131.036&#xA;			l9.333,16.633c-47.858-14.804-117.404-13.908-163.12,9.947l13.113,12.172C85.55-63.953,41.338-25.5,23.838,9.833&#xA;			C52.537-16.054,114.977-46.019,166.2-52.386l-12.728-13.782c49.229-9.758,114.841-0.1,161.617,18.893l-9.074-20.909&#xA;			C340.465-61.122,404.487-30.341,441.901,10.375"/>
	</g>
</g>
</svg>