<?xml version="1.0" encoding="utf-8"?>
<svg xmlns="http://www.w3.org/2000/svg" xmlns:xlink="http://www.w3.org/1999/xlink" version="1.1" id="Layer_1" x="0px" y="0px" viewBox="0 0 369.569 392.615" enable-background="new 0 0 369.569 392.615">
<g>
	<path fill="#231F20" d="M190.322,255.204c0.177,0.097-0.02,0.277,0.065,0.337c0.089,0.068,0.234,0.057,0.346-0.029&#xA;		c-0.166-0.031-0.012-0.149-0.06-0.217C190.579,255.139,190.433,255.25,190.322,255.204"/>
	<path fill="#FFFFFF" d="M185.178,0C135.005,45.474,69.493,44.114,2.213,35.653c-14.512,164.821,41.941,327.501,181.897,356.962&#xA;		C325.404,364.29,381.203,201.92,367.578,37.025C304.949,43.339,240.043,45.902,185.178,0 M185.178,0&#xA;		C135.005,45.474,69.493,44.114,2.213,35.653c-14.512,164.821,41.941,327.501,181.897,356.962&#xA;		C325.404,364.29,381.203,201.92,367.578,37.025C304.949,43.339,240.043,45.902,185.178,0"/>
	<path fill="#FFFFFF" d="M185.178,0C135.005,45.474,69.493,44.114,2.213,35.653c-14.512,164.821,41.941,327.501,181.897,356.962&#xA;		C325.404,364.29,381.203,201.92,367.578,37.025C304.949,43.339,240.043,45.902,185.178,0L185.178,0z"/>
	<path fill="#0A0A09" d="M184.951,16.067C143.126,50.081,77.161,58.522,14.169,49.316C4.776,199.618,53.798,346.483,183.676,380.372&#xA;		C313.734,347.188,364.128,200.97,355.551,50.623C291.284,57.855,226.588,50.307,184.951,16.067"/>
	<path fill="#FFFFFF" d="M234.95,275.14c-1.523,4.625-3.901,9.207-5.292,11.269c0,0,1.95,3.525,2.626,6.979&#xA;		c10.1,7.776,21.241,15.073,49.597,8.161c-5.053-1.548-36.717-17.324-44.867-25.012l-2.065-1.396 M130.505,279.486&#xA;		c0,0,4.734,7.511,6.399,8.46c0,0,2.039,1.814,1.278,8.189c-11.398,8.528-39.249,11.983-53.377,6.436&#xA;		c0,0,34.077-13.436,43.501-21.923l2.198-1.163 M218.79,276.793c-0.659,0.71-1.229,1.452-1.947,2.12&#xA;		c-0.257,0.24-0.47,0.669-0.799,0.915c-0.792,0.599-1.497,1.155-2.353,1.703c-0.873,0.556-1.494,2.07-0.749,2.738&#xA;		c0.638,0.573,1.87,1.191,2.666-0.015c0.431-0.647,1.355-0.78,1.873-1.24c1.466-1.311,2.527-3.056,2.909-5.073&#xA;		c0.137-0.71-0.462-1.046-0.938-1.542c0.12,0.565-0.636,0.396-0.684,0.821l0.022-0.426 M146.514,278.845&#xA;		c0.812,2.258,2.712,3.225,3.282,4.134c0.898,1.444,1.318,2.967,2.19,4.346c-1.485,0.845-2.623,3.24-4.08,2.515&#xA;		c-0.736-0.361-0.958-1.933-1.4-3.039c-1.115-2.797,0.445-5.111,0.009-7.956"/>
	<path fill="#C8C7C7" d="M173.675,118.912c-17.079,0-34.728,4.271-40.037,20.603c0,0-8.994,32.885-8.413,38.041&#xA;		c-4.779,1.455-14.428,6.084-11.532,32.32c0,0,10.351,47.147,14.997,56.369l2.985,0.162c0,0,2.715-2.849,2.219,6.525&#xA;		c0,0-1.569,5.475,3.393,8.735c0,0,1.925-7.903,3.208,4.014c0.248,11.555,3.884,23.722,20.783,35.723c0,0,7.969-5.136,8.842-5.518&#xA;		c0,0-11.737-4.466-17.794-11.198c0,0,1.703,8.213-5.073-1.12c0,0-3.256-3.164-5.121-24.641c0.159-2.982-0.248-3.434-2.647-6.553&#xA;		c-9.325-18.995-16.725-62.818,0.782-79.041c18.444-1.174,62.472-2.156,78.991,0.855c6.758,1.632,10.078,3.805,11.604,15.431&#xA;		c3.29,14.706,1.104,44.102-6.544,67.639c0,0-1.124,5.073-3.815,7.497c-2.202,1.164-10.189,6.733-14.047,15.084&#xA;		c-1.437,2.915-4.58,5.738-9.829,8.033c-5.295,3.14-24.8,8.101-17.122,16.628c0,0-2.215,1.001-6.122,2.079&#xA;		c0,0,1.035,4.758,3.213,4.017c0,0,3.926-1.5,5.338-3.995c11.472,1.458,26.147-1.192,35.121-9.27&#xA;		c3.547-2.378,10.129-5.492,10.898-11.664c0,0,3.795-7.069-2.424-18.937c2.356-4.156,6.194-12.078,5.655-18.094&#xA;		c0.226-0.332,20.078-23.081,22.482-54.366c0,0-2.78-18.427-1.993-0.855c0,0-0.245,3.073-1.993,11.961c0,0-3.713,13.631-1.707,0.568&#xA;		c0,0,0.741-20.768-1.706-39.289c0,0-0.621-6.895,3.131,3.133c0.505,1.848-0.569-2.277-0.569-2.277s1.805,12.663,2.275,3.704&#xA;		c-2.275-10.529-2.849-13.098-5.98-14.235c-1.946-15.484-7.686-30.458-7.686-30.458l-1.42,1.706&#xA;		c5.253,14.62,8.678,63.204,7.4,77.149c0,0-3.367,27.476-6.262,25.622c0,0,4.663-46.368,2.57-63.579&#xA;		c-0.987-21.859-4.132-27.155-5.389-35.773c0,0-6.924-18.039,0.257-8.256l0.855-0.57c-6.129-15.701-15.373-23.343-43.27-23.912&#xA;		l3.812,68.226l-25.091,0.086l2.775-68.312"/>
	<path fill="#FFFFFF" d="M141.921,207.976c-0.128-0.007,5.595-0.95,5.509-0.95c6.176,0.028,20.719-0.068,23.864,1.172&#xA;		c1.612,0.633,4.44-0.847,5.843-1.403c5.244-2.077,5.898-2.527,11.424-5.815c0.904-0.541,7.408-4.457,6.228-4.587&#xA;		c-15.094-1.651-45.879-1.463-51.957,0.353c0,0-2.563,0.426-3.285,1.23c-2.875,3.208-2.267,3.465-4.266,7.901&#xA;		c1.3-2.888-0.684,3.648-0.859,4.23c-0.518,1.685,2.365,1.601,2.946,0.795c1.061-1.466,1.266-3.148,4.551-2.926 M226.148,254.695&#xA;		c-0.69,3.248-1.1,6.613-2.221,9.72c-1.039,2.866-1.54,4.832-5.119,7.853c-0.741-6.238-2.503-9.326-2.165-11.662&#xA;		c-2.404,0.941-2.079,4.517-2.335,7.79c-0.407,5.213,1.004,9.042,0.676,7.516c0.158,0.725-1.813,2.162-2.523,3.292&#xA;		c-2.233,3.535-4.702,6.826-7.734,9.686c-0.453,0.426-0.565,1.29-1.04,1.497c-1.671,0.717-2.108,1.805-3.088,2.941&#xA;		c-0.799,0.933-2.92,1.668-4.02,2.267c-0.693,0.385-2.792,0.95-3.362,1.071c-1.269,0.257-2.424,0.212-4.341,0.111&#xA;		c-1.853-0.094-4.38-2.375-6.373-2.859c-5.805-1.42-7.16,3.833-16.186,1.893c-3.721-0.801-4.471-3.29-6.798-5.922&#xA;		c-0.453-0.513-2.672-3.206-3.02-3.585c0.941,1.01-6.189-5.697-7.554-10.863c-1.523-5.783-0.739-6.245-0.055-11.123&#xA;		c0.257-1.831-0.091-6.425-1.784-6.724c-1.583,1.625-0.44,2.738-0.911,5.081c-0.453,2.286,1.655,2.38,0.035,7.487&#xA;		c-0.462,1.463-1.258,1.102-1.716,0.123c-1.689-3.632-0.816-11.503-4.637-14.572c-0.881-0.703-0.933-2.832-0.192-3.39&#xA;		c1.167-0.881,2.327,0.513,3.841,0.162c0.265-0.058,0.102-1.899-0.103-2.138c-1.254-1.472-4.029-0.868-4.003-1.07&#xA;		c0.368-2.967,0.311-5.638-0.698-7.09c-1.395-1.995-3.434-2.335-4.264-4.286c-1.759-4.125-1.155-6.478-1.314-7.556&#xA;		c-0.214-1.455-0.565-3.815-0.145-5.347c-0.423,0.094-0.26-3.422-0.24-3.651c0.261-2.575,0.718-2.43,1.112-4.859&#xA;		c0.077-1.491,3.761-2.367,3.795,1.061c-0.904,4.511,0.44,8.067,0.559,12.627c0.014,0.548,0.912,1.073,1.519,1.247&#xA;		c9.935,2.849,17.375,1.754,27.255,1.557c2.644-0.049,4.235-3.352,4.799-5.944c0.936-4.269,0.941-5.725,0.975-10.425&#xA;		c0.496-1.252,1.651-0.912,2.558,0.134c1.694,1.95,0.38,2.676,0.799,5.174c0.325,1.944-2.176,4.799-2.176,4.799&#xA;		c0.283,0.017-0.847,6.587-0.561,6.601c0.51,0.029-0.38,5.897-0.517,5.745c-0.382,3.189,1.817,2.017,1.484,4.352&#xA;		c-0.055,1.071-0.602,2.55-0.573,2.748c0.316,2.156-4.495,1.692-3.725,1.731c-1.066-0.055-1.896-0.525-1.853-1.382&#xA;		c0.065-1.215-0.268-2.125-0.257-3.215c-2.347-0.128-1.377,1.76-1.505,4.19c-0.055,1.07,0.646,1.968,2.447,2.269&#xA;		c1.908,0.315,2.109,0.537,2.999-0.051c0.462-0.318,1.976-0.652,2.211-1.386c0.887,3.471,1.93,3.95,4.497,3.873&#xA;		c1.099-0.034,3.614,0.402,4.603-2.113c0.248-0.631,1.954-0.537,2.198-1.162c4.444,0.871,1.723,2.686,7.112,0.953&#xA;		c1.625-0.517,2.952-2.858,1.549-4.709c-0.166-0.223-1.039-0.205-1.056-0.088c-0.59,4.637-2.409,3.268-4.149,3.167&#xA;		c-5.72-0.336-2.635-2.705-7.485,0.032c-0.573,0.325-2.275,2.66-4.534,0.83c-3.063-2.729,0.248-4.688,0.619-7.665&#xA;		c0.334-2.702,0.205-11.205,0.077-13.679c-0.299-5.826,1.189-2.284,2.178-4.799c-0.835,0.207-0.39-7.135-0.462-7.509&#xA;		c-0.505-2.592-3.559-1.588-4.354-2.575c0,0-0.356-2.045,0.111-2.139c3.456-0.669,7.831-2.577,10.979-4.123&#xA;		c7.272-3.576,11.366-5.8,14.885-7.984c1.044-0.648,1.472-2.028,2.033-2.034c6.63-0.077,13.024-1.417,18.918,1.855&#xA;		c4.12,2.286,5.115,4.543,6.193,8.443c-0.474,0.077,0.394,4.166,0.407,4.519c0.077,2.565-0.057,7.252-0.026,8.545&#xA;		c0.2,8.469,0.685,11.371-0.47,17.08c-0.009,0.051-0.89,2.091-1.177,2.074c-0.696,1.035-1.899,2.566-3.323,3.766&#xA;		c-0.45,0.374-0.257,1.625,0.06,1.409c0.885-0.599,2.613-0.932,3.927-1.504c-0.043,3.625-0.416,7.888-1.266,11.906"/>
	<path fill="#0A0A09" d="M214.597,214.111c0.154,0.005-2.258-1.83-4.334-3.011c-0.953-0.537-4.919,2.156-5.889,2.258&#xA;		c-4.086,0.428-6.433,0.635-10.745,0.746c-1.057,0.024-2.583,0.041-3.217-0.943c-0.393-0.607-0.33-1.777,0.124-2.359&#xA;		c1.305-1.67,3.858,1.175,5.429-3.054c-0.008,0.015,4.871-0.202,6.365-0.27c5.102-0.234,12.622-0.194,11.951,0.414&#xA;		c0.616-0.556,1.6,2.207,2.626,2.917c1.92,1.326,1.372-0.431,2.233,2.255l-0.056,1.064c-0.018,0.284-0.363,1.548-0.517,1.687&#xA;		c-0.154,0.135-2.036-0.541-2.324-0.548C216.388,215.267,214.452,214.104,214.597,214.111 M190.046,217.524&#xA;		c2.977-1.737-2.233-2.257-1.314,2.866c-0.081-0.479,0.971-0.154,1.061-0.385C189.93,219.654,189.999,218.373,190.046,217.524&#xA;		 M187.08,229.124c0.676,3.456,0.06,2.994-0.325,6.182c-0.342,2.888,2.122,3.554,2.122,0.325&#xA;		C188.877,223.446,188.056,226.825,187.08,229.124 M221.018,246.576c-0.286,0.669-0.731,0.71-1.287,1.074&#xA;		c-0.419,0.277-0.89,0.887-0.676,1.343c0.111,0.234,0.616,0.465,0.953,0.459c0.364-0.011,0.707-0.447,0.83-0.772&#xA;		c0.245-0.631,0.145-1.395,0.18-2.105 M190.354,242.127c0.414,0.028,0.773-0.294,0.795-0.708c0.021-0.419-0.299-0.772-0.715-0.797&#xA;		c-0.419-0.024-0.773,0.299-0.795,0.718C189.618,241.753,189.939,242.11,190.354,242.127 M217.296,221.85&#xA;		c-1.098,0.551-2.062,0.431-3.114,1.021c1.643-0.915-8.88-1.497-4.905-1.129c-2.828-0.263-5.138-0.871-8.081-0.854l-0.548,0.289&#xA;		c-1.463,0.342-2.228-0.787-3.323-1.497c-0.767-0.486-1.446,0.028-2.152-0.072c0.15-0.279-0.252-0.459-0.145-0.629&#xA;		c0.18-0.291,0.681-0.443,0.869-0.471c1.266-0.162,2.741-0.051,3.952-0.47c4.26-1.48,7.583,0.548,11.951,0.411&#xA;		c1.372-0.041,3.263-0.315,4.551,0.59c0.26,0.19,0.257,0.633,0.449,0.779c0.573,0.427,1.6,0.167,1.933,0.523&#xA;		c0.684,0.725-0.676,1.127-1.438,1.509 M213.114,228.03c-0.274-0.058-0.38-0.419-0.616-0.419c-2.484,0-4.705-0.64-6.998-1.621&#xA;		c-0.782-0.337-1.54,0.277-2.356,0.38c-1.078,0.145-2.212-0.298-3.145,0.036c-0.679,0.238-1.269,1.261-0.693,1.583&#xA;		c0.878,0.486,2.307,0.409,3.456-0.364c1.339-0.898,3.028-0.602,4.599-0.234c0.419,0.092,0.838,0.385,1.275,0.366&#xA;		C210.162,227.699,211.613,228.135,213.114,228.03 M197.3,223.994c0.051-0.344-0.59-0.25-0.399-0.659&#xA;		c-1.039-0.301-1.997,0.631-2.989,0.223c-0.561-0.223-0.904-0.815-1.455-1.1c-0.042,0.809-0.342,1.928,0.36,2.236&#xA;		c1.411,0.618,2.951-1.172,4.452-0.274C197.277,224.28,197.274,224.14,197.3,223.994"/>
	<path fill="#FFFFFF" d="M112.83,161.293l-9.248,9.139c0,0,8.101,12.613,9.145,13.095c1.66-3.123,4.457-7.458,8.101-7.697&#xA;		l0.671-4.671L112.83,161.293 M78.612,124.867l4.914,0.045c6.468,7.176,22.47,28.118,22.47,28.118l-2.447,5.857&#xA;		c6.257-5.23,9.859-8.674,12.173-11.973c4.534-4.893,8.606-1.044,5.016,2.187c-2.378,4.58-13.768,13.813-21.159,20.272&#xA;		c-21.096,18.983-60.979-11.332-27.586-40.577l6.618-3.927"/>
	<path fill="#0A0A09" d="M72.25,136.074c3.658-4.508,6.947-1.983,4.029,0.642c-2.202,1.985,1.939,6.45,4.633,5.374&#xA;		c2.142-0.852,4.7,2.565,4.076,3.85c-1.66,3.395,1.519,6.941,3.974,5.766c1.352-0.647,4.187,1.598,3.229,3.593&#xA;		c-1.454,3.018,1.537,6.431,4.882,4.748c3.579-1.816,1.552,3.069,1.552,3.069c-18.122,15.296-44.596-13.884-26.374-27.042"/>
	<path fill="#FFFFFF" d="M74.149,129.437c3.208,0.17,5.942-2.294,6.108-5.503c0.171-3.203-2.293-5.938-5.495-6.104&#xA;		c-3.208-0.171-5.942,2.293-6.114,5.497C68.483,126.531,70.947,129.264,74.149,129.437"/>
	<path fill="#0A0A09" d="M76.088,120.031c3.533,1.897,0.482,7.078-1.839,6.531c-2.503-0.588-0.587-1.102-0.587-1.102&#xA;		c2.335,0.34,4.457-3.4,1.528-4.623C74.077,120.374,76.087,120.031,76.088,120.031"/>
	<path fill="#FFFFFF" d="M285.94,125.057l-4.91,0.195c-6.236,7.383-21.575,28.806-21.575,28.806l2.627,5.781&#xA;		c-6.42-5.03-10.129-8.362-12.545-11.587c-4.68-4.753-8.632-0.775-4.945,2.341c2.524,4.508,14.192,13.378,21.789,19.599&#xA;		c21.672,18.314,60.665-15.101,26.374-43.287L285.94,125.057"/>
	<path fill="#0A0A09" d="M293.349,133.679c-3.04-3.157-5.487-1.358-4.631,1.275c0.967,2.953-2.703,8.556-4.539,7.391&#xA;		c-2.424-1.538-4.863,2.523-3.953,3.969c1.519,2.421-1.403,7.196-3.79,5.894c-1.318-0.719-4.021,1.916-3.117,3.687&#xA;		c1.509,2.962-1.725,5.665-4.731,4.899c-3.884-0.998-1.451,3.119-1.451,3.119c18.589,14.721,44.835-17.659,26.212-30.235"/>
	<path fill="#FFFFFF" d="M290.62,127.616c-3.2,0.263-6.086-0.24-6.356-3.436c-0.265-3.198,2.187-7.881,5.386-8.151&#xA;		c3.194-0.269,6.005,2.109,6.274,5.309c0.27,3.196-2.104,6.004-5.304,6.277"/>
	<path fill="#0A0A09" d="M288.387,118.269c-4.551,2.632-1.283,7.367,2.045,6.469c2.481-0.665,0.548-1.112,0.548-1.112&#xA;		c-3.259,0.575-5.629-2.773-1.668-4.573c1.1-0.502-0.924-0.784-0.924-0.784"/>
	<path fill="#FFFFFF" d="M253.722,162.859c1.245,0.71,8.794,7.519,10.659,8.685c-1.098,4.643-8.481,19.007-10.107,21.488&#xA;		c-0.193-8.558-1.394-18.242-6.096-18.273l-0.884-3.471l6.428-8.428"/>
	<path fill="#0A0A09" d="M223.354,299.035c0.376-2.594-1.886-5.015-3.482-2.97c-0.873,1.114-0.944,3.165-1.993,4.222&#xA;		c-2.832,2.861-4.611,3.402-6.262,5.162c-1.791,1.899-2.344,3.14-0.65,5.68c0.142,0.214,0.416,2.806,2.281,4.2&#xA;		c2.276,1.711,5.53-0.084,8.969-4.389c0.767-0.956,0.625-2.318,0.801-3.405c0.449-2.78-0.074-5.663,0.337-8.502 M208.708,315.194&#xA;		c-0.223,7.089-10.569,9.926-14.723,7.563c-0.693-0.392-2.892-2.361-2.441-3.721c0.445-1.324,1.979-2.181,3.1-2.609&#xA;		c1.266-0.486,2.366-0.06,3.584-1.138c1.694-1.5,2.862-1.771,4.839-3.653c1.129-1.077,3.314-0.907,4.358-0.085&#xA;		c1.053,0.832,1.694,1.508,1.194,3.499L208.708,315.194"/>
	<path fill="#FFFFFF" d="M220.29,304.588c-4.409,2.934-9.752,5.475-4.7,8.181c1.158,0.619,4.392-1.673,5.196-4.342&#xA;		C220.74,308.583,220.504,304.442,220.29,304.588 M205.2,318.393c-0.778,0.638-3.601,2.072-3.211,1.856&#xA;		c-1.865,1.044-4.034,1.625-6.182,1.275c-1.92-0.36-1.129-2.009-0.71-2.065c5.407-0.714,6.447-3.776,9.895-5.124&#xA;		c1.001,0.243,1.201,1.767,1.064,2.207C205.959,316.871,205.726,317.751,205.2,318.393"/>
	<path fill="#0A0A09" d="M164.595,254.242c-1.356,1.72,0.017,1.99-3.264,5.167c-0.941,0.915-2.647,1.576-3.49,2.755&#xA;		c-0.14,0.197-0.123,0.977-0.154,1.548c2.087,0.686,5.891-0.967,9.898-1.018c2.418-0.034,4.782,0.761,7.225,1.258&#xA;		c4.303,0.881,8.276-0.06,13.452-0.342c6.207-0.34,7.397,1.14,9.359,0.917c3.837-0.436,6.176-2.335,4.522-1.858&#xA;		c0.406-0.12-3.196,0.35-2.917-0.197c-1.066-0.186-1.725,0.396-2.626,0.496c-2.101,0.245-4.192,0.122-6.439-0.642&#xA;		c-3.237-1.085-6.821,0.524-10.214,0.527c-5.518,0.014-11.634-2.007-18.513-1.296c-0.667,0.07,5.626-5.02,5.15-4.432&#xA;		c1.831-2.258,2.212-5.364,2.58-4.352c-0.111-0.308-1.819-2.021-4.568,1.47 M172.003,271.941c4.726-0.393,13.58,2.004,17.72,0.507&#xA;		c-0.025,0.426,3.479-1.095,3.388,0.606c-0.124,2.344-5.838,1.882-7.349,1.54c-4.118-0.933-5.586,0.368-14.119,0.111&#xA;		c-0.364-0.008-4.308,0.63-5.429-2.419c-0.299-0.809,2.187-0.96,5.788-0.344 M200.007,257.181c-0.44,1.099,0.684,1.802,1.28,1.219&#xA;		c0.465-0.454,0.38-1.694-0.608-2.045C200.785,256.911,200.143,256.844,200.007,257.181 M198.156,254.917&#xA;		c-0.433-0.274-0.886-0.682-1.266-0.777c-1.468-0.353-2.649-1.163-4.158-1.403c-0.373-0.062-0.539-0.71,0.077-1.011&#xA;		c0.941-0.462,1.959,0.017,2.921,0.336c1.263,0.419,1.455,1.94,2.486,2.57c0.303,0.185,1.121,0.296,0.893,0.722&#xA;		c-0.226,0.436-1.073,0.25-1.167-0.443L198.156,254.917"/>
	<path fill="#FFFFFF" d="M202.57,261.196c0.334,0,0.602-0.357,0.602-0.804c0-0.443-0.268-0.804-0.602-0.804&#xA;		c-0.333,0-0.604,0.361-0.604,0.804C201.965,260.839,202.236,261.196,202.57,261.196 M296.391,86.323&#xA;		c3.331,2.271,6.04,3.576,8.649,3.576c1.788,0,2.755-0.679,2.755-1.788c0-1.596-1.742-1.788-4.591-2.417&#xA;		c-5.898-1.256-8.891-4.495-8.891-9.522c0-7.246,5.655-12.562,14.449-12.562c3.961,0,7.682,1.014,11.647,3.141l-3.773,9.036&#xA;		c-2.416-1.788-4.928-2.707-7.1-2.707c-1.74,0-2.706,0.628-2.706,1.644c0,1.692,2.318,1.932,6.428,2.851&#xA;		c4.59,1.014,7.682,4.447,7.682,9.278c0,7.393-5.894,12.998-14.932,12.998c-4.543,0-9.133-1.304-13.582-3.867l3.966-9.662&#xA;		 M62.669,80.038h1.933c2.37,0,3.675-1.206,3.675-3.331c0-2.128-1.258-3.434-3.675-3.434h-1.933L62.669,80.038L62.669,80.038z&#xA;		 M50.492,64.382h15.607c9.231,0,13.967,4.252,13.967,11.645c0,4.931-2.657,8.362-6.669,8.844l9.231,14.062H68.708l-6.04-11.405&#xA;		v11.405H50.491L50.492,64.382 M113.336,86.087l-1.061-3.914c-0.484-1.838-1.212-4.255-1.403-7.587h-0.24&#xA;		c-0.197,3.331-0.921,5.749-1.403,7.587l-1.066,3.914h5.172H113.336z M104.011,64.098h13.819l12.079,34.553h-13.337l-1.113-4.351&#xA;		h-9.371l-1.066,4.351H91.684l12.324-34.553 M141.018,64.383h12.613v34.551h-12.613V64.383 M186.91,81.681&#xA;		c0-4.543-2.515-6.668-7.54-6.668h-0.53v13.388C184.349,88.302,186.91,86.369,186.91,81.681z M168.188,64.383h10.052&#xA;		c5.988,0,10.483,0.58,13.674,2.173c5.942,2.999,9.279,8.555,9.279,15.125c0,5.704-2.563,10.681-7.152,13.821&#xA;		c-4.497,3.095-9.813,3.432-16.721,3.432h-9.132L168.188,64.383 M212.955,64.383h23.098v9.376h-10.921v3.333h9.906v8.842h-9.906&#xA;		v3.626h11.212v9.374h-23.389V64.383 M262.5,80.038h1.933c2.37,0,3.675-1.206,3.675-3.331c0-2.128-1.258-3.434-3.675-3.434H262.5&#xA;		V80.038L262.5,80.038z M250.322,64.382h15.607c9.231,0,13.966,4.252,13.966,11.645c0,4.931-2.657,8.362-6.669,8.844l9.231,14.062&#xA;		h-13.914l-6.044-11.405v11.405h-12.177L250.322,64.382"/>
</g>
</svg>