<?xml version="1.0" encoding="utf-8"?>
<svg xmlns="http://www.w3.org/2000/svg" xmlns:xlink="http://www.w3.org/1999/xlink" version="1.1" id="Layer_1" x="0px" y="0px" viewBox="0 0 459.818 363.048" enable-background="new 0 0 459.818 363.048">
<g>
	<path fill="#FFFFFE" d="M424.097,174.459c-14.67,1.989-40.306,12.596-35.435,18.292c4.87,5.689,19.072,13.511,21.089,14.499&#xA;		c-6.769,0-29.018,2.298-31.501,8.599c-2.492,6.301,32.193,27.424,44.893,32.389c-15.798-4.445-53.474-11.859-55.978-6.782&#xA;		s4.007,20.767,9.959,25.436c-4.357-1.304-27.113-7.77-30.764,0.639c-4.013,9.251,18.229,43.188,20.753,49.528&#xA;		c-10.254-10.166-38.341-32.955-42.322-30.348c-3.981,2.607-2.999,15.309-1.965,21.768c-3.855-4.695-10.478-12.221-16.199-9.969&#xA;		c-5.72,2.252-5.015,24.06-5.384,33.35c-4.719-10.93-12.422-32.936-19.553-32.132c-7.131,0.803-15.131,15.776-16.653,21.498&#xA;		c-1.088-5.728-5.754-18.325-12.812-18.325c-7.058,0-23.468,33.337-28.43,44.169c-0.02-8.382,1.99-49.278-2.459-51.306&#xA;		c-4.448-2.028-19.46,7.296-22.684,11.536c1.193-5.373,2.208-23.533-1.793-25.726c-4.007-2.199-15.421-2.891-36.061,16.178&#xA;		c3.426-7.315,9.068-15.276,10.439-22.993c8.547-0.441,17.009-1.409,25.543-3.075c18.624,13.465,41.519,21.413,66.265,21.413&#xA;		c62.502,0,113.168-50.621,113.168-113.069c0-4.892-0.316-9.712-0.916-14.433c4.192-3.944,8.211-7.763,11.955-11.325&#xA;		c-0.857,2.048-1.331,4.517-1.252,7.559c0.244,9.534,24.964,11.569,38.098,12.629L424.097,174.459z M142.64,215.098&#xA;		c-3.565-1.929-20.146-2.693-20.146-2.693s18.67-12.537,18.235-21.604c-0.436-9.06-30.21-13.702-41.981-16.31&#xA;		c10.386-2.186,44.023-9.778,45.467-16.54c1.45-6.756-10.512-11.556-15.54-13.913c5.634,0.072,19.915,2.463,21.839-4.504&#xA;		c2.201-7.987-32.964-28.787-40.978-31.671c1.793,0.421,35.285,8.231,47.53,5.584c9.114-1.975-1.509-14.229-3.263-15.678&#xA;		c2.689,1.31,18.044,4.471,22.44-2.812c4.396-7.282-10.518-36.287-18.868-48.58c7.414,7.388,41.275,31.454,46.323,27.358&#xA;		c5.055-4.096,1.193-17.324-1.515-21.689c5.457,5.103,10.827,11.924,17.761,11.78c3.472-0.072,7.842-11.543,8.56-37.466&#xA;		c4.699,14.525,15.915,34.266,24.153,33.067c8.244-1.192,11.059-13.419,12.199-18.627c0.95,5.59,5.279,19.958,10.776,20.484&#xA;		c6.748,1.054,19.659-28.952,24.358-42.509c0.712,6.696-4.205,41.087,3.07,43.945c7.269,2.864,19.29-11.615,26.111-19.727&#xA;		c-4.138,7.849-12.225,26.832-7.407,31.375c4.817,4.543,21.471-0.217,27.962-5.564c-1.818,3.977-2.207,7.157-1.713,10.147&#xA;		c-7.402,1.449-15.039,3.575-22.928,6.512c-17.82-11.687-39.134-18.496-62.041-18.496c-62.495,0-113.161,50.621-113.161,113.062&#xA;		c0,15.032,2.939,29.373,8.271,42.49c-6.439,4.767-12.607,8.547-18.927,11.464c4.62-5.498,8.633-16.066,3.414-18.884L142.64,215.098&#xA;		z M459.806,88.878c-0.076-1.716-0.403-2.735-0.403-2.735l-0.005-0.009c-2.089-7.292-9.543-11.797-19.692-11.797&#xA;		c-1.079,0-2.177,0.055-3.262,0.163c-7.777,0.771-21.606,5.451-25.711,6.884c-12.891-3.255-24.974-4.839-36.901-4.839&#xA;		c-6.165-0.001-12.295,0.436-18.411,1.289l0.009-0.004l-2.523,0.34c0,0-0.983-3.19,1.586-10.638&#xA;		c1.331-3.862,3.156-7.415,3.156-7.415s-28.071,14.578-31.577,9.925c-3.505-4.653,12.192-41.647,12.192-41.647&#xA;		s-27.062,30.042-32.377,28.709c-2.084-0.522-2.283-11.403-2.386-23.112C303.361,18.137,303.913,0,303.913,0&#xA;		s-22.284,55.351-27.721,55.063c-4.715-0.25-11.574-29.795-11.574-29.795s-4.303,25.46-12.037,28.574&#xA;		c-7.734,3.114-27.628-44.5-27.628-44.5s-0.919,47.656-6.453,48.726c-5.533,1.069-23.15-16.742-23.15-16.742&#xA;		s8.258,23.738,5.462,26.865c-1.67,1.866-18.614-8.601-36.243-21.235c-10.184-7.299-18.7-13.416-18.7-13.416&#xA;		s9.936,16.488,17.836,33.722c5.438,11.865,8.738,23.251,7.315,25.468c-3.488,5.436-29.654-2.312-29.654-2.312&#xA;		s14.873,14.315,13.913,18.002c-0.465,1.789-15.256,0.497-30.286-1.556c-15.943-2.178-32.166-5.182-32.166-5.182&#xA;		s53.096,30.843,51.43,36.394c-1.319,4.392-34.364,0.795-34.364,0.795s28.731,13.115,28.614,17.449&#xA;		c-0.115,4.334-56.237,18.521-56.237,18.521s50.827,10.623,51.799,16.286c0.972,5.664-20.046,23.836-20.046,23.836&#xA;		s24.469,2.209,25.684,5.41c1.215,3.201-5.947,15.846-12.162,17.851c-7.682,2.478-14.675,4.054-23.192,4.054&#xA;		c-1.225,0-2.423-0.035-3.594-0.098c0.421-0.545,0.838-1.106,1.2-1.641c2.095-3.065,3.655-6.341,4.505-9.466l0.009-0.032&#xA;		l0.008-0.033c0.436-1.717,0.66-3.426,0.668-5.081l0.001-0.071l-0.003-0.072c-0.059-1.881-0.671-3.485-1.781-4.576&#xA;		c-2.081-1.813-4.022-1.597-5.414-0.978l-4.828,2.365c-0.359,0.158-0.764,0.311-1.255,0.458c-0.925,0.277-2.873,0.607-6.911,0.607&#xA;		c-3.828,0-8.385-0.284-12.791-0.56c0,0-2.706-0.151-3.229-0.151c-5.256,0-8.765,1.672-10.879,3.201l-1.15-0.605&#xA;		c-10.75-5.705-23.262-8.013-31.075-9.453c-0.607-0.113-1.187-0.215-1.733-0.322c-8.629-1.691-13.353-6.808-13.737-7.223&#xA;		c-0.731-0.791-1.683-1.814-2.925-2.53c0,0-2.246-1.4-5.574-0.376c-2.171,0.762-3.089,2.454-3.089,2.454&#xA;		c-1.861,3.089-0.085,7.624,2.257,12.74c2.664,5.811,11.014,20.324,31.001,29.589c6.543,3.036,15.152,5.198,25.586,6.422&#xA;		c7.854,0.922,14.486,1.038,17.129,1.043c2.544,1.238,10.376,4.855,22.021,8.491c12.784,3.992,32.761,8.738,55.649,8.845&#xA;		c0,0,8.122,0.103,12.508-0.176c0.442,1.827-2.731,8.358-6.543,16.015c-4.517,9.072-10.314,19.804-10.314,19.804&#xA;		s10.473-9.247,20.232-16.102c9.823-6.9,20.827-12.444,23.428-9.249c4.916,6.036-0.33,30.947-0.33,30.947&#xA;		s19.845-17.545,24.447-15.169c2.106,1.088,2.318,14.198,2.326,28.008c0.011,16.365-0.412,33.745-0.412,33.745&#xA;		s27.336-55.262,33.022-53.683c5.686,1.578,11.911,26.775,11.911,26.775s10.385-30.697,16.731-29.952&#xA;		c2.537-0.311,7.988,9.645,12.833,19.823c5.31,11.154,9.858,22.058,9.858,22.058s0.111-11.399,0.906-23.046&#xA;		c0.719-10.523,2.057-20.795,4.373-21.365c4.877-1.2,19.023,17.743,19.023,17.743s-5.002-26.403-1.083-28.64&#xA;		s51.004,38.434,51.004,38.434s-30.899-57.202-27.141-61.57c3.758-4.368,36.76,4.543,36.76,4.543s-4.917-5.802-9.125-12.356&#xA;		c-4.398-6.853-8.061-14.512-6.34-16.353c1.563-1.673,18.77,0.068,36.546,3.513c20.496,3.972,33.829,6.804,33.829,6.804&#xA;		s-12.072-6.528-29.875-17.23c-15.415-9.266-28.974-19.696-28.396-21.388c1.247-3.646,38.061-7.145,38.061-7.145&#xA;		s-6.178-3.631-12.817-7.687c-7.207-4.403-14.903-9.885-14.903-11.893c0-1.754,9.231-6.102,21.406-9.844&#xA;		c14.596-4.484,28.098-7.49,28.098-7.49s-50.187-4.026-53.322-11.175c-2.14-4.883,1.791-11.25,4.672-15.363&#xA;		c2.882-4.113,7.006-7.845,7.006-7.845c13.712-12.65,31.163-24.297,36.739-27.722l1.154-0.72c0,0,12.874-9.496,14.197-10.606&#xA;		c1.153-0.967,4.098-4.053,4.759-7.98c0,0,0.231-1.083,0.156-2.814L459.806,88.878z"/>
	<path fill="#FC4C02" d="M367.164,241.456c-2.504,5.077,4.007,20.767,9.959,25.436c-4.357-1.304-27.113-7.77-30.764,0.639&#xA;		c-4.013,9.251,18.229,43.188,20.753,49.528c-10.254-10.166-38.341-32.955-42.322-30.348c-3.981,2.607-2.999,15.309-1.965,21.768&#xA;		c-3.855-4.695-10.478-12.221-16.199-9.969c-5.72,2.252-5.015,24.06-5.384,33.35c-4.719-10.93-12.422-32.936-19.553-32.132&#xA;		c-7.131,0.803-15.131,15.776-16.653,21.498c-1.088-5.728-5.754-18.325-12.812-18.325c-7.058,0-23.468,33.337-28.43,44.169&#xA;		c-0.02-8.382,1.99-49.278-2.459-51.306c-4.448-2.028-19.46,7.296-22.684,11.536c1.193-5.373,2.208-23.533-1.793-25.726&#xA;		c-4.007-2.199-15.421-2.891-36.061,16.178c3.426-7.315,9.068-15.276,10.439-22.993c8.547-0.441,17.009-1.409,25.543-3.075&#xA;		c18.624,13.465,41.519,21.413,66.265,21.413c62.502,0,113.168-50.621,113.168-113.069c0-4.892-0.316-9.712-0.916-14.433&#xA;		c4.192-3.944,8.211-7.763,11.955-11.325c-0.857,2.048-1.331,4.517-1.252,7.559c0.244,9.534,24.964,11.569,38.098,12.629&#xA;		c-14.67,1.989-40.306,12.596-35.435,18.292c4.87,5.689,19.072,13.511,21.089,14.499c-6.769,0-29.018,2.298-31.501,8.599&#xA;		c-2.492,6.301,32.193,27.424,44.893,32.389C407.345,243.792,369.669,236.378,367.164,241.456L367.164,241.456z M348.013,78.951&#xA;		c-7.402,1.449-15.039,3.575-22.928,6.512c-17.82-11.687-39.134-18.496-62.041-18.496c-62.495,0-113.161,50.621-113.161,113.062&#xA;		c0,15.032,2.939,29.373,8.271,42.49c-6.439,4.767-12.607,8.547-18.927,11.464c4.62-5.498,8.633-16.066,3.414-18.884&#xA;		c-3.565-1.929-20.146-2.693-20.146-2.693s18.67-12.537,18.235-21.604c-0.436-9.06-30.21-13.702-41.981-16.31&#xA;		c10.386-2.186,44.023-9.778,45.467-16.54c1.45-6.756-10.512-11.556-15.54-13.913c5.634,0.072,19.915,2.463,21.839-4.504&#xA;		c2.201-7.987-32.964-28.787-40.978-31.671c1.793,0.421,35.285,8.231,47.53,5.584c9.114-1.975-1.509-14.229-3.263-15.678&#xA;		c2.689,1.31,18.044,4.471,22.44-2.812c4.396-7.282-10.518-36.287-18.868-48.58c7.414,7.388,41.275,31.454,46.323,27.358&#xA;		c5.055-4.096,1.193-17.324-1.515-21.689c5.457,5.103,10.827,11.924,17.761,11.78c3.472-0.072,7.842-11.543,8.56-37.466&#xA;		c4.699,14.525,15.915,34.266,24.153,33.067c8.244-1.192,11.059-13.419,12.199-18.627c0.95,5.59,5.279,19.958,10.776,20.484&#xA;		c6.748,1.054,19.659-28.952,24.358-42.509c0.712,6.696-4.205,41.087,3.07,43.945c7.269,2.864,19.29-11.615,26.111-19.727&#xA;		c-4.138,7.849-12.225,26.832-7.407,31.375c4.817,4.543,21.471-0.217,27.962-5.564c-1.818,3.977-2.207,7.157-1.713,10.147&#xA;		L348.013,78.951z"/>
	<path fill="#008E97" d="M85.218,227.595c-4.035-0.075-8.592-0.384-12.922-0.651c-6.307-0.388-9.634,1.982-10.986,3.299&#xA;		c3.941,2.239,16.648,9.62,27.501,11.707v-0.007c-0.362-0.494,17.181-12.372,12.429-18.153h-0.007&#xA;		c-1.648,0.217-2.378,1.896-6.228,3.049C92.764,227.511,89.252,227.67,85.218,227.595c4.034,0.075,7.546-0.085,9.787-0.756&#xA;		c3.849-1.152,4.58-2.831,6.228-3.049h0.007c0.264-0.04,1.878-0.402,1.957,2.12c-0.006,1.35-0.191,2.726-0.547,4.128&#xA;		c-0.652,2.397-1.918,5.294-3.96,8.283c-1.24,1.824-3.282,4.128-3.308,4.155c-0.337,0.02-1.911,0.086-3.236-0.046&#xA;		c-1.331-0.132-2.748-0.369-3.335-0.481c-10.853-2.087-23.56-9.468-27.501-11.707c1.352-1.317,4.679-3.687,10.986-3.299&#xA;		C76.626,227.21,81.183,227.519,85.218,227.595L85.218,227.595z M436.836,78.431c8.508-0.849,17.227,2.041,18.914,9.31h-0.006&#xA;		c-4.027-6.308-42.271,6.38-53.144,10.752c-2.952,1.192-21.147,9.389-39.733,19.99l-0.007,0.007h-0.013l-0.244,0.119&#xA;		c-10.998,3.832-32.483,15.632-40.655,23.27c-19.303,18.022-23.666,41.186-51.121,75.023c-12.218,15.059-22.776,25.62-31.105,32.56&#xA;		c-5.319,4.484-9.997,7.645-13.438,9.468c-0.132-0.421-0.165-0.751-0.165-0.751c-0.019-0.119-0.026-0.25-0.026-0.395&#xA;		c0-3.009,3.816-10.206,6.532-15.921c1.839-3.865,3.103-7.019,3.103-7.026c4.224-10.476,6.472-20.484,7.098-23.474&#xA;		c0.956-3.779,3.407-14.459,3.407-14.459s-44.142,39.619-89.898,52.886c-15.586,4.517-32.378,8.191-44.886,8.454&#xA;		c0,0-10.722-0.461-11.434-0.685c-10.867-1.811-23.804-6.822-35.185-18.963c-1.456-1.152-2.913-2.357-4.369-3.621&#xA;		c0.449,0.461,5.734,8.316,12.146,13.946c-2.036,0.151-5.503,0.639-16.403-0.909c-38.138-5.419-50.145-35.247-50.455-38.822&#xA;		c-0.513,0.145-0.962,0.303-1.284,0.599c0.322-0.303,0.771-0.461,1.284-0.606c2.003-0.566,3.355,1.949,5.115,3.444&#xA;		c1.759,1.495,6.267,5.478,14.512,7.026c8.244,1.547,23.613,4.003,35.198,11.431l0.007-0.013&#xA;		c9.549,5.735,33.392,25.179,75.715,8.626c19.507-7.625,36.938-22.888,62.837-48.488c4.211-4.155,8.383-8.52,12.634-13.024&#xA;		c-0.607-3.035-2.268-8.527-5.925-10.799c-5.674-3.542-14.274-3.681-19.949-3.266c-5.681,0.421-8.673,1.198-10.61-0.356&#xA;		c-0.844-0.672-0.89-1.771-0.428-3.022c3.572-4.346,9.872-9.877,26.097-12.01c20.502-2.693,27.126,1.956,42.046-3.016&#xA;		c2.952-2.983,6.399-6.091,9.088-8.514c6.215-5.623,12.877-11.227,20.127-16.731c7.257-5.505,15.098-10.904,23.679-16.125&#xA;		c45.973-27.951,83.445-27.029,115.026-18.838c0,0,17.292-6.222,25.919-7.078L436.836,78.431z M354.781,178.225&#xA;		c-3.248,10.008-8.238,23.691-14.346,35.266c-7.263,13.755-16.832,23.256-21.874,26.904c-0.837-0.507-1.153-1.574-1.18-2.673&#xA;		c-0.039-1.962,4.271-12.076,5.964-33.364c5.444-4.089,10.334-7.98,14.657-11.569c5.496-4.57,11.157-9.515,16.779-14.565V178.225z"/>
	<path fill="#005778" d="M397.44,91.816c3.471-0.837,4.947-1.899,5.144-1.436c0.198,0.462-1.711,1.546-7.685,3.992&#xA;		c-4.371,1.79-8.389,2.882-14.868,4.491c-2.99,0.9-7.211,2.256-7.211,2.256l-0.057-0.083l0.001-0.001&#xA;		c-0.08-0.109-0.143-0.219-0.196-0.329l-0.019-0.036c-0.376-0.826-0.043-1.669,0.348-2.268c-11.783-0.865-17.549,5.781-17.549,5.781&#xA;		c-0.426,0.322-0.936,0.931-1.477,1.692c1.708-2.611,5.527-7.572,11.201-10.047c7.914-3.454,13.065-2.912,16.709-2.912&#xA;		C385.427,92.915,393.97,92.653,397.44,91.816L397.44,91.816z M246.232,196.906c0,0-2.451,10.68-3.407,14.459&#xA;		c-16.41,11.036-42.066,26.582-68.156,36.103c-31.917,11.964-60.986,10.825-63.221,10.779c12.508-0.263,29.301-3.938,44.886-8.454&#xA;		C202.09,236.525,246.232,196.907,246.232,196.906L246.232,196.906z M103.197,225.911c-0.006,1.35-0.191,2.726-0.547,4.128&#xA;		c-0.652,2.397-1.918,5.294-3.96,8.283c-1.24,1.824-3.282,4.128-3.308,4.155c-0.337,0.02-1.911,0.086-3.236-0.046&#xA;		c-1.331-0.132-2.748-0.369-3.335-0.481v-0.007c-0.362-0.494,17.181-12.372,12.429-18.153&#xA;		C101.504,223.75,103.118,223.388,103.197,225.911L103.197,225.911z M453.496,95.341l-0.006,0.007c0,0-0.706,1.04-3.065,3.101&#xA;		c-2.353,2.061-6.359,5.129-12.956,9.185c-6.313,3.878-23.909,15.77-37.419,28.247c-0.502,0.461-36.623,34.522-37.526,35.359&#xA;		c-0.099,0.316-4.784,17.752-15.975,40.429c-7.842,15.888-19.547,25.818-23.699,28.089c-0.263,0.138-2.675,1.666-4.29,0.639&#xA;		c5.042-3.648,14.611-13.149,21.874-26.904c6.109-11.575,11.098-25.258,14.346-35.266c-5.621,5.05-11.283,9.995-16.779,14.565&#xA;		c-4.323,3.589-9.213,7.48-14.657,11.569c0,0.02-11.704,8.599-18.321,12.998l-0.006,0.007c-3.704,2.456-20.674,13.024-30.968,18.634&#xA;		c-8.738,4.767-27.04,13.432-27.093,13.459h-0.007c-9.53,8.04-16.996,11.793-18.993,11.292c-1.225-0.303-1.648-1.745-1.674-1.817&#xA;		c3.441-1.824,8.119-4.984,13.438-9.468c8.329-6.94,18.888-17.502,31.106-32.56c27.454-33.838,31.817-57.002,51.12-75.023&#xA;		c8.172-7.638,29.656-19.437,40.655-23.27l0.244-0.119c-12.588,7.177-25.346,15.454-33.67,23.388&#xA;		c-16.127,15.059-21.643,32.646-37.617,56.673l-0.403,0.626c53.823-40.784,95.414-88.015,138.416-103.106&#xA;		c1.371-0.481,2.668-0.928,3.914-1.35l0.152-0.053c14.636-4.945,20.554-5.715,20.983-2.963c0.191,1.198-0.771,2.983-1.127,3.635&#xA;		L453.496,95.341z M200.952,148.732c-16.234,2.134-22.53,7.671-26.106,12.02c0.071-0.195,0.529-1.267,1.18-2.172&#xA;		c0.947-1.317,1.637-2.037,2.538-2.869c2.985-2.756,13.635-9.886,36.405-12.879c14.493-1.902,19.563-1.541,26.55-2.92&#xA;		c3.076-0.545,6.339-1.35,10.562-2.706c-2.688,2.425-6.134,5.529-9.083,8.51c-14.921,4.973-21.548,0.325-42.047,3.016&#xA;		L200.952,148.732z M232.623,241.865c-2.715,5.715-6.53,12.912-6.53,15.921c0,0.145,0.007,0.277,0.026,0.395&#xA;		c-34.717,13.551-63.029,12.912-63.135,12.919c-47.74,2.258-85.304-17.159-85.304-17.159l-0.007-0.007l-0.764,0.007&#xA;		c-4.481,0-26.651-0.342-41.209-7.098c-15.922-7.381-25.083-18.95-29.069-27.648c-2.966-6.479-3.111-8.547-2.168-9.403l0.263-0.198&#xA;		l0.007-0.007c0.283-0.171,0.633-0.29,1.015-0.395c0.31,3.575,12.317,33.403,50.455,38.822c10.9,1.547,14.367,1.06,16.403,0.909&#xA;		c-6.412-5.63-11.697-13.485-12.146-13.946c1.456,1.264,2.913,2.469,4.369,3.621c11.381,12.142,24.319,17.153,35.185,18.963&#xA;		l0.047,0.013h0.006l0.046,0.013l0.613,0.198c4.672,1.528,31.943,10.18,74.523,0.204c21.623-5.063,45.526-15.223,60.479-23.151&#xA;		C235.728,234.845,234.463,237.999,232.623,241.865L232.623,241.865z"/>
	<path fill="#FFFFFE" d="M355.347,104.184c0,0,5.766-6.646,17.549-5.781c-0.391,0.599-0.724,1.441-0.348,2.268l0.019,0.036&#xA;		c0.052,0.111,0.117,0.221,0.196,0.33c-7.321,2.49-19.702,7.398-23.63,13.212c0,0,2.613-5.383,4.737-8.373&#xA;		C354.411,105.115,354.92,104.506,355.347,104.184L355.347,104.184z M242.826,211.365c-0.626,2.989-2.873,12.998-7.098,23.474&#xA;		c-14.953,7.928-38.856,18.088-60.479,23.151c-42.58,9.975-69.85,1.323-74.523-0.204l-0.665-0.211&#xA;		c1.041,0.224,11.387,0.672,11.387,0.672c2.235,0.046,31.304,1.185,63.221-10.779c26.09-9.521,51.746-25.067,68.156-36.103H242.826z"/>
</g>
</svg>