<?xml version="1.0" encoding="utf-8"?>
<svg xmlns="http://www.w3.org/2000/svg" xmlns:xlink="http://www.w3.org/1999/xlink" version="1.1" id="Layer_1" x="0px" y="0px" viewBox="0 0 478.643 230.522" enable-background="new 0 0 478.643 230.522">
<g>
	<path fill="#FFFFFE" d="M472.513,27.951c-60.229,14.202-62.86-20.625-153.44-27.011C197.148-7.657,94.692,45.38,12.814,52.176&#xA;		c-17.788,1.477-15.481,16.258-2.698,18.767c30.86,7.191,62.704,6.277,91.85,2.375c-0.979,2.345-1.962,5.958,1.294,8.727&#xA;		c11.543,9.797,57.947,10.636,78.319,9.465c6.917-0.394,21.683-1.787,21.683-1.787c-4.211,0.399-10.791,13.212,3.122,16.82&#xA;		c85.984,24.036,126.438,62.85,172.88,123.979c18.872-2.408,36.643-25.081,29.066-42.388l3.765-9.289l13.901-6.428l-3.984-31.001&#xA;		l21.191-9.965c0,0,33.003-88.56,34.936-95.009s-2.067-9.331-5.627-8.492"/>
	<path fill="#C60C30" d="M233.929,40.139C174.313,43.655,102.785,77.295,11.708,62.3c80.723-10.879,142.263-37.538,217.325-48.153&#xA;		L233.929,40.139L233.929,40.139z M240.354,74.92c-32.974,3.881-71.23,13.086-126.421,2.702&#xA;		c47.572-1.292,83.177-17.189,122.37-25.001L240.354,74.92L240.354,74.92z"/>
	<path fill="#002244" d="M243.875,74.551c24.166-2.593,45.48-1.771,68.713,12.373c-48.455-5.249-72.18,8.265-102.381,11.269&#xA;		c106.696,27.955,145.759,87.692,172.216,120.795c18.494-7.846,19.494-23.89,14.783-29.617l4.761-10.191l0.219-6.545l12.749-5.954&#xA;		l-4.034-31.714l23.872-9.763l31.629-86.446c-53.59,11.102-70.953-23.499-147.196-28.219c-31.058-1.926-59.027-0.499-85.286,2.941&#xA;		l4.282,26.462c17.548-0.604,34.067,1.624,49.741,8.744c-17.233-1.066-32.739,0.361-47.866,3.163L243.875,74.551"/>
	<path fill="#B0B7BC" d="M326.187,147.496c28.839,20.164,43.652,42.505,58.683,62.061c7.644-3.172,10.043-12.029,7.526-15.159&#xA;		l-7.278-8.945l8.278,0.487l3.799-6.591l-10.291-0.608l-11.594,2.089l11.758-8.039l8.951,0.524l0.332-5.089l-9.144-4.372&#xA;		l3.143-3.432l16.914,1.053l-4.862-37.609c-6.686-0.814-12.308,2.685-14.737,12.339l-29.982-1.762&#xA;		c4.219-9.549,10.791-13.845,23.263-12.259c-6.997-9.784-41.093-10.69-45.908,4.661l26.469,21.658l3.425,19.795l-10.875-15.759&#xA;		c-9.778-8.454-20.048-14.378-27.868-5.043"/>
	<path fill="#FFFFFE" d="M414.902,50.506l2.13,18.889l21.297,7.98l-19.977,4.997l1.971,25.467L403.048,86.32l-25.831,6.075&#xA;		l15.96-18.561l-13.161-17.412l22.048,7.556L414.902,50.506"/>
</g>
</svg>