<?xml version="1.0" encoding="utf-8"?>
<svg xmlns="http://www.w3.org/2000/svg" xmlns:xlink="http://www.w3.org/1999/xlink" version="1.1" id="Layer_1" x="0px" y="0px" viewBox="0 0 251.6 252.2" style="enable-background:new 0 0 251.6 252.2;">
<style type="text/css">
	.st0{fill:#B21E35;}
	.st1{fill:#25316A;}
	.st2{fill:none;}
</style>
<g>
	<g>
		<g>
			<path class="st0" d="M220.6,53.7h-30.1v71.1c0,1.7-0.4,10.4-7.7,10.4c-2.6,0-3.9-0.9-4.6-1.6c-2.3-2.3-2.6-6.6-2.6-8.2V53.7&#xA;				h-48.7v28.9h5.6c5.1,0,6.7,1.4,7.3,1.8c0.4,0.5,0.5,1.3,0.5,1.7c0,0.2,0,0.3,0,0.3c0,0.1-0.1,0.3-0.1,0.3v0.7v47.8&#xA;				c0,9.3,2.9,17.3,8.8,23c6.1,6.1,14.7,9.3,24.4,9.3c7.2,0,12.9-1.7,17.3-3.8c0,0.7,0,1.5,0,2.1c0,4.8-0.1,9-0.8,10&#xA;				c-0.2,0.1-1.4,0.7-6.4,0.7H39V210h155.4c11.4,0,19.9-3.4,25.7-9.6c5.6-6.4,6.3-14.1,6.3-18.1c0-0.9,0-1.7,0-2.2s0-126.4,0-126.4&#xA;				L220.6,53.7L220.6,53.7z"/>
			<path class="st0" d="M39,165.5h34.6V91.4v-0.3c0,0-0.3-2.9,1.4-4.8c1.6-1.7,4.4-2.1,6.7-2.1c2.4,0,4.1,0.5,5.3,1.7&#xA;				c1.6,1.7,1.9,4.3,1.9,5.3v0.1v56V147c0,0.8-0.1,8.6,4.9,13.9c2.9,2.9,7.2,4.7,11.8,4.7h29.7v-29.3l-6.2,0.8&#xA;				c-0.7,0.1-2.9,0.1-4.3-0.9c-0.9-0.8-1.4-2.6-1.4-4c0-0.1,0,0,0-52.7v0.2c0-0.4,0.4-11.7-7.4-19.9c-5.1-5.6-12.5-8.3-21.7-8.3&#xA;				c-9.4,0-16.3,2.6-21.3,6c0-1.7,0-3.9,0-3.9H24.7v30.3l6.7-1.5c1.4-0.2,4.6-0.4,6.2,0.9c1.2,0.9,1.5,2.8,1.5,4.7L39,165.5&#xA;				L39,165.5z"/>
		</g>
		<g>
			<path class="st1" d="M143.4,135.2c0,8.5,2.7,15.7,8,20.9c5.4,5.4,13.4,8.5,22.2,8.5c9.5,0,16.2-3.4,20.3-6c0,0.9,0,2.3,0,2.3&#xA;				c0,1.9,0,3.7,0,5.2c0,6.4-0.2,10.3-1.8,11.8c-1.2,1.2-3.7,1.6-8.5,1.6l-141.4,0.1V207l152.5-0.1c10.5,0,18.2-2.8,23.4-8.6&#xA;				c4.9-5.7,5.7-12.5,5.7-15.9c0-1.2-0.1-1.8-0.1-2.2c0-0.2-0.1-123.4-0.1-123.4h-29.7v68.1c0,0.4-0.1,13.4-10.6,13.4&#xA;				c-2.8,0-5.1-0.8-6.7-2.5c-3.7-3.8-3.6-10.3-3.6-10.4c0-0.1,0-68.6,0-68.6h-42.9v22.8h2.5c4.7,0,8,1.2,9.5,2.9&#xA;				c1.6,1.9,1.3,4.3,1.2,4.4L143.4,135.2l0.1,0v0H143.4z"/>
			<path class="st1" d="M42.1,162.5h28.5v-71v-0.1c0,0-0.4-4.2,2.1-7.3c1.8-2.1,4.8-3.1,9-3.1c3.4,0,5.8,0.8,7.5,2.6&#xA;				c2.8,2.8,2.7,7.5,2.7,7.5c0,0.1,0,56,0,56c0,0.2-0.2,6.9,4.1,11.6c2.4,2.5,5.7,3.8,9.6,3.8h26.6v-22.7l-2.8,0.3&#xA;				c0,0-4.1,0.5-6.6-1.7c-1.5-1.4-2.3-3.5-2.3-6.3V79.5c0-0.3,0.3-10.3-6.6-17.6c-4.6-4.7-11.2-7.2-19.5-7.2&#xA;				c-12.5,0-20,4.8-24.3,9.2c0-2.2,0-7.2,0-7.2H27.9v23.6l2.9-0.7c0,0,5.7-1.3,8.8,1.6c1.6,1.5,2.4,3.8,2.4,6.9&#xA;				C42.1,88.2,42.1,162.5,42.1,162.5z"/>
		</g>
	</g>
	<circle class="st2" cx="125.8" cy="126.1" r="126.1"/>
</g>
</svg>