<?xml version="1.0" encoding="utf-8"?>
<svg xmlns="http://www.w3.org/2000/svg" xmlns:xlink="http://www.w3.org/1999/xlink" version="1.1" id="Layer_1" x="0px" y="0px" viewBox="0 0 379.632 378.762" enable-background="new 0 0 379.632 378.762">
<g>
	<path d="M0,188.946c0,104.667,85.15,189.816,189.816,189.816c104.662,0,189.816-85.15,189.816-189.816&#xA;		c0-104.662-85.154-189.812-189.816-189.812C85.149-0.866,0,84.284,0,188.946"/>
	<path fill="#A5ACAF" d="M189.816,374.599c102.527,0,185.649-83.122,185.649-185.653c0-102.527-83.122-185.649-185.649-185.649&#xA;		C87.284,3.297,4.163,86.419,4.163,188.946C4.163,291.478,87.285,374.599,189.816,374.599"/>
	<path fill="#FFFFFE" d="M189.816,344.272c85.53,0,154.869-69.339,154.869-154.869S275.346,34.53,189.816,34.53&#xA;		c-85.534,0-154.873,69.344-154.873,154.873C34.943,274.934,104.282,344.272,189.816,344.272"/>
	<path fill="#FFB612" d="M190.619,189.612c1.789-63.434,61.709-78.327,76.764-76.961c-37.112-2.015-73.737-17.698-76.568-76.384&#xA;		c-4.47,54.575-26.369,70.091-76.837,76.568c36.049,1.827,72.537,16.092,76.64,76.777"/>
	<path fill="#C60C30" d="M267.597,268.126c1.789-63.434,60.655-79.087,75.714-77.721c-37.236-1.375-73.101-19.073-75.927-77.755&#xA;		c-4.47,54.579-26.297,70.484-76.764,76.961C226.669,191.438,263.49,207.441,267.597,268.126"/>
	<path fill="#00539B" d="M191.55,343.627c1.785-63.443,60.988-76.867,76.047-75.5c-37.112-2.02-74.147-19.824-76.978-78.515&#xA;		c-4.47,54.579-25.72,70.975-76.184,77.447c36.044,1.836,73.007,15.887,77.114,76.568"/>
	<path d="M147.47,176.051l6.046-0.064l0.026,2.916c0.909-1.601,1.456-2.558,3.514-3.019h1.503v7.075&#xA;		c-5.205-0.367-4.859,1.456-4.927,2.856v13.462h-6.161V176.05L147.47,176.051z M174.71,183.625l-5.397-0.026&#xA;		c0-0.559,0.013-1.05-0.09-1.477c-0.149-0.598-0.948-1.166-1.759-1.174c-0.956,0-1.695,0.307-2.015,1.234&#xA;		c-0.384,1.119-0.205,2.767,2.707,3.096l1.482,0.367c1.652,0.555,3.249,1.016,4.492,3.386c0.209,0.406,0.243,0.538,0.576,1.699&#xA;		c0.704,2.408,0.239,4.244-0.547,5.679c-0.478,0.858-1.652,1.926-2.071,2.186c-2.284,1.409-5.367,1.558-8.168,0.709&#xA;		c-1.375-0.418-2.873-1.469-3.616-2.912c-0.769-1.49-0.786-2.711-0.884-4.727l5.218-0.034c-0.107,0.816,0.397,1.759,1.204,2.067&#xA;		c0.816,0.32,2.852,0.333,3.211-0.581c0.252-0.645,0.414-0.995-0.145-1.836c-1.02-1.541-3.202-1.793-5.119-2.276&#xA;		c-3.429-0.867-4.261-4.189-4.112-6.708c0.073-1.191,0.286-2.566,1.038-3.493c1.584-1.96,2.276-1.862,3.224-2.318&#xA;		c3.155-1.533,7.079-0.444,9.171,1.678C174.284,179.348,174.668,181.525,174.71,183.625L174.71,183.625z M74.629,176.187h-4.278&#xA;		l-2.327,0.017c-0.056-1.02-0.209-2.344-0.884-2.963c-0.999-0.909-3.262-0.406-3.86,0.858c-1.084,2.271,0.303,4.406,3.796,5.521&#xA;		l0.961,0.478c3.3,1.61,4.214,2.4,5.448,4.142c0.371,0.525,1.097,1.896,1.392,3.569c0.628,3.578-0.273,5.798-1.08,7.758&#xA;		c0,0-0.307,0.927-1.157,1.716c-3.467,3.236-8.27,3.377-11.831,1.687c-1.64-0.786-2.903-1.546-3.804-3.569&#xA;		c-0.888-1.985-1.089-3.787-0.833-6.716l6.648-0.038c-0.124,0.931,0.149,3.283,0.773,3.937c0.619,0.649,3.138,1.281,4.107-0.436&#xA;		c0.342-0.602,0.427-3.219-0.632-4.227c-1.994-1.917-3.715-2.109-6.063-3.578c-3.352-2.092-5.132-5.845-4.919-9.406&#xA;		c0.102-1.687,0.564-2.861,1.383-4.338c0.82-1.46,1.981-2.792,3.659-3.527c4.466-1.96,9.923-0.841,12.327,3.403&#xA;		C74.087,171.585,74.719,173.242,74.629,176.187L74.629,176.187z M78.023,176.067v-2.143l6.225-3.416l0.026,5.636l2.37-0.051&#xA;		l0.026,5.495l-2.395-0.038v9.146c0,1.251-0.226,1.751,2.284,1.712l-0.004,6.96c-2.963-0.073-8.573,0.935-8.599-5.61l-0.047-12.327&#xA;		l-2.323,0.077l-0.026-5.363l2.464-0.077L78.023,176.067z M122.009,166.746l6.272,0.017v32.714h-6.272V166.746L122.009,166.746z&#xA;		 M135.266,192.706c0.009,2.084,4.56,2.511,4.671-0.115v-0.662l5.124-0.026l0.009,2.737c0.051,1.819-0.704,3.796-3.779,4.855&#xA;		c-3.262,1.016-5.299,0.406-7.207,0c-2.506-0.918-3.723-2.912-3.838-5.721v-11.332c-0.115-2.126,1.067-3.979,3.121-5.329&#xA;		c3.501-1.529,5.414-1.119,8.044-0.209c2.506,1.366,3.638,3.057,3.663,5.418v7.19h-9.829L135.266,192.706L135.266,192.706z&#xA;		 M135.488,184.658l4.637,0.017C141.081,180.615,134.711,180.089,135.488,184.658z M110.31,192.706&#xA;		c0.013,2.084,4.564,2.511,4.68-0.115v-0.662l5.119-0.026l0.013,2.737c0.043,1.819-0.709,3.796-3.783,4.855&#xA;		c-3.262,1.016-5.299,0.406-7.207,0c-2.506-0.918-3.723-2.912-3.838-5.721v-11.332c-0.115-2.126,1.072-3.979,3.121-5.329&#xA;		c3.501-1.529,5.418-1.119,8.04-0.209c2.511,1.366,3.638,3.057,3.668,5.418v7.19h-9.803L110.31,192.706L110.31,192.706z&#xA;		 M110.536,184.658l4.637,0.017C116.129,180.615,109.759,180.089,110.536,184.658z M93.316,192.706&#xA;		c0.013,2.084,4.564,2.511,4.68-0.115v-0.662l5.119-0.026l0.013,2.737c0.047,1.819-0.709,3.796-3.783,4.855&#xA;		c-3.262,1.016-5.303,0.406-7.207,0c-2.506-0.918-3.723-2.912-3.838-5.721v-11.332c-0.115-2.126,1.072-3.979,3.121-5.329&#xA;		c3.497-1.529,5.418-1.119,8.04-0.209c2.511,1.366,3.638,3.057,3.668,5.418v7.19h-9.803L93.316,192.706L93.316,192.706z&#xA;		 M93.542,184.658l4.637,0.017C99.135,180.615,92.765,180.089,93.542,184.658z"/>
</g>
</svg>