<?xml version="1.0" encoding="utf-8"?>
<svg xmlns="http://www.w3.org/2000/svg" xmlns:xlink="http://www.w3.org/1999/xlink" version="1.1" id="Layer_1" x="0px" y="0px" viewBox="0 0 479.87 340.138" enable-background="new 0 0 479.87 340.138">
<g>
	<path fill="#FFFFFE" d="M154.954,198.431c0.47,5.637,2.473,16.854,8.955,29.37c8.01,15.456,24.79,36.065,59.399,47.737&#xA;		c5.493,8.626,11.956,16.689,19.273,23.985c26.308,26.246,61.256,40.674,98.405,40.615c37.154-0.053,72.058-14.578,98.288-40.906&#xA;		c26.23-26.318,40.655-61.287,40.596-98.458c-0.058-37.181-14.575-72.105-40.878-98.351C418.148,81.625,392,68.245,363.234,63.603&#xA;		c-38.943-35.284-84.407-22.641-86.356-22.074c-0.655,0.184-1.629,0.466-2.841,0.834c-13.993,4.657-21.227-0.679-25.915-4.356&#xA;		c-5.193-4.075-10.861-8.213-16.33-11.289c-18.575-10.455-44.975-10.828-67.21-1.858c-14.647,4.992-22.032-1.465-26.4-4.483&#xA;		C109.174,0.351,73.508-4.428,35.67,3.907C10.191,9.525,0,14.711,0,14.711s17.455,2.532,35.69,10.159&#xA;		c14.972,6.258,26.875,14.292,35.888,28.72c0,0,5.673,8.335,1.988,10.794c-4.126,2.751-8.422-3.983-8.422-3.983&#xA;		c-0.141,4.846-0.141,9.669,0.179,13.331c2.095,38.486,9.939,61.602,28.49,79.266c8.441,8.034,22.681,15.849,44.684,24.499&#xA;		c10.036,4.017,15.467,9.164,16.456,20.933"/>
	<path fill="#002244" d="M432.719,108.71c-20.179-20.133-45.794-32.834-73.518-36.734c-36.145-34.605-79.855-21.923-79.855-21.923&#xA;		c9.261,1.378,15.413,6.903,13.042,13.026c-1.576,4.046-8.301,4.259-11.375,4.289c-9.765,0.107-18.196-5.885-24.926-11.357&#xA;		c-6.996-5.695-18.415-15.801-28.645-21.554c-19.045-10.717-49.285-9.382-71.171,4.599c13.086,0.888,28.834,4.657,38.225,12.439&#xA;		c5.241,4.347,11.927,13.084,6.458,17.164c-4.805,3.59-16.611,1.737-22.613-1.742c-9.542-5.526-18.138-13.904-23.287-19.978&#xA;		C120.412,6.105,71.335,3.825,30.86,13.829c26.565,7.461,44.291,22.602,55.239,48.703c10.953,26.1,19.457,37.21,37.498,44.283&#xA;		c11.297,4.424,14.352,5.244,13.469,10.256c-1.299,7.335-14.681,3.813-24.887-0.175c-12.436-4.856-28.819-18.27-38.575-43.429&#xA;		c1.775,32.552,7.981,55.635,26.318,73.1c7.792,7.413,22.099,15.083,44.49,23.704c14.293,5.506,25.61,8.839,36.257,18.382&#xA;		c12.417,11.129,7.127,18.479-1.11,17.086c-9.319-1.572-15.971-11.095-15.971-11.095s0.015,53.035,65.532,73.449&#xA;		c5.455,9.053,12.048,17.494,19.724,25.144c24.63,24.577,57.348,38.078,92.126,38.025c34.783-0.053,67.462-13.647,92.024-38.296&#xA;		c24.558-24.645,38.061-57.382,38.002-92.185c-0.048-34.799-13.644-67.497-38.279-92.069"/>
	<path fill="#4B92DB" d="M425.8,115.308c-19.544-19.551-44.63-31.538-71.704-34.503c-23.297-23.233-46.541-22.141-46.541-22.141&#xA;		c10.201,6.399,4.941,20.642-17.75,23.781c-22.473,3.105-51.016-4.517-64.916-20.72c-14.327-16.698-25.144-17.46-25.144-17.46&#xA;		c12.427,7.767,13.309,17.091,20.853,31.296c7.544,14.21,23.074,19.308,36.601,20.196c14.25,0.936,14.599,7.389,3.108,14.21&#xA;		c-12.533,7.432-23.627,0.408-31.69-7.539c-12.732-12.565-25.411-14.971-42.933-14.748c-17.522,0.223-40.684,2.528-60.238-4.793&#xA;		C105.892,75.561,93,49.815,93,49.815c9.668,34.182,31.152,50.386,51.093,54.301c26.342,5.167,44.553,11.439,55.695,20.468&#xA;		c10.88,8.829,16.674,17.635,20.761,29.787c3.156,9.368,3.719,21.807,0.606,22.554c-3.632,0.864-4.378-4.143-8.659-12.875&#xA;		c-4.727-9.644-10.371-17.213-21.755-23.286c-15.428-8.233-30.526-7.757-45.92-7.544c-12.194,0.17-19.345-1.227-19.345-1.227&#xA;		s0.509,1.649,20.378,6.113c22.138,4.968,43.554,17.455,57.808,47.897c12.126,25.892,5.799,44.113-21.067,35.866&#xA;		c0,0,12.548,27.91,53.532,37.85c5.29,9.305,11.864,17.955,19.632,25.731c22.71,22.719,52.902,35.23,85.018,35.23&#xA;		s62.303-12.512,85.023-35.23c22.705-22.728,35.21-52.938,35.21-85.078c0-32.13-12.504-62.34-35.21-85.063"/>
	<path fill="#FFFFFE" d="M340.777,85.953c30.545,0,59.263,11.9,80.863,33.513c21.605,21.613,33.498,50.347,33.498,80.906&#xA;		c0,63.096-51.302,114.433-114.361,114.433c-30.545,0-59.263-11.905-80.868-33.518c-21.6-21.613-33.493-50.347-33.493-80.915&#xA;		c0-30.559,11.893-59.293,33.493-80.906C281.514,97.853,310.231,85.953,340.777,85.953"/>
	<path fill="#002244" d="M340.922,304.932c-57.702,0.087-104.558-46.655-104.645-104.396&#xA;		c-0.082-57.745,46.638-104.624,104.344-104.706c57.707-0.087,104.562,46.66,104.645,104.401&#xA;		C445.353,257.976,398.638,304.855,340.922,304.932"/>
	<path fill="#FFFFFE" d="M315.225,179.224h-30.967l-10.206,18.207l-13.726-38.936h160.606l-13.702,38.936l-10.124-18.207h-30.443&#xA;		l-25.784,112.867L315.225,179.224"/>
	<path fill="#A5ACAF" d="M420.932,158.495H260.326l2.603,7.379h76.582l-24.286,13.35l25.654,112.852V165.874h77.459L420.932,158.495"/>
	<path fill="#C60C30" d="M261.931,68.187c-23.287-0.665-32.781-9.906-47.248-21.53c-17.702-14.229-37.338-10.265-37.338-10.265&#xA;		c11.758-6.734,34.88-7.01,51.535,7.602c14.88,13.055,22.182,20.138,33.052,24.194L261.931,68.187z M63.138,16.86&#xA;		c25.964-4.803,47.733,3.318,64.194,32.509c16.107,28.56,45.542,29.321,45.542,29.321c-22.347,6.336-52.887,0.582-68.897-28.162&#xA;		C84.932,16.331,63.138,16.86,63.138,16.86L63.138,16.86z M186.503,182.431c-12.795-17.703-32.887-21.918-60.272-29.263&#xA;		c-39.21-10.518-39.515-44.734-39.515-44.734s5.872,23.728,51.438,33.004C183.419,150.656,186.503,182.432,186.503,182.431&#xA;		L186.503,182.431z M356.471,148.438l-15.695-11.274l-15.525,11.517l5.872-18.421l-15.743-11.207l19.321-0.233l5.794-18.323&#xA;		l6.07,18.323h19.326l-15.578,11.289l6.158,18.328L356.471,148.438z M287.526,213.242l-1.915,19.245l17.731,7.689l-18.88,4.119&#xA;		l-1.828,19.25l-9.76-16.689l-18.856,4.206l12.848-14.442l-9.823-16.65l17.692,7.767l12.79-14.496L287.526,213.242z&#xA;		 M378.081,240.594l17.615-7.966l-2.206-19.211l13.008,14.297l17.566-8.034l-9.561,16.795l13.067,14.239l-18.919-3.91l-9.498,16.839&#xA;		l-2.124-19.216L378.081,240.594z"/>
</g>
</svg>